<?xml version="1.0" encoding="utf-8"?>
<!-- Generator: Adobe Illustrator 21.1.0, SVG Export Plug-In . SVG Version: 6.00 Build 0)  -->
<svg version="1.1" id="Layer_1" xmlns:svg="http://www.w3.org/2000/svg"
	 xmlns="http://www.w3.org/2000/svg" xmlns:xlink="http://www.w3.org/1999/xlink" x="0px" y="0px" viewBox="0 0 225.5 145.6"
	 style="enable-background:new 0 0 225.5 145.6;" xml:space="preserve">
<style type="text/css">
	.st0{fill:#F2F2F2;stroke:#000000;stroke-width:0.45;stroke-linecap:round;}
	.st1{fill:none;stroke:#000000;stroke-width:0.5669;stroke-linecap:round;stroke-linejoin:round;}
	.st2{fill:#B1B1B1;}
	.st3{font-family:'ArialMT';}
	.st4{font-size:3px;}
	.st5{fill:#E6E6E6;stroke:#000000;stroke-width:8.240000e-02;stroke-opacity:0.5873;}
	.st6{fill:#1423FF;}
	.st7{fill:#FF0000;}
	.st8{fill:#00FF0B;}
	.st9{fill:#6C5D53;}
	.st10{fill:#FF9955;}
	.st11{fill-opacity:0.8624;}
	.st12{fill:none;stroke:#000000;stroke-width:0.2338;stroke-linecap:round;}
</style>
<g>
	<g>
		<g>
			<g>
				<path id="path5607" class="st0" d="M4.5,14.5h108l-9,34h-99 M4.5,48.5v-34"/>
			</g>
		</g>
	</g>
</g>
<line class="st1" x1="51.7" y1="16.8" x2="51.7" y2="46.2"/>
<line class="st1" x1="99" y1="16.8" x2="99" y2="46.2"/>
<g>
	<g>
		<g>
			<g>
				<path id="path7626" class="st0" d="M220.5,48.5h-108l9-34h99 M220.5,14.5v34"/>
			</g>
		</g>
	</g>
</g>
<rect x="20.9" y="21.2" class="st2" width="3.4" height="20.4"/>
<rect x="26.4" y="21.2" class="st2" width="3.4" height="20.4"/>
<rect x="31.9" y="21.2" class="st2" width="3.4" height="20.4"/>
<rect x="68.1" y="21.2" class="st2" width="3.4" height="20.4"/>
<rect x="73.7" y="21.2" class="st2" width="3.4" height="20.4"/>
<rect x="79.2" y="21.2" class="st2" width="3.4" height="20.4"/>
<rect x="142.4" y="21.2" class="st2" width="3.4" height="20.4"/>
<rect x="147.9" y="21.2" class="st2" width="3.4" height="20.4"/>
<rect x="153.5" y="21.2" class="st2" width="3.4" height="20.4"/>
<rect x="189.7" y="21.2" class="st2" width="3.4" height="20.4"/>
<rect x="195.2" y="21.2" class="st2" width="3.4" height="20.4"/>
<rect x="200.7" y="21.2" class="st2" width="3.4" height="20.4"/>
<line class="st1" x1="173.3" y1="16.8" x2="173.3" y2="46.2"/>
<line class="st1" x1="126" y1="16.8" x2="126" y2="46.2"/>
<g transform="matrix(1, 0, 0, 1, 11.0244, 430.775)">
	<g>
		<g>
			<g>
				<text id="tspan6341" transform="matrix(1 0 0 1 5.023438e-04 -387)" class="st3 st4">GND</text>
			</g>
		</g>
	</g>
</g>
<g transform="matrix(1, 0, 0, 1, 11.0246, 408.825)">
	<g>
		<g>
			<g>
				<text id="tspan6345" transform="matrix(1 0 0 1 5.464844e-04 -387)" class="st3 st4">VCC</text>
			</g>
		</g>
	</g>
</g>
<g transform="matrix(0, -1, 1, 0, 14.6303, 417.758)">
	<g>
		<g>
			<g>
				<text id="tspan6357" transform="matrix(1 0 0 1 387.0004 5.593750e-04)" class="st3 st4">CI</text>
			</g>
		</g>
	</g>
</g>
<g transform="matrix(0, -1, 1, 0, 14.6303, 424.561)">
	<g>
		<g>
			<g>
				<text id="tspan6357_1_" transform="matrix(1 0 0 1 386.9997 5.593750e-04)" class="st3 st4">DI</text>
			</g>
		</g>
	</g>
</g>
<g transform="matrix(1, 0, 0, 1, 36.9496, 430.775)">
	<g>
		<g>
			<g>
				<text id="tspan6341_6_" transform="matrix(1 0 0 1 5.342774e-04 -387)" class="st3 st4">GND</text>
			</g>
		</g>
	</g>
</g>
<g transform="matrix(1, 0, 0, 1, 36.9497, 408.825)">
	<g>
		<g>
			<g>
				<text id="tspan6345_6_" transform="matrix(1 0 0 1 4.963125e-04 -387)" class="st3 st4">VCC</text>
			</g>
		</g>
	</g>
</g>
<g transform="matrix(0, -1, 1, 0, 44.5417, 417.758)">
	<g>
		<g>
			<g>
				<text id="tspan6357_9_" transform="matrix(1 0 0 1 387.0004 5.383281e-04)" class="st3 st4">CO</text>
			</g>
		</g>
	</g>
</g>
<g transform="matrix(0, -1, 1, 0, 44.5417, 424.561)">
	<g>
		<g>
			<g>
				<text id="tspan6357_8_" transform="matrix(1 0 0 1 386.9997 5.383281e-04)" class="st3 st4">DO</text>
			</g>
		</g>
	</g>
</g>
<g>
	<g>
		<g>
			<g>
				<g id="g6613">
					<g transform="matrix(0.2425, -0.9701, 0.9701, 0.2425, -344.746, 447.389)">
						<g>
							<g>
								<g>
									
										<ellipse id="circle6615" transform="matrix(-1 2.524750e-06 -2.524750e-06 -1 972.8878 675.993)" cx="486.4" cy="338" rx="0.4" ry="0.4"/>
								</g>
							</g>
						</g>
					</g>
					<g transform="matrix(0.2425, -0.9701, 0.9701, 0.2425, -342.957, 446.624)">
						<g>
							<g>
								<g>
									
										<ellipse id="circle6617" transform="matrix(-1 2.524750e-06 -2.524750e-06 -1 973.6957 672.937)" cx="486.8" cy="336.5" rx="0.4" ry="0.4"/>
								</g>
							</g>
						</g>
					</g>
					<g transform="matrix(0.2425, -0.9701, 0.9701, 0.2425, -341.169, 445.859)">
						<g>
							<g>
								<g>
									
										<ellipse id="circle6619" transform="matrix(-1 2.524750e-06 -2.524750e-06 -1 974.5037 669.881)" cx="487.3" cy="334.9" rx="0.4" ry="0.4"/>
								</g>
							</g>
						</g>
					</g>
				</g>
			</g>
		</g>
	</g>
</g>
<g>
	<g>
		<g>
			<g>
				<g id="g6613_1_">
					<g transform="matrix(0.2425, -0.9701, 0.9701, 0.2425, -337.928, 456.12)">
						<g>
							<g>
								<g>
									
										<ellipse id="circle6615_1_" transform="matrix(-1 2.524750e-06 -2.524750e-06 -1 990.8878 675.9929)" cx="495.4" cy="338" rx="0.4" ry="0.4"/>
								</g>
							</g>
						</g>
					</g>
					<g transform="matrix(0.2425, -0.9701, 0.9701, 0.2425, -336.14, 455.355)">
						<g>
							<g>
								<g>
									
										<ellipse id="circle6617_1_" transform="matrix(-1 2.524750e-06 -2.524750e-06 -1 991.6957 672.9369)" cx="495.8" cy="336.5" rx="0.4" ry="0.4"/>
								</g>
							</g>
						</g>
					</g>
					<g transform="matrix(0.2425, -0.9701, 0.9701, 0.2425, -334.351, 454.59)">
						<g>
							<g>
								<g>
									
										<ellipse id="circle6619_1_" transform="matrix(-1 2.524750e-06 -2.524750e-06 -1 992.5037 669.8809)" cx="496.3" cy="334.9" rx="0.4" ry="0.4"/>
								</g>
							</g>
						</g>
					</g>
				</g>
			</g>
		</g>
	</g>
</g>
<g>
	<g>
		<g transform="matrix(-2.53518e-06, -1, 1, -2.53518e-06, -403.966, 449.062)">
			<g>
				<g>
					<g>
						
							<rect id="rect10249" x="409.1" y="423.6" transform="matrix(4.648184e-07 -1 1 4.648184e-07 -14.4783 849.7037)" class="st5" width="17" height="17"/>
					</g>
				</g>
			</g>
		</g>
	</g>
</g>
<path id="path10251" class="st2" d="M28.1,25.1c3.5,0,6.4,2.9,6.4,6.4s-2.9,6.4-6.4,6.4l0,0c-3.5,0-6.4-2.9-6.4-6.4
	S24.6,25.1,28.1,25.1z"/>
<g>
	<g>
		<path id="path10253" class="st6" d="M31.9,29.3c1.2,0,2.1,1,2.1,2.1s-1,2.1-2.1,2.1c-1.2,0-2.1-1-2.1-2.1S30.8,29.3,31.9,29.3z"/>
	</g>
</g>
<g>
	<g>
		<path id="path10255" class="st7" d="M28.1,33.1c1.2,0,2.1,1,2.1,2.1s-1,2.1-2.1,2.1c-1.2,0-2.1-1-2.1-2.1S26.9,33.1,28.1,33.1z"/>
	</g>
</g>
<g>
	<g>
		<path id="path10257" class="st8" d="M24.3,29.3c1.2,0,2.1,1,2.1,2.1s-1,2.1-2.1,2.1c-1.2,0-2.1-1-2.1-2.1S23.1,29.3,24.3,29.3z"/>
	</g>
</g>
<rect x="26.3" y="26.2" class="st9" width="3.7" height="3.7"/>
<g transform="matrix(0.2425, -0.9701, 0.9701, 0.2425, -297.381, 410.301)">
	<g>
		<g>
			<g>
				
					<ellipse id="circle6606" transform="matrix(-1 2.524750e-06 -2.524750e-06 -1 979.0573 603.4661)" cx="489.5" cy="301.7" rx="0.4" ry="0.4"/>
			</g>
		</g>
	</g>
</g>
<g transform="matrix(0.2425, -0.9701, 0.9701, 0.2425, -295.593, 409.536)">
	<g>
		<g>
			<g>
				
					<ellipse id="circle6608" transform="matrix(-1 2.524750e-06 -2.524750e-06 -1 979.8653 600.4101)" cx="489.9" cy="300.2" rx="0.4" ry="0.4"/>
			</g>
		</g>
	</g>
</g>
<g transform="matrix(0.2425, -0.9701, 0.9701, 0.2425, -293.804, 408.771)">
	<g>
		<g>
			<g>
				
					<ellipse id="circle6610" transform="matrix(-1 2.524750e-06 -2.524750e-06 -1 980.6733 597.3541)" cx="490.3" cy="298.7" rx="0.4" ry="0.4"/>
			</g>
		</g>
	</g>
</g>
<g transform="matrix(0.2425, -0.9701, 0.9701, 0.2425, -290.564, 419.033)">
	<g>
		<g>
			<g>
				
					<ellipse id="circle6606_1_" transform="matrix(-1 2.524750e-06 -2.524750e-06 -1 997.0573 603.466)" cx="498.5" cy="301.7" rx="0.4" ry="0.4"/>
			</g>
		</g>
	</g>
</g>
<g transform="matrix(0.2425, -0.9701, 0.9701, 0.2425, -288.776, 418.268)">
	<g>
		<g>
			<g>
				
					<ellipse id="circle6608_1_" transform="matrix(-1 2.524750e-06 -2.524750e-06 -1 997.8653 600.41)" cx="498.9" cy="300.2" rx="0.4" ry="0.4"/>
			</g>
		</g>
	</g>
</g>
<g transform="matrix(0.2425, -0.9701, 0.9701, 0.2425, -286.987, 417.502)">
	<g>
		<g>
			<g>
				
					<ellipse id="circle6610_1_" transform="matrix(-1 2.524750e-06 -2.524750e-06 -1 998.6733 597.354)" cx="499.3" cy="298.7" rx="0.4" ry="0.4"/>
			</g>
		</g>
	</g>
</g>
<polygon points="28.7,46.8 28.7,44.9 32.6,44.9 32.6,43.7 34.7,45.9 32.6,48 32.6,46.8 "/>
<g transform="matrix(1, 0, 0, 1, 58.2686, 430.775)">
	<g>
		<g>
			<g>
				<text id="tspan6341_1_" transform="matrix(1 0 0 1 5.040039e-04 -387)" class="st3 st4">GND</text>
			</g>
		</g>
	</g>
</g>
<g transform="matrix(1, 0, 0, 1, 58.2688, 408.825)">
	<g>
		<g>
			<g>
				<text id="tspan6345_1_" transform="matrix(1 0 0 1 5.491445e-04 -387)" class="st3 st4">VCC</text>
			</g>
		</g>
	</g>
</g>
<g transform="matrix(0, -1, 1, 0, 61.8745, 417.758)">
	<g>
		<g>
			<g>
				<text id="tspan6357_7_" transform="matrix(1 0 0 1 387.0004 5.000000e-04)" class="st3 st4">CI</text>
			</g>
		</g>
	</g>
</g>
<g transform="matrix(0, -1, 1, 0, 61.8745, 424.561)">
	<g>
		<g>
			<g>
				<text id="tspan6357_6_" transform="matrix(1 0 0 1 386.9997 5.000000e-04)" class="st3 st4">DI</text>
			</g>
		</g>
	</g>
</g>
<path class="st10" d="M55,24.2h-6.5c-1.6,0-3-1.3-3-3l0,0c0-1.6,1.3-3,3-3H55c1.6,0,3,1.3,3,3l0,0C58,22.9,56.6,24.2,55,24.2z"/>
<path class="st10" d="M56,30.1h-8.5c-1.1,0-2-0.9-2-2l0,0c0-1.1,0.9-2,2-2H56c1.1,0,2,0.9,2,2l0,0C58,29.2,57.1,30.1,56,30.1z"/>
<path class="st10" d="M56,36.9h-8.5c-1.1,0-2-0.9-2-2l0,0c0-1.1,0.9-2,2-2H56c1.1,0,2,0.9,2,2l0,0C58,36,57.1,36.9,56,36.9z"/>
<path class="st10" d="M55,44.6h-6.5c-1.6,0-3-1.3-3-3l0,0c0-1.6,1.3-3,3-3H55c1.6,0,3,1.3,3,3l0,0C58,43.3,56.6,44.6,55,44.6z"/>
<g>
	<g>
		<g>
			<g>
				<path class="st11" d="M49,21.2c0,0.4-0.3,0.7-0.7,0.7s-0.7-0.3-0.7-0.7l0,0c0-0.4,0.3-0.7,0.7-0.7S49,20.9,49,21.2z"/>
			</g>
		</g>
	</g>
</g>
<g>
	<g>
		<g>
			<g>
				<path class="st11" d="M49,28c0,0.4-0.3,0.7-0.7,0.7s-0.7-0.3-0.7-0.7l0,0c0-0.4,0.3-0.7,0.7-0.7S49,27.7,49,28z"/>
			</g>
		</g>
	</g>
</g>
<g>
	<g>
		<g>
			<g>
				<path class="st11" d="M49,34.9c0,0.4-0.3,0.7-0.7,0.7s-0.7-0.3-0.7-0.7l0,0c0-0.4,0.3-0.7,0.7-0.7S49,34.5,49,34.9z"/>
			</g>
		</g>
	</g>
</g>
<g>
	<g>
		<g>
			<g>
				<path class="st11" d="M49,41.7c0,0.4-0.3,0.7-0.7,0.7s-0.7-0.3-0.7-0.7l0,0c0-0.4,0.3-0.7,0.7-0.7S49,41.3,49,41.7z"/>
			</g>
		</g>
	</g>
</g>
<g>
	<g>
		<g>
			<g>
				<path class="st11" d="M55.8,21.2c0,0.4-0.3,0.7-0.7,0.7s-0.7-0.3-0.7-0.7l0,0c0-0.4,0.3-0.7,0.7-0.7S55.8,20.9,55.8,21.2z"/>
			</g>
		</g>
	</g>
</g>
<g>
	<g>
		<g>
			<g>
				<path class="st11" d="M55.8,28c0,0.4-0.3,0.7-0.7,0.7s-0.7-0.3-0.7-0.7l0,0c0-0.4,0.3-0.7,0.7-0.7S55.8,27.7,55.8,28z"/>
			</g>
		</g>
	</g>
</g>
<g>
	<g>
		<g>
			<g>
				<path class="st11" d="M55.8,34.9c0,0.4-0.3,0.7-0.7,0.7s-0.7-0.3-0.7-0.7l0,0c0-0.4,0.3-0.7,0.7-0.7S55.8,34.5,55.8,34.9z"/>
			</g>
		</g>
	</g>
</g>
<g>
	<g>
		<g>
			<g>
				<path class="st11" d="M55.8,41.7c0,0.4-0.3,0.7-0.7,0.7s-0.7-0.3-0.7-0.7l0,0c0-0.4,0.3-0.7,0.7-0.7S55.8,41.3,55.8,41.7z"/>
			</g>
		</g>
	</g>
</g>
<g transform="matrix(1, 0, 0, 1, 84.1936, 430.775)">
	<g>
		<g>
			<g>
				<text id="tspan6341_7_" transform="matrix(1 0 0 1 5.488321e-04 -387)" class="st3 st4">GND</text>
			</g>
		</g>
	</g>
</g>
<g transform="matrix(1, 0, 0, 1, 84.1938, 408.825)">
	<g>
		<g>
			<g>
				<text id="tspan6345_7_" transform="matrix(1 0 0 1 5.339375e-04 -387)" class="st3 st4">VCC</text>
			</g>
		</g>
	</g>
</g>
<g transform="matrix(0, -1, 1, 0, 91.7857, 417.758)">
	<g>
		<g>
			<g>
				<text id="tspan6357_12_" transform="matrix(1 0 0 1 387.0004 5.568828e-04)" class="st3 st4">CO</text>
			</g>
		</g>
	</g>
</g>
<g transform="matrix(0, -1, 1, 0, 91.7857, 424.561)">
	<g>
		<g>
			<g>
				<text id="tspan6357_11_" transform="matrix(1 0 0 1 386.9997 5.568828e-04)" class="st3 st4">DO</text>
			</g>
		</g>
	</g>
</g>
<g>
	<g>
		<g>
			<g>
				<g id="g10231_1_">
					<g transform="matrix(1, 0, 0, 1, 0, -405)">
						<g>
							<g>
								<g>
									<g>
										<g transform="matrix(-2.53518e-06, -1, 1, -2.53518e-06, -447.206, 492.302)">
											<g>
												<g>
													<g>
														
															<rect id="rect10249_1_" x="47.3" y="514.1" transform="matrix(4.648184e-07 -1 1 4.648184e-07 -466.7198 578.4269)" class="st5" width="17" height="17"/>
													</g>
												</g>
											</g>
										</g>
									</g>
								</g>
							</g>
						</g>
					</g>
					<path id="path10251_1_" class="st2" d="M75.4,25.1c3.5,0,6.4,2.9,6.4,6.4s-2.9,6.4-6.4,6.4l0,0c-3.5,0-6.4-2.9-6.4-6.4
						S71.8,25.1,75.4,25.1z"/>
					<g transform="matrix(1, 0, 0, 1, 18, -13.95)">
						<g>
							<g>
								<g>
									<g>
										<path id="path10253_1_" class="st6" d="M61.2,43.3c1.2,0,2.1,1,2.1,2.1s-1,2.1-2.1,2.1s-2.1-1-2.1-2.1S60,43.3,61.2,43.3z
											"/>
									</g>
								</g>
							</g>
						</g>
					</g>
					<g transform="matrix(1, 0, 0, 1, 13.95, -18)">
						<g>
							<g>
								<g>
									<g>
										<path id="path10255_1_" class="st7" d="M61.4,51.1c1.2,0,2.1,1,2.1,2.1s-1,2.1-2.1,2.1s-2.1-1-2.1-2.1
											S60.2,51.1,61.4,51.1z"/>
									</g>
								</g>
							</g>
						</g>
					</g>
					<g transform="matrix(1, 0, 0, 1, 18, -22.05)">
						<g>
							<g>
								<g>
									<g>
										<path id="path10257_1_" class="st8" d="M53.5,51.4c1.2,0,2.1,1,2.1,2.1s-1,2.1-2.1,2.1c-1.2,0-2.1-1-2.1-2.1
											S52.4,51.4,53.5,51.4z"/>
									</g>
								</g>
							</g>
						</g>
					</g>
					<g>
						<rect x="73.5" y="26.2" class="st9" width="3.7" height="3.7"/>
					</g>
				</g>
			</g>
		</g>
	</g>
</g>
<polygon points="75.9,46.8 75.9,44.9 79.8,44.9 79.8,43.7 81.9,45.9 79.8,48 79.8,46.8 "/>
<path class="st10" d="M102.2,24.2h-6.5c-1.6,0-3-1.3-3-3l0,0c0-1.6,1.3-3,3-3h6.5c1.6,0,3,1.3,3,3l0,0
	C105.2,22.9,103.9,24.2,102.2,24.2z"/>
<path class="st10" d="M103.2,30.1h-8.5c-1.1,0-2-0.9-2-2l0,0c0-1.1,0.9-2,2-2h8.5c1.1,0,2,0.9,2,2l0,0
	C105.2,29.2,104.3,30.1,103.2,30.1z"/>
<path class="st10" d="M103.2,36.9h-8.5c-1.1,0-2-0.9-2-2l0,0c0-1.1,0.9-2,2-2h8.5c1.1,0,2,0.9,2,2l0,0
	C105.2,36,104.3,36.9,103.2,36.9z"/>
<path class="st10" d="M102.2,44.6h-6.5c-1.6,0-3-1.3-3-3l0,0c0-1.6,1.3-3,3-3h6.5c1.6,0,3,1.3,3,3l0,0
	C105.2,43.3,103.9,44.6,102.2,44.6z"/>
<g>
	<g>
		<g>
			<g>
				<path class="st11" d="M96.3,21.2c0,0.4-0.3,0.7-0.7,0.7s-0.7-0.3-0.7-0.7l0,0c0-0.4,0.3-0.7,0.7-0.7S96.3,20.9,96.3,21.2z"/>
			</g>
		</g>
	</g>
</g>
<g>
	<g>
		<g>
			<g>
				<path class="st11" d="M96.3,28c0,0.4-0.3,0.7-0.7,0.7s-0.7-0.3-0.7-0.7l0,0c0-0.4,0.3-0.7,0.7-0.7S96.3,27.7,96.3,28z"/>
			</g>
		</g>
	</g>
</g>
<g>
	<g>
		<g>
			<g>
				<path class="st11" d="M96.3,34.9c0,0.4-0.3,0.7-0.7,0.7s-0.7-0.3-0.7-0.7l0,0c0-0.4,0.3-0.7,0.7-0.7S96.3,34.5,96.3,34.9z"/>
			</g>
		</g>
	</g>
</g>
<g>
	<g>
		<g>
			<g>
				<path class="st11" d="M96.3,41.7c0,0.4-0.3,0.7-0.7,0.7s-0.7-0.3-0.7-0.7l0,0c0-0.4,0.3-0.7,0.7-0.7S96.3,41.3,96.3,41.7z"/>
			</g>
		</g>
	</g>
</g>
<g>
	<g>
		<g>
			<g>
				<path class="st11" d="M103.1,21.2c0,0.4-0.3,0.7-0.7,0.7s-0.7-0.3-0.7-0.7l0,0c0-0.4,0.3-0.7,0.7-0.7S103.1,20.9,103.1,21.2z"/>
			</g>
		</g>
	</g>
</g>
<g>
	<g>
		<g>
			<g>
				<path class="st11" d="M103.1,28c0,0.4-0.3,0.7-0.7,0.7s-0.7-0.3-0.7-0.7l0,0c0-0.4,0.3-0.7,0.7-0.7
					C102.8,27.4,103.1,27.7,103.1,28z"/>
			</g>
		</g>
	</g>
</g>
<g>
	<g>
		<g>
			<g>
				<path class="st11" d="M103.1,34.9c0,0.4-0.3,0.7-0.7,0.7s-0.7-0.3-0.7-0.7l0,0c0-0.4,0.3-0.7,0.7-0.7S103.1,34.5,103.1,34.9z"/>
			</g>
		</g>
	</g>
</g>
<g>
	<g>
		<g>
			<g>
				<path class="st11" d="M103.1,41.7c0,0.4-0.3,0.7-0.7,0.7s-0.7-0.3-0.7-0.7l0,0c0-0.4,0.3-0.7,0.7-0.7S103.1,41.3,103.1,41.7z"/>
			</g>
		</g>
	</g>
</g>
<g transform="matrix(1, 0, 0, 1, 179.78, 430.775)">
	<g>
		<g>
			<g>
				<text id="tspan6341_3_" transform="matrix(1 0 0 1 5.185781e-04 -387)" class="st3 st4">GND</text>
			</g>
		</g>
	</g>
</g>
<g transform="matrix(1, 0, 0, 1, 179.78, 408.825)">
	<g>
		<g>
			<g>
				<text id="tspan6345_3_" transform="matrix(1 0 0 1 5.185781e-04 -387)" class="st3 st4">VCC</text>
			</g>
		</g>
	</g>
</g>
<g transform="matrix(0, -1, 1, 0, 183.386, 417.758)">
	<g>
		<g>
			<g>
				<text id="tspan6357_5_" transform="matrix(1 0 0 1 387.0004 5.336445e-04)" class="st3 st4">CI</text>
			</g>
		</g>
	</g>
</g>
<g transform="matrix(0, -1, 1, 0, 183.386, 424.561)">
	<g>
		<g>
			<g>
				<text id="tspan6357_4_" transform="matrix(1 0 0 1 386.9997 5.336445e-04)" class="st3 st4">DI</text>
			</g>
		</g>
	</g>
</g>
<g transform="matrix(1, 0, 0, 1, 205.705, 430.775)">
	<g>
		<g>
			<g>
				<text id="tspan6341_2_" transform="matrix(1 0 0 1 5.644063e-04 -387)" class="st3 st4">GND</text>
			</g>
		</g>
	</g>
</g>
<g transform="matrix(1, 0, 0, 1, 205.706, 408.825)">
	<g>
		<g>
			<g>
				<text id="tspan6345_2_" transform="matrix(1 0 0 1 5.489687e-04 -387)" class="st3 st4">VCC</text>
			</g>
		</g>
	</g>
</g>
<g transform="matrix(0, -1, 1, 0, 213.298, 417.758)">
	<g>
		<g>
			<g>
				<text id="tspan6357_3_" transform="matrix(1 0 0 1 387.0004 5.189492e-04)" class="st3 st4">CO</text>
			</g>
		</g>
	</g>
</g>
<g transform="matrix(0, -1, 1, 0, 213.298, 424.561)">
	<g>
		<g>
			<g>
				<text id="tspan6357_2_" transform="matrix(1 0 0 1 386.9997 5.189492e-04)" class="st3 st4">DO</text>
			</g>
		</g>
	</g>
</g>
<g>
	<g>
		<g>
			<g>
				<g id="g10231_2_">
					<g transform="matrix(1, 0, 0, 1, 0, -405)">
						<g>
							<g>
								<g>
									<g>
										<g transform="matrix(-2.53518e-06, -1, 1, -2.53518e-06, -558.42, 603.517)">
											<g>
												<g>
													<g>
														
															<rect id="rect10249_4_" x="158.6" y="746.8" transform="matrix(4.648184e-07 -1 1 4.648184e-07 -588.2322 922.3679)" class="st5" width="17" height="17"/>
													</g>
												</g>
											</g>
										</g>
									</g>
								</g>
							</g>
						</g>
					</g>
					<path id="path10251_4_" class="st2" d="M196.9,25.1c3.5,0,6.4,2.9,6.4,6.4s-2.9,6.4-6.4,6.4l0,0c-3.5,0-6.4-2.9-6.4-6.4
						S193.4,25.1,196.9,25.1z"/>
					<g transform="matrix(1, 0, 0, 1, 18, -13.95)">
						<g>
							<g>
								<g>
									<g>
										<path id="path10253_4_" class="st6" d="M182.7,43.3c1.2,0,2.1,1,2.1,2.1s-1,2.1-2.1,2.1c-1.2,0-2.1-1-2.1-2.1
											S181.5,43.3,182.7,43.3z"/>
									</g>
								</g>
							</g>
						</g>
					</g>
					<g transform="matrix(1, 0, 0, 1, 13.95, -18)">
						<g>
							<g>
								<g>
									<g>
										<path id="path10255_4_" class="st7" d="M182.9,51.1c1.2,0,2.1,1,2.1,2.1s-1,2.1-2.1,2.1c-1.2,0-2.1-1-2.1-2.1
											S181.8,51.1,182.9,51.1z"/>
									</g>
								</g>
							</g>
						</g>
					</g>
					<g transform="matrix(1, 0, 0, 1, 18, -22.05)">
						<g>
							<g>
								<g>
									<g>
										<path id="path10257_4_" class="st8" d="M175.1,51.4c1.2,0,2.1,1,2.1,2.1s-1,2.1-2.1,2.1s-2.1-1-2.1-2.1
											S173.9,51.4,175.1,51.4z"/>
									</g>
								</g>
							</g>
						</g>
					</g>
					<g>
						<rect x="195" y="26.2" class="st9" width="3.7" height="3.7"/>
					</g>
				</g>
			</g>
		</g>
	</g>
</g>
<polygon points="197.4,46.8 197.4,44.9 201.3,44.9 201.3,43.7 203.4,45.9 201.3,48 201.3,46.8 "/>
<path class="st10" d="M176.5,24.2H170c-1.6,0-3-1.3-3-3l0,0c0-1.6,1.3-3,3-3h6.5c1.6,0,3,1.3,3,3l0,0
	C179.5,22.9,178.2,24.2,176.5,24.2z"/>
<path class="st10" d="M177.5,30.1H169c-1.1,0-2-0.9-2-2l0,0c0-1.1,0.9-2,2-2h8.5c1.1,0,2,0.9,2,2l0,0
	C179.5,29.2,178.6,30.1,177.5,30.1z"/>
<path class="st10" d="M177.5,36.9H169c-1.1,0-2-0.9-2-2l0,0c0-1.1,0.9-2,2-2h8.5c1.1,0,2,0.9,2,2l0,0
	C179.5,36,178.6,36.9,177.5,36.9z"/>
<path class="st10" d="M176.5,44.6H170c-1.6,0-3-1.3-3-3l0,0c0-1.6,1.3-3,3-3h6.5c1.6,0,3,1.3,3,3l0,0
	C179.5,43.3,178.2,44.6,176.5,44.6z"/>
<g>
	<g>
		<g>
			<g>
				<path class="st11" d="M170.5,21.2c0,0.4-0.3,0.7-0.7,0.7c-0.4,0-0.7-0.3-0.7-0.7l0,0c0-0.4,0.3-0.7,0.7-0.7
					C170.2,20.6,170.5,20.9,170.5,21.2z"/>
			</g>
		</g>
	</g>
</g>
<g>
	<g>
		<g>
			<g>
				<path class="st11" d="M170.5,28c0,0.4-0.3,0.7-0.7,0.7c-0.4,0-0.7-0.3-0.7-0.7l0,0c0-0.4,0.3-0.7,0.7-0.7
					C170.2,27.4,170.5,27.7,170.5,28z"/>
			</g>
		</g>
	</g>
</g>
<g>
	<g>
		<g>
			<g>
				<path class="st11" d="M170.5,34.9c0,0.4-0.3,0.7-0.7,0.7c-0.4,0-0.7-0.3-0.7-0.7l0,0c0-0.4,0.3-0.7,0.7-0.7
					C170.2,34.2,170.5,34.5,170.5,34.9z"/>
			</g>
		</g>
	</g>
</g>
<g>
	<g>
		<g>
			<g>
				<path class="st11" d="M170.5,41.7c0,0.4-0.3,0.7-0.7,0.7c-0.4,0-0.7-0.3-0.7-0.7l0,0c0-0.4,0.3-0.7,0.7-0.7
					C170.2,41,170.5,41.3,170.5,41.7z"/>
			</g>
		</g>
	</g>
</g>
<g>
	<g>
		<g>
			<g>
				<path class="st11" d="M177.3,21.2c0,0.4-0.3,0.7-0.7,0.7c-0.4,0-0.7-0.3-0.7-0.7l0,0c0-0.4,0.3-0.7,0.7-0.7
					C177,20.6,177.3,20.9,177.3,21.2z"/>
			</g>
		</g>
	</g>
</g>
<g>
	<g>
		<g>
			<g>
				<path class="st11" d="M177.3,28c0,0.4-0.3,0.7-0.7,0.7c-0.4,0-0.7-0.3-0.7-0.7l0,0c0-0.4,0.3-0.7,0.7-0.7
					C177,27.4,177.3,27.7,177.3,28z"/>
			</g>
		</g>
	</g>
</g>
<g>
	<g>
		<g>
			<g>
				<path class="st11" d="M177.3,34.9c0,0.4-0.3,0.7-0.7,0.7c-0.4,0-0.7-0.3-0.7-0.7l0,0c0-0.4,0.3-0.7,0.7-0.7
					C177,34.2,177.3,34.5,177.3,34.9z"/>
			</g>
		</g>
	</g>
</g>
<g>
	<g>
		<g>
			<g>
				<path class="st11" d="M177.3,41.7c0,0.4-0.3,0.7-0.7,0.7c-0.4,0-0.7-0.3-0.7-0.7l0,0c0-0.4,0.3-0.7,0.7-0.7
					C177,41,177.3,41.3,177.3,41.7z"/>
			</g>
		</g>
	</g>
</g>
<g transform="matrix(1, 0, 0, 1, 132.536, 430.775)">
	<g>
		<g>
			<g>
				<text id="tspan6341_5_" transform="matrix(1 0 0 1 5.040235e-04 -387)" class="st3 st4">GND</text>
			</g>
		</g>
	</g>
</g>
<g transform="matrix(1, 0, 0, 1, 132.536, 408.825)">
	<g>
		<g>
			<g>
				<text id="tspan6345_5_" transform="matrix(1 0 0 1 5.040235e-04 -387)" class="st3 st4">VCC</text>
			</g>
		</g>
	</g>
</g>
<g transform="matrix(0, -1, 1, 0, 136.142, 417.758)">
	<g>
		<g>
			<g>
				<text id="tspan6357_15_" transform="matrix(1 0 0 1 387.0004 5.190899e-04)" class="st3 st4">CI</text>
			</g>
		</g>
	</g>
</g>
<g transform="matrix(0, -1, 1, 0, 136.142, 424.561)">
	<g>
		<g>
			<g>
				<text id="tspan6357_14_" transform="matrix(1 0 0 1 386.9997 5.190899e-04)" class="st3 st4">DI</text>
			</g>
		</g>
	</g>
</g>
<g transform="matrix(1, 0, 0, 1, 158.461, 430.775)">
	<g>
		<g>
			<g>
				<text id="tspan6341_4_" transform="matrix(1 0 0 1 5.488516e-04 -387)" class="st3 st4">GND</text>
			</g>
		</g>
	</g>
</g>
<g transform="matrix(1, 0, 0, 1, 158.462, 408.825)">
	<g>
		<g>
			<g>
				<text id="tspan6345_4_" transform="matrix(1 0 0 1 5.184141e-04 -387)" class="st3 st4">VCC</text>
			</g>
		</g>
	</g>
</g>
<g transform="matrix(0, -1, 1, 0, 166.054, 417.758)">
	<g>
		<g>
			<g>
				<text id="tspan6357_13_" transform="matrix(1 0 0 1 387.0004 5.033945e-04)" class="st3 st4">CO</text>
			</g>
		</g>
	</g>
</g>
<g transform="matrix(0, -1, 1, 0, 166.054, 424.561)">
	<g>
		<g>
			<g>
				<text id="tspan6357_10_" transform="matrix(1 0 0 1 386.9997 5.033945e-04)" class="st3 st4">DO</text>
			</g>
		</g>
	</g>
</g>
<g>
	<g>
		<g>
			<g>
				<g id="g10231_3_">
					<g transform="matrix(1, 0, 0, 1, 0, -405)">
						<g>
							<g>
								<g>
									<g>
										<g transform="matrix(-2.53518e-06, -1, 1, -2.53518e-06, -515.18, 560.276)">
											<g>
												<g>
													<g>
														
															<rect id="rect10249_5_" x="115.3" y="656.3" transform="matrix(4.648184e-07 -1 1 4.648184e-07 -540.9893 788.6412)" class="st5" width="17" height="17"/>
													</g>
												</g>
											</g>
										</g>
									</g>
								</g>
							</g>
						</g>
					</g>
					<path id="path10251_5_" class="st2" d="M149.6,25.1c3.5,0,6.4,2.9,6.4,6.4s-2.9,6.4-6.4,6.4l0,0c-3.5,0-6.4-2.9-6.4-6.4
						S146.1,25.1,149.6,25.1z"/>
					<g transform="matrix(1, 0, 0, 1, 18, -13.95)">
						<g>
							<g>
								<g>
									<g>
										<path id="path10253_5_" class="st6" d="M135.5,43.3c1.2,0,2.1,1,2.1,2.1s-1,2.1-2.1,2.1s-2.1-1-2.1-2.1
											S134.3,43.3,135.5,43.3z"/>
									</g>
								</g>
							</g>
						</g>
					</g>
					<g transform="matrix(1, 0, 0, 1, 13.95, -18)">
						<g>
							<g>
								<g>
									<g>
										<path id="path10255_5_" class="st7" d="M135.7,51.1c1.2,0,2.1,1,2.1,2.1s-1,2.1-2.1,2.1s-2.1-1-2.1-2.1
											S134.5,51.1,135.7,51.1z"/>
									</g>
								</g>
							</g>
						</g>
					</g>
					<g transform="matrix(1, 0, 0, 1, 18, -22.05)">
						<g>
							<g>
								<g>
									<g>
										<path id="path10257_5_" class="st8" d="M127.8,51.4c1.2,0,2.1,1,2.1,2.1s-1,2.1-2.1,2.1c-1.2,0-2.1-1-2.1-2.1
											S126.6,51.4,127.8,51.4z"/>
									</g>
								</g>
							</g>
						</g>
					</g>
					<g>
						<rect x="147.8" y="26.2" class="st9" width="3.7" height="3.7"/>
					</g>
				</g>
			</g>
		</g>
	</g>
</g>
<polygon points="150.2,46.8 150.2,44.9 154.1,44.9 154.1,43.7 156.2,45.9 154.1,48 154.1,46.8 "/>
<path class="st10" d="M129.3,24.2h-6.5c-1.6,0-3-1.3-3-3l0,0c0-1.6,1.3-3,3-3h6.5c1.6,0,3,1.3,3,3l0,0
	C132.2,22.9,130.9,24.2,129.3,24.2z"/>
<path class="st10" d="M130.3,30.1h-8.5c-1.1,0-2-0.9-2-2l0,0c0-1.1,0.9-2,2-2h8.5c1.1,0,2,0.9,2,2l0,0
	C132.2,29.2,131.4,30.1,130.3,30.1z"/>
<path class="st10" d="M130.3,36.9h-8.5c-1.1,0-2-0.9-2-2l0,0c0-1.1,0.9-2,2-2h8.5c1.1,0,2,0.9,2,2l0,0
	C132.2,36,131.4,36.9,130.3,36.9z"/>
<path class="st10" d="M129.3,44.6h-6.5c-1.6,0-3-1.3-3-3l0,0c0-1.6,1.3-3,3-3h6.5c1.6,0,3,1.3,3,3l0,0
	C132.2,43.3,130.9,44.6,129.3,44.6z"/>
<g>
	<g>
		<g>
			<g>
				<path class="st11" d="M123.3,21.2c0,0.4-0.3,0.7-0.7,0.7s-0.7-0.3-0.7-0.7l0,0c0-0.4,0.3-0.7,0.7-0.7S123.3,20.9,123.3,21.2z"/>
			</g>
		</g>
	</g>
</g>
<g>
	<g>
		<g>
			<g>
				<path class="st11" d="M123.3,28c0,0.4-0.3,0.7-0.7,0.7s-0.7-0.3-0.7-0.7l0,0c0-0.4,0.3-0.7,0.7-0.7S123.3,27.7,123.3,28z"/>
			</g>
		</g>
	</g>
</g>
<g>
	<g>
		<g>
			<g>
				<path class="st11" d="M123.3,34.9c0,0.4-0.3,0.7-0.7,0.7s-0.7-0.3-0.7-0.7l0,0c0-0.4,0.3-0.7,0.7-0.7S123.3,34.5,123.3,34.9z"/>
			</g>
		</g>
	</g>
</g>
<g>
	<g>
		<g>
			<g>
				<path class="st11" d="M123.3,41.7c0,0.4-0.3,0.7-0.7,0.7s-0.7-0.3-0.7-0.7l0,0c0-0.4,0.3-0.7,0.7-0.7S123.3,41.3,123.3,41.7z"/>
			</g>
		</g>
	</g>
</g>
<g>
	<g>
		<g>
			<g>
				<path class="st11" d="M130.1,21.2c0,0.4-0.3,0.7-0.7,0.7c-0.4,0-0.7-0.3-0.7-0.7l0,0c0-0.4,0.3-0.7,0.7-0.7
					C129.8,20.6,130.1,20.9,130.1,21.2z"/>
			</g>
		</g>
	</g>
</g>
<g>
	<g>
		<g>
			<g>
				<path class="st11" d="M130.1,28c0,0.4-0.3,0.7-0.7,0.7c-0.4,0-0.7-0.3-0.7-0.7l0,0c0-0.4,0.3-0.7,0.7-0.7
					C129.8,27.4,130.1,27.7,130.1,28z"/>
			</g>
		</g>
	</g>
</g>
<g>
	<g>
		<g>
			<g>
				<path class="st11" d="M130.1,34.9c0,0.4-0.3,0.7-0.7,0.7c-0.4,0-0.7-0.3-0.7-0.7l0,0c0-0.4,0.3-0.7,0.7-0.7
					C129.8,34.2,130.1,34.5,130.1,34.9z"/>
			</g>
		</g>
	</g>
</g>
<g>
	<g>
		<g>
			<g>
				<path class="st11" d="M130.1,41.7c0,0.4-0.3,0.7-0.7,0.7c-0.4,0-0.7-0.3-0.7-0.7l0,0c0-0.4,0.3-0.7,0.7-0.7
					C129.8,41,130.1,41.3,130.1,41.7z"/>
			</g>
		</g>
	</g>
</g>
<path id="connector1pin" class="st10" d="M4.5,24.2h3.3c1.6,0,3-1.3,3-3s-1.3-3-3-3l-3.3,0V24.2z"/>
<path id="connector3pin" class="st10" d="M7.8,38.7H4.5v6h3.3c1.6,0,3-1.3,3-3C10.7,40,9.4,38.7,7.8,38.7z"/>
<path id="connector2pin" class="st10" d="M8.8,32.9H4.5v4h4.3c1.1,0,2-0.9,2-2S9.8,32.9,8.8,32.9z"/>
<path id="connector7pin" class="st10" d="M8.8,26.1H4.5v4h4.3c1.1,0,2-0.9,2-2l0,0C10.7,27,9.8,26.1,8.8,26.1z"/>
<g>
	<g>
		<g>
			<g>
				<path class="st11" d="M8.6,21.2c0,0.4-0.3,0.7-0.7,0.7s-0.7-0.3-0.7-0.7l0,0c0-0.4,0.3-0.7,0.7-0.7C8.3,20.6,8.6,20.9,8.6,21.2z
					"/>
			</g>
		</g>
	</g>
</g>
<g>
	<g>
		<g>
			<g>
				<path class="st11" d="M8.6,28c0,0.4-0.3,0.7-0.7,0.7S7.2,28.4,7.2,28l0,0c0-0.4,0.3-0.7,0.7-0.7C8.3,27.4,8.6,27.7,8.6,28z"/>
			</g>
		</g>
	</g>
</g>
<g>
	<g>
		<g>
			<g>
				<path class="st11" d="M8.6,34.9c0,0.4-0.3,0.7-0.7,0.7s-0.7-0.3-0.7-0.7l0,0c0-0.4,0.3-0.7,0.7-0.7C8.3,34.2,8.6,34.5,8.6,34.9z
					"/>
			</g>
		</g>
	</g>
</g>
<g>
	<g>
		<g>
			<g>
				<path class="st11" d="M8.6,41.7c0,0.4-0.3,0.7-0.7,0.7S7.2,42,7.2,41.7l0,0c0-0.4,0.3-0.7,0.7-0.7C8.3,41,8.6,41.3,8.6,41.7z"/>
			</g>
		</g>
	</g>
</g>
<path id="connector8pin" class="st10" d="M216.2,30.1h4.3v-4h-4.3c-1.1,0-2,0.9-2,2l0,0C214.3,29.2,215.2,30.1,216.2,30.1z"/>
<path id="connector6pin" class="st10" d="M217.2,24.2h3.3v-6h-3.3c-1.6,0-3,1.3-3,3S215.6,24.2,217.2,24.2z"/>
<path id="connector4pin" class="st10" d="M220.5,38.7h-3.3c-1.6,0-3,1.3-3,3c0,1.6,1.3,3,3,3h3.3V38.7z"/>
<path id="connector5pin" class="st10" d="M216.2,36.9h4.3v-4h-4.3c-1.1,0-2,0.9-2,2S215.2,36.9,216.2,36.9z"/>
<g>
	<g>
		<g>
			<g>
				<path class="st11" d="M217.8,21.2c0,0.4-0.3,0.7-0.7,0.7c-0.4,0-0.7-0.3-0.7-0.7l0,0c0-0.4,0.3-0.7,0.7-0.7
					C217.5,20.6,217.8,20.9,217.8,21.2z"/>
			</g>
		</g>
	</g>
</g>
<g>
	<g>
		<g>
			<g>
				<path class="st11" d="M217.8,28c0,0.4-0.3,0.7-0.7,0.7c-0.4,0-0.7-0.3-0.7-0.7l0,0c0-0.4,0.3-0.7,0.7-0.7
					C217.5,27.4,217.8,27.7,217.8,28z"/>
			</g>
		</g>
	</g>
</g>
<g>
	<g>
		<g>
			<g>
				<path class="st11" d="M217.8,34.9c0,0.4-0.3,0.7-0.7,0.7c-0.4,0-0.7-0.3-0.7-0.7l0,0c0-0.4,0.3-0.7,0.7-0.7
					C217.5,34.2,217.8,34.5,217.8,34.9z"/>
			</g>
		</g>
	</g>
</g>
<g>
	<g>
		<g>
			<g>
				<path class="st11" d="M217.8,41.7c0,0.4-0.3,0.7-0.7,0.7c-0.4,0-0.7-0.3-0.7-0.7l0,0c0-0.4,0.3-0.7,0.7-0.7
					C217.5,41,217.8,41.3,217.8,41.7z"/>
			</g>
		</g>
	</g>
</g>
<g>
	<g>
		<g>
			<g>
				<g>
					<path id="path5607_1_" class="st0" d="M5,96.1h108l-9,36H5 M5,132.1v-36"/>
				</g>
			</g>
		</g>
	</g>
</g>
<g>
	<g>
		<g>
			<g>
				<g>
					<path id="path7626_1_" class="st0" d="M221,132.1H113l9-36h99 M221,96.1v36"/>
				</g>
			</g>
		</g>
	</g>
</g>
<rect x="27.7" y="102.3" class="st2" width="3.9" height="23.6"/>
<rect x="34.1" y="102.3" class="st2" width="3.9" height="23.6"/>
<rect x="77.6" y="102.3" class="st2" width="3.9" height="23.6"/>
<rect x="83.9" y="102.3" class="st2" width="3.9" height="23.6"/>
<rect x="90.3" y="102.3" class="st2" width="3.9" height="23.6"/>
<rect x="124.8" y="102.3" class="st2" width="3.9" height="23.6"/>
<rect x="131.2" y="102.3" class="st2" width="3.9" height="23.6"/>
<rect x="137.6" y="102.3" class="st2" width="3.9" height="23.6"/>
<rect x="181.1" y="102.3" class="st2" width="3.9" height="23.6"/>
<rect x="187.4" y="102.3" class="st2" width="3.9" height="23.6"/>
<rect x="193.8" y="102.3" class="st2" width="3.9" height="23.6"/>
<rect x="21.3" y="102.3" class="st2" width="3.9" height="23.6"/>
<g>
	<g>
		<g>
			<g>
				<g>
					<path id="connector2pin_1_" class="st10" d="M8.3,111.8h2.2c1.2,0,2.2,1,2.2,2.2l0,0c0,1.2-1,2.2-2.2,2.2H8.3
						c-1.2,0-2.2-1-2.2-2.2l0,0C6.1,112.9,7.1,111.8,8.3,111.8z"/>
				</g>
			</g>
		</g>
	</g>
</g>
<path id="connector3pin_1_" class="st10" d="M8.3,102.9h2.2c1.2,0,2.2,1,2.2,2.2l0,0c0,1.2-1,2.2-2.2,2.2H8.3c-1.2,0-2.2-1-2.2-2.2
	l0,0C6.1,103.9,7.1,102.9,8.3,102.9z"/>
<path id="connector1pin_1_" class="st10" d="M8.3,120.9h2.2c1.2,0,2.2,1,2.2,2.2l0,0c0,1.2-1,2.2-2.2,2.2H8.3c-1.2,0-2.2-1-2.2-2.2
	l0,0C6.1,121.9,7.1,120.9,8.3,120.9z"/>
<g>
	<g>
		<g>
			<g>
				<g>
					<path class="st11" d="M10.1,105.1c0,0.4-0.3,0.7-0.7,0.7s-0.7-0.3-0.7-0.7l0,0c0-0.4,0.3-0.7,0.7-0.7S10.1,104.7,10.1,105.1z"
						/>
				</g>
			</g>
		</g>
	</g>
</g>
<g>
	<g>
		<g>
			<g>
				<g>
					<path id="path8779" class="st11" d="M10.1,114.1c0,0.4-0.3,0.7-0.7,0.7s-0.7-0.3-0.7-0.7l0,0c0-0.4,0.3-0.7,0.7-0.7
						S10.1,113.7,10.1,114.1z"/>
				</g>
			</g>
		</g>
	</g>
</g>
<g>
	<g>
		<g>
			<g>
				<g>
					<path id="path8781" class="st11" d="M10.1,123.1c0,0.4-0.3,0.7-0.7,0.7s-0.7-0.3-0.7-0.7l0,0c0-0.4,0.3-0.7,0.7-0.7
						S10.1,122.7,10.1,123.1z"/>
				</g>
			</g>
		</g>
	</g>
</g>
<path id="rect9797" class="st10" d="M168.1,111.8h2.2c1.2,0,2.2,1,2.2,2.2l0,0c0,1.2-1,2.2-2.2,2.2h-2.2c-1.2,0-2.2-1-2.2-2.2l0,0
	C165.8,112.8,166.8,111.8,168.1,111.8z"/>
<path id="rect9799" class="st10" d="M168.1,102.8h2.2c1.2,0,2.2,1,2.2,2.2l0,0c0,1.2-1,2.2-2.2,2.2h-2.2c-1.2,0-2.2-1-2.2-2.2l0,0
	C165.8,103.9,166.8,102.8,168.1,102.8z"/>
<path id="rect9801" class="st10" d="M168.1,120.8h2.2c1.2,0,2.2,1,2.2,2.2l0,0c0,1.2-1,2.2-2.2,2.2h-2.2c-1.2,0-2.2-1-2.2-2.2l0,0
	C165.8,121.9,166.8,120.8,168.1,120.8z"/>
<g>
	<g>
		<g>
			<g>
				<g>
					<path id="path9803" class="st11" d="M169.9,105.1c0,0.4-0.3,0.7-0.7,0.7s-0.7-0.3-0.7-0.7l0,0c0-0.4,0.3-0.7,0.7-0.7
						S169.9,104.7,169.9,105.1z"/>
				</g>
			</g>
		</g>
	</g>
</g>
<g>
	<g>
		<g>
			<g>
				<g>
					<path id="path9805" class="st11" d="M169.9,114.1c0,0.4-0.3,0.7-0.7,0.7s-0.7-0.3-0.7-0.7l0,0c0-0.4,0.3-0.7,0.7-0.7
						S169.9,113.7,169.9,114.1z"/>
				</g>
			</g>
		</g>
	</g>
</g>
<g>
	<g>
		<g>
			<g>
				<g>
					<path id="path9807" class="st11" d="M169.9,123.1c0,0.4-0.3,0.7-0.7,0.7s-0.7-0.3-0.7-0.7l0,0c0-0.4,0.3-0.7,0.7-0.7
						S169.9,122.7,169.9,123.1z"/>
				</g>
			</g>
		</g>
	</g>
</g>
<path id="connector5pin_1_" class="st10" d="M215.3,111.8h2.2c1.2,0,2.2,1,2.2,2.2l0,0c0,1.2-1,2.2-2.2,2.2h-2.2
	c-1.2,0-2.2-1-2.2-2.2l0,0C213.1,112.8,214.1,111.8,215.3,111.8z"/>
<path id="connector4pin_1_" class="st10" d="M215.3,102.8h2.2c1.2,0,2.2,1,2.2,2.2l0,0c0,1.2-1,2.2-2.2,2.2h-2.2
	c-1.2,0-2.2-1-2.2-2.2l0,0C213.1,103.9,214.1,102.8,215.3,102.8z"/>
<path id="connector6pin_1_" class="st10" d="M215.3,120.8h2.2c1.2,0,2.2,1,2.2,2.2l0,0c0,1.2-1,2.2-2.2,2.2h-2.2
	c-1.2,0-2.2-1-2.2-2.2l0,0C213.1,121.9,214.1,120.8,215.3,120.8z"/>
<g>
	<g>
		<g>
			<g>
				<g>
					<path id="path9815" class="st11" d="M217.1,105.1c0,0.4-0.3,0.7-0.7,0.7s-0.7-0.3-0.7-0.7l0,0c0-0.4,0.3-0.7,0.7-0.7
						S217.1,104.7,217.1,105.1z"/>
				</g>
			</g>
		</g>
	</g>
</g>
<g>
	<g>
		<g>
			<g>
				<g>
					<path id="path9817" class="st11" d="M217.1,114.1c0,0.4-0.3,0.7-0.7,0.7s-0.7-0.3-0.7-0.7l0,0c0-0.4,0.3-0.7,0.7-0.7
						S217.1,113.7,217.1,114.1z"/>
				</g>
			</g>
		</g>
	</g>
</g>
<g>
	<g>
		<g>
			<g>
				<g>
					<path id="path9819" class="st11" d="M217.1,123.1c0,0.4-0.3,0.7-0.7,0.7s-0.7-0.3-0.7-0.7l0,0c0-0.4,0.3-0.7,0.7-0.7
						S217.1,122.7,217.1,123.1z"/>
				</g>
			</g>
		</g>
	</g>
</g>
<path id="rect10017" class="st10" d="M159.1,111.8h2.2c1.2,0,2.2,1,2.2,2.2l0,0c0,1.2-1,2.2-2.2,2.2h-2.2c-1.2,0-2.2-1-2.2-2.2l0,0
	C156.8,112.8,157.8,111.8,159.1,111.8z"/>
<path id="rect10019" class="st10" d="M159.1,102.8h2.2c1.2,0,2.2,1,2.2,2.2l0,0c0,1.2-1,2.2-2.2,2.2h-2.2c-1.2,0-2.2-1-2.2-2.2l0,0
	C156.8,103.9,157.8,102.8,159.1,102.8z"/>
<path id="rect10021" class="st10" d="M159.1,120.8h2.2c1.2,0,2.2,1,2.2,2.2l0,0c0,1.2-1,2.2-2.2,2.2h-2.2c-1.2,0-2.2-1-2.2-2.2l0,0
	C156.8,121.9,157.8,120.8,159.1,120.8z"/>
<g>
	<g>
		<g>
			<g>
				<g>
					<path id="path10023" class="st11" d="M160.9,105.1c0,0.4-0.3,0.7-0.7,0.7s-0.7-0.3-0.7-0.7l0,0c0-0.4,0.3-0.7,0.7-0.7
						S160.9,104.7,160.9,105.1z"/>
				</g>
			</g>
		</g>
	</g>
</g>
<g>
	<g>
		<g>
			<g>
				<g>
					<path id="path10025" class="st11" d="M160.9,114.1c0,0.4-0.3,0.7-0.7,0.7s-0.7-0.3-0.7-0.7l0,0c0-0.4,0.3-0.7,0.7-0.7
						S160.9,113.7,160.9,114.1z"/>
				</g>
			</g>
		</g>
	</g>
</g>
<g>
	<g>
		<g>
			<g>
				<g>
					<path id="path10027" class="st11" d="M160.9,123.1c0,0.4-0.3,0.7-0.7,0.7s-0.7-0.3-0.7-0.7l0,0c0-0.4,0.3-0.7,0.7-0.7
						S160.9,122.7,160.9,123.1z"/>
				</g>
			</g>
		</g>
	</g>
</g>
<path id="rect10121" class="st10" d="M64.6,111.8h2.2c1.2,0,2.2,1,2.2,2.2l0,0c0,1.2-1,2.2-2.2,2.2h-2.2c-1.2,0-2.3-1-2.3-2.2l0,0
	C62.3,112.9,63.3,111.8,64.6,111.8z"/>
<path id="rect10123" class="st10" d="M64.6,102.9h2.2c1.2,0,2.2,1,2.2,2.2l0,0c0,1.2-1,2.2-2.2,2.2h-2.2c-1.2,0-2.3-1-2.3-2.2l0,0
	C62.3,103.9,63.3,102.9,64.6,102.9z"/>
<path id="rect10125" class="st10" d="M64.6,120.9h2.2c1.2,0,2.2,1,2.2,2.2l0,0c0,1.2-1,2.2-2.2,2.2h-2.2c-1.2,0-2.3-1-2.3-2.2l0,0
	C62.3,121.9,63.3,120.9,64.6,120.9z"/>
<g>
	<g>
		<g>
			<g>
				<g>
					<path id="path10127" class="st11" d="M66.4,105.1c0,0.4-0.3,0.7-0.7,0.7c-0.4,0-0.7-0.3-0.7-0.7l0,0c0-0.4,0.3-0.7,0.7-0.7
						C66.1,104.4,66.4,104.7,66.4,105.1z"/>
				</g>
			</g>
		</g>
	</g>
</g>
<g>
	<g>
		<g>
			<g>
				<g>
					<path id="path10129" class="st11" d="M66.4,114.1c0,0.4-0.3,0.7-0.7,0.7c-0.4,0-0.7-0.3-0.7-0.7l0,0c0-0.4,0.3-0.7,0.7-0.7
						C66.1,113.4,66.4,113.7,66.4,114.1z"/>
				</g>
			</g>
		</g>
	</g>
</g>
<g>
	<g>
		<g>
			<g>
				<g>
					<path id="path10131" class="st11" d="M66.4,123.1c0,0.4-0.3,0.7-0.7,0.7c-0.4,0-0.7-0.3-0.7-0.7l0,0c0-0.4,0.3-0.7,0.7-0.7
						C66.1,122.4,66.4,122.7,66.4,123.1z"/>
				</g>
			</g>
		</g>
	</g>
</g>
<path id="rect10145" class="st10" d="M55.6,111.8h2.2c1.2,0,2.2,1,2.2,2.2l0,0c0,1.2-1,2.2-2.2,2.2h-2.2c-1.2,0-2.2-1-2.2-2.2l0,0
	C53.3,112.9,54.3,111.8,55.6,111.8z"/>
<path id="rect10147" class="st10" d="M55.6,102.9h2.2c1.2,0,2.2,1,2.2,2.2l0,0c0,1.2-1,2.2-2.2,2.2h-2.2c-1.2,0-2.2-1-2.2-2.2l0,0
	C53.3,103.9,54.3,102.9,55.6,102.9z"/>
<path id="rect10149" class="st10" d="M55.6,120.9h2.2c1.2,0,2.2,1,2.2,2.2l0,0c0,1.2-1,2.2-2.2,2.2h-2.2c-1.2,0-2.2-1-2.2-2.2l0,0
	C53.3,121.9,54.3,120.9,55.6,120.9z"/>
<g>
	<g>
		<g>
			<g>
				<g>
					<path id="path10151" class="st11" d="M57.4,105.1c0,0.4-0.3,0.7-0.7,0.7s-0.7-0.3-0.7-0.7l0,0c0-0.4,0.3-0.7,0.7-0.7
						S57.4,104.7,57.4,105.1z"/>
				</g>
			</g>
		</g>
	</g>
</g>
<g>
	<g>
		<g>
			<g>
				<g>
					<path id="path10153" class="st11" d="M57.4,114.1c0,0.4-0.3,0.7-0.7,0.7s-0.7-0.3-0.7-0.7l0,0c0-0.4,0.3-0.7,0.7-0.7
						S57.4,113.7,57.4,114.1z"/>
				</g>
			</g>
		</g>
	</g>
</g>
<g>
	<g>
		<g>
			<g>
				<g>
					<path id="path10155" class="st11" d="M57.4,123.1c0,0.4-0.3,0.7-0.7,0.7s-0.7-0.3-0.7-0.7l0,0c0-0.4,0.3-0.7,0.7-0.7
						S57.4,122.7,57.4,123.1z"/>
				</g>
			</g>
		</g>
	</g>
</g>
<g>
	<g>
		<g>
			<g>
				<g>
					<text id="tspan6341_9_" transform="matrix(0 -1 1 0 52.4916 127.9021)" class="st3 st4">+5V</text>
				</g>
			</g>
		</g>
	</g>
</g>
<g>
	<g>
		<g>
			<g>
				<g>
					<text id="tspan6345_9_" transform="matrix(0 -1 1 0 52.4916 108.4832)" class="st3 st4">GND</text>
				</g>
			</g>
		</g>
	</g>
</g>
<g>
	<g>
		<g>
			<g>
				<g>
					<text id="tspan6357_17_" transform="matrix(0 -1 1 0 52.4916 116.9724)" class="st3 st4">DO</text>
				</g>
			</g>
		</g>
	</g>
</g>
<g>
	<g>
		<g>
			<g>
				<g>
					<g id="g6613_2_">
						<g transform="matrix(0.2425, -0.9701, 0.9701, 0.2425, 30.9863, 154.618)">
							<g>
								<g>
									<g>
										<g>
											<g>
												
													<ellipse id="circle6615_2_" transform="matrix(-1 2.524750e-06 -2.524750e-06 -1 62.6668 130.6768)" cx="31.3" cy="65.3" rx="0.4" ry="0.4"/>
											</g>
										</g>
									</g>
								</g>
							</g>
						</g>
						<g transform="matrix(0.2425, -0.9701, 0.9701, 0.2425, 32.758, 153.831)">
							<g>
								<g>
									<g>
										<g>
											<g>
												
													<ellipse id="circle6617_2_" transform="matrix(-1 2.524747e-06 -2.524747e-06 -1 63.4308 127.6208)" cx="31.7" cy="63.8" rx="0.4" ry="0.4"/>
											</g>
										</g>
									</g>
								</g>
							</g>
						</g>
						<g transform="matrix(0.2425, -0.9701, 0.9701, 0.2425, 34.5297, 153.044)">
							<g>
								<g>
									<g>
										<g>
											<g>
												
													<ellipse id="circle6619_2_" transform="matrix(-1 2.524747e-06 -2.524747e-06 -1 64.1948 124.5648)" cx="32.1" cy="62.3" rx="0.4" ry="0.4"/>
											</g>
										</g>
									</g>
								</g>
							</g>
						</g>
					</g>
				</g>
			</g>
		</g>
	</g>
</g>
<g>
	<g>
		<g>
			<g>
				<g>
					<g id="g6613_3_">
						<g transform="matrix(0.2425, -0.9701, 0.9701, 0.2425, 37.8035, 163.349)">
							<g>
								<g>
									<g>
										<g>
											<g>
												
													<ellipse id="circle6615_3_" transform="matrix(-1 2.524750e-06 -2.524750e-06 -1 80.6668 130.6768)" cx="40.3" cy="65.3" rx="0.4" ry="0.4"/>
											</g>
										</g>
									</g>
								</g>
							</g>
						</g>
						<g transform="matrix(0.2425, -0.9701, 0.9701, 0.2425, 39.5752, 162.562)">
							<g>
								<g>
									<g>
										<g>
											<g>
												
													<ellipse id="circle6617_3_" transform="matrix(-1 2.524747e-06 -2.524747e-06 -1 81.4308 127.6208)" cx="40.7" cy="63.8" rx="0.4" ry="0.4"/>
											</g>
										</g>
									</g>
								</g>
							</g>
						</g>
						<g transform="matrix(0.2425, -0.9701, 0.9701, 0.2425, 41.3469, 161.775)">
							<g>
								<g>
									<g>
										<g>
											<g>
												
													<ellipse id="circle6619_3_" transform="matrix(-1 2.524747e-06 -2.524747e-06 -1 82.1948 124.5648)" cx="41.1" cy="62.3" rx="0.4" ry="0.4"/>
											</g>
										</g>
									</g>
								</g>
							</g>
						</g>
					</g>
				</g>
			</g>
		</g>
	</g>
</g>
<g>
	<g>
		<g>
			<g>
				<g>
					<g id="g6613_5_">
						<g transform="matrix(0.2425, -0.9701, 0.9701, 0.2425, 30.9863, 154.618)">
							<g>
								<g>
									<g>
										<g>
											<g>
												
													<ellipse id="circle6615_5_" transform="matrix(-1 2.524750e-06 -2.524750e-06 -1 160.0638 130.0057)" cx="80" cy="65" rx="0.4" ry="0.4"/>
											</g>
										</g>
									</g>
								</g>
							</g>
						</g>
						<g transform="matrix(0.2425, -0.9701, 0.9701, 0.2425, 32.758, 153.831)">
							<g>
								<g>
									<g>
										<g>
											<g>
												
													<ellipse id="circle6617_5_" transform="matrix(-1 2.524747e-06 -2.524747e-06 -1 160.8278 126.9497)" cx="80.4" cy="63.5" rx="0.4" ry="0.4"/>
											</g>
										</g>
									</g>
								</g>
							</g>
						</g>
						<g transform="matrix(0.2425, -0.9701, 0.9701, 0.2425, 34.5297, 153.044)">
							<g>
								<g>
									<g>
										<g>
											<g>
												
													<ellipse id="circle6619_5_" transform="matrix(-1 2.524747e-06 -2.524747e-06 -1 161.5918 123.8937)" cx="80.8" cy="61.9" rx="0.4" ry="0.4"/>
											</g>
										</g>
									</g>
								</g>
							</g>
						</g>
					</g>
				</g>
			</g>
		</g>
	</g>
</g>
<g>
	<g>
		<g>
			<g>
				<g>
					<g id="g6613_4_">
						<g transform="matrix(0.2425, -0.9701, 0.9701, 0.2425, 37.8035, 163.349)">
							<g>
								<g>
									<g>
										<g>
											<g>
												
													<ellipse id="circle6615_4_" transform="matrix(-1 2.524750e-06 -2.524750e-06 -1 178.0638 130.0057)" cx="89" cy="65" rx="0.4" ry="0.4"/>
											</g>
										</g>
									</g>
								</g>
							</g>
						</g>
						<g transform="matrix(0.2425, -0.9701, 0.9701, 0.2425, 39.5752, 162.562)">
							<g>
								<g>
									<g>
										<g>
											<g>
												
													<ellipse id="circle6617_4_" transform="matrix(-1 2.524747e-06 -2.524747e-06 -1 178.8278 126.9497)" cx="89.4" cy="63.5" rx="0.4" ry="0.4"/>
											</g>
										</g>
									</g>
								</g>
							</g>
						</g>
						<g transform="matrix(0.2425, -0.9701, 0.9701, 0.2425, 41.3469, 161.775)">
							<g>
								<g>
									<g>
										<g>
											<g>
												
													<ellipse id="circle6619_4_" transform="matrix(-1 2.524747e-06 -2.524747e-06 -1 179.5918 123.8937)" cx="89.8" cy="61.9" rx="0.4" ry="0.4"/>
											</g>
										</g>
									</g>
								</g>
							</g>
						</g>
					</g>
				</g>
			</g>
		</g>
	</g>
</g>
<g>
	<g>
		<g>
			<g>
				<g id="g9821">
					<g transform="matrix(1, 0, 0, 1, 0, -405)">
						<g transform="matrix(1, 0, 0, 1, 0, -405)">
							<g>
								<g>
									<g>
										<g>
											<g>
												<g>
													<g transform="matrix(-2.53518e-06, -1, 1, -2.53518e-06, -50.7958, 804.204)">
														<g>
															<g>
																<g>
																	<g>
																		<g>
																			
																				<rect id="rect9839" x="275.3" y="230.4" transform="matrix(4.648184e-07 -1 1 4.648184e-07 44.9176 525.3475)" class="st5" width="19.7" height="19.7"/>
																		</g>
																	</g>
																</g>
															</g>
														</g>
													</g>
												</g>
											</g>
										</g>
									</g>
								</g>
							</g>
						</g>
						<path id="path9841" class="st2" d="M189.4,106.7c4.1,0,7.4,3.3,7.4,7.4s-3.3,7.4-7.4,7.4l0,0c-4.1,0-7.4-3.3-7.4-7.4
							S185.3,106.7,189.4,106.7z"/>
						<g transform="matrix(1, 0, 0, 1, 18, -13.95)">
							<g>
								<g>
									<g>
										<g>
											<g>
												<g>
													<path id="path9843" class="st6" d="M175.8,125.6c1.4,0,2.5,1.1,2.5,2.5c0,1.4-1.1,2.5-2.5,2.5c-1.4,0-2.5-1.1-2.5-2.5
														C173.4,126.7,174.5,125.6,175.8,125.6z"/>
												</g>
											</g>
										</g>
									</g>
								</g>
							</g>
						</g>
						<g transform="matrix(1, 0, 0, 1, 13.95, -18)">
							<g>
								<g>
									<g>
										<g>
											<g>
												<g>
													<path id="path9845" class="st7" d="M175.5,134c1.4,0,2.5,1.1,2.5,2.5c0,1.4-1.1,2.5-2.5,2.5s-2.5-1.1-2.5-2.5
														C173,135.1,174.1,134,175.5,134z"/>
												</g>
											</g>
										</g>
									</g>
								</g>
							</g>
						</g>
						<g transform="matrix(1, 0, 0, 1, 18, -22.05)">
							<g>
								<g>
									<g>
										<g>
											<g>
												<g>
													<path id="path9847" class="st8" d="M167,133.7c1.4,0,2.5,1.1,2.5,2.5c0,1.4-1.1,2.5-2.5,2.5s-2.5-1.1-2.5-2.5
														C164.5,134.8,165.6,133.7,167,133.7z"/>
												</g>
											</g>
										</g>
									</g>
								</g>
							</g>
						</g>
						<g>
							<g>
								<g>
									<g>
										<g>
											<g>
												<g id="g9849">
													<g transform="matrix(1, 0, 0, 1, 0, 405)">
														<g>
															<g>
																<g>
																	<g>
																		<g>
																			<g>
																				<g transform="matrix(-2.53518e-06, -1, 1, -2.53518e-06, 357.804, 402.803)">
																					<g>
																					</g>
																				</g>
																			</g>
																		</g>
																	</g>
																</g>
															</g>
														</g>
													</g>
												</g>
											</g>
										</g>
									</g>
								</g>
							</g>
						</g>
					</g>
				</g>
			</g>
		</g>
	</g>
</g>
<g>
	<g>
		<g>
			<g>
				<g id="g9821_1_">
					<g transform="matrix(1, 0, 0, 1, 0, -405)">
						<g transform="matrix(1, 0, 0, 1, 0, -405)">
							<g>
								<g>
									<g>
										<g>
											<g>
												<g>
													<g transform="matrix(-2.53518e-06, -1, 1, -2.53518e-06, -50.7958, 804.204)">
														<g>
															<g>
																<g>
																	<g>
																		<g>
																			
																				<rect id="rect9839_1_" x="275.3" y="174.1" transform="matrix(4.648184e-07 -1 1 4.648184e-07 101.1696 469.0959)" class="st5" width="19.7" height="19.7"/>
																		</g>
																	</g>
																</g>
															</g>
														</g>
													</g>
												</g>
											</g>
										</g>
									</g>
								</g>
							</g>
						</g>
						<path id="path9841_1_" class="st2" d="M133.2,106.7c4.1,0,7.4,3.3,7.4,7.4s-3.3,7.4-7.4,7.4l0,0c-4.1,0-7.4-3.3-7.4-7.4
							S129.1,106.7,133.2,106.7z"/>
						<g transform="matrix(1, 0, 0, 1, 18, -13.95)">
							<g>
								<g>
									<g>
										<g>
											<g>
												<g>
													<path id="path9843_1_" class="st6" d="M119.6,125.6c1.4,0,2.5,1.1,2.5,2.5c0,1.4-1.1,2.5-2.5,2.5
														c-1.4,0-2.5-1.1-2.5-2.5C117.1,126.7,118.2,125.6,119.6,125.6z"/>
												</g>
											</g>
										</g>
									</g>
								</g>
							</g>
						</g>
						<g transform="matrix(1, 0, 0, 1, 13.95, -18)">
							<g>
								<g>
									<g>
										<g>
											<g>
												<g>
													<path id="path9845_1_" class="st7" d="M119.2,134c1.4,0,2.5,1.1,2.5,2.5c0,1.4-1.1,2.5-2.5,2.5c-1.4,0-2.5-1.1-2.5-2.5
														C116.8,135.1,117.9,134,119.2,134z"/>
												</g>
											</g>
										</g>
									</g>
								</g>
							</g>
						</g>
						<g transform="matrix(1, 0, 0, 1, 18, -22.05)">
							<g>
								<g>
									<g>
										<g>
											<g>
												<g>
													<path id="path9847_1_" class="st8" d="M110.7,133.7c1.4,0,2.5,1.1,2.5,2.5c0,1.4-1.1,2.5-2.5,2.5
														c-1.4,0-2.5-1.1-2.5-2.5C108.3,134.8,109.4,133.7,110.7,133.7z"/>
												</g>
											</g>
										</g>
									</g>
								</g>
							</g>
						</g>
						<g>
							<g>
								<g>
									<g>
										<g>
											<g>
												<g id="g9849_1_">
													<g transform="matrix(1, 0, 0, 1, 0, 405)">
														<g>
															<g>
																<g>
																	<g>
																		<g>
																			<g>
																				<g transform="matrix(-2.53518e-06, -1, 1, -2.53518e-06, 357.804, 402.803)">
																					<g>
																					</g>
																				</g>
																			</g>
																		</g>
																	</g>
																</g>
															</g>
														</g>
													</g>
												</g>
											</g>
										</g>
									</g>
								</g>
							</g>
						</g>
					</g>
				</g>
			</g>
		</g>
	</g>
</g>
<g>
	<g>
		<g>
			<g>
				<g id="g9821_2_">
					<g transform="matrix(1, 0, 0, 1, 0, -405)">
						<g transform="matrix(1, 0, 0, 1, 0, -405)">
							<g>
								<g>
									<g>
										<g>
											<g>
												<g>
													<g transform="matrix(-2.53518e-06, -1, 1, -2.53518e-06, -50.7958, 804.204)">
														<g>
															<g>
																<g>
																	<g>
																		<g>
																			
																				<rect id="rect9839_4_" x="275.3" y="126.9" transform="matrix(4.648184e-07 -1 1 4.648184e-07 148.4198 421.846)" class="st5" width="19.7" height="19.7"/>
																		</g>
																	</g>
																</g>
															</g>
														</g>
													</g>
												</g>
											</g>
										</g>
									</g>
								</g>
							</g>
						</g>
						<path id="path9841_2_" class="st2" d="M85.9,106.7c4.1,0,7.4,3.3,7.4,7.4s-3.3,7.4-7.4,7.4l0,0c-4.1,0-7.4-3.3-7.4-7.4
							S81.8,106.7,85.9,106.7z"/>
						<g transform="matrix(1, 0, 0, 1, 18, -13.95)">
							<g>
								<g>
									<g>
										<g>
											<g>
												<g>
													<path id="path9843_2_" class="st6" d="M72.3,125.6c1.4,0,2.5,1.1,2.5,2.5c0,1.4-1.1,2.5-2.5,2.5
														c-1.4,0-2.5-1.1-2.5-2.5C69.9,126.7,71,125.6,72.3,125.6z"/>
												</g>
											</g>
										</g>
									</g>
								</g>
							</g>
						</g>
						<g transform="matrix(1, 0, 0, 1, 13.95, -18)">
							<g>
								<g>
									<g>
										<g>
											<g>
												<g>
													<path id="path9845_2_" class="st7" d="M72,134c1.4,0,2.5,1.1,2.5,2.5c0,1.4-1.1,2.5-2.5,2.5c-1.4,0-2.5-1.1-2.5-2.5
														C69.5,135.1,70.6,134,72,134z"/>
												</g>
											</g>
										</g>
									</g>
								</g>
							</g>
						</g>
						<g transform="matrix(1, 0, 0, 1, 18, -22.05)">
							<g>
								<g>
									<g>
										<g>
											<g>
												<g>
													<path id="path9847_2_" class="st8" d="M63.5,133.7c1.4,0,2.5,1.1,2.5,2.5c0,1.4-1.1,2.5-2.5,2.5s-2.5-1.1-2.5-2.5
														C61,134.8,62.1,133.7,63.5,133.7z"/>
												</g>
											</g>
										</g>
									</g>
								</g>
							</g>
						</g>
						<g>
							<g>
								<g>
									<g>
										<g>
											<g>
												<g id="g9849_2_">
													<g transform="matrix(1, 0, 0, 1, 0, 405)">
														<g>
															<g>
																<g>
																	<g>
																		<g>
																			<g>
																				<g transform="matrix(-2.53518e-06, -1, 1, -2.53518e-06, 357.804, 402.803)">
																					<g>
																					</g>
																				</g>
																			</g>
																		</g>
																	</g>
																</g>
															</g>
														</g>
													</g>
												</g>
											</g>
										</g>
									</g>
								</g>
							</g>
						</g>
					</g>
				</g>
			</g>
		</g>
	</g>
</g>
<g>
	<g>
		<g>
			<g>
				<g id="g9821_3_">
					<g transform="matrix(1, 0, 0, 1, 0, -405)">
						<g transform="matrix(1, 0, 0, 1, 0, -405)">
							<g>
								<g>
									<g>
										<g>
											<g>
												<g>
													<g transform="matrix(-2.53518e-06, -1, 1, -2.53518e-06, -50.7958, 804.204)">
														<g>
															<g>
																<g>
																	<g>
																		<g>
																			
																				<rect id="rect9839_6_" x="275.3" y="70.6" transform="matrix(4.648184e-07 -1 1 4.648184e-07 204.6699 365.5962)" class="st5" width="19.7" height="19.7"/>
																		</g>
																	</g>
																</g>
															</g>
														</g>
													</g>
												</g>
											</g>
										</g>
									</g>
								</g>
							</g>
						</g>
						<path id="path9841_3_" class="st2" d="M29.7,106.7c4.1,0,7.4,3.3,7.4,7.4s-3.3,7.4-7.4,7.4l0,0c-4.1,0-7.4-3.3-7.4-7.4
							S25.6,106.7,29.7,106.7z"/>
						<g transform="matrix(1, 0, 0, 1, 18, -13.95)">
							<g>
								<g>
									<g>
										<g>
											<g>
												<g>
													<path id="path9843_3_" class="st6" d="M16.1,125.6c1.4,0,2.5,1.1,2.5,2.5c0,1.4-1.1,2.5-2.5,2.5s-2.5-1.1-2.5-2.5
														C13.6,126.7,14.7,125.6,16.1,125.6z"/>
												</g>
											</g>
										</g>
									</g>
								</g>
							</g>
						</g>
						<g transform="matrix(1, 0, 0, 1, 13.95, -18)">
							<g>
								<g>
									<g>
										<g>
											<g>
												<g>
													<path id="path9845_3_" class="st7" d="M15.7,134c1.4,0,2.5,1.1,2.5,2.5c0,1.4-1.1,2.5-2.5,2.5s-2.5-1.1-2.5-2.5
														C13.3,135.1,14.4,134,15.7,134z"/>
												</g>
											</g>
										</g>
									</g>
								</g>
							</g>
						</g>
						<g transform="matrix(1, 0, 0, 1, 18, -22.05)">
							<g>
								<g>
									<g>
										<g>
											<g>
												<g>
													<path id="path9847_3_" class="st8" d="M7.2,133.7c1.4,0,2.5,1.1,2.5,2.5c0,1.4-1.1,2.5-2.5,2.5s-2.5-1.1-2.5-2.5
														C4.8,134.8,5.9,133.7,7.2,133.7z"/>
												</g>
											</g>
										</g>
									</g>
								</g>
							</g>
						</g>
						<g>
							<g>
								<g>
									<g>
										<g>
											<g>
												<g id="g9849_3_">
													<g transform="matrix(1, 0, 0, 1, 0, 405)">
														<g>
															<g>
																<g>
																	<g>
																		<g>
																			<g>
																				<g transform="matrix(-2.53518e-06, -1, 1, -2.53518e-06, 357.804, 402.803)">
																					<g>
																					</g>
																				</g>
																			</g>
																		</g>
																	</g>
																</g>
															</g>
														</g>
													</g>
												</g>
											</g>
										</g>
									</g>
								</g>
							</g>
						</g>
					</g>
				</g>
			</g>
		</g>
	</g>
</g>
<rect x="27.8" y="107.9" class="st9" width="3.7" height="3.7"/>
<rect x="84.6" y="108.5" class="st9" width="2.6" height="2.6"/>
<rect x="131.9" y="108.5" class="st9" width="2.6" height="2.6"/>
<rect x="188.1" y="108.5" class="st9" width="2.6" height="2.6"/>
<polygon points="69.2,120.5 69.2,118.7 72.7,118.7 72.7,117.7 74.7,119.6 72.7,121.6 72.7,120.5 "/>
<polygon points="69.2,111.3 69.2,109.5 72.7,109.5 72.7,108.5 74.7,110.4 72.7,112.4 72.7,111.3 "/>
<polygon points="48.4,120.5 48.4,118.7 52,118.7 52,117.7 53.9,119.6 52,121.6 52,120.5 "/>
<polygon points="48.4,111.3 48.4,109.5 52,109.5 52,108.5 53.9,110.4 52,112.4 52,111.3 "/>
<g>
	<g>
		<g>
			<g>
				<g>
					<text id="tspan6341_14_" transform="matrix(0 1 -1 0 69.8262 122.4802)" class="st3 st4">+5V</text>
				</g>
			</g>
		</g>
	</g>
</g>
<g>
	<g>
		<g>
			<g>
				<g>
					<text id="tspan6345_14_" transform="matrix(0 1 -1 0 69.8262 101.8159)" class="st3 st4">GND</text>
				</g>
			</g>
		</g>
	</g>
</g>
<g>
	<g>
		<g>
			<g>
				<g>
					<text id="tspan6357_22_" transform="matrix(0 1 -1 0 69.8262 113.2231)" class="st3 st4">DI</text>
				</g>
			</g>
		</g>
	</g>
</g>
<polygon points="12.8,120.5 12.8,118.7 16.4,118.7 16.4,117.7 18.3,119.6 16.4,121.6 16.4,120.5 "/>
<polygon points="12.8,111.3 12.8,109.5 16.4,109.5 16.4,108.5 18.3,110.4 16.4,112.4 16.4,111.3 "/>
<g>
	<g>
		<g>
			<g>
				<g>
					<text id="tspan6341_8_" transform="matrix(0 1 -1 0 13.5 122.4802)" class="st3 st4">+5V</text>
				</g>
			</g>
		</g>
	</g>
</g>
<g>
	<g>
		<g>
			<g>
				<g>
					<text id="tspan6345_8_" transform="matrix(0 1 -1 0 13.5 101.8159)" class="st3 st4">GND</text>
				</g>
			</g>
		</g>
	</g>
</g>
<g>
	<g>
		<g>
			<g>
				<g>
					<text id="tspan6357_16_" transform="matrix(0 1 -1 0 13.5 113.2231)" class="st3 st4">DI</text>
				</g>
			</g>
		</g>
	</g>
</g>
<g>
	<g>
		<g>
			<g>
				<g>
					<text id="tspan6341_16_" transform="matrix(0 -1 1 0 156.4926 126.9021)" class="st3 st4">+5V</text>
				</g>
			</g>
		</g>
	</g>
</g>
<g>
	<g>
		<g>
			<g>
				<g>
					<text id="tspan6345_16_" transform="matrix(0 -1 1 0 156.4926 107.4832)" class="st3 st4">GND</text>
				</g>
			</g>
		</g>
	</g>
</g>
<polygon points="173.2,119.5 173.2,117.7 176.7,117.7 176.7,116.7 178.7,118.6 176.7,120.6 176.7,119.5 "/>
<polygon points="152.4,119.5 152.4,117.7 156,117.7 156,116.7 157.9,118.6 156,120.6 156,119.5 "/>
<polygon points="152.4,110.3 152.4,108.5 156,108.5 156,107.5 157.9,109.4 156,111.4 156,110.3 "/>
<polygon points="173.2,110.3 173.2,108.5 176.7,108.5 176.7,107.5 178.7,109.4 176.7,111.4 176.7,110.3 "/>
<g>
	<g>
		<g>
			<g>
				<g>
					<text id="tspan6341_15_" transform="matrix(0 1 -1 0 173.8262 121.4802)" class="st3 st4">+5V</text>
				</g>
			</g>
		</g>
	</g>
</g>
<g>
	<g>
		<g>
			<g>
				<g>
					<text id="tspan6345_15_" transform="matrix(0 1 -1 0 173.8262 100.8159)" class="st3 st4">GND</text>
				</g>
			</g>
		</g>
	</g>
</g>
<g>
	<g>
		<g>
			<g>
				<g>
					<text id="tspan6357_23_" transform="matrix(0 1 -1 0 173.8262 112.2558)" class="st3 st4">DI</text>
				</g>
			</g>
		</g>
	</g>
</g>
<g>
	<g>
		<g>
			<g>
				<g>
					<text id="tspan6341_18_" transform="matrix(0 -1 1 0 212.4937 126.9011)" class="st3 st4">+5V</text>
				</g>
			</g>
		</g>
	</g>
</g>
<g>
	<g>
		<g>
			<g>
				<g>
					<text id="tspan6345_18_" transform="matrix(0 -1 1 0 212.4937 107.4822)" class="st3 st4">GND</text>
				</g>
			</g>
		</g>
	</g>
</g>
<polygon points="208.4,119.5 208.4,117.7 212,117.7 212,116.7 213.9,118.6 212,120.6 212,119.5 "/>
<polygon points="208.4,110.3 208.4,108.5 212,108.5 212,107.5 213.9,109.4 212,111.4 212,110.3 "/>
<g>
	<g>
		<g>
			<g>
				<g>
					<text id="tspan6357_24_" transform="matrix(0 -1 1 0 156.4919 116.0056)" class="st3 st4">DO</text>
				</g>
			</g>
		</g>
	</g>
</g>
<g>
	<g>
		<g>
			<g>
				<g>
					<text id="tspan6357_25_" transform="matrix(0 -1 1 0 212.4934 116.0056)" class="st3 st4">DO</text>
				</g>
			</g>
		</g>
	</g>
</g>
<path id="path10269_1_" class="st12" d="M47.3,106.4v5.5 M47.3,106.4c0-0.6-0.4-1.1-0.8-1.1c0,0,0,0,0,0 M41.5,105.3h5 M40.7,106.4
	c0-0.6,0.4-1.1,0.8-1.1c0,0,0,0,0,0 M40.7,111.9v-5.5"/>
<path id="path10271_1_" class="st12" d="M47.3,121.8v-5.5 M47.3,121.8c0,0.6-0.4,1.1-0.8,1.1c0,0,0,0,0,0 M41.5,122.9h5 M40.7,121.8
	c0,0.6,0.4,1.1,0.8,1.1c0,0,0,0,0,0 M40.7,116.3v5.5"/>
<rect id="rect10275_1_" x="41.5" y="107.5" class="st2" width="5" height="13.2"/>
<rect id="rect10273_1_" x="41.5" y="110.8" class="st9" width="5" height="6.6"/>
<path id="path10269_2_" class="st12" d="M104,106.4v5.5 M104,106.4c0-0.6-0.4-1.1-0.8-1.1c0,0,0,0,0,0 M98.3,105.3h5 M97.4,106.4
	c0-0.6,0.4-1.1,0.8-1.1c0,0,0,0,0,0 M97.4,111.9v-5.5"/>
<path id="path10271_2_" class="st12" d="M104,121.8v-5.5 M104,121.8c0,0.6-0.4,1.1-0.8,1.1c0,0,0,0,0,0 M98.3,122.9h5 M97.4,121.8
	c0,0.6,0.4,1.1,0.8,1.1c0,0,0,0,0,0 M97.4,116.3v5.5"/>
<rect id="rect10275_2_" x="98.3" y="107.5" class="st2" width="5" height="13.2"/>
<rect id="rect10273_2_" x="98.3" y="110.8" class="st9" width="5" height="6.6"/>
<path id="path10269_3_" class="st12" d="M150.8,106.4v5.5 M150.8,106.4c0-0.6-0.4-1.1-0.8-1.1c0,0,0,0,0,0 M145,105.3h5
	 M144.2,106.4c0-0.6,0.4-1.1,0.8-1.1c0,0,0,0,0,0 M144.2,111.9v-5.5"/>
<path id="path10271_3_" class="st12" d="M150.8,121.8v-5.5 M150.8,121.8c0,0.6-0.4,1.1-0.8,1.1c0,0,0,0,0,0 M145,122.9h5
	 M144.2,121.8c0,0.6,0.4,1.1,0.8,1.1c0,0,0,0,0,0 M144.2,116.3v5.5"/>
<rect id="rect10275_3_" x="145" y="107.5" class="st2" width="5" height="13.2"/>
<rect id="rect10273_3_" x="145" y="110.8" class="st9" width="5" height="6.6"/>
<path id="path10269_4_" class="st12" d="M206.7,106.4v5.5 M206.7,106.4c0-0.6-0.4-1.1-0.8-1.1c0,0,0,0,0,0 M201,105.3h5
	 M200.1,106.4c0-0.6,0.4-1.1,0.8-1.1c0,0,0,0,0,0 M200.1,111.9v-5.5"/>
<path id="path10271_4_" class="st12" d="M206.7,121.8v-5.5 M206.7,121.8c0,0.6-0.4,1.1-0.8,1.1c0,0,0,0,0,0 M201,122.9h5
	 M200.1,121.8c0,0.6,0.4,1.1,0.8,1.1c0,0,0,0,0,0 M200.1,116.3v5.5"/>
<rect id="rect10275_4_" x="201" y="107.5" class="st2" width="5" height="13.2"/>
<rect id="rect10273_4_" x="201" y="110.8" class="st9" width="5" height="6.6"/>
</svg>
