<?xml version="1.0" encoding="utf-8"?>
<!-- Generator: Adobe Illustrator 21.1.0, SVG Export Plug-In . SVG Version: 6.00 Build 0)  -->
<svg version="1.1" id="Layer_1" xmlns="http://www.w3.org/2000/svg" xmlns:xlink="http://www.w3.org/1999/xlink" x="0px" y="0px"
	 viewBox="0 0 335.7 81.6" style="enable-background:new 0 0 335.7 81.6;" xml:space="preserve">
<style type="text/css">
	.st0{fill:#F2F2F2;stroke:#000000;stroke-width:0.45;stroke-linecap:round;}
	.st1{fill:none;stroke:#000000;stroke-width:0.5669;stroke-linecap:round;stroke-linejoin:round;}
	.st2{fill:#B1B1B1;}
	.st3{font-family:'ArialMT';}
	.st4{font-size:3px;}
	.st5{fill:#E6E6E6;stroke:#000000;stroke-width:8.240000e-02;stroke-opacity:0.5873;}
	.st6{fill:#1423FF;}
	.st7{fill:#FF0000;}
	.st8{fill:#00FF0B;}
	.st9{fill:#6C5D53;}
	.st10{fill:#FF9955;}
	.st11{fill-opacity:0.8624;}
</style>
<g>
	<g>
		<g>
			<g>
				<path id="path5607" class="st0" d="M59.8,23.8h108l-9,34h-99 M59.8,57.8v-34"/>
			</g>
		</g>
	</g>
</g>
<line class="st1" x1="107.1" y1="26.1" x2="107.1" y2="55.6"/>
<line class="st1" x1="154.3" y1="26.1" x2="154.3" y2="55.6"/>
<g>
	<g>
		<g>
			<g>
				<path id="path7626" class="st0" d="M275.8,57.8h-108l9-34h99 M275.8,23.8v34"/>
			</g>
		</g>
	</g>
</g>
<rect x="76.2" y="30.6" class="st2" width="3.4" height="20.4"/>
<rect x="81.8" y="30.6" class="st2" width="3.4" height="20.4"/>
<rect x="87.3" y="30.6" class="st2" width="3.4" height="20.4"/>
<rect x="123.5" y="30.6" class="st2" width="3.4" height="20.4"/>
<rect x="129" y="30.6" class="st2" width="3.4" height="20.4"/>
<rect x="134.5" y="30.6" class="st2" width="3.4" height="20.4"/>
<rect x="197.7" y="30.6" class="st2" width="3.4" height="20.4"/>
<rect x="203.3" y="30.6" class="st2" width="3.4" height="20.4"/>
<rect x="208.8" y="30.6" class="st2" width="3.4" height="20.4"/>
<rect x="245" y="30.6" class="st2" width="3.4" height="20.4"/>
<rect x="250.5" y="30.6" class="st2" width="3.4" height="20.4"/>
<rect x="256" y="30.6" class="st2" width="3.4" height="20.4"/>
<line class="st1" x1="228.6" y1="26.1" x2="228.6" y2="55.6"/>
<line class="st1" x1="181.3" y1="26.1" x2="181.3" y2="55.6"/>
<g transform="matrix(1, 0, 0, 1, 11.0244, 430.775)">
	<g>
		<g>
			<g>
				<text id="tspan6341" transform="matrix(1 0 0 1 55.3299 -377.6666)" class="st3 st4">GND</text>
			</g>
		</g>
	</g>
</g>
<g transform="matrix(1, 0, 0, 1, 11.0246, 408.825)">
	<g>
		<g>
			<g>
				<text id="tspan6345" transform="matrix(1 0 0 1 55.3299 -377.6667)" class="st3 st4">VCC</text>
			</g>
		</g>
	</g>
</g>
<g transform="matrix(0, -1, 1, 0, 14.6303, 417.758)">
	<g>
		<g>
			<g>
				<text id="tspan6357" transform="matrix(1 0 0 1 377.6668 55.3299)" class="st3 st4">CI</text>
			</g>
		</g>
	</g>
</g>
<g transform="matrix(0, -1, 1, 0, 14.6303, 424.561)">
	<g>
		<g>
			<g>
				<text id="tspan6357_1_" transform="matrix(1 0 0 1 377.6661 55.3299)" class="st3 st4">DI</text>
			</g>
		</g>
	</g>
</g>
<g transform="matrix(1, 0, 0, 1, 36.9496, 430.775)">
	<g>
		<g>
			<g>
				<text id="tspan6341_6_" transform="matrix(1 0 0 1 55.3299 -377.6666)" class="st3 st4">GND</text>
			</g>
		</g>
	</g>
</g>
<g transform="matrix(1, 0, 0, 1, 36.9497, 408.825)">
	<g>
		<g>
			<g>
				<text id="tspan6345_6_" transform="matrix(1 0 0 1 55.3298 -377.6667)" class="st3 st4">VCC</text>
			</g>
		</g>
	</g>
</g>
<g transform="matrix(0, -1, 1, 0, 44.5417, 417.758)">
	<g>
		<g>
			<g>
				<text id="tspan6357_9_" transform="matrix(1 0 0 1 377.6668 55.3299)" class="st3 st4">CO</text>
			</g>
		</g>
	</g>
</g>
<g transform="matrix(0, -1, 1, 0, 44.5417, 424.561)">
	<g>
		<g>
			<g>
				<text id="tspan6357_8_" transform="matrix(1 0 0 1 377.6661 55.3299)" class="st3 st4">DO</text>
			</g>
		</g>
	</g>
</g>
<g>
	<g>
		<g>
			<g>
				<g id="g6613">
					<g transform="matrix(0.2425, -0.9701, 0.9701, 0.2425, -344.746, 447.389)">
						<g>
							<g>
								<g>
									
										<ellipse id="circle6615" transform="matrix(-1 2.524750e-06 -2.524750e-06 -1 981.6149 787.8808)" cx="490.8" cy="393.9" rx="0.4" ry="0.4"/>
								</g>
							</g>
						</g>
					</g>
					<g transform="matrix(0.2425, -0.9701, 0.9701, 0.2425, -342.957, 446.624)">
						<g>
							<g>
								<g>
									
										<ellipse id="circle6617" transform="matrix(-1 2.524750e-06 -2.524750e-06 -1 982.423 784.8248)" cx="491.2" cy="392.4" rx="0.4" ry="0.4"/>
								</g>
							</g>
						</g>
					</g>
					<g transform="matrix(0.2425, -0.9701, 0.9701, 0.2425, -341.169, 445.859)">
						<g>
							<g>
								<g>
									
										<ellipse id="circle6619" transform="matrix(-1 2.524750e-06 -2.524750e-06 -1 983.231 781.7688)" cx="491.6" cy="390.9" rx="0.4" ry="0.4"/>
								</g>
							</g>
						</g>
					</g>
				</g>
			</g>
		</g>
	</g>
</g>
<g>
	<g>
		<g>
			<g>
				<g id="g6613_1_">
					<g transform="matrix(0.2425, -0.9701, 0.9701, 0.2425, -337.928, 456.12)">
						<g>
							<g>
								<g>
									
										<ellipse id="circle6615_1_" transform="matrix(-1 2.524750e-06 -2.524750e-06 -1 999.6149 787.8807)" cx="499.8" cy="393.9" rx="0.4" ry="0.4"/>
								</g>
							</g>
						</g>
					</g>
					<g transform="matrix(0.2425, -0.9701, 0.9701, 0.2425, -336.14, 455.355)">
						<g>
							<g>
								<g>
									
										<ellipse id="circle6617_1_" transform="matrix(-1 2.524750e-06 -2.524750e-06 -1 1000.423 784.8247)" cx="500.2" cy="392.4" rx="0.4" ry="0.4"/>
								</g>
							</g>
						</g>
					</g>
					<g transform="matrix(0.2425, -0.9701, 0.9701, 0.2425, -334.351, 454.59)">
						<g>
							<g>
								<g>
									
										<ellipse id="circle6619_1_" transform="matrix(-1 2.524750e-06 -2.524750e-06 -1 1001.231 781.7687)" cx="500.6" cy="390.9" rx="0.4" ry="0.4"/>
								</g>
							</g>
						</g>
					</g>
				</g>
			</g>
		</g>
	</g>
</g>
<g>
	<g>
		<g transform="matrix(-2.53518e-06, -1, 1, -2.53518e-06, -403.966, 449.062)">
			<g>
				<g>
					<g>
						
							<rect id="rect10249" x="399.8" y="478.9" transform="matrix(4.648184e-07 -1 1 4.648184e-07 -79.1411 895.6995)" class="st5" width="17" height="17"/>
					</g>
				</g>
			</g>
		</g>
	</g>
</g>
<path id="path10251" class="st2" d="M83.5,34.4c3.5,0,6.4,2.9,6.4,6.4s-2.9,6.4-6.4,6.4l0,0c-3.5,0-6.4-2.9-6.4-6.4
	S79.9,34.4,83.5,34.4z"/>
<g>
	<g>
		<path id="path10253" class="st6" d="M87.3,38.7c1.2,0,2.1,1,2.1,2.1c0,1.2-1,2.1-2.1,2.1c-1.2,0-2.1-1-2.1-2.1
			C85.2,39.6,86.1,38.7,87.3,38.7z"/>
	</g>
</g>
<g>
	<g>
		<path id="path10255" class="st7" d="M83.5,42.5c1.2,0,2.1,1,2.1,2.1s-1,2.1-2.1,2.1c-1.2,0-2.1-1-2.1-2.1S82.3,42.5,83.5,42.5z"/>
	</g>
</g>
<g>
	<g>
		<path id="path10257" class="st8" d="M79.6,38.7c1.2,0,2.1,1,2.1,2.1c0,1.2-1,2.1-2.1,2.1c-1.2,0-2.1-1-2.1-2.1
			C77.5,39.6,78.5,38.7,79.6,38.7z"/>
	</g>
</g>
<rect x="81.6" y="35.5" class="st9" width="3.7" height="3.7"/>
<g transform="matrix(0.2425, -0.9701, 0.9701, 0.2425, -297.381, 410.301)">
	<g>
		<g>
			<g>
				
					<ellipse id="circle6606" transform="matrix(-1 2.524750e-06 -2.524750e-06 -1 987.7845 715.3539)" cx="493.9" cy="357.7" rx="0.4" ry="0.4"/>
			</g>
		</g>
	</g>
</g>
<g transform="matrix(0.2425, -0.9701, 0.9701, 0.2425, -295.593, 409.536)">
	<g>
		<g>
			<g>
				
					<ellipse id="circle6608" transform="matrix(-1 2.524750e-06 -2.524750e-06 -1 988.5925 712.2979)" cx="494.3" cy="356.1" rx="0.4" ry="0.4"/>
			</g>
		</g>
	</g>
</g>
<g transform="matrix(0.2425, -0.9701, 0.9701, 0.2425, -293.804, 408.771)">
	<g>
		<g>
			<g>
				
					<ellipse id="circle6610" transform="matrix(-1 2.524750e-06 -2.524750e-06 -1 989.4005 709.2419)" cx="494.7" cy="354.6" rx="0.4" ry="0.4"/>
			</g>
		</g>
	</g>
</g>
<g transform="matrix(0.2425, -0.9701, 0.9701, 0.2425, -290.564, 419.033)">
	<g>
		<g>
			<g>
				
					<ellipse id="circle6606_1_" transform="matrix(-1 2.524750e-06 -2.524750e-06 -1 1005.7845 715.3539)" cx="502.9" cy="357.7" rx="0.4" ry="0.4"/>
			</g>
		</g>
	</g>
</g>
<g transform="matrix(0.2425, -0.9701, 0.9701, 0.2425, -288.776, 418.268)">
	<g>
		<g>
			<g>
				
					<ellipse id="circle6608_1_" transform="matrix(-1 2.524750e-06 -2.524750e-06 -1 1006.5925 712.2979)" cx="503.3" cy="356.1" rx="0.4" ry="0.4"/>
			</g>
		</g>
	</g>
</g>
<g transform="matrix(0.2425, -0.9701, 0.9701, 0.2425, -286.987, 417.502)">
	<g>
		<g>
			<g>
				
					<ellipse id="circle6610_1_" transform="matrix(-1 2.524750e-06 -2.524750e-06 -1 1007.4005 709.2419)" cx="503.7" cy="354.6" rx="0.4" ry="0.4"/>
			</g>
		</g>
	</g>
</g>
<polygon points="84,56.2 84,54.2 87.9,54.2 87.9,53.1 90,55.2 87.9,57.3 87.9,56.2 "/>
<g transform="matrix(1, 0, 0, 1, 58.2686, 430.775)">
	<g>
		<g>
			<g>
				<text id="tspan6341_1_" transform="matrix(1 0 0 1 55.3299 -377.6666)" class="st3 st4">GND</text>
			</g>
		</g>
	</g>
</g>
<g transform="matrix(1, 0, 0, 1, 58.2688, 408.825)">
	<g>
		<g>
			<g>
				<text id="tspan6345_1_" transform="matrix(1 0 0 1 55.3299 -377.6667)" class="st3 st4">VCC</text>
			</g>
		</g>
	</g>
</g>
<g transform="matrix(0, -1, 1, 0, 61.8745, 417.758)">
	<g>
		<g>
			<g>
				<text id="tspan6357_7_" transform="matrix(1 0 0 1 377.6668 55.3299)" class="st3 st4">CI</text>
			</g>
		</g>
	</g>
</g>
<g transform="matrix(0, -1, 1, 0, 61.8745, 424.561)">
	<g>
		<g>
			<g>
				<text id="tspan6357_6_" transform="matrix(1 0 0 1 377.6661 55.3299)" class="st3 st4">DI</text>
			</g>
		</g>
	</g>
</g>
<path class="st10" d="M110.3,33.6h-6.5c-1.6,0-3-1.3-3-3l0,0c0-1.6,1.3-3,3-3h6.5c1.6,0,3,1.3,3,3l0,0
	C113.3,32.2,112,33.6,110.3,33.6z"/>
<path class="st10" d="M111.3,39.4h-8.5c-1.1,0-2-0.9-2-2l0,0c0-1.1,0.9-2,2-2h8.5c1.1,0,2,0.9,2,2l0,0
	C113.3,38.5,112.4,39.4,111.3,39.4z"/>
<path class="st10" d="M111.3,46.2h-8.5c-1.1,0-2-0.9-2-2l0,0c0-1.1,0.9-2,2-2h8.5c1.1,0,2,0.9,2,2l0,0
	C113.3,45.3,112.4,46.2,111.3,46.2z"/>
<path class="st10" d="M110.3,54h-6.5c-1.6,0-3-1.3-3-3l0,0c0-1.6,1.3-3,3-3h6.5c1.6,0,3,1.3,3,3l0,0C113.3,52.6,112,54,110.3,54z"/>
<g>
	<g>
		<g>
			<g>
				<path class="st11" d="M104.3,30.6c0,0.4-0.3,0.7-0.7,0.7s-0.7-0.3-0.7-0.7l0,0c0-0.4,0.3-0.7,0.7-0.7S104.3,30.2,104.3,30.6z"/>
			</g>
		</g>
	</g>
</g>
<g>
	<g>
		<g>
			<g>
				<path class="st11" d="M104.3,37.4c0,0.4-0.3,0.7-0.7,0.7s-0.7-0.3-0.7-0.7l0,0c0-0.4,0.3-0.7,0.7-0.7S104.3,37,104.3,37.4z"/>
			</g>
		</g>
	</g>
</g>
<g>
	<g>
		<g>
			<g>
				<path class="st11" d="M104.3,44.2c0,0.4-0.3,0.7-0.7,0.7s-0.7-0.3-0.7-0.7l0,0c0-0.4,0.3-0.7,0.7-0.7S104.3,43.8,104.3,44.2z"/>
			</g>
		</g>
	</g>
</g>
<g>
	<g>
		<g>
			<g>
				<path class="st11" d="M104.3,51c0,0.4-0.3,0.7-0.7,0.7S103,51.4,103,51l0,0c0-0.4,0.3-0.7,0.7-0.7S104.3,50.6,104.3,51z"/>
			</g>
		</g>
	</g>
</g>
<g>
	<g>
		<g>
			<g>
				<path class="st11" d="M111.2,30.6c0,0.4-0.3,0.7-0.7,0.7s-0.7-0.3-0.7-0.7l0,0c0-0.4,0.3-0.7,0.7-0.7S111.2,30.2,111.2,30.6z"/>
			</g>
		</g>
	</g>
</g>
<g>
	<g>
		<g>
			<g>
				<path class="st11" d="M111.2,37.4c0,0.4-0.3,0.7-0.7,0.7s-0.7-0.3-0.7-0.7l0,0c0-0.4,0.3-0.7,0.7-0.7S111.2,37,111.2,37.4z"/>
			</g>
		</g>
	</g>
</g>
<g>
	<g>
		<g>
			<g>
				<path class="st11" d="M111.2,44.2c0,0.4-0.3,0.7-0.7,0.7s-0.7-0.3-0.7-0.7l0,0c0-0.4,0.3-0.7,0.7-0.7S111.2,43.8,111.2,44.2z"/>
			</g>
		</g>
	</g>
</g>
<g>
	<g>
		<g>
			<g>
				<path class="st11" d="M111.2,51c0,0.4-0.3,0.7-0.7,0.7s-0.7-0.3-0.7-0.7l0,0c0-0.4,0.3-0.7,0.7-0.7S111.2,50.6,111.2,51z"/>
			</g>
		</g>
	</g>
</g>
<g transform="matrix(1, 0, 0, 1, 84.1936, 430.775)">
	<g>
		<g>
			<g>
				<text id="tspan6341_7_" transform="matrix(1 0 0 1 55.3299 -377.6666)" class="st3 st4">GND</text>
			</g>
		</g>
	</g>
</g>
<g transform="matrix(1, 0, 0, 1, 84.1938, 408.825)">
	<g>
		<g>
			<g>
				<text id="tspan6345_7_" transform="matrix(1 0 0 1 55.3299 -377.6667)" class="st3 st4">VCC</text>
			</g>
		</g>
	</g>
</g>
<g transform="matrix(0, -1, 1, 0, 91.7857, 417.758)">
	<g>
		<g>
			<g>
				<text id="tspan6357_12_" transform="matrix(1 0 0 1 377.6668 55.3299)" class="st3 st4">CO</text>
			</g>
		</g>
	</g>
</g>
<g transform="matrix(0, -1, 1, 0, 91.7857, 424.561)">
	<g>
		<g>
			<g>
				<text id="tspan6357_11_" transform="matrix(1 0 0 1 377.6661 55.3299)" class="st3 st4">DO</text>
			</g>
		</g>
	</g>
</g>
<g>
	<g>
		<g>
			<g>
				<g id="g10231_1_">
					<g transform="matrix(1, 0, 0, 1, 0, -405)">
						<g>
							<g>
								<g>
									<g>
										<g transform="matrix(-2.53518e-06, -1, 1, -2.53518e-06, -447.206, 492.302)">
											<g>
												<g>
													<g>
														
															<rect id="rect10249_1_" x="38" y="569.4" transform="matrix(4.648184e-07 -1 1 4.648184e-07 -531.3826 624.4227)" class="st5" width="17" height="17"/>
													</g>
												</g>
											</g>
										</g>
									</g>
								</g>
							</g>
						</g>
					</g>
					<path id="path10251_1_" class="st2" d="M130.7,34.4c3.5,0,6.4,2.9,6.4,6.4s-2.9,6.4-6.4,6.4l0,0c-3.5,0-6.4-2.9-6.4-6.4
						S127.2,34.4,130.7,34.4z"/>
					<g transform="matrix(1, 0, 0, 1, 18, -13.95)">
						<g>
							<g>
								<g>
									<g>
										<path id="path10253_1_" class="st6" d="M116.5,52.6c1.2,0,2.1,1,2.1,2.1s-1,2.1-2.1,2.1s-2.1-1-2.1-2.1
											S115.3,52.6,116.5,52.6z"/>
									</g>
								</g>
							</g>
						</g>
					</g>
					<g transform="matrix(1, 0, 0, 1, 13.95, -18)">
						<g>
							<g>
								<g>
									<g>
										<path id="path10255_1_" class="st7" d="M116.7,60.5c1.2,0,2.1,1,2.1,2.1s-1,2.1-2.1,2.1s-2.1-1-2.1-2.1
											S115.6,60.5,116.7,60.5z"/>
									</g>
								</g>
							</g>
						</g>
					</g>
					<g transform="matrix(1, 0, 0, 1, 18, -22.05)">
						<g>
							<g>
								<g>
									<g>
										<path id="path10257_1_" class="st8" d="M108.9,60.7c1.2,0,2.1,1,2.1,2.1s-1,2.1-2.1,2.1c-1.2,0-2.1-1-2.1-2.1
											S107.7,60.7,108.9,60.7z"/>
									</g>
								</g>
							</g>
						</g>
					</g>
					<g>
						<rect x="128.8" y="35.5" class="st9" width="3.7" height="3.7"/>
					</g>
				</g>
			</g>
		</g>
	</g>
</g>
<polygon points="131.3,56.2 131.3,54.2 135.1,54.2 135.1,53.1 137.3,55.2 135.1,57.3 135.1,56.2 "/>
<path class="st10" d="M157.6,33.6h-6.5c-1.6,0-3-1.3-3-3l0,0c0-1.6,1.3-3,3-3h6.5c1.6,0,3,1.3,3,3l0,0
	C160.6,32.2,159.2,33.6,157.6,33.6z"/>
<path class="st10" d="M158.6,39.4h-8.5c-1.1,0-2-0.9-2-2l0,0c0-1.1,0.9-2,2-2h8.5c1.1,0,2,0.9,2,2l0,0
	C160.6,38.5,159.7,39.4,158.6,39.4z"/>
<path class="st10" d="M158.6,46.2h-8.5c-1.1,0-2-0.9-2-2l0,0c0-1.1,0.9-2,2-2h8.5c1.1,0,2,0.9,2,2l0,0
	C160.6,45.3,159.7,46.2,158.6,46.2z"/>
<path class="st10" d="M157.6,54h-6.5c-1.6,0-3-1.3-3-3l0,0c0-1.6,1.3-3,3-3h6.5c1.6,0,3,1.3,3,3l0,0C160.6,52.6,159.2,54,157.6,54z"
	/>
<g>
	<g>
		<g>
			<g>
				<path class="st11" d="M151.6,30.6c0,0.4-0.3,0.7-0.7,0.7s-0.7-0.3-0.7-0.7l0,0c0-0.4,0.3-0.7,0.7-0.7S151.6,30.2,151.6,30.6z"/>
			</g>
		</g>
	</g>
</g>
<g>
	<g>
		<g>
			<g>
				<path class="st11" d="M151.6,37.4c0,0.4-0.3,0.7-0.7,0.7s-0.7-0.3-0.7-0.7l0,0c0-0.4,0.3-0.7,0.7-0.7S151.6,37,151.6,37.4z"/>
			</g>
		</g>
	</g>
</g>
<g>
	<g>
		<g>
			<g>
				<path class="st11" d="M151.6,44.2c0,0.4-0.3,0.7-0.7,0.7s-0.7-0.3-0.7-0.7l0,0c0-0.4,0.3-0.7,0.7-0.7S151.6,43.8,151.6,44.2z"/>
			</g>
		</g>
	</g>
</g>
<g>
	<g>
		<g>
			<g>
				<path class="st11" d="M151.6,51c0,0.4-0.3,0.7-0.7,0.7s-0.7-0.3-0.7-0.7l0,0c0-0.4,0.3-0.7,0.7-0.7S151.6,50.6,151.6,51z"/>
			</g>
		</g>
	</g>
</g>
<g>
	<g>
		<g>
			<g>
				<path class="st11" d="M158.4,30.6c0,0.4-0.3,0.7-0.7,0.7s-0.7-0.3-0.7-0.7l0,0c0-0.4,0.3-0.7,0.7-0.7S158.4,30.2,158.4,30.6z"/>
			</g>
		</g>
	</g>
</g>
<g>
	<g>
		<g>
			<g>
				<path class="st11" d="M158.4,37.4c0,0.4-0.3,0.7-0.7,0.7s-0.7-0.3-0.7-0.7l0,0c0-0.4,0.3-0.7,0.7-0.7
					C158.1,36.7,158.4,37,158.4,37.4z"/>
			</g>
		</g>
	</g>
</g>
<g>
	<g>
		<g>
			<g>
				<path class="st11" d="M158.4,44.2c0,0.4-0.3,0.7-0.7,0.7s-0.7-0.3-0.7-0.7l0,0c0-0.4,0.3-0.7,0.7-0.7S158.4,43.8,158.4,44.2z"/>
			</g>
		</g>
	</g>
</g>
<g>
	<g>
		<g>
			<g>
				<path class="st11" d="M158.4,51c0,0.4-0.3,0.7-0.7,0.7S157,51.4,157,51l0,0c0-0.4,0.3-0.7,0.7-0.7S158.4,50.6,158.4,51z"/>
			</g>
		</g>
	</g>
</g>
<g transform="matrix(1, 0, 0, 1, 179.78, 430.775)">
	<g>
		<g>
			<g>
				<text id="tspan6341_3_" transform="matrix(1 0 0 1 55.3299 -377.6666)" class="st3 st4">GND</text>
			</g>
		</g>
	</g>
</g>
<g transform="matrix(1, 0, 0, 1, 179.78, 408.825)">
	<g>
		<g>
			<g>
				<text id="tspan6345_3_" transform="matrix(1 0 0 1 55.3299 -377.6667)" class="st3 st4">VCC</text>
			</g>
		</g>
	</g>
</g>
<g transform="matrix(0, -1, 1, 0, 183.386, 417.758)">
	<g>
		<g>
			<g>
				<text id="tspan6357_5_" transform="matrix(1 0 0 1 377.6668 55.3299)" class="st3 st4">CI</text>
			</g>
		</g>
	</g>
</g>
<g transform="matrix(0, -1, 1, 0, 183.386, 424.561)">
	<g>
		<g>
			<g>
				<text id="tspan6357_4_" transform="matrix(1 0 0 1 377.6661 55.3299)" class="st3 st4">DI</text>
			</g>
		</g>
	</g>
</g>
<g transform="matrix(1, 0, 0, 1, 205.705, 430.775)">
	<g>
		<g>
			<g>
				<text id="tspan6341_2_" transform="matrix(1 0 0 1 55.3299 -377.6666)" class="st3 st4">GND</text>
			</g>
		</g>
	</g>
</g>
<g transform="matrix(1, 0, 0, 1, 205.706, 408.825)">
	<g>
		<g>
			<g>
				<text id="tspan6345_2_" transform="matrix(1 0 0 1 55.3299 -377.6667)" class="st3 st4">VCC</text>
			</g>
		</g>
	</g>
</g>
<g transform="matrix(0, -1, 1, 0, 213.298, 417.758)">
	<g>
		<g>
			<g>
				<text id="tspan6357_3_" transform="matrix(1 0 0 1 377.6668 55.3299)" class="st3 st4">CO</text>
			</g>
		</g>
	</g>
</g>
<g transform="matrix(0, -1, 1, 0, 213.298, 424.561)">
	<g>
		<g>
			<g>
				<text id="tspan6357_2_" transform="matrix(1 0 0 1 377.6661 55.3299)" class="st3 st4">DO</text>
			</g>
		</g>
	</g>
</g>
<g>
	<g>
		<g>
			<g>
				<g id="g10231_2_">
					<g transform="matrix(1, 0, 0, 1, 0, -405)">
						<g>
							<g>
								<g>
									<g>
										<g transform="matrix(-2.53518e-06, -1, 1, -2.53518e-06, -558.42, 603.517)">
											<g>
												<g>
													<g>
														
															<rect id="rect10249_4_" x="149.2" y="802.1" transform="matrix(4.648184e-07 -1 1 4.648184e-07 -652.8951 968.3637)" class="st5" width="17" height="17"/>
													</g>
												</g>
											</g>
										</g>
									</g>
								</g>
							</g>
						</g>
					</g>
					<path id="path10251_4_" class="st2" d="M252.2,34.4c3.5,0,6.4,2.9,6.4,6.4s-2.9,6.4-6.4,6.4l0,0c-3.5,0-6.4-2.9-6.4-6.4
						S248.7,34.4,252.2,34.4z"/>
					<g transform="matrix(1, 0, 0, 1, 18, -13.95)">
						<g>
							<g>
								<g>
									<g>
										<path id="path10253_4_" class="st6" d="M238,52.6c1.2,0,2.1,1,2.1,2.1s-1,2.1-2.1,2.1s-2.1-1-2.1-2.1S236.9,52.6,238,52.6
											z"/>
									</g>
								</g>
							</g>
						</g>
					</g>
					<g transform="matrix(1, 0, 0, 1, 13.95, -18)">
						<g>
							<g>
								<g>
									<g>
										<path id="path10255_4_" class="st7" d="M238.3,60.5c1.2,0,2.1,1,2.1,2.1s-1,2.1-2.1,2.1s-2.1-1-2.1-2.1
											S237.1,60.5,238.3,60.5z"/>
									</g>
								</g>
							</g>
						</g>
					</g>
					<g transform="matrix(1, 0, 0, 1, 18, -22.05)">
						<g>
							<g>
								<g>
									<g>
										<path id="path10257_4_" class="st8" d="M230.4,60.7c1.2,0,2.1,1,2.1,2.1s-1,2.1-2.1,2.1s-2.1-1-2.1-2.1
											S229.2,60.7,230.4,60.7z"/>
									</g>
								</g>
							</g>
						</g>
					</g>
					<g>
						<rect x="250.3" y="35.5" class="st9" width="3.7" height="3.7"/>
					</g>
				</g>
			</g>
		</g>
	</g>
</g>
<polygon points="252.8,56.2 252.8,54.2 256.6,54.2 256.6,53.1 258.8,55.2 256.6,57.3 256.6,56.2 "/>
<path class="st10" d="M231.8,33.6h-6.5c-1.6,0-3-1.3-3-3l0,0c0-1.6,1.3-3,3-3h6.5c1.6,0,3,1.3,3,3l0,0
	C234.8,32.2,233.5,33.6,231.8,33.6z"/>
<path class="st10" d="M232.8,39.4h-8.5c-1.1,0-2-0.9-2-2l0,0c0-1.1,0.9-2,2-2h8.5c1.1,0,2,0.9,2,2l0,0
	C234.8,38.5,233.9,39.4,232.8,39.4z"/>
<path class="st10" d="M232.8,46.2h-8.5c-1.1,0-2-0.9-2-2l0,0c0-1.1,0.9-2,2-2h8.5c1.1,0,2,0.9,2,2l0,0
	C234.8,45.3,233.9,46.2,232.8,46.2z"/>
<path class="st10" d="M231.8,54h-6.5c-1.6,0-3-1.3-3-3l0,0c0-1.6,1.3-3,3-3h6.5c1.6,0,3,1.3,3,3l0,0C234.8,52.6,233.5,54,231.8,54z"
	/>
<g>
	<g>
		<g>
			<g>
				<path class="st11" d="M225.9,30.6c0,0.4-0.3,0.7-0.7,0.7s-0.7-0.3-0.7-0.7l0,0c0-0.4,0.3-0.7,0.7-0.7S225.9,30.2,225.9,30.6z"/>
			</g>
		</g>
	</g>
</g>
<g>
	<g>
		<g>
			<g>
				<path class="st11" d="M225.9,37.4c0,0.4-0.3,0.7-0.7,0.7s-0.7-0.3-0.7-0.7l0,0c0-0.4,0.3-0.7,0.7-0.7
					C225.6,36.7,225.9,37,225.9,37.4z"/>
			</g>
		</g>
	</g>
</g>
<g>
	<g>
		<g>
			<g>
				<path class="st11" d="M225.9,44.2c0,0.4-0.3,0.7-0.7,0.7s-0.7-0.3-0.7-0.7l0,0c0-0.4,0.3-0.7,0.7-0.7S225.9,43.8,225.9,44.2z"/>
			</g>
		</g>
	</g>
</g>
<g>
	<g>
		<g>
			<g>
				<path class="st11" d="M225.9,51c0,0.4-0.3,0.7-0.7,0.7s-0.7-0.3-0.7-0.7l0,0c0-0.4,0.3-0.7,0.7-0.7S225.9,50.6,225.9,51z"/>
			</g>
		</g>
	</g>
</g>
<g>
	<g>
		<g>
			<g>
				<path class="st11" d="M232.7,30.6c0,0.4-0.3,0.7-0.7,0.7s-0.7-0.3-0.7-0.7l0,0c0-0.4,0.3-0.7,0.7-0.7S232.7,30.2,232.7,30.6z"/>
			</g>
		</g>
	</g>
</g>
<g>
	<g>
		<g>
			<g>
				<path class="st11" d="M232.7,37.4c0,0.4-0.3,0.7-0.7,0.7s-0.7-0.3-0.7-0.7l0,0c0-0.4,0.3-0.7,0.7-0.7
					C232.4,36.7,232.7,37,232.7,37.4z"/>
			</g>
		</g>
	</g>
</g>
<g>
	<g>
		<g>
			<g>
				<path class="st11" d="M232.7,44.2c0,0.4-0.3,0.7-0.7,0.7s-0.7-0.3-0.7-0.7l0,0c0-0.4,0.3-0.7,0.7-0.7S232.7,43.8,232.7,44.2z"/>
			</g>
		</g>
	</g>
</g>
<g>
	<g>
		<g>
			<g>
				<path class="st11" d="M232.7,51c0,0.4-0.3,0.7-0.7,0.7s-0.7-0.3-0.7-0.7l0,0c0-0.4,0.3-0.7,0.7-0.7S232.7,50.6,232.7,51z"/>
			</g>
		</g>
	</g>
</g>
<g transform="matrix(1, 0, 0, 1, 132.536, 430.775)">
	<g>
		<g>
			<g>
				<text id="tspan6341_5_" transform="matrix(1 0 0 1 55.3299 -377.6666)" class="st3 st4">GND</text>
			</g>
		</g>
	</g>
</g>
<g transform="matrix(1, 0, 0, 1, 132.536, 408.825)">
	<g>
		<g>
			<g>
				<text id="tspan6345_5_" transform="matrix(1 0 0 1 55.3299 -377.6667)" class="st3 st4">VCC</text>
			</g>
		</g>
	</g>
</g>
<g transform="matrix(0, -1, 1, 0, 136.142, 417.758)">
	<g>
		<g>
			<g>
				<text id="tspan6357_15_" transform="matrix(1 0 0 1 377.6668 55.3299)" class="st3 st4">CI</text>
			</g>
		</g>
	</g>
</g>
<g transform="matrix(0, -1, 1, 0, 136.142, 424.561)">
	<g>
		<g>
			<g>
				<text id="tspan6357_14_" transform="matrix(1 0 0 1 377.6661 55.3299)" class="st3 st4">DI</text>
			</g>
		</g>
	</g>
</g>
<g transform="matrix(1, 0, 0, 1, 158.461, 430.775)">
	<g>
		<g>
			<g>
				<text id="tspan6341_4_" transform="matrix(1 0 0 1 55.3299 -377.6666)" class="st3 st4">GND</text>
			</g>
		</g>
	</g>
</g>
<g transform="matrix(1, 0, 0, 1, 158.462, 408.825)">
	<g>
		<g>
			<g>
				<text id="tspan6345_4_" transform="matrix(1 0 0 1 55.3299 -377.6667)" class="st3 st4">VCC</text>
			</g>
		</g>
	</g>
</g>
<g transform="matrix(0, -1, 1, 0, 166.054, 417.758)">
	<g>
		<g>
			<g>
				<text id="tspan6357_13_" transform="matrix(1 0 0 1 377.6668 55.3299)" class="st3 st4">CO</text>
			</g>
		</g>
	</g>
</g>
<g transform="matrix(0, -1, 1, 0, 166.054, 424.561)">
	<g>
		<g>
			<g>
				<text id="tspan6357_10_" transform="matrix(1 0 0 1 377.6661 55.3299)" class="st3 st4">DO</text>
			</g>
		</g>
	</g>
</g>
<g>
	<g>
		<g>
			<g>
				<g id="g10231_3_">
					<g transform="matrix(1, 0, 0, 1, 0, -405)">
						<g>
							<g>
								<g>
									<g>
										<g transform="matrix(-2.53518e-06, -1, 1, -2.53518e-06, -515.18, 560.276)">
											<g>
												<g>
													<g>
														
															<rect id="rect10249_5_" x="106" y="711.6" transform="matrix(4.648184e-07 -1 1 4.648184e-07 -605.6521 834.637)" class="st5" width="17" height="17"/>
													</g>
												</g>
											</g>
										</g>
									</g>
								</g>
							</g>
						</g>
					</g>
					<path id="path10251_5_" class="st2" d="M205,34.4c3.5,0,6.4,2.9,6.4,6.4s-2.9,6.4-6.4,6.4l0,0c-3.5,0-6.4-2.9-6.4-6.4
						S201.4,34.4,205,34.4z"/>
					<g transform="matrix(1, 0, 0, 1, 18, -13.95)">
						<g>
							<g>
								<g>
									<g>
										<path id="path10253_5_" class="st6" d="M190.8,52.6c1.2,0,2.1,1,2.1,2.1s-1,2.1-2.1,2.1c-1.2,0-2.1-1-2.1-2.1
											S189.6,52.6,190.8,52.6z"/>
									</g>
								</g>
							</g>
						</g>
					</g>
					<g transform="matrix(1, 0, 0, 1, 13.95, -18)">
						<g>
							<g>
								<g>
									<g>
										<path id="path10255_5_" class="st7" d="M191,60.5c1.2,0,2.1,1,2.1,2.1s-1,2.1-2.1,2.1c-1.2,0-2.1-1-2.1-2.1
											S189.8,60.5,191,60.5z"/>
									</g>
								</g>
							</g>
						</g>
					</g>
					<g transform="matrix(1, 0, 0, 1, 18, -22.05)">
						<g>
							<g>
								<g>
									<g>
										<path id="path10257_5_" class="st8" d="M183.1,60.7c1.2,0,2.1,1,2.1,2.1s-1,2.1-2.1,2.1s-2.1-1-2.1-2.1
											S182,60.7,183.1,60.7z"/>
									</g>
								</g>
							</g>
						</g>
					</g>
					<g>
						<rect x="203.1" y="35.5" class="st9" width="3.7" height="3.7"/>
					</g>
				</g>
			</g>
		</g>
	</g>
</g>
<polygon points="205.5,56.2 205.5,54.2 209.4,54.2 209.4,53.1 211.5,55.2 209.4,57.3 209.4,56.2 "/>
<path class="st10" d="M184.6,33.6h-6.5c-1.6,0-3-1.3-3-3l0,0c0-1.6,1.3-3,3-3h6.5c1.6,0,3,1.3,3,3l0,0
	C187.6,32.2,186.2,33.6,184.6,33.6z"/>
<path class="st10" d="M185.6,39.4h-8.5c-1.1,0-2-0.9-2-2l0,0c0-1.1,0.9-2,2-2h8.5c1.1,0,2,0.9,2,2l0,0
	C187.6,38.5,186.7,39.4,185.6,39.4z"/>
<path class="st10" d="M185.6,46.2h-8.5c-1.1,0-2-0.9-2-2l0,0c0-1.1,0.9-2,2-2h8.5c1.1,0,2,0.9,2,2l0,0
	C187.6,45.3,186.7,46.2,185.6,46.2z"/>
<path class="st10" d="M184.6,54h-6.5c-1.6,0-3-1.3-3-3l0,0c0-1.6,1.3-3,3-3h6.5c1.6,0,3,1.3,3,3l0,0C187.6,52.6,186.2,54,184.6,54z"
	/>
<g>
	<g>
		<g>
			<g>
				<path class="st11" d="M178.6,30.6c0,0.4-0.3,0.7-0.7,0.7s-0.7-0.3-0.7-0.7l0,0c0-0.4,0.3-0.7,0.7-0.7S178.6,30.2,178.6,30.6z"/>
			</g>
		</g>
	</g>
</g>
<g>
	<g>
		<g>
			<g>
				<path class="st11" d="M178.6,37.4c0,0.4-0.3,0.7-0.7,0.7s-0.7-0.3-0.7-0.7l0,0c0-0.4,0.3-0.7,0.7-0.7S178.6,37,178.6,37.4z"/>
			</g>
		</g>
	</g>
</g>
<g>
	<g>
		<g>
			<g>
				<path class="st11" d="M178.6,44.2c0,0.4-0.3,0.7-0.7,0.7s-0.7-0.3-0.7-0.7l0,0c0-0.4,0.3-0.7,0.7-0.7S178.6,43.8,178.6,44.2z"/>
			</g>
		</g>
	</g>
</g>
<g>
	<g>
		<g>
			<g>
				<path class="st11" d="M178.6,51c0,0.4-0.3,0.7-0.7,0.7s-0.7-0.3-0.7-0.7l0,0c0-0.4,0.3-0.7,0.7-0.7S178.6,50.6,178.6,51z"/>
			</g>
		</g>
	</g>
</g>
<g>
	<g>
		<g>
			<g>
				<path class="st11" d="M185.4,30.6c0,0.4-0.3,0.7-0.7,0.7s-0.7-0.3-0.7-0.7l0,0c0-0.4,0.3-0.7,0.7-0.7S185.4,30.2,185.4,30.6z"/>
			</g>
		</g>
	</g>
</g>
<g>
	<g>
		<g>
			<g>
				<path class="st11" d="M185.4,37.4c0,0.4-0.3,0.7-0.7,0.7s-0.7-0.3-0.7-0.7l0,0c0-0.4,0.3-0.7,0.7-0.7
					C185.1,36.7,185.4,37,185.4,37.4z"/>
			</g>
		</g>
	</g>
</g>
<g>
	<g>
		<g>
			<g>
				<path class="st11" d="M185.4,44.2c0,0.4-0.3,0.7-0.7,0.7s-0.7-0.3-0.7-0.7l0,0c0-0.4,0.3-0.7,0.7-0.7S185.4,43.8,185.4,44.2z"/>
			</g>
		</g>
	</g>
</g>
<g>
	<g>
		<g>
			<g>
				<path class="st11" d="M185.4,51c0,0.4-0.3,0.7-0.7,0.7s-0.7-0.3-0.7-0.7l0,0c0-0.4,0.3-0.7,0.7-0.7S185.4,50.6,185.4,51z"/>
			</g>
		</g>
	</g>
</g>
<path id="connector1pin" class="st10" d="M59.8,33.6h3.3c1.6,0,3-1.3,3-3s-1.3-3-3-3l-3.3,0V33.6z"/>
<path id="connector3pin" class="st10" d="M63.1,48h-3.3v6h3.3c1.6,0,3-1.3,3-3C66.1,49.3,64.7,48,63.1,48z"/>
<path id="connector2pin" class="st10" d="M64.1,42.2h-4.3v4h4.3c1.1,0,2-0.9,2-2S65.2,42.2,64.1,42.2z"/>
<path id="connector7pin" class="st10" d="M64.1,35.4h-4.3v4h4.3c1.1,0,2-0.9,2-2l0,0C66.1,36.3,65.2,35.4,64.1,35.4z"/>
<g>
	<g>
		<g>
			<g>
				<path class="st11" d="M63.9,30.6c0,0.4-0.3,0.7-0.7,0.7c-0.4,0-0.7-0.3-0.7-0.7l0,0c0-0.4,0.3-0.7,0.7-0.7
					C63.6,29.9,63.9,30.2,63.9,30.6z"/>
			</g>
		</g>
	</g>
</g>
<g>
	<g>
		<g>
			<g>
				<path class="st11" d="M63.9,37.4c0,0.4-0.3,0.7-0.7,0.7c-0.4,0-0.7-0.3-0.7-0.7l0,0c0-0.4,0.3-0.7,0.7-0.7
					C63.6,36.7,63.9,37,63.9,37.4z"/>
			</g>
		</g>
	</g>
</g>
<g>
	<g>
		<g>
			<g>
				<path class="st11" d="M63.9,44.2c0,0.4-0.3,0.7-0.7,0.7c-0.4,0-0.7-0.3-0.7-0.7l0,0c0-0.4,0.3-0.7,0.7-0.7
					C63.6,43.5,63.9,43.8,63.9,44.2z"/>
			</g>
		</g>
	</g>
</g>
<g>
	<g>
		<g>
			<g>
				<path class="st11" d="M63.9,51c0,0.4-0.3,0.7-0.7,0.7c-0.4,0-0.7-0.3-0.7-0.7l0,0c0-0.4,0.3-0.7,0.7-0.7
					C63.6,50.3,63.9,50.6,63.9,51z"/>
			</g>
		</g>
	</g>
</g>
<path id="connector8pin" class="st10" d="M271.6,39.4h4.3v-4h-4.3c-1.1,0-2,0.9-2,2l0,0C269.6,38.5,270.5,39.4,271.6,39.4z"/>
<path id="connector6pin" class="st10" d="M272.6,33.6h3.3v-6h-3.3c-1.6,0-3,1.3-3,3S270.9,33.6,272.6,33.6z"/>
<path id="connector4pin" class="st10" d="M275.8,48h-3.3c-1.6,0-3,1.3-3,3c0,1.6,1.3,3,3,3h3.3V48z"/>
<path id="connector5pin" class="st10" d="M271.6,46.2h4.3v-4h-4.3c-1.1,0-2,0.9-2,2S270.5,46.2,271.6,46.2z"/>
<g>
	<g>
		<g>
			<g>
				<path class="st11" d="M273.1,30.6c0,0.4-0.3,0.7-0.7,0.7c-0.4,0-0.7-0.3-0.7-0.7l0,0c0-0.4,0.3-0.7,0.7-0.7
					C272.8,29.9,273.1,30.2,273.1,30.6z"/>
			</g>
		</g>
	</g>
</g>
<g>
	<g>
		<g>
			<g>
				<path class="st11" d="M273.1,37.4c0,0.4-0.3,0.7-0.7,0.7c-0.4,0-0.7-0.3-0.7-0.7l0,0c0-0.4,0.3-0.7,0.7-0.7
					C272.8,36.7,273.1,37,273.1,37.4z"/>
			</g>
		</g>
	</g>
</g>
<g>
	<g>
		<g>
			<g>
				<path class="st11" d="M273.1,44.2c0,0.4-0.3,0.7-0.7,0.7c-0.4,0-0.7-0.3-0.7-0.7l0,0c0-0.4,0.3-0.7,0.7-0.7
					C272.8,43.5,273.1,43.8,273.1,44.2z"/>
			</g>
		</g>
	</g>
</g>
<g>
	<g>
		<g>
			<g>
				<path class="st11" d="M273.1,51c0,0.4-0.3,0.7-0.7,0.7c-0.4,0-0.7-0.3-0.7-0.7l0,0c0-0.4,0.3-0.7,0.7-0.7
					C272.8,50.3,273.1,50.6,273.1,51z"/>
			</g>
		</g>
	</g>
</g>
</svg>
