<?xml version="1.0" encoding="UTF-8" standalone="no"?>
<!DOCTYPE svg PUBLIC "-//W3C//DTD SVG 1.1//EN" "http://www.w3.org/Graphics/SVG/1.1/DTD/svg11.dtd">
<svg width="100%" height="100%" viewBox="0 0 444 414" version="1.1" xmlns="http://www.w3.org/2000/svg" xmlns:xlink="http://www.w3.org/1999/xlink" xml:space="preserve" xmlns:serif="http://www.serif.com/" style="fill-rule:evenodd;clip-rule:evenodd;stroke-miterlimit:10;">
    <g transform="matrix(0.86525,0,0,0.814578,-304.785,-282.153)">
        <rect id="Artboard1" x="352.251" y="346.38" width="512.361" height="507.591" style="fill:none;"/>
        <g id="Artboard11" serif:id="Artboard1">
            <g transform="matrix(2.19025,0,0,2.3265,-687.083,-815.525)">
                <g>
                    <g>
                        <path d="M591.1,502.7C533,502.7 486,549.8 486,607.8C486,665.9 533.1,712.9 591.1,712.9C649.1,712.9 696.2,665.8 696.2,607.8C696.2,549.8 649.2,502.7 591.1,502.7ZM591.1,660C562.3,660 539,636.7 539,607.9C539,579.1 562.3,555.8 591.1,555.8C619.9,555.8 643.2,579.1 643.2,607.9C643.2,636.7 619.9,660 591.1,660Z" style="fill-rule:nonzero;"/>
                    </g>
                </g>
                <g>
                    <g>
                        <circle cx="591.1" cy="607.8" r="52.1" style="fill:none;stroke:black;stroke-width:1px;"/>
                    </g>
                </g>
            </g>
            <g transform="matrix(2.19025,0,0,2.3265,-687.083,-815.525)">
                <g>
                    <rect id="connector21pin" x="599.6" y="533.2" width="7.8" height="6.9" style="fill:rgb(154,145,108);"/>
                </g>
            </g>
            <g transform="matrix(2.19025,0,0,2.3265,-687.083,-815.525)">
                <g>
                    <rect id="connector22pin" x="599.6" y="514.3" width="7.8" height="6.9" style="fill:rgb(154,145,108);"/>
                </g>
            </g>
            <g transform="matrix(2.19025,0,0,2.3265,-687.083,-815.525)">
                <g>
                    <rect id="connector23pin" x="571.4" y="514.3" width="7.8" height="6.9" style="fill:rgb(154,145,108);"/>
                </g>
            </g>
            <g transform="matrix(2.19025,0,0,2.3265,-687.083,-815.525)">
                <g>
                    <rect id="connector24pin" x="571.4" y="533.2" width="7.8" height="6.9" style="fill:rgb(154,145,108);"/>
                </g>
            </g>
            <g id="ws2812b-narrow" transform="matrix(2.19025,0,0,2.3265,-687.083,-815.525)">
                <g>
                    <rect x="573.2" y="515.4" width="32.4" height="4" style="fill:rgb(220,220,220);"/>
                    <rect x="573.2" y="534.4" width="32.4" height="4" style="fill:rgb(220,220,220);"/>
                    <rect x="574.4" y="512.6" width="30" height="28.7" style="fill:rgb(240,240,240);"/>
                    <ellipse cx="589.4" cy="526.9" rx="12.8" ry="12.2" style="fill:rgb(220,220,220);"/>
                    <ellipse cx="589.4" cy="526.9" rx="10.5" ry="10.1" style="fill:rgb(200,200,200);"/>
                    <path d="M579.8,512.6L574.4,512.6L574.4,517.7L579.8,512.6Z" style="fill:rgb(230,230,230);fill-rule:nonzero;"/>
                    <path d="M595.9,521.2L595.9,521.5C595.9,521.8 595.6,522.1 595.3,522.1L591,522.1C590.7,522.1 590.4,521.8 590.4,521.5L590.4,517C590,517 589.7,516.9 589.3,516.9C588.9,516.9 588.6,517 588.2,517L588.2,531C588.2,531.3 587.9,531.6 587.6,531.6L583.3,531.6C583,531.6 582.7,531.3 582.7,531L582.7,521.2C582.7,520.9 582.4,520.6 582.1,520.6L581.1,520.6C579.6,522.3 578.7,524.5 578.7,526.9C578.7,529.5 579.7,531.8 581.4,533.5L587.6,533.5C587.9,533.5 588.2,533.8 588.2,534.1L588.2,536.8C588.6,536.8 588.9,536.9 589.3,536.9C589.7,536.9 590,536.8 590.4,536.8L590.4,524.5C590.4,524.2 590.7,523.9 591,523.9L595.2,523.9C595.5,523.9 595.8,524.2 595.8,524.5L595.8,532.6C595.8,532.9 596.1,533.2 596.4,533.2L597.4,533.2C598.9,531.5 599.8,529.3 599.8,526.9C599.8,524.5 598.9,522.3 597.4,520.6L596.4,520.6C596.1,520.6 595.9,520.9 595.9,521.2Z" style="fill:rgb(240,240,240);fill-rule:nonzero;"/>
                    <rect x="583.2" y="526.5" width="4.8" height="3.4" style="fill:rgb(100,80,80);"/>
                    <rect x="591.1" y="526.3" width="1.8" height="1.1" style="fill:rgb(255,64,0);"/>
                    <rect x="591.1" y="532.1" width="1.8" height="1.1" style="fill:rgb(64,255,64);"/>
                    <rect x="591.1" y="520.6" width="1.8" height="1.1" style="fill:rgb(64,64,255);"/>
                </g>
            </g>
            <g transform="matrix(2.19025,0,0,2.3265,-687.083,-815.525)">
                <rect x="580.4" y="545.4" width="6.5" height="6.3" style="fill:rgb(154,145,108);"/>
            </g>
            <g transform="matrix(2.19025,0,0,2.3265,-687.083,-815.525)">
                <rect x="590.9" y="545.4" width="6.5" height="6.3" style="fill:rgb(154,145,108);"/>
            </g>
            <g transform="matrix(2.19025,0,0,2.3265,-687.083,-815.525)">
                <rect x="584.3" y="545.9" width="8.2" height="5" style="fill:rgb(110,85,75);"/>
            </g>
            <g transform="matrix(2.19025,0,0,2.3265,-687.083,-815.525)">
                <path d="M584.5,545.8L586.4,545.8L586.4,551L584.5,551C584.1,551 583.8,550.7 583.8,550.3L583.8,546.4C583.8,546.1 584.1,545.8 584.5,545.8Z" style="fill:rgb(220,220,220);fill-rule:nonzero;"/>
            </g>
            <g transform="matrix(2.19025,0,0,2.3265,-687.083,-815.525)">
                <path d="M593.2,551L591.3,551L591.3,545.8L593.2,545.8C593.6,545.8 593.9,546.1 593.9,546.5L593.9,550.4C593.8,550.7 593.5,551 593.2,551Z" style="fill:rgb(220,220,220);fill-rule:nonzero;"/>
            </g>
            <g transform="matrix(1.54873,-1.64507,1.54873,1.64507,-1183.28,460.396)">
                <g>
                    <g>
                        <rect id="connector21pin_1_" x="544.8" y="544.2" width="7.8" height="6.9" style="fill:rgb(154,145,108);"/>
                    </g>
                </g>
            </g>
            <g transform="matrix(1.54873,-1.64507,1.54873,1.64507,-1171.11,429.185)">
                <g>
                    <g>
                        <rect id="connector22pin_1_" x="531.4" y="530.8" width="7.8" height="6.9" style="fill:rgb(154,145,108);"/>
                    </g>
                </g>
            </g>
            <g transform="matrix(1.54873,-1.64507,1.54873,1.64507,-1214.8,409.959)">
                <g>
                    <g>
                        <rect id="connector23pin_1_" x="511.5" y="550.8" width="7.8" height="6.9" style="fill:rgb(154,145,108);"/>
                    </g>
                </g>
            </g>
            <g transform="matrix(1.54873,-1.64507,1.54873,1.64507,-1226.98,441.17)">
                <g>
                    <g>
                        <rect id="connector24pin_1_" x="524.9" y="564.2" width="7.8" height="6.9" style="fill:rgb(154,145,108);"/>
                    </g>
                </g>
            </g>
            <g transform="matrix(2.19025,0,0,2.3265,-687.083,-815.525)">
                <g id="ws2812b-narrow_1_">
                    <g>
                        <g transform="matrix(0.7071,-0.7071,0.7071,0.7071,-230.882,530.68)">
                            <rect x="508.9" y="542" width="32.4" height="4" style="fill:rgb(220,220,220);"/>
                        </g>
                        <g transform="matrix(0.7071,-0.7071,0.7071,0.7071,-236.439,544.094)">
                            <rect x="522.4" y="555.4" width="32.4" height="4" style="fill:rgb(220,220,220);"/>
                        </g>
                        <g transform="matrix(0.7071,-0.7071,0.7071,0.7071,-233.66,537.386)">
                            <rect x="516.8" y="536.4" width="30" height="28.7" style="fill:rgb(240,240,240);"/>
                        </g>
                        <g transform="matrix(0.7071,-0.7071,0.7071,0.7071,-233.66,537.387)">
                            <ellipse cx="531.9" cy="550.7" rx="12.8" ry="12.2" style="fill:rgb(220,220,220);"/>
                        </g>
                        <g transform="matrix(0.7071,-0.7071,0.7071,0.7071,-233.66,537.387)">
                            <ellipse cx="531.9" cy="550.7" rx="10.5" ry="10.1" style="fill:rgb(200,200,200);"/>
                        </g>
                        <path d="M514.9,547.4L511.1,551.2L514.7,554.9L514.9,547.4Z" style="fill:rgb(230,230,230);fill-rule:nonzero;"/>
                        <path d="M532.4,542.1L532.6,542.3C532.8,542.5 532.8,542.9 532.6,543.1L529.6,546.1C529.4,546.3 529,546.3 528.8,546.1L525.6,542.9C525.3,543.1 525,543.3 524.8,543.6C524.5,543.9 524.3,544.1 524.1,544.4L534,554.3C534.2,554.5 534.2,554.9 534,555.1L531,558.1C530.8,558.3 530.4,558.3 530.2,558.1L523.3,551.2C523.1,551 522.7,551 522.5,551.2L521.8,551.9C522,554.2 522.9,556.4 524.6,558.1C526.4,559.9 528.8,560.8 531.2,560.9L535.6,556.5C535.8,556.3 536.2,556.3 536.4,556.5L538.3,558.4C538.6,558.2 538.9,558 539.1,557.7C539.4,557.4 539.6,557.2 539.8,556.9L531.1,548.2C530.9,548 530.9,547.6 531.1,547.4L534.1,544.4C534.3,544.2 534.7,544.2 534.9,544.4L540.6,550.1C540.8,550.3 541.2,550.3 541.4,550.1L542.1,549.4C541.9,547.1 541,544.9 539.3,543.2C537.6,541.5 535.4,540.6 533.1,540.4L532.4,541.1C532.2,541.5 532.2,541.9 532.4,542.1Z" style="fill:rgb(240,240,240);fill-rule:nonzero;"/>
                        <g transform="matrix(0.7071,-0.7071,0.7071,0.7071,-236.722,537.166)">
                            <rect x="527.7" y="552.6" width="4.8" height="3.4" style="fill:rgb(100,80,80);"/>
                        </g>
                        <g transform="matrix(0.7071,-0.7071,0.7071,0.7071,-231.763,538.172)">
                            <rect x="532.8" y="548.3" width="1.8" height="1.1" style="fill:rgb(255,64,0);"/>
                        </g>
                        <g transform="matrix(0.7071,-0.7071,0.7071,0.7071,-233.447,542.238)">
                            <rect x="536.9" y="552.3" width="1.8" height="1.1" style="fill:rgb(64,255,64);"/>
                        </g>
                        <g transform="matrix(0.7071,-0.7071,0.7071,0.7071,-230.08,534.108)">
                            <rect x="528.8" y="544.2" width="1.8" height="1.1" style="fill:rgb(64,64,255);"/>
                        </g>
                    </g>
                </g>
            </g>
            <g transform="matrix(1.54873,-1.64507,1.54873,1.64507,-1221.67,466.362)">
                <rect x="539.8" y="567" width="6.5" height="6.3" style="fill:rgb(154,145,108);"/>
            </g>
            <g transform="matrix(1.54873,-1.64507,1.54873,1.64507,-1205.28,473.572)">
                <rect x="547.3" y="559.5" width="6.5" height="6.3" style="fill:rgb(154,145,108);"/>
            </g>
            <g transform="matrix(1.54873,-1.64507,1.54873,1.64507,-1214.07,469.438)">
                <rect x="542.3" y="564.1" width="8.2" height="5" style="fill:rgb(110,85,75);"/>
            </g>
            <g transform="matrix(2.19025,0,0,2.3265,-687.083,-815.525)">
                <path d="M541.8,567.5L543.1,566.2L546.8,569.9L545.5,571.2C545.2,571.5 544.8,571.5 544.6,571.2L541.9,568.5C541.5,568.2 541.5,567.8 541.8,567.5Z" style="fill:rgb(220,220,220);fill-rule:nonzero;"/>
            </g>
            <g transform="matrix(2.19025,0,0,2.3265,-687.083,-815.525)">
                <path d="M551.5,565.1L550.2,566.4L546.5,562.7L547.8,561.4C548.1,561.1 548.5,561.1 548.7,561.4L551.4,564.1C551.8,564.4 551.8,564.8 551.5,565.1Z" style="fill:rgb(220,220,220);fill-rule:nonzero;"/>
            </g>
            <g transform="matrix(2.19025,0,0,2.3265,-687.083,-815.525)">
                <g>
                    <g>
                        <rect id="connector21pin_2_" x="514.4" y="590.2" width="6.9" height="7.8" style="fill:rgb(154,145,108);"/>
                    </g>
                </g>
            </g>
            <g transform="matrix(2.19025,0,0,2.3265,-687.083,-815.525)">
                <g>
                    <g>
                        <rect id="connector22pin_2_" x="495.4" y="590.2" width="6.9" height="7.8" style="fill:rgb(154,145,108);"/>
                    </g>
                </g>
            </g>
            <g transform="matrix(2.19025,0,0,2.3265,-687.083,-815.525)">
                <g>
                    <g>
                        <rect id="connector23pin_2_" x="495.4" y="618.5" width="6.9" height="7.8" style="fill:rgb(154,145,108);"/>
                    </g>
                </g>
            </g>
            <g transform="matrix(2.19025,0,0,2.3265,-687.083,-815.525)">
                <g>
                    <g>
                        <rect id="connector24pin_2_" x="514.4" y="618.5" width="6.9" height="7.8" style="fill:rgb(154,145,108);"/>
                    </g>
                </g>
            </g>
            <g transform="matrix(2.19025,0,0,2.3265,-687.083,-815.525)">
                <g id="ws2812b-narrow_2_">
                    <g>
                        <rect x="496.5" y="592.1" width="4" height="32.4" style="fill:rgb(220,220,220);"/>
                        <rect x="515.5" y="592.1" width="4" height="32.4" style="fill:rgb(220,220,220);"/>
                        <rect x="493.7" y="593.3" width="28.7" height="30" style="fill:rgb(240,240,240);"/>
                        <ellipse cx="508" cy="608.3" rx="12.2" ry="12.8" style="fill:rgb(220,220,220);"/>
                        <ellipse cx="508" cy="608.3" rx="10.1" ry="10.5" style="fill:rgb(200,200,200);"/>
                        <path d="M493.7,617.9L493.7,623.3L498.8,623.3L493.7,617.9Z" style="fill:rgb(230,230,230);fill-rule:nonzero;"/>
                        <path d="M502.3,601.8L502.6,601.8C502.9,601.8 503.2,602.1 503.2,602.4L503.2,606.6C503.2,606.9 502.9,607.2 502.6,607.2L498.1,607.2C498.1,607.6 498,607.9 498,608.3C498,608.7 498.1,609 498.1,609.4L512.1,609.4C512.4,609.4 512.7,609.7 512.7,610L512.7,614.3C512.7,614.6 512.4,614.9 512.1,614.9L502.3,614.9C502,614.9 501.7,615.2 501.7,615.5L501.7,616.5C503.4,618 505.6,618.9 508,618.9C510.6,618.9 512.9,617.9 514.6,616.2L514.6,610C514.6,609.7 514.9,609.4 515.2,609.4L517.9,609.4C517.9,609 518,608.7 518,608.3C518,607.9 517.9,607.6 517.9,607.2L505.6,607.2C505.3,607.2 505,606.9 505,606.6L505,602.4C505,602.1 505.3,601.8 505.6,601.8L513.7,601.8C514,601.8 514.3,601.5 514.3,601.2L514.3,600.2C512.6,598.7 510.4,597.8 508,597.8C505.6,597.8 503.4,598.7 501.7,600.2L501.7,601.2C501.7,601.5 502,601.8 502.3,601.8Z" style="fill:rgb(240,240,240);fill-rule:nonzero;"/>
                        <rect x="507.6" y="609.7" width="3.4" height="4.8" style="fill:rgb(100,80,80);"/>
                        <rect x="507.5" y="604.7" width="1.1" height="1.8" style="fill:rgb(255,64,0);"/>
                        <rect x="513.2" y="604.7" width="1.1" height="1.8" style="fill:rgb(64,255,64);"/>
                        <rect x="501.7" y="604.7" width="1.1" height="1.8" style="fill:rgb(64,64,255);"/>
                    </g>
                </g>
            </g>
            <g transform="matrix(9.78173e-11,-2.3265,2.19025,1.03902e-10,-871.87,1845.27)">
                <rect x="526.4" y="610.9" width="6.5" height="6.3" style="fill:rgb(154,145,108);"/>
            </g>
            <g transform="matrix(9.8434e-11,-2.3265,2.19025,1.04557e-10,-848.694,1820.66)">
                <rect x="526.4" y="600.3" width="6.5" height="6.3" style="fill:rgb(154,145,108);"/>
            </g>
            <g transform="matrix(9.86149e-11,-2.3265,2.19025,1.04749e-10,-861.552,1833.67)">
                <rect x="525.4" y="606.7" width="8.2" height="5" style="fill:rgb(110,85,75);"/>
            </g>
            <g transform="matrix(2.19025,0,0,2.3265,-687.083,-815.525)">
                <path d="M526.9,613.1L526.9,611.2L532.1,611.2L532.1,613.1C532.1,613.5 531.8,613.8 531.4,613.8L527.5,613.8C527.2,613.8 526.9,613.5 526.9,613.1Z" style="fill:rgb(220,220,220);fill-rule:nonzero;"/>
            </g>
            <g transform="matrix(2.19025,0,0,2.3265,-687.083,-815.525)">
                <path d="M532.1,604.5L532.1,606.4L526.9,606.4L526.9,604.5C526.9,604.1 527.2,603.8 527.6,603.8L531.5,603.8C531.8,603.8 532.1,604.1 532.1,604.5Z" style="fill:rgb(220,220,220);fill-rule:nonzero;"/>
            </g>
            <g transform="matrix(1.54873,-1.64507,1.54873,1.64507,-1352.82,496.533)">
                <g>
                    <g>
                        <rect id="connector21pin_3_" x="525.3" y="645" width="6.9" height="7.8" style="fill:rgb(154,145,108);"/>
                    </g>
                </g>
            </g>
            <g transform="matrix(1.54873,-1.64507,1.54873,1.64507,-1382.2,483.605)">
                <g>
                    <g>
                        <rect id="connector22pin_3_" x="511.9" y="658.4" width="6.9" height="7.8" style="fill:rgb(154,145,108);"/>
                    </g>
                </g>
            </g>
            <g transform="matrix(1.54873,-1.64507,1.54873,1.64507,-1400.3,530.021)">
                <g>
                    <g>
                        <rect id="connector23pin_3_" x="531.9" y="678.4" width="6.9" height="7.8" style="fill:rgb(154,145,108);"/>
                    </g>
                </g>
            </g>
            <g transform="matrix(1.54873,-1.64507,1.54873,1.64507,-1370.92,542.949)">
                <g>
                    <g>
                        <rect id="connector24pin_3_" x="545.3" y="664.9" width="6.9" height="7.8" style="fill:rgb(154,145,108);"/>
                    </g>
                </g>
            </g>
            <g transform="matrix(2.19025,0,0,2.3265,-687.083,-815.525)">
                <g id="ws2812b-narrow_3_">
                    <g>
                        <g transform="matrix(0.7071,-0.7071,0.7071,0.7071,-321.705,568.297)">
                            <rect x="523.1" y="656.3" width="4" height="32.4" style="fill:rgb(220,220,220);"/>
                        </g>
                        <g transform="matrix(0.7071,-0.7071,0.7071,0.7071,-308.29,573.854)">
                            <rect x="536.5" y="642.9" width="4" height="32.4" style="fill:rgb(220,220,220);"/>
                        </g>
                        <g transform="matrix(0.7071,-0.7071,0.7071,0.7071,-314.998,571.075)">
                            <rect x="517.5" y="650.8" width="28.7" height="30" style="fill:rgb(240,240,240);"/>
                        </g>
                        <g transform="matrix(0.7071,-0.7071,0.7071,0.7071,-314.997,571.075)">
                            <ellipse cx="531.8" cy="665.8" rx="12.2" ry="12.8" style="fill:rgb(220,220,220);"/>
                        </g>
                        <g transform="matrix(0.7071,-0.7071,0.7071,0.7071,-314.997,571.075)">
                            <ellipse cx="531.8" cy="665.8" rx="10.1" ry="10.5" style="fill:rgb(200,200,200);"/>
                        </g>
                        <path d="M528.5,682.7L532.3,686.5L536,682.9L528.5,682.7Z" style="fill:rgb(230,230,230);fill-rule:nonzero;"/>
                        <path d="M523.2,665.2L523.4,665C523.6,664.8 524,664.8 524.2,665L527.2,668C527.4,668.2 527.4,668.6 527.2,668.8L524,672C524.2,672.3 524.4,672.6 524.7,672.8C525,673.1 525.2,673.3 525.5,673.5L535.4,663.6C535.6,663.4 536,663.4 536.2,663.6L539.2,666.6C539.4,666.8 539.4,667.2 539.2,667.4L532.3,674.3C532.1,674.5 532.1,674.9 532.3,675.1L533,675.8C535.3,675.6 537.5,674.7 539.2,673C541,671.2 541.9,668.8 542,666.4L537.6,662C537.4,661.8 537.4,661.4 537.6,661.2L539.5,659.3C539.3,659 539.1,658.7 538.8,658.5C538.5,658.2 538.3,658 538,657.8L529.3,666.5C529.1,666.7 528.7,666.7 528.5,666.5L525.5,663.5C525.3,663.3 525.3,662.9 525.5,662.7L531.2,657C531.4,656.8 531.4,656.4 531.2,656.2L530.5,655.5C528.2,655.7 526,656.6 524.3,658.3C522.6,660 521.7,662.2 521.5,664.5L522.2,665.2C522.6,665.5 523,665.5 523.2,665.2Z" style="fill:rgb(240,240,240);fill-rule:nonzero;"/>
                        <g transform="matrix(0.7071,-0.7071,0.7071,0.7071,-315.218,574.138)">
                            <rect x="533.7" y="665.2" width="3.4" height="4.8" style="fill:rgb(100,80,80);"/>
                        </g>
                        <g transform="matrix(0.7071,-0.7071,0.7071,0.7071,-314.213,569.179)">
                            <rect x="529.4" y="663" width="1.1" height="1.8" style="fill:rgb(255,64,0);"/>
                        </g>
                        <g transform="matrix(0.7071,-0.7071,0.7071,0.7071,-310.147,570.863)">
                            <rect x="533.4" y="658.9" width="1.1" height="1.8" style="fill:rgb(64,255,64);"/>
                        </g>
                        <g transform="matrix(0.7071,-0.7071,0.7071,0.7071,-318.277,567.495)">
                            <rect x="525.3" y="667" width="1.1" height="1.8" style="fill:rgb(64,64,255);"/>
                        </g>
                    </g>
                </g>
            </g>
            <g transform="matrix(-1.54873,-1.64507,1.54873,-1.64507,360.213,2690.92)">
                <rect x="548" y="651.4" width="6.5" height="6.3" style="fill:rgb(154,145,108);"/>
            </g>
            <g transform="matrix(-1.54873,-1.64507,1.54873,-1.64507,343.825,2648.89)">
                <rect x="540.5" y="643.9" width="6.5" height="6.3" style="fill:rgb(154,145,108);"/>
            </g>
            <g transform="matrix(-1.54873,-1.64507,1.54873,-1.64507,352.184,2671.89)">
                <rect x="543.6" y="648.7" width="8.2" height="5" style="fill:rgb(110,85,75);"/>
            </g>
            <g transform="matrix(2.19025,0,0,2.3265,-687.083,-815.525)">
                <path d="M548.7,655.8L547.4,654.5L551.1,650.8L552.4,652.1C552.7,652.4 552.7,652.8 552.4,653L549.7,655.7C549.3,656.1 548.9,656.1 548.7,655.8Z" style="fill:rgb(220,220,220);fill-rule:nonzero;"/>
            </g>
            <g transform="matrix(2.19025,0,0,2.3265,-687.083,-815.525)">
                <path d="M546.2,646.1L547.5,647.4L543.8,651.1L542.5,649.8C542.2,649.5 542.2,649.1 542.5,648.9L545.2,646.2C545.5,645.8 545.9,645.8 546.2,646.1Z" style="fill:rgb(220,220,220);fill-rule:nonzero;"/>
            </g>
            <g transform="matrix(2.19025,0,0,2.3265,-687.083,-815.525)">
                <g>
                    <g>
                        <rect id="connector21pin_4_" x="571.4" y="676.4" width="7.8" height="6.9" style="fill:rgb(154,145,108);"/>
                    </g>
                </g>
            </g>
            <g transform="matrix(2.19025,0,0,2.3265,-687.083,-815.525)">
                <g>
                    <g>
                        <rect id="connector22pin_4_" x="571.4" y="695.3" width="7.8" height="6.9" style="fill:rgb(154,145,108);"/>
                    </g>
                </g>
            </g>
            <g transform="matrix(2.19025,0,0,2.3265,-687.083,-815.525)">
                <g>
                    <g>
                        <rect id="connector23pin_4_" x="599.6" y="695.3" width="7.8" height="6.9" style="fill:rgb(154,145,108);"/>
                    </g>
                </g>
            </g>
            <g transform="matrix(2.19025,0,0,2.3265,-687.083,-815.525)">
                <g>
                    <g>
                        <rect id="connector24pin_4_" x="599.6" y="676.4" width="7.8" height="6.9" style="fill:rgb(154,145,108);"/>
                    </g>
                </g>
            </g>
            <g transform="matrix(2.19025,0,0,2.3265,-687.083,-815.525)">
                <g id="ws2812b-narrow_4_">
                    <g>
                        <rect x="573.2" y="697.1" width="32.4" height="4" style="fill:rgb(220,220,220);"/>
                        <rect x="573.2" y="678.1" width="32.4" height="4" style="fill:rgb(220,220,220);"/>
                        <rect x="574.4" y="675.2" width="30" height="28.7" style="fill:rgb(240,240,240);"/>
                        <ellipse cx="589.4" cy="689.6" rx="12.8" ry="12.2" style="fill:rgb(220,220,220);"/>
                        <ellipse cx="589.4" cy="689.6" rx="10.5" ry="10.1" style="fill:rgb(200,200,200);"/>
                        <path d="M599,704L604.4,704L604.4,698.8L599,704Z" style="fill:rgb(230,230,230);fill-rule:nonzero;"/>
                        <path d="M582.9,695.3L582.9,695C582.9,694.7 583.2,694.4 583.5,694.4L587.7,694.4C588,694.4 588.3,694.7 588.3,695L588.3,699.5C588.7,699.5 589,699.6 589.4,699.6C589.8,699.6 590.1,699.5 590.5,699.5L590.5,685.5C590.5,685.2 590.8,684.9 591.1,684.9L595.4,684.9C595.7,684.9 596,685.2 596,685.5L596,695.3C596,695.6 596.3,695.9 596.6,695.9L597.6,695.9C599.1,694.2 600,692 600,689.6C600,687 599,684.7 597.3,683L591,683C590.7,683 590.4,682.7 590.4,682.4L590.4,679.7C590,679.7 589.7,679.6 589.3,679.6C588.9,679.6 588.6,679.7 588.2,679.7L588.2,692C588.2,692.3 587.9,692.6 587.6,692.6L583.4,692.6C583.1,692.6 582.8,692.3 582.8,692L582.8,683.9C582.8,683.6 582.5,683.3 582.2,683.3L581.2,683.3C579.7,685 578.8,687.2 578.8,689.6C578.8,692 579.7,694.2 581.2,695.9L582.2,695.9C582.6,695.9 582.9,695.7 582.9,695.3Z" style="fill:rgb(240,240,240);fill-rule:nonzero;"/>
                        <rect x="590.8" y="686.6" width="4.8" height="3.4" style="fill:rgb(100,80,80);"/>
                        <rect x="585.8" y="689" width="1.8" height="1.1" style="fill:rgb(255,64,0);"/>
                        <rect x="585.8" y="683.3" width="1.8" height="1.1" style="fill:rgb(64,255,64);"/>
                        <rect x="585.8" y="694.8" width="1.8" height="1.1" style="fill:rgb(64,64,255);"/>
                    </g>
                </g>
            </g>
            <g transform="matrix(-2.19025,-2.09112e-10,1.96866e-10,-2.3265,1919.9,2292.51)">
                <rect x="591.9" y="664.8" width="6.5" height="6.3" style="fill:rgb(154,145,108);"/>
            </g>
            <g transform="matrix(-2.19025,-2.09112e-10,1.96866e-10,-2.3265,1873.55,2292.51)">
                <rect x="581.3" y="664.8" width="6.5" height="6.3" style="fill:rgb(154,145,108);"/>
            </g>
            <g transform="matrix(-2.19025,-2.08983e-10,1.96744e-10,-2.3265,1898.66,2293.16)">
                <rect x="586.2" y="665.6" width="8.2" height="5" style="fill:rgb(110,85,75);"/>
            </g>
            <g transform="matrix(2.19025,0,0,2.3265,-687.083,-815.525)">
                <path d="M594.2,670.7L592.3,670.7L592.3,665.5L594.2,665.5C594.6,665.5 594.9,665.8 594.9,666.2L594.9,670.1C594.9,670.4 594.6,670.7 594.2,670.7Z" style="fill:rgb(220,220,220);fill-rule:nonzero;"/>
            </g>
            <g transform="matrix(2.19025,0,0,2.3265,-687.083,-815.525)">
                <path d="M585.6,665.6L587.5,665.6L587.5,670.8L585.6,670.8C585.2,670.8 584.9,670.5 584.9,670.1L584.9,666.2C584.9,665.8 585.2,665.6 585.6,665.6Z" style="fill:rgb(220,220,220);fill-rule:nonzero;"/>
            </g>
            <g transform="matrix(1.54873,-1.64507,1.54873,1.64507,-1318.8,676.623)">
                <g>
                    <g>
                        <rect id="connector21pin_5_" x="626.1" y="665.4" width="7.8" height="6.9" style="fill:rgb(154,145,108);"/>
                    </g>
                </g>
            </g>
            <g transform="matrix(1.54873,-1.64507,1.54873,1.64507,-1330.97,707.834)">
                <g>
                    <g>
                        <rect id="connector22pin_5_" x="639.5" y="678.8" width="7.8" height="6.9" style="fill:rgb(154,145,108);"/>
                    </g>
                </g>
            </g>
            <g transform="matrix(1.54873,-1.64507,1.54873,1.64507,-1287.27,727.06)">
                <g>
                    <g>
                        <rect id="connector23pin_5_" x="659.5" y="658.9" width="7.8" height="6.9" style="fill:rgb(154,145,108);"/>
                    </g>
                </g>
            </g>
            <g transform="matrix(1.54873,-1.64507,1.54873,1.64507,-1275.1,695.849)">
                <g>
                    <g>
                        <rect id="connector24pin_5_" x="646" y="645.4" width="7.8" height="6.9" style="fill:rgb(154,145,108);"/>
                    </g>
                </g>
            </g>
            <g transform="matrix(2.19025,0,0,2.3265,-687.083,-815.525)">
                <g id="ws2812b-narrow_5_">
                    <g>
                        <g transform="matrix(0.7071,-0.7071,0.7071,0.7071,-284.087,659.12)">
                            <rect x="637.4" y="670.5" width="32.4" height="4" style="fill:rgb(220,220,220);"/>
                        </g>
                        <g transform="matrix(0.7071,-0.7071,0.7071,0.7071,-278.531,645.706)">
                            <rect x="624" y="657.1" width="32.4" height="4" style="fill:rgb(220,220,220);"/>
                        </g>
                        <g transform="matrix(0.7071,-0.7071,0.7071,0.7071,-281.309,652.414)">
                            <rect x="631.9" y="651.4" width="30" height="28.7" style="fill:rgb(240,240,240);"/>
                        </g>
                        <g transform="matrix(0.7071,-0.7071,0.7071,0.7071,-281.31,652.413)">
                            <ellipse cx="646.9" cy="665.8" rx="12.8" ry="12.2" style="fill:rgb(220,220,220);"/>
                        </g>
                        <g transform="matrix(0.7071,-0.7071,0.7071,0.7071,-281.31,652.413)">
                            <ellipse cx="646.9" cy="665.8" rx="10.5" ry="10.1" style="fill:rgb(200,200,200);"/>
                        </g>
                        <path d="M663.8,669.1L667.7,665.3L664,661.7L663.8,669.1Z" style="fill:rgb(230,230,230);fill-rule:nonzero;"/>
                        <path d="M646.3,674.4L646.1,674.2C645.9,674 645.9,673.6 646.1,673.4L649.1,670.4C649.3,670.2 649.7,670.2 649.9,670.4L653.1,673.6C653.4,673.4 653.7,673.2 653.9,672.9C654.2,672.6 654.4,672.4 654.6,672.1L644.7,662.2C644.5,662 644.5,661.6 644.7,661.4L647.7,658.4C647.9,658.2 648.3,658.2 648.5,658.4L655.4,665.3C655.6,665.5 656,665.5 656.2,665.3L656.9,664.6C656.7,662.3 655.8,660.1 654.1,658.4C652.3,656.6 649.9,655.7 647.5,655.6L643.1,660C642.9,660.2 642.5,660.2 642.3,660L640.4,658.1C640.1,658.3 639.8,658.5 639.6,658.8C639.3,659.1 639.1,659.3 638.9,659.6L647.6,668.3C647.8,668.5 647.8,668.9 647.6,669.1L644.6,672.1C644.4,672.3 644,672.3 643.8,672.1L638.1,666.4C637.9,666.2 637.5,666.2 637.3,666.4L636.6,667.1C636.8,669.4 637.7,671.6 639.4,673.3C641.1,675 643.3,675.9 645.6,676.1L646.3,675.4C646.6,675 646.6,674.7 646.3,674.4Z" style="fill:rgb(240,240,240);fill-rule:nonzero;"/>
                        <g transform="matrix(0.7071,-0.7071,0.7071,0.7071,-278.247,652.634)">
                            <rect x="646.3" y="660.5" width="4.8" height="3.4" style="fill:rgb(100,80,80);"/>
                        </g>
                        <g transform="matrix(0.7071,-0.7071,0.7071,0.7071,-283.206,651.628)">
                            <rect x="644.1" y="667.1" width="1.8" height="1.1" style="fill:rgb(255,64,0);"/>
                        </g>
                        <g transform="matrix(0.7071,-0.7071,0.7071,0.7071,-281.522,647.563)">
                            <rect x="640" y="663" width="1.8" height="1.1" style="fill:rgb(64,255,64);"/>
                        </g>
                        <g transform="matrix(0.7071,-0.7071,0.7071,0.7071,-284.889,655.692)">
                            <rect x="648.1" y="671.2" width="1.8" height="1.1" style="fill:rgb(64,64,255);"/>
                        </g>
                    </g>
                </g>
            </g>
            <g transform="matrix(-1.54873,1.64507,-1.54873,-1.64507,2690.75,705.987)">
                <rect x="632.4" y="643.3" width="6.5" height="6.3" style="fill:rgb(154,145,108);"/>
            </g>
            <g transform="matrix(-1.54873,1.64507,-1.54873,-1.64507,2674.37,748.012)">
                <rect x="624.9" y="650.8" width="6.5" height="6.3" style="fill:rgb(154,145,108);"/>
            </g>
            <g transform="matrix(-1.54873,1.64507,-1.54873,-1.64507,2683.76,725.477)">
                <rect x="628.2" y="647.4" width="8.2" height="5" style="fill:rgb(110,85,75);"/>
            </g>
            <g transform="matrix(2.19025,0,0,2.3265,-687.083,-815.525)">
                <path d="M637,649L635.7,650.3L632,646.6L633.3,645.3C633.6,645 634,645 634.2,645.3L636.9,648C637.2,648.3 637.2,648.7 637,649Z" style="fill:rgb(220,220,220);fill-rule:nonzero;"/>
            </g>
            <g transform="matrix(2.19025,0,0,2.3265,-687.083,-815.525)">
                <path d="M627.2,651.5L628.5,650.2L632.2,653.9L630.9,655.2C630.6,655.5 630.2,655.5 630,655.2L627.3,652.5C626.9,652.1 626.9,651.7 627.2,651.5Z" style="fill:rgb(220,220,220);fill-rule:nonzero;"/>
            </g>
            <g transform="matrix(2.19025,0,0,2.3265,-687.083,-815.525)">
                <g>
                    <g>
                        <rect id="connector21pin_6_" x="657.5" y="618.5" width="6.9" height="7.8" style="fill:rgb(154,145,108);"/>
                    </g>
                </g>
            </g>
            <g transform="matrix(2.19025,0,0,2.3265,-687.083,-815.525)">
                <g>
                    <g>
                        <rect id="connector24pin_6_" x="657.5" y="590.3" width="6.9" height="7.8" style="fill:rgb(154,145,108);"/>
                    </g>
                </g>
            </g>
            <g transform="matrix(2.19025,0,0,2.3265,-687.083,-815.525)">
                <g id="ws2812b-narrow_6_">
                    <g>
                        <rect x="678.2" y="592.1" width="4" height="32.4" style="fill:rgb(220,220,220);"/>
                        <rect x="659.2" y="592.1" width="4" height="32.4" style="fill:rgb(220,220,220);"/>
                        <rect x="656.3" y="593.3" width="28.7" height="30" style="fill:rgb(240,240,240);"/>
                        <ellipse cx="670.7" cy="608.3" rx="12.2" ry="12.8" style="fill:rgb(220,220,220);"/>
                        <ellipse cx="670.7" cy="608.3" rx="10.1" ry="10.5" style="fill:rgb(200,200,200);"/>
                        <path d="M685.1,598.7L685.1,593.3L679.9,593.3L685.1,598.7Z" style="fill:rgb(230,230,230);fill-rule:nonzero;"/>
                        <path d="M676.5,614.8L676.2,614.8C675.9,614.8 675.6,614.5 675.6,614.2L675.6,610C675.6,609.7 675.9,609.4 676.2,609.4L680.7,609.4C680.7,609 680.8,608.7 680.8,608.3C680.8,607.9 680.7,607.6 680.7,607.2L666.7,607.2C666.4,607.2 666.1,606.9 666.1,606.6L666.1,602.3C666.1,602 666.4,601.7 666.7,601.7L676.5,601.7C676.8,601.7 677.1,601.4 677.1,601.1L677.1,600.1C675.4,598.6 673.2,597.7 670.8,597.7C668.2,597.7 665.9,598.7 664.2,600.4L664.2,606.6C664.2,606.9 663.9,607.2 663.6,607.2L660.9,607.2C660.9,607.6 660.8,607.9 660.8,608.3C660.8,608.7 660.9,609 660.9,609.4L673,609.4C673.3,609.4 673.6,609.7 673.6,610L673.6,614.2C673.6,614.5 673.3,614.8 673,614.8L665,614.8C664.7,614.8 664.4,615.1 664.4,615.4L664.4,616.4C666.1,617.9 668.3,618.8 670.7,618.8C673.1,618.8 675.3,617.9 677,616.4L677,615.4C677,615 676.8,614.8 676.5,614.8Z" style="fill:rgb(240,240,240);fill-rule:nonzero;"/>
                        <rect x="667.7" y="602.1" width="3.4" height="4.8" style="fill:rgb(100,80,80);"/>
                        <rect x="670.1" y="610" width="1.1" height="1.8" style="fill:rgb(255,64,0);"/>
                        <rect x="664.4" y="610" width="1.1" height="1.8" style="fill:rgb(64,255,64);"/>
                        <rect x="675.9" y="610" width="1.1" height="1.8" style="fill:rgb(64,64,255);"/>
                    </g>
                </g>
            </g>
            <g transform="matrix(-2.95298e-10,2.3265,-2.19025,-3.13668e-10,2054.15,-923.884)">
                <rect x="645.8" y="599.4" width="6.5" height="6.3" style="fill:rgb(154,145,108);"/>
            </g>
            <g transform="matrix(-2.94683e-10,2.3265,-2.19025,-3.13015e-10,2077.33,-899.267)">
                <rect x="645.8" y="609.9" width="6.5" height="6.3" style="fill:rgb(154,145,108);"/>
            </g>
            <g transform="matrix(-2.94874e-10,2.3265,-2.19025,-3.13217e-10,2065.08,-912.924)">
                <rect x="645.1" y="604.8" width="8.2" height="5" style="fill:rgb(110,85,75);"/>
            </g>
            <g transform="matrix(2.19025,0,0,2.3265,-687.083,-815.525)">
                <path d="M651.8,603.4L651.8,605.3L646.6,605.3L646.6,603.4C646.6,603 646.9,602.7 647.3,602.7L651.2,602.7C651.5,602.7 651.8,603 651.8,603.4Z" style="fill:rgb(220,220,220);fill-rule:nonzero;"/>
            </g>
            <g transform="matrix(2.19025,0,0,2.3265,-687.083,-815.525)">
                <path d="M646.7,612L646.7,610.1L651.9,610.1L651.9,612C651.9,612.4 651.6,612.7 651.2,612.7L647.3,612.7C647,612.7 646.7,612.4 646.7,612Z" style="fill:rgb(220,220,220);fill-rule:nonzero;"/>
            </g>
            <g transform="matrix(1.54873,-1.64507,1.54873,1.64507,-1149.26,640.486)">
                <g>
                    <g>
                        <rect id="connector21pin_7_" x="646.5" y="563.7" width="6.9" height="7.8" style="fill:rgb(154,145,108);"/>
                    </g>
                </g>
            </g>
            <g transform="matrix(1.54873,-1.64507,1.54873,1.64507,-1119.87,653.414)">
                <g>
                    <g>
                        <rect id="connector22pin_7_" x="659.9" y="550.3" width="6.9" height="7.8" style="fill:rgb(154,145,108);"/>
                    </g>
                </g>
            </g>
            <g transform="matrix(1.54873,-1.64507,1.54873,1.64507,-1101.77,606.998)">
                <g>
                    <g>
                        <rect id="connector23pin_7_" x="640" y="530.4" width="6.9" height="7.8" style="fill:rgb(154,145,108);"/>
                    </g>
                </g>
            </g>
            <g transform="matrix(1.54873,-1.64507,1.54873,1.64507,-1131.16,594.07)">
                <g>
                    <g>
                        <rect id="connector24pin_7_" x="626.5" y="543.8" width="6.9" height="7.8" style="fill:rgb(154,145,108);"/>
                    </g>
                </g>
            </g>
            <g transform="matrix(2.19025,0,0,2.3265,-687.083,-815.525)">
                <g id="ws2812b-narrow_7_">
                    <g>
                        <g transform="matrix(0.7071,-0.7071,0.7071,0.7071,-193.264,621.503)">
                            <rect x="651.6" y="527.8" width="4" height="32.4" style="fill:rgb(220,220,220);"/>
                        </g>
                        <g transform="matrix(0.7071,-0.7071,0.7071,0.7071,-206.679,615.946)">
                            <rect x="638.2" y="541.2" width="4" height="32.4" style="fill:rgb(220,220,220);"/>
                        </g>
                        <g transform="matrix(0.7071,-0.7071,0.7071,0.7071,-199.971,618.725)">
                            <rect x="632.5" y="535.7" width="28.7" height="30" style="fill:rgb(240,240,240);"/>
                        </g>
                        <g transform="matrix(0.7071,-0.7071,0.7071,0.7071,-199.972,618.725)">
                            <ellipse cx="646.9" cy="550.8" rx="12.2" ry="12.8" style="fill:rgb(220,220,220);"/>
                        </g>
                        <g transform="matrix(0.7071,-0.7071,0.7071,0.7071,-199.972,618.725)">
                            <ellipse cx="646.9" cy="550.8" rx="10.1" ry="10.5" style="fill:rgb(200,200,200);"/>
                        </g>
                        <path d="M650.3,533.8L646.4,530L642.8,533.6L650.3,533.8Z" style="fill:rgb(230,230,230);fill-rule:nonzero;"/>
                        <path d="M655.5,551.3L655.3,551.5C655.1,551.7 654.7,551.7 654.5,551.5L651.5,548.5C651.3,548.3 651.3,547.9 651.5,547.7L654.7,544.5C654.5,544.2 654.3,543.9 654,543.7C653.7,543.4 653.5,543.2 653.2,543L643.3,552.9C643.1,553.1 642.7,553.1 642.5,552.9L639.5,549.9C639.3,549.7 639.3,549.3 639.5,549.1L646.4,542.2C646.6,542 646.6,541.6 646.4,541.4L645.7,540.7C643.4,540.9 641.2,541.8 639.5,543.5C637.7,545.3 636.8,547.7 636.7,550.1L641.1,554.5C641.3,554.7 641.3,555.1 641.1,555.3L639.2,557.2C639.4,557.5 639.6,557.8 639.9,558C640.2,558.3 640.4,558.5 640.7,558.7L649.4,550C649.6,549.8 650,549.8 650.2,550L653.2,553C653.4,553.2 653.4,553.6 653.2,553.8L647.5,559.5C647.3,559.7 647.3,560.1 647.5,560.3L648.2,561C650.5,560.8 652.7,559.9 654.4,558.2C656.1,556.5 657,554.3 657.2,552L656.5,551.3C656.1,551.1 655.8,551.1 655.5,551.3Z" style="fill:rgb(240,240,240);fill-rule:nonzero;"/>
                        <g transform="matrix(0.7071,-0.7071,0.7071,0.7071,-199.751,615.662)">
                            <rect x="641.6" y="546.6" width="3.4" height="4.8" style="fill:rgb(100,80,80);"/>
                        </g>
                        <g transform="matrix(0.7071,-0.7071,0.7071,0.7071,-200.756,620.621)">
                            <rect x="648.2" y="551.7" width="1.1" height="1.8" style="fill:rgb(255,64,0);"/>
                        </g>
                        <g transform="matrix(0.7071,-0.7071,0.7071,0.7071,-204.822,618.937)">
                            <rect x="644.1" y="555.8" width="1.1" height="1.8" style="fill:rgb(64,255,64);"/>
                        </g>
                        <g transform="matrix(0.7071,-0.7071,0.7071,0.7071,-196.692,622.305)">
                            <rect x="652.3" y="547.7" width="1.1" height="1.8" style="fill:rgb(64,64,255);"/>
                        </g>
                    </g>
                </g>
            </g>
            <g transform="matrix(1.54873,1.64507,-1.54873,1.64507,585.805,-1464.89)">
                <rect x="624.3" y="558.8" width="6.5" height="6.3" style="fill:rgb(154,145,108);"/>
            </g>
            <g transform="matrix(1.54873,1.64507,-1.54873,1.64507,602.193,-1472.1)">
                <rect x="631.7" y="566.3" width="6.5" height="6.3" style="fill:rgb(154,145,108);"/>
            </g>
            <g transform="matrix(1.54873,1.64507,-1.54873,1.64507,593.227,-1468.42)">
                <rect x="626.9" y="562.8" width="8.2" height="5" style="fill:rgb(110,85,75);"/>
            </g>
            <g transform="matrix(2.19025,0,0,2.3265,-687.083,-815.525)">
                <path d="M630.1,560.7L631.4,562L627.7,565.7L626.4,564.4C626.1,564.1 626.1,563.7 626.4,563.5L629.1,560.8C629.4,560.4 629.8,560.4 630.1,560.7Z" style="fill:rgb(220,220,220);fill-rule:nonzero;"/>
            </g>
            <g transform="matrix(2.19025,0,0,2.3265,-687.083,-815.525)">
                <path d="M632.6,570.4L631.3,569.1L635,565.4L636.3,566.7C636.6,567 636.6,567.4 636.3,567.6L633.6,570.3C633.2,570.7 632.8,570.7 632.6,570.4Z" style="fill:rgb(220,220,220);fill-rule:nonzero;"/>
            </g>
            <g transform="matrix(2.19025,0,0,2.3265,-687.083,-815.525)">
                <circle cx="505.8" cy="564.7" r="3.3" style="fill:none;stroke:rgb(154,145,108);stroke-width:2.2px;"/>
            </g>
            <g transform="matrix(2.19025,0,0,2.3265,-687.083,-815.525)">
                <circle cx="505.8" cy="574.1" r="3.3" style="fill:none;stroke:rgb(154,145,108);stroke-width:2.2px;"/>
            </g>
            <g transform="matrix(2.19025,0,0,2.3265,-687.083,-815.525)">
                <circle cx="505.8" cy="583.5" r="3.3" style="fill:none;stroke:rgb(154,145,108);stroke-width:2.2px;"/>
            </g>
            <g transform="matrix(2.19025,0,0,2.3265,432.241,550.325)">
                <text x="0px" y="0px" style="font-family:'Helvetica-Bold', 'Helvetica';font-weight:700;font-size:9px;fill:white;">5V</text>
            </g>
            <g transform="matrix(2.19025,0,0,2.3265,432.24,530.019)">
                <text x="0px" y="0px" style="font-family:'Helvetica-Bold', 'Helvetica';font-weight:700;font-size:9px;fill:white;">DO</text>
            </g>
            <g transform="matrix(2.19025,0,0,2.3265,432.241,506.406)">
                <text x="0px" y="0px" style="font-family:'Helvetica-Bold', 'Helvetica';font-weight:700;font-size:9px;fill:white;stroke:black;stroke-width:0.22px;stroke-linejoin:round;stroke-miterlimit:2;">GND</text>
            </g>
            <g transform="matrix(2.19025,0,0,2.3265,-687.083,-815.525)">
                <circle cx="504.7" cy="641.3" r="3.3" style="fill:none;stroke:rgb(154,145,108);stroke-width:2.2px;"/>
            </g>
            <g transform="matrix(2.19025,0,0,2.3265,-687.083,-815.525)">
                <circle cx="504.7" cy="650.7" r="3.3" style="fill:none;stroke:rgb(154,145,108);stroke-width:2.2px;"/>
            </g>
            <g transform="matrix(2.19025,0,0,2.3265,-687.083,-815.525)">
                <circle cx="504.7" cy="631.9" r="3.3" style="fill:none;stroke:rgb(154,145,108);stroke-width:2.2px;"/>
            </g>
            <g transform="matrix(2.19025,0,0,2.3265,430.051,708.358)">
                <text x="0px" y="0px" style="font-family:'Helvetica-Bold', 'Helvetica';font-weight:700;font-size:9px;fill:white;">5V</text>
            </g>
            <g transform="matrix(2.19025,0,0,2.3265,430.05,684.159)">
                <text x="0px" y="0px" style="font-family:'Helvetica-Bold', 'Helvetica';font-weight:700;font-size:9px;fill:white;">DI</text>
            </g>
            <g transform="matrix(2.19025,0,0,2.3265,430.051,663.405)">
                <text x="0px" y="0px" style="font-family:'Helvetica-Bold', 'Helvetica';font-weight:700;font-size:9px;fill:white;">GND</text>
            </g>
            <g transform="matrix(2.19025,0,0,2.3265,-687.083,-815.525)">
                <g>
                    <g>
                        <rect id="connector22pin_6_" x="676.5" y="618.5" width="6.9" height="7.8" style="fill:rgb(154,145,108);"/>
                    </g>
                </g>
            </g>
            <g transform="matrix(2.19025,0,0,2.3265,-687.083,-815.525)">
                <g>
                    <g>
                        <rect id="connector23pin_6_" x="676.5" y="590.3" width="6.9" height="7.8" style="fill:rgb(154,145,108);"/>
                    </g>
                </g>
            </g>
        </g>
    </g>
</svg>
