<?xml version="1.0" encoding="utf-8"?>
<!-- Generator: Adobe Illustrator 21.1.0, SVG Export Plug-In . SVG Version: 6.00 Build 0)  -->
<svg version="1.1" id="Layer_1" xmlns="http://www.w3.org/2000/svg" xmlns:xlink="http://www.w3.org/1999/xlink" x="0px" y="0px"
	 viewBox="0 0 267.4 63.1" style="enable-background:new 0 0 267.4 63.1;" xml:space="preserve">
<style type="text/css">
	.st0{fill:#F2F2F2;stroke:#000000;stroke-width:0.45;stroke-linecap:round;}
	.st1{fill:#B1B1B1;}
	.st2{fill:#FF9955;}
	.st3{fill-opacity:0.8624;}
	.st4{font-family:'ArialMT';}
	.st5{font-size:3px;}
	.st6{fill:#E6E6E6;stroke:#000000;stroke-width:8.240000e-02;stroke-opacity:0.5873;}
	.st7{fill:#1423FF;}
	.st8{fill:#FF0000;}
	.st9{fill:#00FF0B;}
	.st10{fill:#6C5D53;}
	.st11{fill:none;stroke:#000000;stroke-width:0.2338;stroke-linecap:round;}
</style>
<g>
	<g>
		<g>
			<g>
				<g>
					<path id="path5607_1_" class="st0" d="M25.7,12.8h108l-9,36h-99 M25.7,48.8v-36"/>
				</g>
			</g>
		</g>
	</g>
</g>
<g>
	<g>
		<g>
			<g>
				<g>
					<path id="path7626_1_" class="st0" d="M241.7,48.8h-108l9-36h99 M241.7,12.8v36"/>
				</g>
			</g>
		</g>
	</g>
</g>
<rect x="48.4" y="19" class="st1" width="3.9" height="23.6"/>
<rect x="54.8" y="19" class="st1" width="3.9" height="23.6"/>
<rect x="98.3" y="19" class="st1" width="3.9" height="23.6"/>
<rect x="104.7" y="19" class="st1" width="3.9" height="23.6"/>
<rect x="111.1" y="19" class="st1" width="3.9" height="23.6"/>
<rect x="145.6" y="19" class="st1" width="3.9" height="23.6"/>
<rect x="151.9" y="19" class="st1" width="3.9" height="23.6"/>
<rect x="158.3" y="19" class="st1" width="3.9" height="23.6"/>
<rect x="201.8" y="19" class="st1" width="3.9" height="23.6"/>
<rect x="208.2" y="19" class="st1" width="3.9" height="23.6"/>
<rect x="214.6" y="19" class="st1" width="3.9" height="23.6"/>
<rect x="42.1" y="19" class="st1" width="3.9" height="23.6"/>
<g>
	<g>
		<g>
			<g>
				<g>
					<path id="connector2pin_1_" class="st2" d="M29.1,28.5h2.2c1.2,0,2.2,1,2.2,2.2l0,0c0,1.2-1,2.2-2.2,2.2h-2.2
						c-1.2,0-2.2-1-2.2-2.2l0,0C26.8,29.5,27.8,28.5,29.1,28.5z"/>
				</g>
			</g>
		</g>
	</g>
</g>
<path id="connector3pin_1_" class="st2" d="M29.1,19.6h2.2c1.2,0,2.2,1,2.2,2.2l0,0c0,1.2-1,2.2-2.2,2.2h-2.2c-1.2,0-2.2-1-2.2-2.2
	l0,0C26.8,20.6,27.8,19.6,29.1,19.6z"/>
<path id="connector1pin_1_" class="st2" d="M29.1,37.6h2.2c1.2,0,2.2,1,2.2,2.2l0,0c0,1.2-1,2.2-2.2,2.2h-2.2c-1.2,0-2.2-1-2.2-2.2
	l0,0C26.8,38.6,27.8,37.6,29.1,37.6z"/>
<g>
	<g>
		<g>
			<g>
				<g>
					<path class="st3" d="M30.9,21.8c0,0.4-0.3,0.7-0.7,0.7c-0.4,0-0.7-0.3-0.7-0.7l0,0c0-0.4,0.3-0.7,0.7-0.7
						C30.6,21.1,30.9,21.4,30.9,21.8z"/>
				</g>
			</g>
		</g>
	</g>
</g>
<g>
	<g>
		<g>
			<g>
				<g>
					<path id="path8779" class="st3" d="M30.9,30.8c0,0.4-0.3,0.7-0.7,0.7c-0.4,0-0.7-0.3-0.7-0.7l0,0c0-0.4,0.3-0.7,0.7-0.7
						C30.6,30.1,30.9,30.4,30.9,30.8z"/>
				</g>
			</g>
		</g>
	</g>
</g>
<g>
	<g>
		<g>
			<g>
				<g>
					<path id="path8781" class="st3" d="M30.9,39.8c0,0.4-0.3,0.7-0.7,0.7c-0.4,0-0.7-0.3-0.7-0.7l0,0c0-0.4,0.3-0.7,0.7-0.7
						C30.6,39.1,30.9,39.4,30.9,39.8z"/>
				</g>
			</g>
		</g>
	</g>
</g>
<path id="rect9797" class="st2" d="M188.8,28.5h2.2c1.2,0,2.2,1,2.2,2.2l0,0c0,1.2-1,2.2-2.2,2.2h-2.2c-1.2,0-2.2-1-2.2-2.2l0,0
	C186.6,29.5,187.6,28.5,188.8,28.5z"/>
<path id="rect9799" class="st2" d="M188.8,19.5h2.2c1.2,0,2.2,1,2.2,2.2l0,0c0,1.2-1,2.2-2.2,2.2h-2.2c-1.2,0-2.2-1-2.2-2.2l0,0
	C186.6,20.5,187.6,19.5,188.8,19.5z"/>
<path id="rect9801" class="st2" d="M188.8,37.5h2.2c1.2,0,2.2,1,2.2,2.2l0,0c0,1.2-1,2.2-2.2,2.2h-2.2c-1.2,0-2.2-1-2.2-2.2l0,0
	C186.6,38.5,187.6,37.5,188.8,37.5z"/>
<g>
	<g>
		<g>
			<g>
				<g>
					<path id="path9803" class="st3" d="M190.6,21.8c0,0.4-0.3,0.7-0.7,0.7s-0.7-0.3-0.7-0.7l0,0c0-0.4,0.3-0.7,0.7-0.7
						S190.6,21.4,190.6,21.8z"/>
				</g>
			</g>
		</g>
	</g>
</g>
<g>
	<g>
		<g>
			<g>
				<g>
					<path id="path9805" class="st3" d="M190.6,30.7c0,0.4-0.3,0.7-0.7,0.7s-0.7-0.3-0.7-0.7l0,0c0-0.4,0.3-0.7,0.7-0.7
						S190.6,30.4,190.6,30.7z"/>
				</g>
			</g>
		</g>
	</g>
</g>
<g>
	<g>
		<g>
			<g>
				<g>
					<path id="path9807" class="st3" d="M190.6,39.7c0,0.4-0.3,0.7-0.7,0.7s-0.7-0.3-0.7-0.7l0,0c0-0.4,0.3-0.7,0.7-0.7
						S190.6,39.4,190.6,39.7z"/>
				</g>
			</g>
		</g>
	</g>
</g>
<path id="connector5pin_1_" class="st2" d="M236.1,28.5h2.2c1.2,0,2.2,1,2.2,2.2l0,0c0,1.2-1,2.2-2.2,2.2h-2.2c-1.2,0-2.2-1-2.2-2.2
	l0,0C233.8,29.5,234.8,28.5,236.1,28.5z"/>
<path id="connector4pin_1_" class="st2" d="M236.1,19.5h2.2c1.2,0,2.2,1,2.2,2.2l0,0c0,1.2-1,2.2-2.2,2.2h-2.2c-1.2,0-2.2-1-2.2-2.2
	l0,0C233.8,20.5,234.8,19.5,236.1,19.5z"/>
<path id="connector6pin_1_" class="st2" d="M236.1,37.5h2.2c1.2,0,2.2,1,2.2,2.2l0,0c0,1.2-1,2.2-2.2,2.2h-2.2c-1.2,0-2.2-1-2.2-2.2
	l0,0C233.8,38.5,234.8,37.5,236.1,37.5z"/>
<g>
	<g>
		<g>
			<g>
				<g>
					<path id="path9815" class="st3" d="M237.9,21.8c0,0.4-0.3,0.7-0.7,0.7s-0.7-0.3-0.7-0.7l0,0c0-0.4,0.3-0.7,0.7-0.7
						S237.9,21.4,237.9,21.8z"/>
				</g>
			</g>
		</g>
	</g>
</g>
<g>
	<g>
		<g>
			<g>
				<g>
					<path id="path9817" class="st3" d="M237.9,30.7c0,0.4-0.3,0.7-0.7,0.7s-0.7-0.3-0.7-0.7l0,0c0-0.4,0.3-0.7,0.7-0.7
						S237.9,30.4,237.9,30.7z"/>
				</g>
			</g>
		</g>
	</g>
</g>
<g>
	<g>
		<g>
			<g>
				<g>
					<path id="path9819" class="st3" d="M237.9,39.7c0,0.4-0.3,0.7-0.7,0.7s-0.7-0.3-0.7-0.7l0,0c0-0.4,0.3-0.7,0.7-0.7
						S237.9,39.4,237.9,39.7z"/>
				</g>
			</g>
		</g>
	</g>
</g>
<path id="rect10017" class="st2" d="M179.8,28.5h2.2c1.2,0,2.2,1,2.2,2.2l0,0c0,1.2-1,2.2-2.2,2.2h-2.2c-1.2,0-2.2-1-2.2-2.2l0,0
	C177.6,29.5,178.6,28.5,179.8,28.5z"/>
<path id="rect10019" class="st2" d="M179.8,19.5h2.2c1.2,0,2.2,1,2.2,2.2l0,0c0,1.2-1,2.2-2.2,2.2h-2.2c-1.2,0-2.2-1-2.2-2.2l0,0
	C177.6,20.5,178.6,19.5,179.8,19.5z"/>
<path id="rect10021" class="st2" d="M179.8,37.5h2.2c1.2,0,2.2,1,2.2,2.2l0,0c0,1.2-1,2.2-2.2,2.2h-2.2c-1.2,0-2.2-1-2.2-2.2l0,0
	C177.6,38.5,178.6,37.5,179.8,37.5z"/>
<g>
	<g>
		<g>
			<g>
				<g>
					<path id="path10023" class="st3" d="M181.6,21.8c0,0.4-0.3,0.7-0.7,0.7s-0.7-0.3-0.7-0.7l0,0c0-0.4,0.3-0.7,0.7-0.7
						S181.6,21.4,181.6,21.8z"/>
				</g>
			</g>
		</g>
	</g>
</g>
<g>
	<g>
		<g>
			<g>
				<g>
					<path id="path10025" class="st3" d="M181.6,30.7c0,0.4-0.3,0.7-0.7,0.7s-0.7-0.3-0.7-0.7l0,0c0-0.4,0.3-0.7,0.7-0.7
						S181.6,30.4,181.6,30.7z"/>
				</g>
			</g>
		</g>
	</g>
</g>
<g>
	<g>
		<g>
			<g>
				<g>
					<path id="path10027" class="st3" d="M181.6,39.7c0,0.4-0.3,0.7-0.7,0.7s-0.7-0.3-0.7-0.7l0,0c0-0.4,0.3-0.7,0.7-0.7
						S181.6,39.4,181.6,39.7z"/>
				</g>
			</g>
		</g>
	</g>
</g>
<path id="rect10121" class="st2" d="M85.3,28.5h2.2c1.2,0,2.2,1,2.2,2.2l0,0c0,1.2-1,2.2-2.2,2.2h-2.2c-1.2,0-2.2-1-2.2-2.2l0,0
	C83.1,29.5,84.1,28.5,85.3,28.5z"/>
<path id="rect10123" class="st2" d="M85.3,19.6h2.2c1.2,0,2.2,1,2.2,2.2l0,0c0,1.2-1,2.2-2.2,2.2h-2.2c-1.2,0-2.2-1-2.2-2.2l0,0
	C83.1,20.6,84.1,19.6,85.3,19.6z"/>
<path id="rect10125" class="st2" d="M85.3,37.6h2.2c1.2,0,2.2,1,2.2,2.2l0,0c0,1.2-1,2.2-2.2,2.2h-2.2c-1.2,0-2.2-1-2.2-2.2l0,0
	C83.1,38.6,84.1,37.6,85.3,37.6z"/>
<g>
	<g>
		<g>
			<g>
				<g>
					<path id="path10127" class="st3" d="M87.1,21.8c0,0.4-0.3,0.7-0.7,0.7s-0.7-0.3-0.7-0.7l0,0c0-0.4,0.3-0.7,0.7-0.7
						S87.1,21.4,87.1,21.8z"/>
				</g>
			</g>
		</g>
	</g>
</g>
<g>
	<g>
		<g>
			<g>
				<g>
					<path id="path10129" class="st3" d="M87.1,30.8c0,0.4-0.3,0.7-0.7,0.7s-0.7-0.3-0.7-0.7l0,0c0-0.4,0.3-0.7,0.7-0.7
						S87.1,30.4,87.1,30.8z"/>
				</g>
			</g>
		</g>
	</g>
</g>
<g>
	<g>
		<g>
			<g>
				<g>
					<path id="path10131" class="st3" d="M87.1,39.8c0,0.4-0.3,0.7-0.7,0.7s-0.7-0.3-0.7-0.7l0,0c0-0.4,0.3-0.7,0.7-0.7
						S87.1,39.4,87.1,39.8z"/>
				</g>
			</g>
		</g>
	</g>
</g>
<path id="rect10145" class="st2" d="M76.3,28.5h2.2c1.2,0,2.2,1,2.2,2.2l0,0c0,1.2-1,2.2-2.2,2.2h-2.2c-1.2,0-2.2-1-2.2-2.2l0,0
	C74.1,29.5,75.1,28.5,76.3,28.5z"/>
<path id="rect10147" class="st2" d="M76.3,19.6h2.2c1.2,0,2.2,1,2.2,2.2l0,0c0,1.2-1,2.2-2.2,2.2h-2.2c-1.2,0-2.2-1-2.2-2.2l0,0
	C74.1,20.6,75.1,19.6,76.3,19.6z"/>
<path id="rect10149" class="st2" d="M76.3,37.6h2.2c1.2,0,2.2,1,2.2,2.2l0,0c0,1.2-1,2.2-2.2,2.2h-2.2c-1.2,0-2.2-1-2.2-2.2l0,0
	C74.1,38.6,75.1,37.6,76.3,37.6z"/>
<g>
	<g>
		<g>
			<g>
				<g>
					<path id="path10151" class="st3" d="M78.1,21.8c0,0.4-0.3,0.7-0.7,0.7s-0.7-0.3-0.7-0.7l0,0c0-0.4,0.3-0.7,0.7-0.7
						S78.1,21.4,78.1,21.8z"/>
				</g>
			</g>
		</g>
	</g>
</g>
<g>
	<g>
		<g>
			<g>
				<g>
					<path id="path10153" class="st3" d="M78.1,30.8c0,0.4-0.3,0.7-0.7,0.7s-0.7-0.3-0.7-0.7l0,0c0-0.4,0.3-0.7,0.7-0.7
						S78.1,30.4,78.1,30.8z"/>
				</g>
			</g>
		</g>
	</g>
</g>
<g>
	<g>
		<g>
			<g>
				<g>
					<path id="path10155" class="st3" d="M78.1,39.8c0,0.4-0.3,0.7-0.7,0.7s-0.7-0.3-0.7-0.7l0,0c0-0.4,0.3-0.7,0.7-0.7
						S78.1,39.4,78.1,39.8z"/>
				</g>
			</g>
		</g>
	</g>
</g>
<g>
	<g>
		<g>
			<g>
				<g>
					<text id="tspan6341_9_" transform="matrix(0 -1 1 0 73.2382 44.5937)" class="st4 st5">+5V</text>
				</g>
			</g>
		</g>
	</g>
</g>
<g>
	<g>
		<g>
			<g>
				<g>
					<text id="tspan6345_9_" transform="matrix(0 -1 1 0 73.2382 25.1748)" class="st4 st5">GND</text>
				</g>
			</g>
		</g>
	</g>
</g>
<g>
	<g>
		<g>
			<g>
				<g>
					<text id="tspan6357_17_" transform="matrix(0 -1 1 0 73.2382 33.664)" class="st4 st5">DO</text>
				</g>
			</g>
		</g>
	</g>
</g>
<g>
	<g>
		<g>
			<g>
				<g>
					<g id="g6613_2_">
						<g transform="matrix(0.2425, -0.9701, 0.9701, 0.2425, 30.9863, 154.618)">
							<g>
								<g>
									<g>
										<g>
											<g>
												
													<ellipse id="circle6615_2_" transform="matrix(-1 2.524750e-06 -2.524750e-06 -1 234.3814 130.5244)" cx="117.2" cy="65.3" rx="0.4" ry="0.4"/>
											</g>
										</g>
									</g>
								</g>
							</g>
						</g>
						<g transform="matrix(0.2425, -0.9701, 0.9701, 0.2425, 32.758, 153.831)">
							<g>
								<g>
									<g>
										<g>
											<g>
												
													<ellipse id="circle6617_2_" transform="matrix(-1 2.524747e-06 -2.524747e-06 -1 235.1454 127.4684)" cx="117.6" cy="63.7" rx="0.4" ry="0.4"/>
											</g>
										</g>
									</g>
								</g>
							</g>
						</g>
						<g transform="matrix(0.2425, -0.9701, 0.9701, 0.2425, 34.5297, 153.044)">
							<g>
								<g>
									<g>
										<g>
											<g>
												
													<ellipse id="circle6619_2_" transform="matrix(-1 2.524747e-06 -2.524747e-06 -1 235.9094 124.4124)" cx="118" cy="62.2" rx="0.4" ry="0.4"/>
											</g>
										</g>
									</g>
								</g>
							</g>
						</g>
					</g>
				</g>
			</g>
		</g>
	</g>
</g>
<g>
	<g>
		<g>
			<g>
				<g>
					<g id="g6613_3_">
						<g transform="matrix(0.2425, -0.9701, 0.9701, 0.2425, 37.8035, 163.349)">
							<g>
								<g>
									<g>
										<g>
											<g>
												
													<ellipse id="circle6615_3_" transform="matrix(-1 2.524750e-06 -2.524750e-06 -1 252.3814 130.5244)" cx="126.2" cy="65.3" rx="0.4" ry="0.4"/>
											</g>
										</g>
									</g>
								</g>
							</g>
						</g>
						<g transform="matrix(0.2425, -0.9701, 0.9701, 0.2425, 39.5752, 162.562)">
							<g>
								<g>
									<g>
										<g>
											<g>
												
													<ellipse id="circle6617_3_" transform="matrix(-1 2.524747e-06 -2.524747e-06 -1 253.1454 127.4684)" cx="126.6" cy="63.7" rx="0.4" ry="0.4"/>
											</g>
										</g>
									</g>
								</g>
							</g>
						</g>
						<g transform="matrix(0.2425, -0.9701, 0.9701, 0.2425, 41.3469, 161.775)">
							<g>
								<g>
									<g>
										<g>
											<g>
												
													<ellipse id="circle6619_3_" transform="matrix(-1 2.524747e-06 -2.524747e-06 -1 253.9094 124.4124)" cx="127" cy="62.2" rx="0.4" ry="0.4"/>
											</g>
										</g>
									</g>
								</g>
							</g>
						</g>
					</g>
				</g>
			</g>
		</g>
	</g>
</g>
<g>
	<g>
		<g>
			<g>
				<g>
					<g id="g6613_5_">
						<g transform="matrix(0.2425, -0.9701, 0.9701, 0.2425, 30.9863, 154.618)">
							<g>
								<g>
									<g>
										<g>
											<g>
												
													<ellipse id="circle6615_5_" transform="matrix(-1 2.524750e-06 -2.524750e-06 -1 331.7784 129.8533)" cx="165.9" cy="64.9" rx="0.4" ry="0.4"/>
											</g>
										</g>
									</g>
								</g>
							</g>
						</g>
						<g transform="matrix(0.2425, -0.9701, 0.9701, 0.2425, 32.758, 153.831)">
							<g>
								<g>
									<g>
										<g>
											<g>
												
													<ellipse id="circle6617_5_" transform="matrix(-1 2.524747e-06 -2.524747e-06 -1 332.5424 126.7973)" cx="166.3" cy="63.4" rx="0.4" ry="0.4"/>
											</g>
										</g>
									</g>
								</g>
							</g>
						</g>
						<g transform="matrix(0.2425, -0.9701, 0.9701, 0.2425, 34.5297, 153.044)">
							<g>
								<g>
									<g>
										<g>
											<g>
												
													<ellipse id="circle6619_5_" transform="matrix(-1 2.524747e-06 -2.524747e-06 -1 333.3064 123.7413)" cx="166.7" cy="61.9" rx="0.4" ry="0.4"/>
											</g>
										</g>
									</g>
								</g>
							</g>
						</g>
					</g>
				</g>
			</g>
		</g>
	</g>
</g>
<g>
	<g>
		<g>
			<g>
				<g>
					<g id="g6613_4_">
						<g transform="matrix(0.2425, -0.9701, 0.9701, 0.2425, 37.8035, 163.349)">
							<g>
								<g>
									<g>
										<g>
											<g>
												
													<ellipse id="circle6615_4_" transform="matrix(-1 2.524750e-06 -2.524750e-06 -1 349.7784 129.8533)" cx="174.9" cy="64.9" rx="0.4" ry="0.4"/>
											</g>
										</g>
									</g>
								</g>
							</g>
						</g>
						<g transform="matrix(0.2425, -0.9701, 0.9701, 0.2425, 39.5752, 162.562)">
							<g>
								<g>
									<g>
										<g>
											<g>
												
													<ellipse id="circle6617_4_" transform="matrix(-1 2.524747e-06 -2.524747e-06 -1 350.5424 126.7973)" cx="175.3" cy="63.4" rx="0.4" ry="0.4"/>
											</g>
										</g>
									</g>
								</g>
							</g>
						</g>
						<g transform="matrix(0.2425, -0.9701, 0.9701, 0.2425, 41.3469, 161.775)">
							<g>
								<g>
									<g>
										<g>
											<g>
												
													<ellipse id="circle6619_4_" transform="matrix(-1 2.524747e-06 -2.524747e-06 -1 351.3064 123.7413)" cx="175.7" cy="61.9" rx="0.4" ry="0.4"/>
											</g>
										</g>
									</g>
								</g>
							</g>
						</g>
					</g>
				</g>
			</g>
		</g>
	</g>
</g>
<g>
	<g>
		<g>
			<g>
				<g id="g9821">
					<g transform="matrix(1, 0, 0, 1, 0, -405)">
						<g transform="matrix(1, 0, 0, 1, 0, -405)">
							<g>
								<g>
									<g>
										<g>
											<g>
												<g>
													<g transform="matrix(-2.53518e-06, -1, 1, -2.53518e-06, -50.7958, 804.204)">
														<g>
															<g>
																<g>
																	<g>
																		<g>
																			
																				<rect id="rect9839" x="358.6" y="251.1" transform="matrix(4.648184e-07 -1 1 4.648184e-07 107.4793 629.4029)" class="st6" width="19.7" height="19.7"/>
																		</g>
																	</g>
																</g>
															</g>
														</g>
													</g>
												</g>
											</g>
										</g>
									</g>
								</g>
							</g>
						</g>
						<path id="path9841" class="st1" d="M210.2,23.4c4.1,0,7.4,3.3,7.4,7.4s-3.3,7.4-7.4,7.4l0,0c-4.1,0-7.4-3.3-7.4-7.4
							S206.1,23.4,210.2,23.4z"/>
						<g transform="matrix(1, 0, 0, 1, 18, -13.95)">
							<g>
								<g>
									<g>
										<g>
											<g>
												<g>
													<path id="path9843" class="st7" d="M196.6,42.3c1.4,0,2.5,1.1,2.5,2.5c0,1.4-1.1,2.5-2.5,2.5c-1.4,0-2.5-1.1-2.5-2.5
														C194.1,43.4,195.2,42.3,196.6,42.3z"/>
												</g>
											</g>
										</g>
									</g>
								</g>
							</g>
						</g>
						<g transform="matrix(1, 0, 0, 1, 13.95, -18)">
							<g>
								<g>
									<g>
										<g>
											<g>
												<g>
													<path id="path9845" class="st8" d="M196.2,50.7c1.4,0,2.5,1.1,2.5,2.5c0,1.4-1.1,2.5-2.5,2.5s-2.5-1.1-2.5-2.5
														C193.8,51.8,194.9,50.7,196.2,50.7z"/>
												</g>
											</g>
										</g>
									</g>
								</g>
							</g>
						</g>
						<g transform="matrix(1, 0, 0, 1, 18, -22.05)">
							<g>
								<g>
									<g>
										<g>
											<g>
												<g>
													<path id="path9847" class="st9" d="M187.7,50.4c1.4,0,2.5,1.1,2.5,2.5s-1.1,2.5-2.5,2.5c-1.4,0-2.5-1.1-2.5-2.5
														S186.4,50.4,187.7,50.4z"/>
												</g>
											</g>
										</g>
									</g>
								</g>
							</g>
						</g>
						<g>
							<g>
								<g>
									<g>
										<g>
											<g>
												<g id="g9849">
													<g transform="matrix(1, 0, 0, 1, 0, 405)">
														<g>
															<g>
																<g>
																	<g>
																		<g>
																			<g>
																				<g transform="matrix(-2.53518e-06, -1, 1, -2.53518e-06, 357.804, 402.803)">
																					<g>
																					</g>
																				</g>
																			</g>
																		</g>
																	</g>
																</g>
															</g>
														</g>
													</g>
												</g>
											</g>
										</g>
									</g>
								</g>
							</g>
						</g>
					</g>
				</g>
			</g>
		</g>
	</g>
</g>
<g>
	<g>
		<g>
			<g>
				<g id="g9821_1_">
					<g transform="matrix(1, 0, 0, 1, 0, -405)">
						<g transform="matrix(1, 0, 0, 1, 0, -405)">
							<g>
								<g>
									<g>
										<g>
											<g>
												<g>
													<g transform="matrix(-2.53518e-06, -1, 1, -2.53518e-06, -50.7958, 804.204)">
														<g>
															<g>
																<g>
																	<g>
																		<g>
																			
																				<rect id="rect9839_1_" x="358.6" y="194.9" transform="matrix(4.648184e-07 -1 1 4.648184e-07 163.7313 573.1512)" class="st6" width="19.7" height="19.7"/>
																		</g>
																	</g>
																</g>
															</g>
														</g>
													</g>
												</g>
											</g>
										</g>
									</g>
								</g>
							</g>
						</g>
						<path id="path9841_1_" class="st1" d="M153.9,23.4c4.1,0,7.4,3.3,7.4,7.4s-3.3,7.4-7.4,7.4l0,0c-4.1,0-7.4-3.3-7.4-7.4
							S149.8,23.4,153.9,23.4z"/>
						<g transform="matrix(1, 0, 0, 1, 18, -13.95)">
							<g>
								<g>
									<g>
										<g>
											<g>
												<g>
													<path id="path9843_1_" class="st7" d="M140.3,42.3c1.4,0,2.5,1.1,2.5,2.5c0,1.4-1.1,2.5-2.5,2.5
														c-1.4,0-2.5-1.1-2.5-2.5C137.9,43.4,139,42.3,140.3,42.3z"/>
												</g>
											</g>
										</g>
									</g>
								</g>
							</g>
						</g>
						<g transform="matrix(1, 0, 0, 1, 13.95, -18)">
							<g>
								<g>
									<g>
										<g>
											<g>
												<g>
													<path id="path9845_1_" class="st8" d="M140,50.7c1.4,0,2.5,1.1,2.5,2.5c0,1.4-1.1,2.5-2.5,2.5c-1.4,0-2.5-1.1-2.5-2.5
														C137.5,51.8,138.6,50.7,140,50.7z"/>
												</g>
											</g>
										</g>
									</g>
								</g>
							</g>
						</g>
						<g transform="matrix(1, 0, 0, 1, 18, -22.05)">
							<g>
								<g>
									<g>
										<g>
											<g>
												<g>
													<path id="path9847_1_" class="st9" d="M131.5,50.4c1.4,0,2.5,1.1,2.5,2.5s-1.1,2.5-2.5,2.5c-1.4,0-2.5-1.1-2.5-2.5
														S130.1,50.4,131.5,50.4z"/>
												</g>
											</g>
										</g>
									</g>
								</g>
							</g>
						</g>
						<g>
							<g>
								<g>
									<g>
										<g>
											<g>
												<g id="g9849_1_">
													<g transform="matrix(1, 0, 0, 1, 0, 405)">
														<g>
															<g>
																<g>
																	<g>
																		<g>
																			<g>
																				<g transform="matrix(-2.53518e-06, -1, 1, -2.53518e-06, 357.804, 402.803)">
																					<g>
																					</g>
																				</g>
																			</g>
																		</g>
																	</g>
																</g>
															</g>
														</g>
													</g>
												</g>
											</g>
										</g>
									</g>
								</g>
							</g>
						</g>
					</g>
				</g>
			</g>
		</g>
	</g>
</g>
<g>
	<g>
		<g>
			<g>
				<g id="g9821_2_">
					<g transform="matrix(1, 0, 0, 1, 0, -405)">
						<g transform="matrix(1, 0, 0, 1, 0, -405)">
							<g>
								<g>
									<g>
										<g>
											<g>
												<g>
													<g transform="matrix(-2.53518e-06, -1, 1, -2.53518e-06, -50.7958, 804.204)">
														<g>
															<g>
																<g>
																	<g>
																		<g>
																			
																				<rect id="rect9839_4_" x="358.6" y="147.6" transform="matrix(4.648184e-07 -1 1 4.648184e-07 210.9815 525.9014)" class="st6" width="19.7" height="19.7"/>
																		</g>
																	</g>
																</g>
															</g>
														</g>
													</g>
												</g>
											</g>
										</g>
									</g>
								</g>
							</g>
						</g>
						<path id="path9841_2_" class="st1" d="M106.7,23.4c4.1,0,7.4,3.3,7.4,7.4s-3.3,7.4-7.4,7.4l0,0c-4.1,0-7.4-3.3-7.4-7.4
							S102.6,23.4,106.7,23.4z"/>
						<g transform="matrix(1, 0, 0, 1, 18, -13.95)">
							<g>
								<g>
									<g>
										<g>
											<g>
												<g>
													<path id="path9843_2_" class="st7" d="M93.1,42.3c1.4,0,2.5,1.1,2.5,2.5c0,1.4-1.1,2.5-2.5,2.5c-1.4,0-2.5-1.1-2.5-2.5
														C90.6,43.4,91.7,42.3,93.1,42.3z"/>
												</g>
											</g>
										</g>
									</g>
								</g>
							</g>
						</g>
						<g transform="matrix(1, 0, 0, 1, 13.95, -18)">
							<g>
								<g>
									<g>
										<g>
											<g>
												<g>
													<path id="path9845_2_" class="st8" d="M92.7,50.7c1.4,0,2.5,1.1,2.5,2.5c0,1.4-1.1,2.5-2.5,2.5c-1.4,0-2.5-1.1-2.5-2.5
														C90.3,51.8,91.4,50.7,92.7,50.7z"/>
												</g>
											</g>
										</g>
									</g>
								</g>
							</g>
						</g>
						<g transform="matrix(1, 0, 0, 1, 18, -22.05)">
							<g>
								<g>
									<g>
										<g>
											<g>
												<g>
													<path id="path9847_2_" class="st9" d="M84.2,50.4c1.4,0,2.5,1.1,2.5,2.5s-1.1,2.5-2.5,2.5c-1.4,0-2.5-1.1-2.5-2.5
														S82.9,50.4,84.2,50.4z"/>
												</g>
											</g>
										</g>
									</g>
								</g>
							</g>
						</g>
						<g>
							<g>
								<g>
									<g>
										<g>
											<g>
												<g id="g9849_2_">
													<g transform="matrix(1, 0, 0, 1, 0, 405)">
														<g>
															<g>
																<g>
																	<g>
																		<g>
																			<g>
																				<g transform="matrix(-2.53518e-06, -1, 1, -2.53518e-06, 357.804, 402.803)">
																					<g>
																					</g>
																				</g>
																			</g>
																		</g>
																	</g>
																</g>
															</g>
														</g>
													</g>
												</g>
											</g>
										</g>
									</g>
								</g>
							</g>
						</g>
					</g>
				</g>
			</g>
		</g>
	</g>
</g>
<g>
	<g>
		<g>
			<g>
				<g id="g9821_3_">
					<g transform="matrix(1, 0, 0, 1, 0, -405)">
						<g transform="matrix(1, 0, 0, 1, 0, -405)">
							<g>
								<g>
									<g>
										<g>
											<g>
												<g>
													<g transform="matrix(-2.53518e-06, -1, 1, -2.53518e-06, -50.7958, 804.204)">
														<g>
															<g>
																<g>
																	<g>
																		<g>
																			
																				<rect id="rect9839_6_" x="358.6" y="91.4" transform="matrix(4.648184e-07 -1 1 4.648184e-07 267.2316 469.6516)" class="st6" width="19.7" height="19.7"/>
																		</g>
																	</g>
																</g>
															</g>
														</g>
													</g>
												</g>
											</g>
										</g>
									</g>
								</g>
							</g>
						</g>
						<path id="path9841_3_" class="st1" d="M50.4,23.4c4.1,0,7.4,3.3,7.4,7.4s-3.3,7.4-7.4,7.4l0,0c-4.1,0-7.4-3.3-7.4-7.4
							S46.3,23.4,50.4,23.4z"/>
						<g transform="matrix(1, 0, 0, 1, 18, -13.95)">
							<g>
								<g>
									<g>
										<g>
											<g>
												<g>
													<path id="path9843_3_" class="st7" d="M36.8,42.3c1.4,0,2.5,1.1,2.5,2.5c0,1.4-1.1,2.5-2.5,2.5s-2.5-1.1-2.5-2.5
														C34.4,43.4,35.5,42.3,36.8,42.3z"/>
												</g>
											</g>
										</g>
									</g>
								</g>
							</g>
						</g>
						<g transform="matrix(1, 0, 0, 1, 13.95, -18)">
							<g>
								<g>
									<g>
										<g>
											<g>
												<g>
													<path id="path9845_3_" class="st8" d="M36.5,50.7c1.4,0,2.5,1.1,2.5,2.5c0,1.4-1.1,2.5-2.5,2.5S34,54.5,34,53.2
														C34,51.8,35.1,50.7,36.5,50.7z"/>
												</g>
											</g>
										</g>
									</g>
								</g>
							</g>
						</g>
						<g transform="matrix(1, 0, 0, 1, 18, -22.05)">
							<g>
								<g>
									<g>
										<g>
											<g>
												<g>
													<path id="path9847_3_" class="st9" d="M28,50.4c1.4,0,2.5,1.1,2.5,2.5s-1.1,2.5-2.5,2.5s-2.5-1.1-2.5-2.5
														S26.6,50.4,28,50.4z"/>
												</g>
											</g>
										</g>
									</g>
								</g>
							</g>
						</g>
						<g>
							<g>
								<g>
									<g>
										<g>
											<g>
												<g id="g9849_3_">
													<g transform="matrix(1, 0, 0, 1, 0, 405)">
														<g>
															<g>
																<g>
																	<g>
																		<g>
																			<g>
																				<g transform="matrix(-2.53518e-06, -1, 1, -2.53518e-06, 357.804, 402.803)">
																					<g>
																					</g>
																				</g>
																			</g>
																		</g>
																	</g>
																</g>
															</g>
														</g>
													</g>
												</g>
											</g>
										</g>
									</g>
								</g>
							</g>
						</g>
					</g>
				</g>
			</g>
		</g>
	</g>
</g>
<rect x="48.6" y="24.6" class="st10" width="3.7" height="3.7"/>
<rect x="105.4" y="25.2" class="st10" width="2.6" height="2.6"/>
<rect x="152.6" y="25.2" class="st10" width="2.6" height="2.6"/>
<rect x="208.9" y="25.2" class="st10" width="2.6" height="2.6"/>
<polygon points="89.9,37.2 89.9,35.4 93.5,35.4 93.5,34.4 95.4,36.3 93.5,38.3 93.5,37.2 "/>
<polygon points="89.9,28 89.9,26.2 93.5,26.2 93.5,25.2 95.4,27.1 93.5,29.1 93.5,28 "/>
<polygon points="69.2,37.2 69.2,35.4 72.7,35.4 72.7,34.4 74.7,36.3 72.7,38.3 72.7,37.2 "/>
<polygon points="69.2,28 69.2,26.2 72.7,26.2 72.7,25.2 74.7,27.1 72.7,29.1 72.7,28 "/>
<g>
	<g>
		<g>
			<g>
				<g>
					<text id="tspan6341_14_" transform="matrix(0 1 -1 0 90.5728 39.1716)" class="st4 st5">+5V</text>
				</g>
			</g>
		</g>
	</g>
</g>
<g>
	<g>
		<g>
			<g>
				<g>
					<text id="tspan6345_14_" transform="matrix(0 1 -1 0 90.5728 18.5072)" class="st4 st5">GND</text>
				</g>
			</g>
		</g>
	</g>
</g>
<g>
	<g>
		<g>
			<g>
				<g>
					<text id="tspan6357_22_" transform="matrix(0 1 -1 0 90.5728 29.9144)" class="st4 st5">DI</text>
				</g>
			</g>
		</g>
	</g>
</g>
<polygon points="33.6,37.2 33.6,35.4 37.1,35.4 37.1,34.4 39.1,36.3 37.1,38.3 37.1,37.2 "/>
<polygon points="33.6,28 33.6,26.2 37.1,26.2 37.1,25.2 39.1,27.1 37.1,29.1 37.1,28 "/>
<g>
	<g>
		<g>
			<g>
				<g>
					<text id="tspan6341_8_" transform="matrix(0 1 -1 0 34.2466 39.1716)" class="st4 st5">+5V</text>
				</g>
			</g>
		</g>
	</g>
</g>
<g>
	<g>
		<g>
			<g>
				<g>
					<text id="tspan6345_8_" transform="matrix(0 1 -1 0 34.2466 18.5072)" class="st4 st5">GND</text>
				</g>
			</g>
		</g>
	</g>
</g>
<g>
	<g>
		<g>
			<g>
				<g>
					<text id="tspan6357_16_" transform="matrix(0 1 -1 0 34.2466 29.9144)" class="st4 st5">DI</text>
				</g>
			</g>
		</g>
	</g>
</g>
<g>
	<g>
		<g>
			<g>
				<g>
					<text id="tspan6341_16_" transform="matrix(0 -1 1 0 177.2392 43.5937)" class="st4 st5">+5V</text>
				</g>
			</g>
		</g>
	</g>
</g>
<g>
	<g>
		<g>
			<g>
				<g>
					<text id="tspan6345_16_" transform="matrix(0 -1 1 0 177.2392 24.1748)" class="st4 st5">GND</text>
				</g>
			</g>
		</g>
	</g>
</g>
<polygon points="193.9,36.2 193.9,34.4 197.5,34.4 197.5,33.4 199.4,35.3 197.5,37.3 197.5,36.2 "/>
<polygon points="173.2,36.2 173.2,34.4 176.7,34.4 176.7,33.4 178.7,35.3 176.7,37.3 176.7,36.2 "/>
<polygon points="173.2,27 173.2,25.2 176.7,25.2 176.7,24.2 178.7,26.1 176.7,28.1 176.7,27 "/>
<polygon points="193.9,27 193.9,25.2 197.5,25.2 197.5,24.2 199.4,26.1 197.5,28.1 197.5,27 "/>
<g>
	<g>
		<g>
			<g>
				<g>
					<text id="tspan6341_15_" transform="matrix(0 1 -1 0 194.5728 38.1716)" class="st4 st5">+5V</text>
				</g>
			</g>
		</g>
	</g>
</g>
<g>
	<g>
		<g>
			<g>
				<g>
					<text id="tspan6345_15_" transform="matrix(0 1 -1 0 194.5728 17.5072)" class="st4 st5">GND</text>
				</g>
			</g>
		</g>
	</g>
</g>
<g>
	<g>
		<g>
			<g>
				<g>
					<text id="tspan6357_23_" transform="matrix(0 1 -1 0 194.5728 28.9472)" class="st4 st5">DI</text>
				</g>
			</g>
		</g>
	</g>
</g>
<g>
	<g>
		<g>
			<g>
				<g>
					<text id="tspan6341_18_" transform="matrix(0 -1 1 0 233.2403 43.5927)" class="st4 st5">+5V</text>
				</g>
			</g>
		</g>
	</g>
</g>
<g>
	<g>
		<g>
			<g>
				<g>
					<text id="tspan6345_18_" transform="matrix(0 -1 1 0 233.2403 24.1738)" class="st4 st5">GND</text>
				</g>
			</g>
		</g>
	</g>
</g>
<polygon points="229.2,36.2 229.2,34.4 232.7,34.4 232.7,33.4 234.7,35.3 232.7,37.3 232.7,36.2 "/>
<polygon points="229.2,27 229.2,25.2 232.7,25.2 232.7,24.2 234.7,26.1 232.7,28.1 232.7,27 "/>
<g>
	<g>
		<g>
			<g>
				<g>
					<text id="tspan6357_24_" transform="matrix(0 -1 1 0 177.2385 32.6972)" class="st4 st5">DO</text>
				</g>
			</g>
		</g>
	</g>
</g>
<g>
	<g>
		<g>
			<g>
				<g>
					<text id="tspan6357_25_" transform="matrix(0 -1 1 0 233.24 32.6972)" class="st4 st5">DO</text>
				</g>
			</g>
		</g>
	</g>
</g>
<path id="path10269_1_" class="st11" d="M68,23v5.5 M68,23c0-0.6-0.4-1.1-0.8-1.1c0,0,0,0,0,0 M62.2,21.9h5 M61.4,23
	c0-0.6,0.4-1.1,0.8-1.1c0,0,0,0,0,0 M61.4,28.5V23"/>
<path id="path10271_1_" class="st11" d="M68,38.4v-5.5 M68,38.4c0,0.6-0.4,1.1-0.8,1.1c0,0,0,0,0,0 M62.2,39.5h5 M61.4,38.4
	c0,0.6,0.4,1.1,0.8,1.1c0,0,0,0,0,0 M61.4,32.9v5.5"/>
<rect id="rect10275_1_" x="62.2" y="24.1" class="st1" width="5" height="13.2"/>
<rect id="rect10273_1_" x="62.2" y="27.4" class="st10" width="5" height="6.6"/>
<path id="path10269_2_" class="st11" d="M124.8,23v5.5 M124.8,23c0-0.6-0.4-1.1-0.8-1.1c0,0,0,0,0,0 M119,21.9h5 M118.2,23
	c0-0.6,0.4-1.1,0.8-1.1c0,0,0,0,0,0 M118.2,28.5V23"/>
<path id="path10271_2_" class="st11" d="M124.8,38.4v-5.5 M124.8,38.4c0,0.6-0.4,1.1-0.8,1.1c0,0,0,0,0,0 M119,39.5h5 M118.2,38.4
	c0,0.6,0.4,1.1,0.8,1.1c0,0,0,0,0,0 M118.2,32.9v5.5"/>
<rect id="rect10275_2_" x="119" y="24.1" class="st1" width="5" height="13.2"/>
<rect id="rect10273_2_" x="119" y="27.4" class="st10" width="5" height="6.6"/>
<path id="path10269_3_" class="st11" d="M171.6,23v5.5 M171.6,23c0-0.6-0.4-1.1-0.8-1.1c0,0,0,0,0,0 M165.8,21.9h5 M165,23
	c0-0.6,0.4-1.1,0.8-1.1c0,0,0,0,0,0 M165,28.5V23"/>
<path id="path10271_3_" class="st11" d="M171.6,38.4v-5.5 M171.6,38.4c0,0.6-0.4,1.1-0.8,1.1c0,0,0,0,0,0 M165.8,39.5h5 M165,38.4
	c0,0.6,0.4,1.1,0.8,1.1c0,0,0,0,0,0 M165,32.9v5.5"/>
<rect id="rect10275_3_" x="165.8" y="24.1" class="st1" width="5" height="13.2"/>
<rect id="rect10273_3_" x="165.8" y="27.4" class="st10" width="5" height="6.6"/>
<path id="path10269_4_" class="st11" d="M227.5,23v5.5 M227.5,23c0-0.6-0.4-1.1-0.8-1.1c0,0,0,0,0,0 M221.7,21.9h5 M220.9,23
	c0-0.6,0.4-1.1,0.8-1.1c0,0,0,0,0,0 M220.9,28.5V23"/>
<path id="path10271_4_" class="st11" d="M227.5,38.4v-5.5 M227.5,38.4c0,0.6-0.4,1.1-0.8,1.1c0,0,0,0,0,0 M221.7,39.5h5 M220.9,38.4
	c0,0.6,0.4,1.1,0.8,1.1c0,0,0,0,0,0 M220.9,32.9v5.5"/>
<rect id="rect10275_4_" x="221.7" y="24.1" class="st1" width="5" height="13.2"/>
<rect id="rect10273_4_" x="221.7" y="27.4" class="st10" width="5" height="6.6"/>
</svg>
