<?xml version="1.0" encoding="utf-8"?>
<!-- Generator: Adobe Illustrator 23.0.4, SVG Export Plug-In . SVG Version: 6.00 Build 0)  -->
<svg version="1.1" id="Layer_1" xmlns:svg="http://www.w3.org/2000/svg"
	 xmlns="http://www.w3.org/2000/svg" xmlns:xlink="http://www.w3.org/1999/xlink" x="0px" y="0px" viewBox="0 0 414.6 310.4"
	 style="enable-background:new 0 0 414.6 310.4;" xml:space="preserve">
<style type="text/css">
	.st0{fill:#007481;}
	.st1{fill:#83B8BD;}
	.st2{fill:#8E9090;}
	.st3{fill:#FFFFFF;}
	.st4{fill:#8C7965;}
	.st5{fill:#7EC632;}
	.st6{fill:#E08948;}
	.st7{fill:#BEC2C2;}
	.st8{fill:#C2C3C3;}
	.st9{fill:#C6C6C6;}
	.st10{fill:#8A9091;}
	.st11{clip-path:url(#SVGID_2_);}
	.st12{clip-path:url(#SVGID_4_);}
	.st13{clip-path:url(#SVGID_6_);}
	.st14{fill:#A99989;}
	.st15{fill:#CBC0B6;}
	.st16{fill:#9E8D7C;}
	.st17{fill:#C5B9AE;}
	.st18{fill:#D0C5BC;}
	.st19{clip-path:url(#SVGID_8_);}
	.st20{fill:#8C9192;}
	.st21{fill:#E1E3DB;}
	.st22{fill:#004C53;}
	.st23{fill:none;stroke:#000000;stroke-width:3.2;stroke-linecap:round;}
	.st24{fill:none;stroke:#404040;stroke-width:1.6;stroke-linecap:round;}
	.st25{fill:none;stroke:#1B5BB3;stroke-width:3.2;stroke-linecap:round;}
	.st26{fill:none;stroke:#418DD9;stroke-width:1.6;stroke-linecap:round;}
	.st27{fill:none;stroke:#D6D63A;stroke-width:3.2;stroke-linecap:round;}
	.st28{fill:none;stroke:#FFF800;stroke-width:1.6;stroke-linecap:round;}
	.st29{fill:#343434;stroke:#000000;stroke-width:2;stroke-opacity:0.5;}
	.st30{stroke:#000000;stroke-width:8;}
	.st31{fill:#7F7F7F;fill-opacity:0.5;stroke:url(#path7664_1_);}
	.st32{fill:#7F7F7F;fill-opacity:0.5;stroke:#000000;stroke-width:2;stroke-opacity:0.5;}
	.st33{fill-opacity:0.5;stroke:#000000;stroke-width:2;stroke-opacity:0.5;}
	.st34{font-family:'Helvetica';}
	.st35{font-size:18.1818px;}
	.st36{fill-rule:evenodd;clip-rule:evenodd;fill:#D8D8D8;stroke:#979797;}
</style>
<g id="Artboard1" transform="matrix(1,0,0,1,-14.3797,-4.97166)">
	<g id="Isolation_Mode" transform="matrix(1,0,0,1,21.9584,13.759)">
		<path class="st0" d="M109.4,26c-2.8,0-4.9-2.2-4.9-4.9s2.2-4.9,4.9-4.9c2.8,0,4.9,2.2,4.9,4.9S112.1,26,109.4,26 M109.4,273.1
			c-2.8,0-4.9-2.2-4.9-4.9s2.2-4.9,4.9-4.9c2.8,0,4.9,2.2,4.9,4.9C114.3,270.8,112.1,273.1,109.4,273.1 M20.6,26
			c-2.8,0-4.9-2.2-4.9-4.9s2.2-4.9,4.9-4.9s4.9,2.2,4.9,4.9C25.6,23.6,23.2,26,20.6,26 M20.6,273.1c-2.8,0-4.9-2.2-4.9-4.9
			s2.2-4.9,4.9-4.9s4.9,2.2,4.9,4.9S23.2,273.1,20.6,273.1 M109.5,11.1H20.5c-5.6,0-10.1,4.5-10.1,10.1v247
			c0,5.6,4.5,10.1,10.1,10.1h88.9c5.6,0,10.1-4.5,10.1-10.1v-247C119.4,15.6,114.9,11.1,109.5,11.1"/>
		<rect x="52.3" y="85.9" class="st1" width="4.3" height="6.2"/>
		<rect x="70.4" y="85.9" class="st1" width="4.3" height="6.2"/>
		<rect x="54.2" y="80.8" class="st1" width="5.1" height="3.3"/>
		<rect x="67.8" y="80.8" class="st1" width="5.1" height="3.3"/>
		<rect x="54.2" y="94.1" class="st1" width="5.1" height="3.3"/>
		<rect x="67.8" y="94.1" class="st1" width="5.1" height="3.3"/>
		<rect x="103.8" y="52.2" class="st1" width="2.8" height="2.8"/>
		<rect x="103.8" y="56.2" class="st1" width="2.8" height="2.8"/>
		<rect x="88.9" y="30.1" class="st1" width="4.2" height="4.3"/>
		<rect x="96" y="30.1" class="st1" width="4.2" height="4.3"/>
		<path class="st1" d="M51.4,95.8c0-1.2-0.9-2.2-2.2-2.2c-1.2,0-2.2,0.9-2.2,2.2S48,98,49.2,98C50.4,98,51.4,97.1,51.4,95.8"/>
		<rect x="108.1" y="46.5" class="st1" width="2.8" height="2.8"/>
		<rect x="108.1" y="42.8" class="st1" width="2.8" height="2.8"/>
		<rect x="90" y="141.9" class="st1" width="2.2" height="4.3"/>
		<rect x="84.9" y="141.9" class="st1" width="2.2" height="4.3"/>
		<rect x="79.6" y="141.9" class="st1" width="2.2" height="4.3"/>
		<rect x="74.4" y="141.9" class="st1" width="2.2" height="4.3"/>
		<rect x="69.2" y="141.9" class="st1" width="2.2" height="4.3"/>
		<rect x="64.1" y="141.9" class="st1" width="2.2" height="4.3"/>
		<rect x="58.8" y="141.9" class="st1" width="2.2" height="4.3"/>
		<rect x="53.5" y="141.9" class="st1" width="2.2" height="4.3"/>
		<rect x="48.3" y="141.9" class="st1" width="2.2" height="4.3"/>
		<rect x="43.2" y="141.9" class="st1" width="2.2" height="4.3"/>
		<rect x="37.9" y="141.9" class="st1" width="2.2" height="4.3"/>
		<rect x="91.9" y="248.4" class="st1" width="4.3" height="2.2"/>
		<rect x="91.9" y="243.2" class="st1" width="4.3" height="2.2"/>
		<rect x="91.9" y="237.9" class="st1" width="4.3" height="2.2"/>
		<rect x="91.9" y="232.6" class="st1" width="4.3" height="2.2"/>
		<rect x="91.9" y="227.5" class="st1" width="4.3" height="2.2"/>
		<rect x="91.9" y="222.3" class="st1" width="4.3" height="2.2"/>
		<rect x="91.9" y="217" class="st1" width="4.3" height="2.2"/>
		<rect x="91.9" y="211.8" class="st1" width="4.3" height="2.2"/>
		<rect x="91.9" y="206.7" class="st1" width="4.3" height="2.2"/>
		<rect x="91.9" y="201.4" class="st1" width="4.3" height="2.2"/>
		<rect x="91.9" y="196.2" class="st1" width="4.3" height="2.2"/>
		<rect x="91.9" y="190.9" class="st1" width="4.3" height="2.2"/>
		<rect x="91.9" y="185.8" class="st1" width="4.3" height="2.2"/>
		<rect x="91.9" y="180.5" class="st1" width="4.3" height="2.2"/>
		<rect x="91.9" y="175.3" class="st1" width="4.3" height="2.2"/>
		<rect x="91.9" y="170" class="st1" width="4.3" height="2.2"/>
		<rect x="91.9" y="164.9" class="st1" width="4.3" height="2.2"/>
		<rect x="91.9" y="159.7" class="st1" width="4.3" height="2.2"/>
		<rect x="91.9" y="154.4" class="st1" width="4.3" height="2.2"/>
		<rect x="91.9" y="149.2" class="st1" width="4.3" height="2.2"/>
		<rect x="33.7" y="149.2" class="st1" width="4.3" height="2.2"/>
		<rect x="33.7" y="154.4" class="st1" width="4.3" height="2.2"/>
		<rect x="33.7" y="159.7" class="st1" width="4.3" height="2.2"/>
		<rect x="33.7" y="164.9" class="st1" width="4.3" height="2.2"/>
		<rect x="33.7" y="170" class="st1" width="4.3" height="2.2"/>
		<rect x="33.7" y="175.3" class="st1" width="4.3" height="2.2"/>
		<rect x="33.7" y="180.5" class="st1" width="4.3" height="2.2"/>
		<rect x="33.7" y="185.8" class="st1" width="4.3" height="2.2"/>
		<rect x="33.7" y="190.9" class="st1" width="4.3" height="2.2"/>
		<rect x="33.7" y="196.2" class="st1" width="4.3" height="2.2"/>
		<rect x="33.7" y="201.4" class="st1" width="4.3" height="2.2"/>
		<rect x="33.7" y="206.7" class="st1" width="4.3" height="2.2"/>
		<rect x="33.7" y="211.8" class="st1" width="4.3" height="2.2"/>
		<rect x="33.7" y="217" class="st1" width="4.3" height="2.2"/>
		<rect x="33.7" y="222.3" class="st1" width="4.3" height="2.2"/>
		<rect x="33.7" y="227.5" class="st1" width="4.3" height="2.2"/>
		<rect x="33.7" y="232.6" class="st1" width="4.3" height="2.2"/>
		<rect x="33.7" y="237.9" class="st1" width="4.3" height="2.2"/>
		<rect x="33.7" y="243.2" class="st1" width="4.3" height="2.2"/>
		<rect x="33.7" y="248.4" class="st1" width="4.3" height="2.2"/>
		<rect x="65.7" y="227.4" class="st1" width="8.8" height="8.8"/>
		<rect x="56.2" y="227.4" class="st1" width="8.8" height="8.8"/>
		<rect x="65.7" y="217.6" class="st1" width="8.8" height="8.8"/>
		<rect x="56.2" y="217.6" class="st1" width="8.8" height="8.8"/>
		<rect x="57.1" y="174.1" class="st1" width="8.8" height="8.8"/>
		<rect x="69.8" y="174.1" class="st1" width="8.8" height="8.8"/>
		<rect x="57.1" y="161.7" class="st1" width="8.8" height="8.8"/>
		<rect x="69.8" y="161.7" class="st1" width="8.8" height="8.8"/>
		<rect x="73.9" y="25.5" class="st1" width="9.3" height="7"/>
		<rect x="46.9" y="25.5" class="st1" width="9.3" height="7"/>
		<rect x="43.8" y="13.8" class="st1" width="7.9" height="8.4"/>
		<rect x="78.6" y="13.8" class="st1" width="7.9" height="8.4"/>
		<path class="st1" d="M44.3,107.2l-2.6,2.6v7.4h-4.5v-7.4l-2.6-2.6v-9.4l2.6-2.6h4.5l2.6,2.6V107.2z"/>
		<rect x="30.4" y="110.8" class="st1" width="4.8" height="6.6"/>
		<rect x="43.5" y="110.8" class="st1" width="4.8" height="6.6"/>
		<rect x="76.9" y="82.1" class="st1" width="2.8" height="2.8"/>
		<rect x="80.9" y="82.1" class="st1" width="2.8" height="2.8"/>
		<rect x="76.9" y="87.6" class="st1" width="2.8" height="2.8"/>
		<rect x="80.9" y="87.6" class="st1" width="2.8" height="2.8"/>
		<rect x="105.3" y="62.1" class="st1" width="1.7" height="4"/>
		<rect x="102.6" y="62.1" class="st1" width="1.7" height="4"/>
		<rect x="99.6" y="62.1" class="st1" width="1.7" height="4"/>
		<rect x="99.6" y="71.2" class="st1" width="1.7" height="4"/>
		<rect x="102.6" y="71.2" class="st1" width="1.7" height="4"/>
		<rect x="105.3" y="71.2" class="st1" width="1.7" height="4"/>
		<rect x="60.5" y="46.7" class="st1" width="4.3" height="4.3"/>
		<rect x="60.5" y="55" class="st1" width="4.3" height="2.6"/>
		<rect x="70.4" y="46.7" class="st1" width="4.3" height="2.6"/>
		<rect x="70.4" y="55" class="st1" width="4.3" height="2.6"/>
		<rect x="31.3" y="119.5" class="st1" width="2.8" height="2.8"/>
		<rect x="35.1" y="119.5" class="st1" width="2.8" height="2.8"/>
		<rect x="89.6" y="108.5" class="st1" width="2.8" height="2.8"/>
		<rect x="89.6" y="104.8" class="st1" width="2.8" height="2.8"/>
		<rect x="31.8" y="130.3" class="st1" width="2.8" height="2.8"/>
		<rect x="31.8" y="134.3" class="st1" width="2.8" height="2.8"/>
		<rect x="86.3" y="37.7" class="st1" width="2.8" height="2.8"/>
		<rect x="86.3" y="41.7" class="st1" width="2.8" height="2.8"/>
		<rect x="99" y="174.5" class="st1" width="2.8" height="2.8"/>
		<rect x="99" y="170.5" class="st1" width="2.8" height="2.8"/>
		<rect x="97.9" y="46.2" class="st1" width="1.7" height="4"/>
		<rect x="100.7" y="46.2" class="st1" width="1.7" height="4"/>
		<rect x="103.6" y="46.2" class="st1" width="1.7" height="4"/>
		<rect x="103.6" y="37.1" class="st1" width="1.7" height="4"/>
		<rect x="100.7" y="37.1" class="st1" width="1.7" height="4"/>
		<rect x="97.9" y="37.1" class="st1" width="1.7" height="4"/>
		<rect x="80.9" y="43.7" class="st1" width="2.8" height="2.8"/>
		<rect x="76.9" y="43.7" class="st1" width="2.8" height="2.8"/>
		<rect x="97.9" y="108.5" class="st1" width="2.8" height="2.8"/>
		<rect x="97.9" y="104.8" class="st1" width="2.8" height="2.8"/>
		<rect x="18.1" y="33.2" class="st1" width="4" height="4.2"/>
		<rect x="25.1" y="33.2" class="st1" width="4" height="4.2"/>
		<rect x="74.1" y="134.5" class="st1" width="2.8" height="2.8"/>
		<rect x="78.1" y="134.5" class="st1" width="2.8" height="2.8"/>
		<rect x="108" y="87.3" class="st1" width="4" height="4.2"/>
		<rect x="101" y="87.3" class="st1" width="4" height="4.2"/>
		<rect x="12.6" y="58" class="st1" width="14.7" height="6.6"/>
		<rect x="12.6" y="87" class="st1" width="14.7" height="6.6"/>
		<rect x="37.5" y="78" class="st1" width="15.1" height="4.3"/>
		<rect x="37.5" y="69.2" class="st1" width="15.1" height="4.3"/>
		<rect x="91.7" y="37.7" class="st1" width="2.8" height="2.8"/>
		<rect x="91.7" y="41.7" class="st1" width="2.8" height="2.8"/>
		<rect x="104.2" y="77.3" class="st1" width="2.8" height="2.8"/>
		<rect x="104.2" y="81.3" class="st1" width="2.8" height="2.8"/>
		<rect x="37.9" y="33.2" class="st1" width="4" height="4.2"/>
		<rect x="30.8" y="33.2" class="st1" width="4" height="4.2"/>
		<rect x="28.3" y="148.8" class="st1" width="2.8" height="2.8"/>
		<rect x="28.3" y="152.7" class="st1" width="2.8" height="2.8"/>
		<rect x="37" y="125.7" class="st1" width="2.8" height="2.8"/>
		<rect x="40.9" y="125.7" class="st1" width="2.8" height="2.8"/>
		<rect x="108" y="94.4" class="st1" width="4" height="4.2"/>
		<rect x="101" y="94.4" class="st1" width="4" height="4.2"/>
		<rect x="77.5" y="49.6" class="st1" width="4.3" height="4.2"/>
		<rect x="77.5" y="56.6" class="st1" width="4.3" height="4.2"/>
		<rect x="37.2" y="130.6" class="st1" width="4.8" height="8.4"/>
		<rect x="48" y="130.6" class="st1" width="4.8" height="8.4"/>
		<rect x="96.7" y="129.7" class="st1" width="2.8" height="2.8"/>
		<rect x="92.8" y="129.7" class="st1" width="2.8" height="2.8"/>
		<rect x="86.3" y="47" class="st1" width="2.8" height="2.8"/>
		<rect x="86.3" y="51" class="st1" width="2.8" height="2.8"/>
		<rect x="67.1" y="74.8" class="st1" width="3" height="1.6"/>
		<rect x="58" y="74.8" class="st1" width="3" height="1.6"/>
		<rect x="67.1" y="71.9" class="st1" width="3" height="1.6"/>
		<rect x="67.1" y="69.1" class="st1" width="3" height="1.6"/>
		<rect x="58" y="69.1" class="st1" width="3" height="1.6"/>
		<rect x="58" y="71.9" class="st1" width="3" height="1.6"/>
		<rect x="61.9" y="69.2" class="st1" width="4.3" height="3.1"/>
		<rect x="61.9" y="73.3" class="st1" width="4.3" height="3.1"/>
		<rect x="87.7" y="119.5" class="st1" width="4" height="1.7"/>
		<rect x="87.7" y="122.4" class="st1" width="4" height="1.7"/>
		<rect x="87.7" y="125.2" class="st1" width="4" height="1.7"/>
		<rect x="96.8" y="125.2" class="st1" width="4" height="1.7"/>
		<rect x="96.8" y="122.4" class="st1" width="4" height="1.7"/>
		<rect x="96.8" y="119.5" class="st1" width="4" height="1.7"/>
		<rect x="40.9" y="119.5" class="st1" width="2.8" height="2.8"/>
		<rect x="44.9" y="119.5" class="st1" width="2.8" height="2.8"/>
		<rect x="109.7" y="67.9" class="st1" width="2.8" height="2.8"/>
		<rect x="109.7" y="71.9" class="st1" width="2.8" height="2.8"/>
		<rect x="85.9" y="65.4" class="st1" width="1.6" height="3"/>
		<rect x="88.5" y="65.4" class="st1" width="1.6" height="3"/>
		<rect x="91.4" y="65.4" class="st1" width="1.6" height="3"/>
		<rect x="85.9" y="56.4" class="st1" width="1.6" height="3"/>
		<rect x="88.5" y="56.4" class="st1" width="1.6" height="3"/>
		<rect x="91.4" y="56.4" class="st1" width="1.6" height="3"/>
		<rect x="85.7" y="60.3" class="st1" width="3.1" height="4.3"/>
		<rect x="90.2" y="60.3" class="st1" width="3.1" height="4.3"/>
		<rect x="96.7" y="135.1" class="st1" width="2.8" height="2.8"/>
		<rect x="92.8" y="135.1" class="st1" width="2.8" height="2.8"/>
		<path class="st1" d="M31.1,51.6c0-1.2-0.9-2.2-2.2-2.2c-1.2,0-2.2,0.9-2.2,2.2c0,1.2,0.9,2.2,2.2,2.2C30,53.8,31.1,52.9,31.1,51.6
			"/>
		<rect x="91.3" y="90.9" class="st1" width="2.8" height="2.8"/>
		<rect x="87.5" y="90.9" class="st1" width="2.8" height="2.8"/>
		<rect x="78.3" y="67.7" class="st1" width="2.8" height="2.8"/>
		<rect x="78.3" y="63.7" class="st1" width="2.8" height="2.8"/>
		<rect x="90.8" y="114.1" class="st1" width="2.8" height="2.8"/>
		<rect x="94.8" y="114.1" class="st1" width="2.8" height="2.8"/>
		<rect x="72.5" y="127.1" class="st1" width="11.3" height="3.6"/>
		<path class="st1" d="M56.6,130.4c-0.9,0-1.7-0.8-1.7-1.7c0-0.9,0.8-1.7,1.7-1.7h7.9c0.9,0,1.7,0.8,1.7,1.7c0,0.9-0.8,1.7-1.7,1.7
			H56.6z"/>
		<path class="st1" d="M74.4,125c-0.9,0-1.7-0.8-1.7-1.7s0.8-1.7,1.7-1.7h7.9c0.9,0,1.7,0.8,1.7,1.7s-0.8,1.7-1.7,1.7H74.4z"/>
		<path class="st1" d="M56.6,125c-0.9,0-1.7-0.8-1.7-1.7s0.8-1.7,1.7-1.7h7.9c0.9,0,1.7,0.8,1.7,1.7s-0.8,1.7-1.7,1.7H56.6z"/>
		<path class="st1" d="M74.4,119.5c-0.9,0-1.7-0.8-1.7-1.7s0.8-1.7,1.7-1.7h7.9c0.9,0,1.7,0.8,1.7,1.7s-0.8,1.7-1.7,1.7H74.4z"/>
		<path class="st1" d="M56.6,119.5c-0.9,0-1.7-0.8-1.7-1.7s0.8-1.7,1.7-1.7h7.9c0.9,0,1.7,0.8,1.7,1.7s-0.8,1.7-1.7,1.7H56.6z"/>
		<path class="st1" d="M74.4,113.9c-0.9,0-1.7-0.8-1.7-1.7s0.8-1.7,1.7-1.7h7.9c0.9,0,1.7,0.8,1.7,1.7s-0.8,1.7-1.7,1.7H74.4z"/>
		<path class="st1" d="M56.6,113.9c-0.9,0-1.7-0.8-1.7-1.7s0.8-1.7,1.7-1.7h7.9c0.9,0,1.7,0.8,1.7,1.7s-0.8,1.7-1.7,1.7H56.6z"/>
		<path class="st1" d="M74.4,108.3c-0.9,0-1.7-0.8-1.7-1.7c0-0.9,0.8-1.7,1.7-1.7h7.9c0.9,0,1.7,0.8,1.7,1.7c0,0.9-0.8,1.7-1.7,1.7
			H74.4z"/>
		<path class="st1" d="M56.6,108.3c-0.9,0-1.7-0.8-1.7-1.7c0-0.9,0.8-1.7,1.7-1.7h7.9c0.9,0,1.7,0.8,1.7,1.7c0,0.9-0.8,1.7-1.7,1.7
			H56.6z"/>
		<rect x="54.9" y="99.5" class="st1" width="2.8" height="2.8"/>
		<rect x="58.9" y="99.5" class="st1" width="2.8" height="2.8"/>
		<rect x="16.9" y="41.9" class="st1" width="6.3" height="4.2"/>
		<rect x="16.9" y="50.4" class="st1" width="6.3" height="4.2"/>
		<rect x="109.7" y="81.3" class="st1" width="2.8" height="2.8"/>
		<rect x="109.7" y="77.3" class="st1" width="2.8" height="2.8"/>
		<rect x="99" y="180.2" class="st1" width="2.8" height="2.8"/>
		<rect x="99" y="184.1" class="st1" width="2.8" height="2.8"/>
		<rect x="80.9" y="73.1" class="st1" width="2.8" height="2.8"/>
		<rect x="76.9" y="73.1" class="st1" width="2.8" height="2.8"/>
		<rect x="40.1" y="41.4" class="st1" width="2.8" height="2.8"/>
		<rect x="36.1" y="41.4" class="st1" width="2.8" height="2.8"/>
		<rect x="98.2" y="52.2" class="st1" width="2.8" height="2.8"/>
		<rect x="98.2" y="56.2" class="st1" width="2.8" height="2.8"/>
		<rect x="30.4" y="39.9" class="st1" width="2.8" height="2.8"/>
		<rect x="30.4" y="43.7" class="st1" width="2.8" height="2.8"/>
		<rect x="28.3" y="252.9" class="st1" width="2.8" height="2.8"/>
		<rect x="28.3" y="249" class="st1" width="2.8" height="2.8"/>
		<rect x="25.7" y="39.9" class="st1" width="2.8" height="2.8"/>
		<rect x="25.7" y="43.7" class="st1" width="2.8" height="2.8"/>
		<rect x="49.8" y="63.2" class="st1" width="4.3" height="3.6"/>
		<rect x="49.8" y="55.8" class="st1" width="4.3" height="3.6"/>
		<rect x="99" y="223" class="st1" width="2.8" height="2.8"/>
		<rect x="99" y="219.2" class="st1" width="2.8" height="2.8"/>
		<rect x="50" y="45.7" class="st1" width="2.8" height="2.8"/>
		<rect x="50" y="49.6" class="st1" width="2.8" height="2.8"/>
		<rect x="50" y="125.7" class="st1" width="2.8" height="2.8"/>
		<rect x="46.1" y="125.7" class="st1" width="2.8" height="2.8"/>
		<rect x="96.3" y="76.3" class="st1" width="1.6" height="3"/>
		<rect x="93.6" y="76.3" class="st1" width="1.6" height="3"/>
		<rect x="90.6" y="76.3" class="st1" width="1.6" height="3"/>
		<rect x="96.3" y="85.3" class="st1" width="1.6" height="3"/>
		<rect x="93.6" y="85.3" class="st1" width="1.6" height="3"/>
		<rect x="90.6" y="85.3" class="st1" width="1.6" height="3"/>
		<rect x="95.1" y="80.2" class="st1" width="3.1" height="4.3"/>
		<rect x="90.5" y="80.2" class="st1" width="3.1" height="4.3"/>
		<path class="st1" d="M41.6,47.4v5.9l-1.2,1.2h-1.6v-7.1H41.6z"/>
		<rect x="42.9" y="52.6" class="st1" width="3.6" height="1.4"/>
		<rect x="42.9" y="50.4" class="st1" width="3.6" height="1.4"/>
		<rect x="42.9" y="48.2" class="st1" width="3.6" height="1.4"/>
		<rect x="34.2" y="52.6" class="st1" width="3.6" height="1.4"/>
		<rect x="34.2" y="50.4" class="st1" width="3.6" height="1.4"/>
		<rect x="34.2" y="48.2" class="st1" width="3.6" height="1.4"/>
		<rect x="80.9" y="97.4" class="st1" width="2.8" height="2.8"/>
		<rect x="76.9" y="97.4" class="st1" width="2.8" height="2.8"/>
		<path class="st1" d="M40.7,26.4c0-1.2-0.9-2.2-2.2-2.2c-1.2,0-2.2,0.9-2.2,2.2s0.9,2.2,2.2,2.2S40.7,27.7,40.7,26.4"/>
		<rect x="108.1" y="33.4" class="st1" width="2.8" height="2.8"/>
		<rect x="108.1" y="37.3" class="st1" width="2.8" height="2.8"/>
		<rect x="104.9" y="247.6" class="st2" width="9" height="6.6"/>
		<path class="st2" d="M108.3,232c-1.9,0-3.4-1.6-3.4-3.4c0-1.9,1.6-3.4,3.4-3.4h2.2c1.9,0,3.4,1.6,3.4,3.4c0,1.9-1.6,3.4-3.4,3.4
			H108.3z"/>
		<path class="st2" d="M108.3,221.1c-1.9,0-3.4-1.6-3.4-3.4s1.6-3.4,3.4-3.4h2.2c1.9,0,3.4,1.6,3.4,3.4s-1.6,3.4-3.4,3.4H108.3z"/>
		<path class="st2" d="M108.3,209.9c-1.9,0-3.4-1.6-3.4-3.4c0-1.9,1.6-3.4,3.4-3.4h2.2c1.9,0,3.4,1.6,3.4,3.4c0,1.9-1.6,3.4-3.4,3.4
			H108.3z"/>
		<path class="st2" d="M108.3,199c-1.9,0-3.4-1.6-3.4-3.4s1.6-3.4,3.4-3.4h2.2c1.9,0,3.4,1.6,3.4,3.4s-1.6,3.4-3.4,3.4H108.3z"/>
		<path class="st2" d="M108.3,187.8c-1.9,0-3.4-1.6-3.4-3.4c0-1.9,1.6-3.4,3.4-3.4h2.2c1.9,0,3.4,1.6,3.4,3.4c0,1.9-1.6,3.4-3.4,3.4
			H108.3z"/>
		<path class="st2" d="M108.3,176.8c-1.9,0-3.4-1.6-3.4-3.4c0-1.9,1.6-3.4,3.4-3.4h2.2c1.9,0,3.4,1.6,3.4,3.4c0,1.9-1.6,3.4-3.4,3.4
			H108.3z"/>
		<path class="st2" d="M108.3,165.9c-1.9,0-3.4-1.6-3.4-3.4s1.6-3.4,3.4-3.4h2.2c1.9,0,3.4,1.6,3.4,3.4s-1.6,3.4-3.4,3.4H108.3z"/>
		<path class="st2" d="M108.3,154.7c-1.9,0-3.4-1.6-3.4-3.4c0-1.9,1.6-3.4,3.4-3.4h2.2c1.9,0,3.4,1.6,3.4,3.4c0,1.9-1.6,3.4-3.4,3.4
			H108.3z"/>
		<path class="st2" d="M108.3,143.8c-1.9,0-3.4-1.6-3.4-3.4s1.6-3.4,3.4-3.4h2.2c1.9,0,3.4,1.6,3.4,3.4s-1.6,3.4-3.4,3.4H108.3z"/>
		<path class="st2" d="M108.3,132.6c-1.9,0-3.4-1.6-3.4-3.4s1.6-3.4,3.4-3.4h2.2c1.9,0,3.4,1.6,3.4,3.4s-1.6,3.4-3.4,3.4H108.3z"/>
		<path class="st2" d="M108.3,243.2c-1.9,0-3.4-1.6-3.4-3.4c0-1.9,1.6-3.4,3.4-3.4h2.2c1.9,0,3.4,1.6,3.4,3.4c0,1.9-1.6,3.4-3.4,3.4
			H108.3z"/>
		<path class="st2" d="M108.3,110.5c-1.9,0-3.4-1.6-3.4-3.4c0-1.9,1.6-3.4,3.4-3.4h2.2c1.9,0,3.4,1.6,3.4,3.4c0,1.9-1.6,3.4-3.4,3.4
			H108.3z"/>
		<path class="st2" d="M108.3,121.7c-1.9,0-3.4-1.6-3.4-3.4c0-1.9,1.6-3.4,3.4-3.4h2.2c1.9,0,3.4,1.6,3.4,3.4c0,1.9-1.6,3.4-3.4,3.4
			H108.3z"/>
		<path class="st3" d="M109.2,105.7c0.9,0,1.6,0.7,1.6,1.6s-0.7,1.6-1.6,1.6s-1.6-0.7-1.6-1.6C107.7,106.4,108.4,105.7,109.2,105.7"
			/>
		<path class="st4" d="M109.2,105.3c-1.1,0-1.9,0.8-1.9,1.9s0.8,1.9,1.9,1.9s1.9-0.8,1.9-1.9C111,106.2,110.3,105.3,109.2,105.3
			 M109.2,106c0.6,0,1.1,0.5,1.1,1.1c0,0.6-0.5,1.1-1.1,1.1c-0.6,0-1.1-0.5-1.1-1.1C108.3,106.7,108.6,106,109.2,106"/>
		<path class="st3" d="M109.2,116.8c0.9,0,1.6,0.7,1.6,1.6s-0.7,1.6-1.6,1.6s-1.6-0.7-1.6-1.6C107.7,117.5,108.4,116.8,109.2,116.8"
			/>
		<path class="st4" d="M109.2,116.4c-1.1,0-1.9,0.8-1.9,1.9s0.8,1.9,1.9,1.9s1.9-0.8,1.9-1.9C111,117.3,110.3,116.4,109.2,116.4
			 M109.2,117.2c0.6,0,1.1,0.5,1.1,1.1c0,0.6-0.5,1.1-1.1,1.1c-0.6,0-1.1-0.5-1.1-1.1C108.3,117.8,108.6,117.2,109.2,117.2"/>
		<path class="st3" d="M109.2,127.8c0.9,0,1.6,0.7,1.6,1.6c0,0.9-0.7,1.6-1.6,1.6s-1.6-0.7-1.6-1.6
			C107.7,128.5,108.4,127.8,109.2,127.8"/>
		<path class="st4" d="M109.2,127.4c-1.1,0-1.9,0.8-1.9,1.9s0.8,1.9,1.9,1.9s1.9-0.8,1.9-1.9C111,128.3,110.3,127.4,109.2,127.4
			 M109.2,128.1c0.6,0,1.1,0.5,1.1,1.1c0,0.6-0.5,1.1-1.1,1.1c-0.6,0-1.1-0.5-1.1-1.1C108.3,128.8,108.6,128.1,109.2,128.1"/>
		<path class="st3" d="M109.2,138.9c0.9,0,1.6,0.7,1.6,1.6c0,0.9-0.7,1.6-1.6,1.6s-1.6-0.7-1.6-1.6
			C107.7,139.6,108.4,138.9,109.2,138.9"/>
		<path class="st4" d="M109.2,138.5c-1.1,0-1.9,0.8-1.9,1.9s0.8,1.9,1.9,1.9s1.9-0.8,1.9-1.9C111,139.4,110.3,138.5,109.2,138.5
			 M109.2,139.3c0.6,0,1.1,0.5,1.1,1.1c0,0.6-0.5,1.1-1.1,1.1c-0.6,0-1.1-0.5-1.1-1.1C108.3,139.9,108.6,139.3,109.2,139.3"/>
		<path class="st3" d="M109.2,149.9c0.9,0,1.6,0.7,1.6,1.6c0,0.9-0.7,1.6-1.6,1.6s-1.6-0.7-1.6-1.6
			C107.7,150.6,108.4,149.9,109.2,149.9"/>
		<path class="st4" d="M109.2,149.5c-1.1,0-1.9,0.8-1.9,1.9s0.8,1.9,1.9,1.9s1.9-0.8,1.9-1.9C111,150.4,110.3,149.5,109.2,149.5
			 M109.2,150.2c0.6,0,1.1,0.5,1.1,1.1c0,0.6-0.5,1.1-1.1,1.1c-0.6,0-1.1-0.5-1.1-1.1C108.3,150.9,108.6,150.2,109.2,150.2"/>
		<path class="st3" d="M109.2,161c0.9,0,1.6,0.7,1.6,1.6s-0.7,1.6-1.6,1.6s-1.6-0.7-1.6-1.6S108.4,161,109.2,161"/>
		<path class="st4" d="M109.2,160.6c-1.1,0-1.9,0.8-1.9,1.9s0.8,1.9,1.9,1.9s1.9-0.8,1.9-1.9C111,161.5,110.3,160.6,109.2,160.6
			 M109.2,161.4c0.6,0,1.1,0.5,1.1,1.1c0,0.6-0.5,1.1-1.1,1.1c-0.6,0-1.1-0.5-1.1-1.1C108.3,162,108.6,161.4,109.2,161.4"/>
		<path class="st3" d="M109.2,172c0.9,0,1.6,0.7,1.6,1.6c0,0.9-0.7,1.6-1.6,1.6s-1.6-0.7-1.6-1.6C107.7,172.7,108.4,172,109.2,172"
			/>
		<path class="st4" d="M109.2,171.6c-1.1,0-1.9,0.8-1.9,1.9s0.8,1.9,1.9,1.9s1.9-0.8,1.9-1.9C111,172.5,110.3,171.6,109.2,171.6
			 M109.2,172.3c0.6,0,1.1,0.5,1.1,1.1c0,0.6-0.5,1.1-1.1,1.1c-0.6,0-1.1-0.5-1.1-1.1C108.3,173,108.6,172.3,109.2,172.3"/>
		<path class="st3" d="M109.2,183.2c0.9,0,1.6,0.7,1.6,1.6c0,0.9-0.7,1.6-1.6,1.6s-1.6-0.7-1.6-1.6
			C107.7,183.9,108.4,183.2,109.2,183.2"/>
		<path class="st4" d="M109.2,182.7c-1.1,0-1.9,0.8-1.9,1.9s0.8,1.9,1.9,1.9s1.9-0.8,1.9-1.9C111,183.6,110.3,182.7,109.2,182.7
			 M109.2,183.5c0.6,0,1.1,0.5,1.1,1.1c0,0.6-0.5,1.1-1.1,1.1c-0.6,0-1.1-0.5-1.1-1.1C108.3,184.1,108.6,183.5,109.2,183.5"/>
		<path class="st3" d="M109.2,194.1c0.9,0,1.6,0.7,1.6,1.6s-0.7,1.6-1.6,1.6s-1.6-0.7-1.6-1.6S108.4,194.1,109.2,194.1"/>
		<path class="st4" d="M109.2,193.7c-1.1,0-1.9,0.8-1.9,1.9s0.8,1.9,1.9,1.9s1.9-0.8,1.9-1.9C111,194.6,110.3,193.7,109.2,193.7
			 M109.2,194.4c0.6,0,1.1,0.5,1.1,1.1c0,0.6-0.5,1.1-1.1,1.1c-0.6,0-1.1-0.5-1.1-1.1C108.1,194.9,108.6,194.4,109.2,194.4"/>
		<path class="st3" d="M109.2,205.3c0.9,0,1.6,0.7,1.6,1.6c0,0.9-0.7,1.6-1.6,1.6s-1.6-0.7-1.6-1.6
			C107.7,206,108.4,205.3,109.2,205.3"/>
		<path class="st4" d="M109.2,204.8c-1.1,0-1.9,0.8-1.9,1.9s0.8,1.9,1.9,1.9s1.9-0.8,1.9-1.9C111,205.8,110.3,204.8,109.2,204.8
			 M109.2,205.6c0.6,0,1.1,0.5,1.1,1.1c0,0.6-0.5,1.1-1.1,1.1c-0.6,0-1.1-0.5-1.1-1.1C108.3,206.2,108.6,205.6,109.2,205.6"/>
		<path class="st3" d="M109.2,216.2c0.9,0,1.6,0.7,1.6,1.6c0,0.9-0.7,1.6-1.6,1.6s-1.6-0.7-1.6-1.6
			C107.7,216.9,108.4,216.2,109.2,216.2"/>
		<path class="st4" d="M109.2,215.8c-1.1,0-1.9,0.8-1.9,1.9s0.8,1.9,1.9,1.9s1.9-0.8,1.9-1.9C111,216.7,110.3,215.8,109.2,215.8
			 M109.2,216.5c0.6,0,1.1,0.5,1.1,1.1c0,0.6-0.5,1.1-1.1,1.1c-0.6,0-1.1-0.5-1.1-1.1C108.3,217.2,108.6,216.5,109.2,216.5"/>
		<path class="st3" d="M109.2,227.2c0.9,0,1.6,0.7,1.6,1.6c0,0.9-0.7,1.6-1.6,1.6s-1.6-0.7-1.6-1.6
			C107.7,227.9,108.4,227.2,109.2,227.2"/>
		<path class="st4" d="M109.2,226.9c-1.1,0-1.9,0.8-1.9,1.9s0.8,1.9,1.9,1.9s1.9-0.8,1.9-1.9C111,227.9,110.3,226.9,109.2,226.9
			 M109.2,227.7c0.6,0,1.1,0.5,1.1,1.1c0,0.6-0.5,1.1-1.1,1.1c-0.6,0-1.1-0.5-1.1-1.1C108.3,228.2,108.6,227.7,109.2,227.7"/>
		<path class="st3" d="M109.2,238.3c0.9,0,1.6,0.7,1.6,1.6c0,0.9-0.7,1.6-1.6,1.6s-1.6-0.7-1.6-1.6
			C107.7,239,108.4,238.3,109.2,238.3"/>
		<path class="st4" d="M109.2,237.9c-1.1,0-1.9,0.8-1.9,1.9s0.8,1.9,1.9,1.9s1.9-0.8,1.9-1.9C111,238.8,110.3,237.9,109.2,237.9
			 M109.2,238.6c0.6,0,1.1,0.5,1.1,1.1c0,0.6-0.5,1.1-1.1,1.1c-0.6,0-1.1-0.5-1.1-1.1C108.3,239.3,108.6,238.6,109.2,238.6"/>
		<path class="st3" d="M109.2,249.3c0.9,0,1.6,0.7,1.6,1.6c0,0.9-0.7,1.6-1.6,1.6s-1.6-0.7-1.6-1.6
			C107.7,250,108.4,249.3,109.2,249.3"/>
		<path class="st4" d="M109.2,248.9c-1.1,0-1.9,0.8-1.9,1.9s0.8,1.9,1.9,1.9s1.9-0.8,1.9-1.9C111,249.8,110.3,248.9,109.2,248.9
			 M109.2,249.6c0.6,0,1.1,0.5,1.1,1.1c0,0.6-0.5,1.1-1.1,1.1c-0.6,0-1.1-0.5-1.1-1.1C108.3,250.3,108.6,249.6,109.2,249.6"/>
		<rect x="16.5" y="104" class="st2" width="9" height="6.6"/>
		<path class="st2" d="M22,126c1.9,0,3.4,1.6,3.4,3.4s-1.6,3.4-3.4,3.4h-2.2c-1.9,0-3.4-1.6-3.4-3.4s1.6-3.4,3.4-3.4H22z"/>
		<path class="st2" d="M22,137.1c1.9,0,3.4,1.6,3.4,3.4S23.9,144,22,144h-2.2c-1.9,0-3.4-1.6-3.4-3.4s1.6-3.4,3.4-3.4H22z"/>
		<path class="st2" d="M22,148.1c1.9,0,3.4,1.6,3.4,3.4s-1.6,3.4-3.4,3.4h-2.2c-1.9,0-3.4-1.6-3.4-3.4s1.6-3.4,3.4-3.4H22z"/>
		<path class="st2" d="M22,159.2c1.9,0,3.4,1.6,3.4,3.4s-1.6,3.4-3.4,3.4h-2.2c-1.9,0-3.4-1.6-3.4-3.4s1.6-3.4,3.4-3.4H22z"/>
		<path class="st2" d="M22,170.2c1.9,0,3.4,1.6,3.4,3.4S23.9,177,22,177h-2.2c-1.9,0-3.4-1.6-3.4-3.4s1.6-3.4,3.4-3.4H22z"/>
		<path class="st2" d="M22,181.3c1.9,0,3.4,1.6,3.4,3.4s-1.6,3.4-3.4,3.4h-2.2c-1.9,0-3.4-1.6-3.4-3.4s1.6-3.4,3.4-3.4H22z"/>
		<path class="st2" d="M22,192.3c1.9,0,3.4,1.6,3.4,3.4s-1.6,3.4-3.4,3.4h-2.2c-1.9,0-3.4-1.6-3.4-3.4s1.6-3.4,3.4-3.4H22L22,192.3z
			"/>
		<path class="st2" d="M22,203.4c1.9,0,3.4,1.6,3.4,3.4s-1.6,3.4-3.4,3.4h-2.2c-1.9,0-3.4-1.6-3.4-3.4s1.6-3.4,3.4-3.4H22z"/>
		<path class="st2" d="M22,214.4c1.9,0,3.4,1.6,3.4,3.4s-1.6,3.4-3.4,3.4h-2.2c-1.9,0-3.4-1.6-3.4-3.4s1.6-3.4,3.4-3.4H22z"/>
		<path class="st2" d="M22,225.5c1.9,0,3.4,1.6,3.4,3.4s-1.6,3.4-3.4,3.4h-2.2c-1.9,0-3.4-1.6-3.4-3.4s1.6-3.4,3.4-3.4H22z"/>
		<path class="st2" d="M22,115c1.9,0,3.4,1.6,3.4,3.4s-1.6,3.4-3.4,3.4h-2.2c-1.9,0-3.4-1.6-3.4-3.4s1.6-3.4,3.4-3.4H22z"/>
		<path class="st2" d="M22,247.6c1.9,0,3.4,1.6,3.4,3.4c0,1.9-1.6,3.4-3.4,3.4h-2.2c-1.9,0-3.4-1.6-3.4-3.4c0-1.9,1.6-3.4,3.4-3.4
			H22z"/>
		<path class="st2" d="M22,236.5c1.9,0,3.4,1.6,3.4,3.4s-1.6,3.4-3.4,3.4h-2.2c-1.9,0-3.4-1.6-3.4-3.4s1.6-3.4,3.4-3.4H22z"/>
		<path class="st3" d="M20.9,105.7c0.9,0,1.6,0.7,1.6,1.6s-0.7,1.6-1.6,1.6s-1.6-0.7-1.6-1.6C19.4,106.4,20.1,105.7,20.9,105.7"/>
		<path class="st4" d="M20.9,105.3c-1.1,0-1.9,0.8-1.9,1.9s0.8,1.9,1.9,1.9s1.9-0.8,1.9-1.9C22.8,106.2,22,105.3,20.9,105.3
			 M20.9,106c0.6,0,1.1,0.5,1.1,1.1c0,0.6-0.5,1.1-1.1,1.1c-0.6,0-1.1-0.5-1.1-1.1C19.8,106.7,20.3,106,20.9,106"/>
		<path class="st3" d="M20.9,116.8c0.9,0,1.6,0.7,1.6,1.6s-0.7,1.6-1.6,1.6s-1.6-0.7-1.6-1.6C19.4,117.5,20.1,116.8,20.9,116.8"/>
		<path class="st4" d="M20.9,116.4c-1.1,0-1.9,0.8-1.9,1.9s0.8,1.9,1.9,1.9s1.9-0.8,1.9-1.9C22.8,117.3,22,116.4,20.9,116.4
			 M20.9,117.2c0.6,0,1.1,0.5,1.1,1.1c0,0.6-0.5,1.1-1.1,1.1c-0.6,0-1.1-0.5-1.1-1.1C19.8,117.8,20.3,117.2,20.9,117.2"/>
		<path class="st3" d="M20.9,127.8c0.9,0,1.6,0.7,1.6,1.6c0,0.9-0.7,1.6-1.6,1.6s-1.6-0.7-1.6-1.6C19.4,128.5,20.1,127.8,20.9,127.8
			"/>
		<path class="st4" d="M20.9,127.4c-1.1,0-1.9,0.8-1.9,1.9s0.8,1.9,1.9,1.9s1.9-0.8,1.9-1.9C22.8,128.3,22,127.4,20.9,127.4
			 M20.9,128.1c0.6,0,1.1,0.5,1.1,1.1c0,0.6-0.5,1.1-1.1,1.1c-0.6,0-1.1-0.5-1.1-1.1C19.8,128.8,20.3,128.1,20.9,128.1"/>
		<path class="st3" d="M20.9,138.9c0.9,0,1.6,0.7,1.6,1.6c0,0.9-0.7,1.6-1.6,1.6s-1.6-0.7-1.6-1.6C19.4,139.6,20.1,138.9,20.9,138.9
			"/>
		<path class="st4" d="M20.9,138.5c-1.1,0-1.9,0.8-1.9,1.9s0.8,1.9,1.9,1.9s1.9-0.8,1.9-1.9C22.8,139.4,22,138.5,20.9,138.5
			 M20.9,139.3c0.6,0,1.1,0.5,1.1,1.1c0,0.6-0.5,1.1-1.1,1.1c-0.6,0-1.1-0.5-1.1-1.1C19.8,139.9,20.3,139.3,20.9,139.3"/>
		<path class="st3" d="M20.9,149.9c0.9,0,1.6,0.7,1.6,1.6c0,0.9-0.7,1.6-1.6,1.6s-1.6-0.7-1.6-1.6C19.4,150.6,20.1,149.9,20.9,149.9
			"/>
		<path class="st4" d="M20.9,149.5c-1.1,0-1.9,0.8-1.9,1.9s0.8,1.9,1.9,1.9s1.9-0.8,1.9-1.9C22.8,150.4,22,149.5,20.9,149.5
			 M20.9,150.2c0.6,0,1.1,0.5,1.1,1.1c0,0.6-0.5,1.1-1.1,1.1c-0.6,0-1.1-0.5-1.1-1.1C19.8,150.9,20.3,150.2,20.9,150.2"/>
		<path class="st3" d="M20.9,161c0.9,0,1.6,0.7,1.6,1.6s-0.7,1.6-1.6,1.6s-1.6-0.7-1.6-1.6S20.1,161,20.9,161"/>
		<path class="st4" d="M20.9,160.6c-1.1,0-1.9,0.8-1.9,1.9s0.8,1.9,1.9,1.9s1.9-0.8,1.9-1.9C22.8,161.5,22,160.6,20.9,160.6
			 M20.9,161.4c0.6,0,1.1,0.5,1.1,1.1c0,0.6-0.5,1.1-1.1,1.1c-0.6,0-1.1-0.5-1.1-1.1C19.8,162,20.3,161.4,20.9,161.4"/>
		<path class="st3" d="M20.9,172c0.9,0,1.6,0.7,1.6,1.6c0,0.9-0.7,1.6-1.6,1.6s-1.6-0.7-1.6-1.6C19.4,172.7,20.1,172,20.9,172"/>
		<path class="st4" d="M20.9,171.6c-1.1,0-1.9,0.8-1.9,1.9s0.8,1.9,1.9,1.9s1.9-0.8,1.9-1.9C22.8,172.5,22,171.6,20.9,171.6
			 M20.9,172.3c0.6,0,1.1,0.5,1.1,1.1c0,0.6-0.5,1.1-1.1,1.1c-0.6,0-1.1-0.5-1.1-1.1C19.8,173,20.3,172.3,20.9,172.3"/>
		<path class="st3" d="M20.9,183.2c0.9,0,1.6,0.7,1.6,1.6c0,0.9-0.7,1.6-1.6,1.6s-1.6-0.7-1.6-1.6C19.4,183.9,20.1,183.2,20.9,183.2
			"/>
		<path class="st4" d="M20.9,182.7c-1.1,0-1.9,0.8-1.9,1.9s0.8,1.9,1.9,1.9s1.9-0.8,1.9-1.9C22.8,183.6,22,182.7,20.9,182.7
			 M20.9,183.5c0.6,0,1.1,0.5,1.1,1.1c0,0.6-0.5,1.1-1.1,1.1c-0.6,0-1.1-0.5-1.1-1.1C19.8,184.1,20.3,183.5,20.9,183.5"/>
		<path class="st3" d="M20.9,194.1c0.9,0,1.6,0.7,1.6,1.6s-0.7,1.6-1.6,1.6s-1.6-0.7-1.6-1.6S20.1,194.1,20.9,194.1"/>
		<path class="st4" d="M20.9,193.7c-1.1,0-1.9,0.8-1.9,1.9s0.8,1.9,1.9,1.9s1.9-0.8,1.9-1.9C22.8,194.6,22,193.7,20.9,193.7
			 M20.9,194.4c0.6,0,1.1,0.5,1.1,1.1c0,0.6-0.5,1.1-1.1,1.1c-0.6,0-1.1-0.5-1.1-1.1C19.8,194.9,20.3,194.4,20.9,194.4"/>
		<path class="st3" d="M20.9,205.3c0.9,0,1.6,0.7,1.6,1.6c0,0.9-0.7,1.6-1.6,1.6s-1.6-0.7-1.6-1.6C19.4,206,20.1,205.3,20.9,205.3"
			/>
		<path class="st4" d="M20.9,204.8c-1.1,0-1.9,0.8-1.9,1.9s0.8,1.9,1.9,1.9s1.9-0.8,1.9-1.9C22.8,205.8,22,204.8,20.9,204.8
			 M20.9,205.6c0.6,0,1.1,0.5,1.1,1.1c0,0.6-0.5,1.1-1.1,1.1c-0.6,0-1.1-0.5-1.1-1.1C19.8,206.2,20.3,205.6,20.9,205.6"/>
		<path class="st3" d="M20.9,216.2c0.9,0,1.6,0.7,1.6,1.6c0,0.9-0.7,1.6-1.6,1.6s-1.6-0.7-1.6-1.6C19.4,216.9,20.1,216.2,20.9,216.2
			"/>
		<path class="st4" d="M20.9,215.8c-1.1,0-1.9,0.8-1.9,1.9s0.8,1.9,1.9,1.9s1.9-0.8,1.9-1.9C22.8,216.7,22,215.8,20.9,215.8
			 M20.9,216.5c0.6,0,1.1,0.5,1.1,1.1c0,0.6-0.5,1.1-1.1,1.1c-0.6,0-1.1-0.5-1.1-1.1C19.8,217.2,20.3,216.5,20.9,216.5"/>
		<path class="st3" d="M20.9,227.2c0.9,0,1.6,0.7,1.6,1.6c0,0.9-0.7,1.6-1.6,1.6s-1.6-0.7-1.6-1.6C19.4,227.9,20.1,227.2,20.9,227.2
			"/>
		<path class="st4" d="M20.9,226.9c-1.1,0-1.9,0.8-1.9,1.9s0.8,1.9,1.9,1.9s1.9-0.8,1.9-1.9C22.8,227.9,22,226.9,20.9,226.9
			 M20.9,227.7c0.6,0,1.1,0.5,1.1,1.1c0,0.6-0.5,1.1-1.1,1.1c-0.6,0-1.1-0.5-1.1-1.1C19.8,228.2,20.3,227.7,20.9,227.7"/>
		<path class="st3" d="M20.9,238.3c0.9,0,1.6,0.7,1.6,1.6c0,0.9-0.7,1.6-1.6,1.6s-1.6-0.7-1.6-1.6C19.4,239,20.1,238.3,20.9,238.3"
			/>
		<path class="st4" d="M20.9,237.9c-1.1,0-1.9,0.8-1.9,1.9s0.8,1.9,1.9,1.9s1.9-0.8,1.9-1.9C22.8,238.8,22,237.9,20.9,237.9
			 M20.9,238.6c0.6,0,1.1,0.5,1.1,1.1c0,0.6-0.5,1.1-1.1,1.1c-0.6,0-1.1-0.5-1.1-1.1C19.8,239.3,20.3,238.6,20.9,238.6"/>
		<path class="st3" d="M20.9,249.3c0.9,0,1.6,0.7,1.6,1.6c0,0.9-0.7,1.6-1.6,1.6s-1.6-0.7-1.6-1.6C19.4,250,20.1,249.3,20.9,249.3"
			/>
		<path class="st4" d="M20.9,248.9c-1.1,0-1.9,0.8-1.9,1.9s0.8,1.9,1.9,1.9s1.9-0.8,1.9-1.9C22.8,249.8,22,248.9,20.9,248.9
			 M20.9,249.6c0.6,0,1.1,0.5,1.1,1.1c0,0.6-0.5,1.1-1.1,1.1c-0.6,0-1.1-0.5-1.1-1.1C19.8,250.3,20.3,249.6,20.9,249.6"/>
		<path class="st2" d="M64.7,63.2c0-1.9-1.6-3.4-3.4-3.4c-1.9,0-3.4,1.6-3.4,3.4c0,1.9,1.6,3.4,3.4,3.4
			C63.3,66.5,64.7,64.9,64.7,63.2"/>
		<path class="st3" d="M62.2,63.2c0-0.5-0.3-0.8-0.8-0.8c-0.5,0-0.8,0.3-0.8,0.8S61,64,61.4,64C61.9,64,62.2,63.7,62.2,63.2"/>
		<path class="st2" d="M20.1,33.2c1.2,0,2.2,1,2.2,2.2s-1,2.2-2.2,2.2c-1.2,0-2.2-1-2.2-2.2S18.9,33.2,20.1,33.2"/>
		<path class="st2" d="M26.8,33.2c1.2,0,2.2,1,2.2,2.2s-1,2.2-2.2,2.2s-2.2-1-2.2-2.2C24.6,34.2,25.6,33.2,26.8,33.2"/>
		<rect x="20.1" y="33.2" class="st2" width="2.2" height="4.2"/>
		<rect x="24.8" y="33.2" class="st2" width="2.2" height="4.2"/>
		<rect x="20.9" y="33.2" class="st5" width="5.2" height="4.2"/>
		<path class="st3" d="M23.6,34.5c0.5,0,0.9,0.4,0.9,0.9s-0.4,0.9-0.9,0.9c-0.5,0-0.9-0.4-0.9-0.9C22.6,34.9,23.1,34.5,23.6,34.5"/>
		<path class="st2" d="M103,87.3c1.2,0,2.2,1,2.2,2.2s-1,2.2-2.2,2.2s-2.2-1-2.2-2.2C100.9,88.3,101.8,87.3,103,87.3"/>
		<path class="st2" d="M109.7,87.3c1.2,0,2.2,1,2.2,2.2s-1,2.2-2.2,2.2s-2.2-1-2.2-2.2S108.5,87.3,109.7,87.3"/>
		<rect x="103" y="87.3" class="st2" width="2.2" height="4.2"/>
		<rect x="107.5" y="87.3" class="st2" width="2.2" height="4.2"/>
		<rect x="103.8" y="87.3" class="st5" width="5.2" height="4.2"/>
		<path class="st3" d="M106.4,88.6c0.5,0,0.9,0.4,0.9,0.9s-0.4,0.9-0.9,0.9c-0.5,0-0.9-0.4-0.9-0.9S105.9,88.6,106.4,88.6"/>
		<path class="st2" d="M33,33.2c1.2,0,2.2,1,2.2,2.2s-1,2.2-2.2,2.2c-1.2,0-2.2-1-2.2-2.2S31.8,33.2,33,33.2"/>
		<path class="st2" d="M39.6,33.2c1.2,0,2.2,1,2.2,2.2s-1,2.2-2.2,2.2c-1.2,0-2.2-1-2.2-2.2C37.5,34.2,38.4,33.2,39.6,33.2"/>
		<rect x="33" y="33.2" class="st2" width="2.2" height="4.2"/>
		<rect x="37.5" y="33.2" class="st2" width="2.2" height="4.2"/>
		<rect x="33.7" y="33.2" class="st6" width="5.2" height="4.2"/>
		<path class="st3" d="M36.4,34.5c0.5,0,0.9,0.4,0.9,0.9s-0.4,0.9-0.9,0.9c-0.5,0-0.9-0.4-0.9-0.9C35.4,34.9,35.9,34.5,36.4,34.5"/>
		<path class="st7" d="M17.1,93v-2h-3.6V60.6h3.6v-1.9h29.5v3.4h-7v27.3h7V93L17.1,93L17.1,93z"/>
		<g>
			<path class="st2" d="M28.3,150.7v2.9c0,0.8,0.7,1.4,1.4,1.4c0.8,0,1.4-0.7,1.4-1.4v-1.4v-0.1v-1.4c0-0.8-0.7-1.4-1.4-1.4
				C29,149.3,28.3,149.9,28.3,150.7"/>
			<rect x="28.3" y="151.1" width="2.8" height="2.2"/>
		</g>
		<g>
			<path class="st2" d="M28.3,251v2.9c0,0.8,0.7,1.4,1.4,1.4c0.8,0,1.4-0.7,1.4-1.4v-1.4v-0.1V251c0-0.8-0.7-1.4-1.4-1.4
				C29,249.6,28.3,250.1,28.3,251"/>
			<rect x="28.3" y="251.3" width="2.8" height="2.2"/>
		</g>
		<g>
			<path class="st2" d="M31.6,132.2v2.9c0,0.8,0.7,1.4,1.4,1.4c0.8,0,1.4-0.7,1.4-1.4v-1.4v-0.1v-1.4c0-0.8-0.7-1.4-1.4-1.4
				C32.3,130.8,31.6,131.4,31.6,132.2"/>
			<rect x="31.6" y="132.6" width="2.8" height="2.2"/>
		</g>
		<g>
			<path class="st2" d="M98.8,182v2.9c0,0.8,0.7,1.4,1.4,1.4s1.4-0.7,1.4-1.4v-1.4v-0.1V182c0-0.8-0.7-1.4-1.4-1.4
				S98.8,181.2,98.8,182"/>
			<rect x="98.8" y="182.4" width="2.8" height="2.2"/>
		</g>
		<g>
			<path class="st2" d="M98.8,221v2.9c0,0.8,0.7,1.4,1.4,1.4s1.4-0.7,1.4-1.4v-1.4v-0.1V221c0-0.8-0.7-1.4-1.4-1.4
				S98.8,220.1,98.8,221"/>
			<rect x="98.8" y="221.3" width="2.8" height="2.2"/>
		</g>
		<g>
			<path class="st2" d="M98.8,172.5v2.9c0,0.8,0.7,1.4,1.4,1.4s1.4-0.7,1.4-1.4V174v-0.1v-1.4c0-0.8-0.7-1.4-1.4-1.4
				S98.8,171.6,98.8,172.5"/>
			<rect x="98.8" y="172.8" width="2.8" height="2.2"/>
		</g>
		<g>
			<path class="st2" d="M94.7,137.9h2.9c0.8,0,1.4-0.7,1.4-1.4c0-0.8-0.7-1.4-1.4-1.4h-1.4h-0.1h-1.4c-0.8,0-1.4,0.7-1.4,1.4
				C93.3,137.3,93.9,137.9,94.7,137.9"/>
			<rect x="95.1" y="135.1" width="2.2" height="2.8"/>
		</g>
		<g>
			<path class="st2" d="M94.7,132.5h2.9c0.8,0,1.4-0.7,1.4-1.4c0-0.8-0.7-1.4-1.4-1.4h-1.4h-0.1h-1.4c-0.8,0-1.4,0.7-1.4,1.4
				C93.3,131.8,93.9,132.5,94.7,132.5"/>
			<rect x="95.1" y="129.7" width="2.2" height="2.8"/>
		</g>
		<g>
			<path class="st2" d="M92.8,116.8h2.9c0.8,0,1.4-0.7,1.4-1.4c0-0.8-0.7-1.4-1.4-1.4h-1.4h-0.1h-1.4c-0.8,0-1.4,0.7-1.4,1.4
				C91.4,116.2,91.9,116.8,92.8,116.8"/>
			<rect x="93.1" y="114" width="2.2" height="2.8"/>
		</g>
		<g>
			<path class="st2" d="M92.4,109.5v-1.4v-0.1v-1.4c0-0.8-0.7-1.4-1.4-1.4c-0.8,0-1.4,0.7-1.4,1.4v2.9c0,0.8,0.7,1.4,1.4,1.4
				S92.4,110.3,92.4,109.5"/>
			<rect x="89.6" y="107" width="2.8" height="2.2"/>
		</g>
		<g>
			<path class="st2" d="M100.7,109.5v-1.4v-0.1v-1.4c0-0.8-0.7-1.4-1.4-1.4c-0.8,0-1.4,0.7-1.4,1.4v2.9c0,0.8,0.7,1.4,1.4,1.4
				C100,110.9,100.7,110.3,100.7,109.5"/>
			<rect x="97.8" y="107" width="2.8" height="2.2"/>
		</g>
		<g>
			<path class="st2" d="M89.3,93.8h2.9c0.8,0,1.4-0.7,1.4-1.4c0-0.8-0.7-1.4-1.4-1.4h-1.4h-0.1h-1.4c-0.8,0-1.4,0.7-1.4,1.4
				C87.9,93.1,88.4,93.8,89.3,93.8"/>
			<rect x="89.6" y="91" width="2.2" height="2.8"/>
		</g>
		<g>
			<path class="st2" d="M78.9,100.1h2.9c0.8,0,1.4-0.7,1.4-1.4c0-0.8-0.7-1.4-1.4-1.4h-1.4h-0.1h-1.4c-0.8,0-1.4,0.7-1.4,1.4
				C77.4,99.4,78,100.1,78.9,100.1"/>
			<rect x="79.2" y="97.3" width="2.2" height="2.8"/>
		</g>
		<g>
			<path class="st2" d="M78.9,90.6h2.9c0.8,0,1.4-0.7,1.4-1.4c0-0.8-0.7-1.4-1.4-1.4h-1.4h-0.1h-1.4c-0.8,0-1.4,0.7-1.4,1.4
				C77.4,90,78,90.6,78.9,90.6"/>
			<rect x="79.2" y="87.8" width="2.2" height="2.8"/>
		</g>
		<g>
			<path class="st2" d="M78.9,84.9h2.9c0.8,0,1.4-0.7,1.4-1.4c0-0.8-0.7-1.4-1.4-1.4h-1.4h-0.1h-1.4c-0.8,0-1.4,0.7-1.4,1.4
				C77.4,84.2,78,84.9,78.9,84.9"/>
			<rect x="79.2" y="82.1" width="2.2" height="2.8"/>
		</g>
		<g>
			<path class="st2" d="M78.9,76h2.9c0.8,0,1.4-0.7,1.4-1.4c0-0.8-0.7-1.4-1.4-1.4h-1.4h-0.1h-1.4c-0.8,0-1.4,0.7-1.4,1.4
				C77.4,75.4,78,76,78.9,76"/>
			<rect x="79.2" y="73.2" width="2.2" height="2.8"/>
		</g>
		<g>
			<path class="st2" d="M78.9,46.6h2.9c0.8,0,1.4-0.7,1.4-1.4c0-0.7-0.7-1.4-1.4-1.4h-1.4h-0.1h-1.4c-0.8,0-1.4,0.7-1.4,1.4
				S78,46.6,78.9,46.6"/>
			<rect x="79.2" y="43.8" width="2.2" height="2.8"/>
		</g>
		<g>
			<path class="st2" d="M38,44.2H41c0.8,0,1.4-0.7,1.4-1.4c0-0.8-0.7-1.4-1.4-1.4h-1.4h-0.1H38c-0.8,0-1.4,0.7-1.4,1.4
				C36.7,43.5,37.2,44.2,38,44.2"/>
			<rect x="38.4" y="41.4" width="2.2" height="2.8"/>
		</g>
		<g>
			<path class="st2" d="M25.5,41.8v2.9c0,0.8,0.7,1.4,1.4,1.4c0.8,0,1.4-0.7,1.4-1.4v-1.4v-0.1v-1.4c0-0.8-0.7-1.4-1.4-1.4
				C26.2,40.4,25.5,40.9,25.5,41.8"/>
			<rect x="25.5" y="42.1" width="2.8" height="2.2"/>
		</g>
		<g>
			<path class="st2" d="M30.3,41.8v2.9c0,0.8,0.7,1.4,1.4,1.4c0.8,0,1.4-0.7,1.4-1.4v-1.4v-0.1v-1.4c0-0.8-0.7-1.4-1.4-1.4
				C31,40.4,30.3,40.9,30.3,41.8"/>
			<rect x="30.3" y="42.1" width="2.8" height="2.2"/>
		</g>
		<g>
			<path class="st2" d="M49.9,47.7v2.9c0,0.8,0.7,1.4,1.4,1.4c0.8,0,1.4-0.7,1.4-1.4v-1.4v-0.1v-1.4c0-0.8-0.7-1.4-1.4-1.4
				C50.6,46.2,49.9,46.8,49.9,47.7"/>
			<rect x="49.9" y="48" width="2.8" height="2.2"/>
		</g>
		<g>
			<path class="st2" d="M86.2,48.9v2.9c0,0.8,0.7,1.4,1.4,1.4c0.8,0,1.4-0.7,1.4-1.4v-1.4v-0.1v-1.4c0-0.8-0.7-1.4-1.4-1.4
				C86.8,47.5,86.2,48.1,86.2,48.9"/>
			<rect x="86.2" y="49.3" width="2.8" height="2.2"/>
		</g>
		<g>
			<path class="st2" d="M78.2,65.7v2.9c0,0.8,0.7,1.4,1.4,1.4s1.4-0.7,1.4-1.4v-1.4v-0.1v-1.4c0-0.8-0.7-1.4-1.4-1.4
				S78.2,64.8,78.2,65.7"/>
			<rect x="78.2" y="66" width="2.8" height="2.2"/>
		</g>
		<g>
			<path class="st2" d="M109.7,69.7v2.9c0,0.8,0.7,1.4,1.4,1.4c0.8,0,1.4-0.7,1.4-1.4v-1.4v-0.1v-1.4c0-0.8-0.7-1.4-1.4-1.4
				C110.3,68.3,109.7,68.9,109.7,69.7"/>
			<rect x="109.7" y="70.1" width="2.8" height="2.2"/>
		</g>
		<g>
			<path class="st2" d="M109.7,79.1V82c0,0.8,0.7,1.4,1.4,1.4c0.8,0,1.4-0.7,1.4-1.4v-1.4v-0.1v-1.4c0-0.8-0.7-1.4-1.4-1.4
				C110.3,77.7,109.7,78.3,109.7,79.1"/>
			<rect x="109.7" y="79.5" width="2.8" height="2.2"/>
		</g>
		<g>
			<path class="st2" d="M104,79.1V82c0,0.8,0.7,1.4,1.4,1.4s1.4-0.7,1.4-1.4v-1.4v-0.1v-1.4c0-0.8-0.7-1.4-1.4-1.4
				S104,78.3,104,79.1"/>
			<rect x="104" y="79.5" width="2.8" height="2.2"/>
		</g>
		<g>
			<path class="st2" d="M98.2,54.2v2.9c0,0.8,0.7,1.4,1.4,1.4c0.8,0,1.4-0.7,1.4-1.4v-1.4v-0.1v-1.4c0-0.8-0.7-1.4-1.4-1.4
				C98.8,52.8,98.2,53.3,98.2,54.2"/>
			<rect x="98.2" y="54.5" width="2.8" height="2.2"/>
		</g>
		<g>
			<path class="st2" d="M103.6,54.2v2.9c0,0.8,0.7,1.4,1.4,1.4s1.4-0.7,1.4-1.4v-1.4v-0.1v-1.4c0-0.8-0.7-1.4-1.4-1.4
				S103.6,53.3,103.6,54.2"/>
			<rect x="103.6" y="54.5" width="2.8" height="2.2"/>
		</g>
		<g>
			<path class="st2" d="M108,44.6v2.9c0,0.8,0.7,1.4,1.4,1.4c0.8,0,1.4-0.7,1.4-1.4v-1.4V46v-1.4c0-0.8-0.7-1.4-1.4-1.4
				C108.6,43.2,108,43.7,108,44.6"/>
			<rect x="108" y="44.9" width="2.8" height="2.2"/>
		</g>
		<g>
			<path class="st2" d="M108,35.2v2.9c0,0.8,0.7,1.4,1.4,1.4c0.8,0,1.4-0.7,1.4-1.4v-1.4v-0.1v-1.4c0-0.8-0.7-1.4-1.4-1.4
				C108.6,33.8,108,34.3,108,35.2"/>
			<rect x="108" y="35.5" width="2.8" height="2.2"/>
		</g>
		<g>
			<path class="st2" d="M86.2,39.6v2.9c0,0.8,0.7,1.4,1.4,1.4c0.8,0,1.4-0.7,1.4-1.4v-1.4V41v-1.4c0-0.8-0.7-1.4-1.4-1.4
				S86.2,38.7,86.2,39.6"/>
			<rect x="86.2" y="39.9" width="2.8" height="2.2"/>
		</g>
		<g>
			<path class="st2" d="M91.6,39.6v2.9c0,0.8,0.7,1.4,1.4,1.4c0.8,0,1.4-0.7,1.4-1.4v-1.4V41v-1.4c0-0.8-0.7-1.4-1.4-1.4
				C92.3,38.2,91.6,38.7,91.6,39.6"/>
			<rect x="91.6" y="39.9" width="2.8" height="2.2"/>
		</g>
		<g>
			<path class="st2" d="M76,137.3h2.9c0.8,0,1.4-0.7,1.4-1.4c0-0.8-0.7-1.4-1.4-1.4h-1.4h-0.1H76c-0.8,0-1.4,0.7-1.4,1.4
				C74.6,136.7,75.2,137.3,76,137.3"/>
			<rect x="76.3" y="134.5" width="2.2" height="2.8"/>
		</g>
		<g>
			<path class="st2" d="M48,128.6h2.9c0.8,0,1.4-0.7,1.4-1.4c0-0.8-0.7-1.4-1.4-1.4h-1.4h-0.1H48c-0.8,0-1.4,0.7-1.4,1.4
				C46.6,128,47.1,128.6,48,128.6"/>
			<rect x="48.3" y="125.8" width="2.2" height="2.8"/>
		</g>
		<g>
			<path class="st2" d="M38.9,128.6h2.9c0.8,0,1.4-0.7,1.4-1.4c0-0.8-0.7-1.4-1.4-1.4h-1.4h-0.1h-1.4c-0.8,0-1.4,0.7-1.4,1.4
				C37.4,128,38,128.6,38.9,128.6"/>
			<rect x="39.2" y="125.8" width="2.2" height="2.8"/>
		</g>
		<g>
			<path class="st2" d="M42.7,122.3h2.9c0.8,0,1.4-0.7,1.4-1.4c0-0.8-0.7-1.4-1.4-1.4h-1.4h-0.1h-1.4c-0.8,0-1.4,0.7-1.4,1.4
				C41.3,121.6,41.9,122.3,42.7,122.3"/>
			<rect x="43.1" y="119.4" width="2.2" height="2.8"/>
		</g>
		<g>
			<path class="st2" d="M56.9,102.3h2.9c0.8,0,1.4-0.7,1.4-1.4c0-0.8-0.7-1.4-1.4-1.4h-1.4h-0.1h-1.4c-0.8,0-1.4,0.7-1.4,1.4
				C55.5,101.6,56,102.3,56.9,102.3"/>
			<rect x="57.2" y="99.4" width="2.2" height="2.8"/>
		</g>
		<g>
			<path class="st2" d="M33.2,122.3h2.9c0.8,0,1.4-0.7,1.4-1.4c0-0.8-0.7-1.4-1.4-1.4h-1.4h-0.1h-1.4c-0.8,0-1.4,0.7-1.4,1.4
				C31.8,121.6,32.3,122.3,33.2,122.3"/>
			<rect x="33.5" y="119.4" width="2.2" height="2.8"/>
		</g>
		<path class="st8" d="M50.4,8.5l-2.6-2.6L49,4.7l2.6,2.6L50.4,8.5z"/>
		<path class="st8" d="M79.4,7.3l2.6-2.6l1.2,1.2l-2.6,2.6L79.4,7.3z"/>
		<path class="st9" d="M71.6,32.3v-5.6c0-0.2-0.2-0.3-0.3-0.3h-1.6c-0.2,0-0.3,0.2-0.3,0.3v5.6c0,0.2,0.2,0.3,0.3,0.3h1.6
			C71.6,32.4,71.6,32.4,71.6,32.3"/>
		<path class="st9" d="M68.8,32.3v-5.6c0-0.2-0.2-0.3-0.3-0.3H67c-0.2,0-0.3,0.2-0.3,0.3v5.6c0,0.2,0.2,0.3,0.3,0.3h1.6
			C68.7,32.4,68.8,32.4,68.8,32.3"/>
		<path class="st9" d="M66.1,32.3v-5.6c0-0.2-0.2-0.3-0.3-0.3h-1.6c-0.2,0-0.3,0.2-0.3,0.3v5.6c0,0.2,0.2,0.3,0.3,0.3h1.6
			C65.9,32.4,66.1,32.4,66.1,32.3"/>
		<path class="st9" d="M63.1,32.3v-5.6c0-0.2-0.2-0.3-0.3-0.3h-1.6c-0.2,0-0.3,0.2-0.3,0.3v5.6c0,0.2,0.2,0.3,0.3,0.3h1.6
			C63.1,32.4,63.1,32.4,63.1,32.3"/>
		<path class="st9" d="M60.3,32.3v-5.6c0-0.2-0.2-0.3-0.3-0.3h-1.6c-0.2,0-0.3,0.2-0.3,0.3v5.6c0,0.2,0.2,0.3,0.3,0.3H60
			C60.2,32.4,60.3,32.4,60.3,32.3"/>
		<path class="st2" d="M67.9,28.1v1.2h13.3V6.6h-1.6l-1.4-0.9H52.4L51,6.6h-1.6v22.6h12.4V28c0-0.6,0.5-1.1,1.1-1.1h3.8
			C67.5,27,67.9,27.5,67.9,28.1"/>
		<path class="st8" d="M73.8,18.1c-0.2,0-0.3-0.2-0.3-0.3v-7c0-0.2,0.2-0.3,0.3-0.3h3.6c0.2,0,0.3,0.2,0.3,0.3v7
			c0,0.2-0.2,0.3-0.3,0.3C77.4,18.1,73.8,18.1,73.8,18.1z"/>
		<path class="st8" d="M53.5,18.1c-0.2,0-0.3-0.2-0.3-0.3v-7c0-0.2,0.2-0.3,0.3-0.3h3.6c0.2,0,0.3,0.2,0.3,0.3v7
			c0,0.2-0.2,0.3-0.3,0.3C57.1,18.1,53.5,18.1,53.5,18.1z"/>
		<rect x="70.4" y="55.2" class="st10" width="2.2" height="2.2"/>
		<rect x="70.4" y="46.8" class="st10" width="2.2" height="2.2"/>
		<rect x="62.7" y="46.8" class="st10" width="2.2" height="3.8"/>
		<rect x="62.7" y="55.2" class="st10" width="2.2" height="2.2"/>
		<rect x="64.8" y="45.7" width="5.7" height="12.5"/>
		<g>
			<g>
				<g>
					<defs>
						<rect id="SVGID_1_" x="90.4" y="30.3" width="8.6" height="4.2"/>
					</defs>
					<clipPath id="SVGID_2_">
						<use xlink:href="#SVGID_1_"  style="overflow:visible;"/>
					</clipPath>
					<g class="st11">
						<path class="st2" d="M92.5,34.5h4.4c1.1,0,2.1-1,2.1-2.1c0-1.1-1-2.1-2.1-2.1h-2.1h-0.2h-2.1c-1.1,0-2.1,1-2.1,2.1
							C90.4,33.5,91.1,34.5,92.5,34.5"/>
						<rect x="92.9" y="30.3" width="3.2" height="4.2"/>
					</g>
				</g>
			</g>
		</g>
		<g>
			<g>
				<g>
					<defs>
						<rect id="SVGID_3_" x="77.4" y="50.9" width="4.2" height="8.6"/>
					</defs>
					<clipPath id="SVGID_4_">
						<use xlink:href="#SVGID_3_"  style="overflow:visible;"/>
					</clipPath>
					<g class="st12">
						<path class="st2" d="M77.4,53v4.4c0,1.1,1,2.1,2.1,2.1s2.1-1,2.1-2.1v-2.1v-0.2V53c0-1.1-1-2.1-2.1-2.1
							C78.4,50.9,77.4,51.7,77.4,53"/>
						<rect x="77.4" y="53.5" width="4.2" height="3.2"/>
					</g>
				</g>
			</g>
		</g>
		<g>
			<g>
				<g>
					<defs>
						<rect id="SVGID_5_" x="102.1" y="94.4" width="8.6" height="4.2"/>
					</defs>
					<clipPath id="SVGID_6_">
						<use xlink:href="#SVGID_5_"  style="overflow:visible;"/>
					</clipPath>
					<g class="st13">
						<path class="st2" d="M104.3,98.7h4.4c1.1,0,2.1-1,2.1-2.1c0-1.1-1-2.1-2.1-2.1h-2.1h-0.2h-2.1c-1.1,0-2.1,1-2.1,2.1
							C102.2,97.7,103,98.7,104.3,98.7"/>
						<rect x="104.7" y="94.4" width="3.2" height="4.2"/>
					</g>
				</g>
			</g>
		</g>
		<g>
			<rect x="98.4" y="46.4" class="st2" width="0.8" height="1.8"/>
			<rect x="101.2" y="46.4" class="st2" width="0.9" height="1.8"/>
			<rect x="104.1" y="46.4" class="st2" width="0.8" height="1.8"/>
			<rect x="98.4" y="39" class="st2" width="0.8" height="1.8"/>
			<rect x="101.2" y="39" class="st2" width="0.9" height="1.8"/>
			<rect x="104.1" y="39" class="st2" width="0.8" height="1.8"/>
			<rect x="97.4" y="40.9" width="8.6" height="5.5"/>
		</g>
		<g>
			<rect x="100.2" y="71.4" class="st2" width="0.8" height="1.8"/>
			<rect x="103" y="71.4" class="st2" width="0.9" height="1.8"/>
			<rect x="105.9" y="71.4" class="st2" width="0.8" height="1.8"/>
			<rect x="100.2" y="64" class="st2" width="0.8" height="1.8"/>
			<rect x="103" y="64" class="st2" width="0.9" height="1.8"/>
			<rect x="105.9" y="64" class="st2" width="0.8" height="1.8"/>
			<rect x="99.1" y="65.9" width="8.6" height="5.5"/>
		</g>
		<g>
			<rect x="91.5" y="54.8" class="st2" width="1.7" height="2.9"/>
			<rect x="88.7" y="54.8" class="st2" width="1.6" height="2.9"/>
			<rect x="85.8" y="54.8" class="st2" width="1.7" height="2.9"/>
			<rect x="91.5" y="66.9" class="st2" width="1.7" height="2.9"/>
			<rect x="88.7" y="66.9" class="st2" width="1.6" height="2.9"/>
			<rect x="85.8" y="66.9" class="st2" width="1.7" height="2.9"/>
			<rect x="85.2" y="57.7" width="8.6" height="9.2"/>
		</g>
		<g>
			<rect x="96.5" y="74.9" class="st2" width="1.7" height="2.9"/>
			<rect x="93.7" y="74.9" class="st2" width="1.6" height="2.9"/>
			<rect x="90.8" y="74.9" class="st2" width="1.7" height="2.9"/>
			<rect x="96.5" y="87" class="st2" width="1.7" height="2.9"/>
			<rect x="93.7" y="87" class="st2" width="1.6" height="2.9"/>
			<rect x="90.8" y="87" class="st2" width="1.7" height="2.9"/>
			<rect x="90.2" y="77.8" width="8.6" height="9.2"/>
		</g>
		<g>
			<path d="M64.8,131.6v-0.5l-2.9-0.9v-2.8l2.9-0.9v-0.9l-2.9-0.9V122l2.9-1.1V120l-2.9-0.9v-2.6l2.9-1.1v-0.8l-2.9-0.9v-2.8
				l2.9-0.9V109l-2.9-0.9v-2.6l2.9-1.1v-0.5H74v0.5l2.9,1.1v2.6L74,109v0.9l2.9,0.9v2.8l-2.9,0.9v0.9l2.9,1.1v2.6l-2.9,0.9v0.9
				l2.9,1.1v2.6l-2.9,0.9v0.9l2.9,0.9v2.8l-2.9,0.9v0.5h-9.2V131.6z"/>
			<path class="st2" d="M61.9,127.9h-4l-0.5,0.5v0.9l0.5,0.5h4V127.9z"/>
			<path class="st2" d="M76.9,127.9h4l0.5,0.5v0.9l-0.5,0.5h-4V127.9z"/>
			<path class="st2" d="M61.9,122.4h-4l-0.5,0.5v0.9l0.5,0.5h4V122.4z"/>
			<path class="st2" d="M76.9,122.4h4l0.5,0.5v0.9l-0.5,0.5h-4V122.4z"/>
			<path class="st2" d="M76.9,116.8h4l0.5,0.5v0.9l-0.5,0.5h-4V116.8z"/>
			<path class="st2" d="M76.9,111.3h4l0.5,0.5v0.9l-0.5,0.5h-4V111.3z"/>
			<path class="st2" d="M61.9,116.8h-4l-0.5,0.5v0.9l0.5,0.5h4V116.8z"/>
			<path class="st2" d="M61.9,111.3h-4l-0.5,0.5v0.9l0.5,0.5h4V111.3z"/>
			<path class="st2" d="M61.9,105.8h-4l-0.5,0.5v0.9l0.5,0.5h4V105.8z"/>
			<path class="st2" d="M76.9,105.8h4l0.5,0.5v0.9l-0.5,0.5h-4V105.8z"/>
			<path class="st4" d="M67.7,127.8h-2.1l1.1,1.1L67.7,127.8z"/>
			<path class="st14" d="M65.6,129.9l1.1-1.1l-1.1-1.1V129.9z"/>
			<path class="st15" d="M65.6,129.9h2.1l-1.1-1.1L65.6,129.9z"/>
			<path class="st14" d="M67.7,129.9v-2.1l-1.1,1.1L67.7,129.9z"/>
			<rect x="66.1" y="128.2" class="st16" width="1.2" height="1.2"/>
			<path class="st4" d="M67.7,122.2h-2.1l1.1,1.1L67.7,122.2z"/>
			<path class="st14" d="M65.6,124.4l1.1-1.1l-1.1-1.1V124.4z"/>
			<path class="st15" d="M65.6,124.4h2.1l-1.1-1.1L65.6,124.4z"/>
			<path class="st14" d="M67.7,124.4v-2.1l-1.1,1.1L67.7,124.4z"/>
			<rect x="66.1" y="122.7" class="st16" width="1.2" height="1.2"/>
			<path class="st4" d="M67.7,116.7h-2.1l1.1,1.1L67.7,116.7z"/>
			<path class="st14" d="M65.6,118.9l1.1-1.1l-1.1-1.1V118.9z"/>
			<path class="st15" d="M65.6,118.9h2.1l-1.1-1.1L65.6,118.9z"/>
			<path class="st14" d="M67.7,118.9v-2.1l-1.1,1.1L67.7,118.9z"/>
			<rect x="66.1" y="117.2" class="st16" width="1.2" height="1.2"/>
			<path class="st4" d="M67.7,111.2h-2.1l1.1,1.1L67.7,111.2z"/>
			<path class="st14" d="M65.6,113.3l1.1-1.1l-1.1-1.1V113.3z"/>
			<path class="st15" d="M65.6,113.3h2.1l-1.1-1.1L65.6,113.3z"/>
			<path class="st14" d="M67.7,113.3v-2.1l-1.1,1.1L67.7,113.3z"/>
			<rect x="66.1" y="111.6" class="st16" width="1.2" height="1.2"/>
			<path class="st4" d="M67.7,105.7h-2.1l1.1,1.1L67.7,105.7z"/>
			<path class="st14" d="M65.6,107.8l1.1-1.1l-1.1-1.1V107.8z"/>
			<path class="st15" d="M65.6,107.8h2.1l-1.1-1.1L65.6,107.8z"/>
			<path class="st14" d="M67.7,107.8v-2.1l-1.1,1.1L67.7,107.8z"/>
			<rect x="66.1" y="106.1" class="st16" width="1.2" height="1.2"/>
			<path class="st4" d="M73.2,105.7h-2.1l1.1,1.1L73.2,105.7z"/>
			<path class="st14" d="M71.1,107.8l1.1-1.1l-1.1-1.1V107.8z"/>
			<path class="st15" d="M71.1,107.8h2.1l-1.1-1.1L71.1,107.8z"/>
			<path class="st14" d="M73.2,107.8v-2.1l-1.1,1.1L73.2,107.8z"/>
			<rect x="71.6" y="106.1" class="st16" width="1.2" height="1.2"/>
			<path class="st4" d="M73.2,111.2h-2.1l1.1,1.1L73.2,111.2z"/>
			<path class="st14" d="M71.1,113.3l1.1-1.1l-1.1-1.1V113.3z"/>
			<path class="st15" d="M71.1,113.3h2.1l-1.1-1.1L71.1,113.3z"/>
			<path class="st14" d="M73.2,113.3v-2.1l-1.1,1.1L73.2,113.3z"/>
			<rect x="71.6" y="111.6" class="st16" width="1.2" height="1.2"/>
			<path class="st4" d="M73.2,116.7h-2.1l1.1,1.1L73.2,116.7z"/>
			<path class="st14" d="M71.1,118.9l1.1-1.1l-1.1-1.1V118.9z"/>
			<path class="st15" d="M71.1,118.9h2.1l-1.1-1.1L71.1,118.9z"/>
			<path class="st14" d="M73.2,118.9v-2.1l-1.1,1.1L73.2,118.9z"/>
			<rect x="71.6" y="117.2" class="st16" width="1.2" height="1.2"/>
			<path class="st4" d="M73.2,122.2h-2.1l1.1,1.1L73.2,122.2z"/>
			<path class="st14" d="M71.1,124.4l1.1-1.1l-1.1-1.1V124.4z"/>
			<path class="st15" d="M71.1,124.4h2.1l-1.1-1.1L71.1,124.4z"/>
			<path class="st14" d="M73.2,124.4v-2.1l-1.1,1.1L73.2,124.4z"/>
			<rect x="71.6" y="122.7" class="st16" width="1.2" height="1.2"/>
			<path class="st4" d="M73.2,127.8h-2.1l1.1,1.1L73.2,127.8z"/>
			<path class="st14" d="M71.1,129.9l1.1-1.1l-1.1-1.1V129.9z"/>
			<path class="st15" d="M71.1,129.9h2.1l-1.1-1.1L71.1,129.9z"/>
			<path class="st14" d="M73.2,129.9v-2.1l-1.1,1.1L73.2,129.9z"/>
			<rect x="71.6" y="128.2" class="st16" width="1.2" height="1.2"/>
		</g>
		<g>
			<rect x="38.2" y="131.4" class="st2" width="13.9" height="6.5"/>
			<rect x="38.2" y="131.4" class="st17" width="1.2" height="6.5"/>
			<rect x="50.9" y="131.4" class="st2" width="1.2" height="6.5"/>
			<rect x="38.2" y="136.7" class="st17" width="13.9" height="1.2"/>
			<rect x="39.4" y="132.7" class="st18" width="11.5" height="4"/>
			<rect x="39.4" y="131.4" class="st2" width="12.7" height="1.2"/>
		</g>
		<g>
			<rect x="38.3" y="110.9" class="st2" width="2.1" height="4.3"/>
			<rect x="32" y="110.9" class="st2" width="1.7" height="4.3"/>
			<rect x="45.1" y="110.9" class="st2" width="1.7" height="4.3"/>
			<path class="st2" d="M42.2,97.3l0.8,0.9v1.2h-7.1v-1.2l0.8-0.9H42.2z"/>
			<rect x="29.6" y="99.5" width="19.7" height="11.3"/>
		</g>
		<g>
			<rect x="55.1" y="82.7" width="16.9" height="12.6"/>
			<rect x="55.1" y="82.7" width="16.9" height="12.6"/>
			<rect x="55.1" y="82.7" width="16.9" height="12.6"/>
			<path class="st9" d="M68.3,89v0.8l-0.2,0.5v0.3L68,91.1l-0.2,0.3l-0.3,0.3L67.4,92l-0.3,0.3l-0.2,0.3l-0.3,0.2l-0.3,0.3L66,93.2
				l-0.5,0.2l-0.3,0.2l-0.3,0.2l-0.5,0.2h-0.3h-0.5h-0.3h-0.5l-0.3-0.2h-0.5l-0.3-0.2l-0.5-0.2L61,93.2l-0.3-0.3l-0.3-0.2l-0.3-0.3
				l-0.2-0.3l-0.3-0.3l-0.2-0.3l-0.2-0.3l-0.2-0.5L59,90.4l-0.2-0.3v-0.5v-0.3v-0.5v-0.3v-0.5l0.2-0.3l0.2-0.5l0.2-0.3l0.2-0.3
				l0.2-0.3l0.3-0.3l0.2-0.3l0.3-0.3l0.3-0.3L61,85l0.3-0.2l0.5-0.2l0.3-0.2l0.5-0.2h0.3l0.5-0.2h0.3l0.5,0.2h0.3l0.5,0.2h0.3
				l0.3,0.2l0.5,0.2l0.3,0.3l0.3,0.2l0.3,0.3l0.2,0.3l0.3,0.3l0.2,0.3l0.3,0.3l0.3,0.6v0.5l0.2,0.3V89z"/>
			<path class="st2" d="M67.7,89v0.3l-0.2,0.5v0.3l-0.2,0.3l-0.2,0.3v0.3l-0.3,0.3l-0.2,0.2l-0.2,0.3L66.3,92l-0.2,0.3l-0.3,0.2
				l-0.3,0.2l-0.3,0.2l-0.3,0.2l-0.3,0.2h-0.3H64l-0.3,0.2l-0.3-0.2h-0.3h-0.3l-0.3-0.2h-0.3l-0.3-0.2l-0.3-0.2l-0.3-0.3l-0.3-0.2
				L60.7,92l-0.3-0.3l-0.2-0.3l-0.2-0.2L60,90.9l-0.2-0.3l-0.2-0.3V90l-0.2-0.3v-0.5v-0.3v-0.3l0.2-0.3v-0.3l0.2-0.3l0.2-0.3
				l0.2-0.3l0.2-0.3l0.2-0.2l0.3-0.3l0.2-0.3l0.3-0.2l0.3-0.2l0.3-0.2l0.3-0.2l0.3-0.2h0.3l0.3-0.2H64l0.3,0.2h0.3l0.3,0.2h0.3
				l0.3,0.2l0.3,0.3l0.3,0.2l0.6,0.6l0.2,0.3l0.3,0.3v0.3l0.3,0.6v0.3l0.2,0.3L67.7,89L67.7,89z"/>
			<rect x="70.9" y="86.9" class="st2" width="2.1" height="4.3"/>
			<rect x="54" y="86.9" class="st2" width="2.1" height="4.3"/>
		</g>
		<g>
			<path class="st4" d="M50.4,64.8h1.2c0-0.2,0.2-0.5,0.5-0.5s0.5,0.2,0.5,0.5h1.7v-1.3v-4.9v-0.3v-0.9h-1.7c0,0.2-0.2,0.5-0.5,0.5
				s-0.5-0.2-0.5-0.5h-1.7v7.5L50.4,64.8L50.4,64.8z"/>
			<rect x="49.9" y="58.6" width="4.3" height="5"/>
		</g>
		<g>
			<g>
				<g>
					<defs>
						<rect id="SVGID_7_" x="16.7" y="42.8" width="6.5" height="10.9"/>
					</defs>
					<clipPath id="SVGID_8_">
						<use xlink:href="#SVGID_7_"  style="overflow:visible;"/>
					</clipPath>
					<g class="st19">
						<path class="st2" d="M16.8,52.2c0,0.9,0.7,1.6,1.6,1.6h3.2c0.9,0,1.6-0.7,1.6-1.6v-0.5h-6.4L16.8,52.2z"/>
						<path class="st2" d="M16.8,44.4c0-0.9,0.7-1.6,1.6-1.6h3.2c0.9,0,1.6,0.7,1.6,1.6v0.5h-6.4L16.8,44.4z"/>
						<rect x="16.8" y="44.9" class="st4" width="6.4" height="6.8"/>
					</g>
				</g>
			</g>
		</g>
		<g>
			<rect x="34.9" y="48.1" class="st20" width="1.1" height="1.2"/>
			<rect x="34.9" y="50.3" class="st20" width="1.1" height="1.2"/>
			<rect x="34.9" y="52.5" class="st20" width="1.1" height="1.2"/>
			<rect x="44.7" y="48.1" class="st20" width="1.1" height="1.2"/>
			<rect x="44.7" y="50.3" class="st20" width="1.1" height="1.2"/>
			<rect x="44.7" y="52.5" class="st20" width="1.1" height="1.2"/>
			<rect x="36" y="46.6" width="8.7" height="8.7"/>
		</g>
		<g>
			<rect x="68.3" y="69.1" class="st20" width="1.2" height="1.5"/>
			<rect x="58.6" y="69.1" class="st20" width="1.2" height="1.5"/>
			<rect x="68.3" y="71.9" class="st20" width="1.2" height="1.5"/>
			<rect x="58.6" y="71.9" class="st20" width="1.2" height="1.5"/>
			<rect x="68.3" y="74.8" class="st20" width="1.2" height="1.5"/>
			<rect x="58.6" y="74.8" class="st20" width="1.2" height="1.5"/>
			<rect x="59.8" y="68.5" width="8.5" height="8.5"/>
		</g>
		<rect x="13.5" y="60.6" class="st21" width="3.6" height="2"/>
		<rect x="39.6" y="70.3" class="st2" width="11.3" height="2.2"/>
		<rect x="39.6" y="79.1" class="st2" width="11.3" height="2.2"/>
		<rect x="21.9" y="66.5" class="st21" width="17.8" height="4"/>
		<rect x="21.9" y="81.3" class="st21" width="17.8" height="4"/>
		<rect x="13.5" y="89" class="st21" width="3.6" height="2"/>
		<g>
			<rect x="91.4" y="118.8" width="5.5" height="8.6"/>
			<rect x="89.6" y="119.9" class="st20" width="1.8" height="0.8"/>
			<rect x="89.6" y="122.7" class="st20" width="1.8" height="0.9"/>
			<rect x="89.6" y="125.6" class="st20" width="1.8" height="0.8"/>
			<rect x="96.9" y="119.9" class="st20" width="1.8" height="0.8"/>
			<rect x="96.9" y="122.7" class="st20" width="1.8" height="0.9"/>
			<rect x="96.9" y="125.6" class="st20" width="1.8" height="0.8"/>
		</g>
		<rect x="32.7" y="140.8" class="st22" width="64.8" height="147.3"/>
		<path class="st0" d="M35.9,258.3h3.3v25.8h6.2v-25.8h2v25.8h7.3V273h11.6v11.1h7.1V273h11.5v11.1H92v-25.8h2v28H82.8v-11.1h-7.3
			v11.1H64v-11.1h-7.3v11.1H35.9L35.9,258.3L35.9,258.3z"/>
		<rect x="36.1" y="256" class="st2" width="58" height="2.2"/>
		<path class="st3" d="M109.5,245.4h-0.3c0,0.5,0,0.6,0.3,0.6c0.2,0,0.3-0.2,0.3-0.5C109.8,245.6,109.7,245.4,109.5,245.4
			 M109.5,246.7c-0.8,0-0.9-0.5-0.9-1.2c0-0.9,0.6-1.6,1.4-1.6h0.5v0.6H110c-0.3,0-0.6,0.2-0.6,0.6c0.2,0,0.3-0.2,0.5-0.2
			c0.5,0,0.9,0.3,0.9,0.8C110.4,246.4,110.1,246.7,109.5,246.7"/>
		<path class="st3" d="M110.4,233.1l-1.1,2.3h-0.6l0.9-2.2h-1.2v-0.6h1.9L110.4,233.1z"/>
		<path class="st3" d="M101.8,190.9h0.6v-1.7h-0.5v-0.5h1.2v2.2h0.6v0.6h-1.9L101.8,190.9z"/>
		<path class="st3" d="M104.4,190.9h0.6v-1.7h-0.5v-0.5h1.2v2.2h0.6v0.6h-1.9L104.4,190.9z"/>
		<path class="st3" d="M109.7,189.5c0-0.5,0.5-0.8,1.1-0.8c0.3,0,0.6,0,0.9,0.2l-0.2,0.6c-0.2-0.2-0.5-0.3-0.6-0.3s-0.3,0-0.3,0.2
			c0,0.5,1.4,0.3,1.4,1.2c0,0.6-0.6,0.8-1.2,0.8c-0.3,0-0.6,0-0.9-0.3l0.2-0.6c0.2,0.2,0.5,0.3,0.8,0.3c0.2,0,0.5,0,0.5-0.2
			C111,190.3,109.7,190.4,109.7,189.5"/>
		<path class="st3" d="M112.9,189.4v1.6h0.3c0.6,0,0.6-0.3,0.6-0.8c0-0.5,0-0.8-0.6-0.8H112.9z M112.3,188.7h0.9
			c1.1,0,1.4,0.5,1.4,1.4c0,0.6-0.2,1.4-1.4,1.4h-0.9V188.7z"/>
		<path class="st3" d="M116,189.4l-0.3,0.9h0.5L116,189.4z M114.9,191.5l0.9-2.8h0.8l0.9,2.8h-0.8l-0.2-0.6h-0.8l-0.2,0.6H114.9z"/>
		<path class="st3" d="M101.8,179.9h0.6v-1.7h-0.5v-0.5h1.2v2.2h0.6v0.6h-1.9L101.8,179.9z"/>
		<path class="st3" d="M105.6,178.5c0-0.2-0.2-0.3-0.3-0.3c-0.2,0-0.3,0.2-0.5,0.3l-0.3-0.5c0,0,0.3-0.3,0.9-0.3
			c0.5,0,0.8,0.3,0.8,0.8c0,0.6-0.5,1.1-0.9,1.4h1.1v0.6h-1.9v-0.5C105,179.8,105.6,179.1,105.6,178.5"/>
		<path class="st3" d="M109.8,178.5c0-0.5,0.5-0.8,1.1-0.8c0.3,0,0.6,0,0.9,0.2l-0.2,0.6c-0.2-0.2-0.5-0.3-0.6-0.3
			c-0.2,0-0.3,0-0.3,0.2c0,0.5,1.4,0.3,1.4,1.2c0,0.6-0.6,0.8-1.2,0.8c-0.3,0-0.6,0-0.9-0.3l0.2-0.6c0.2,0.2,0.5,0.3,0.8,0.3
			c0.2,0,0.5,0,0.5-0.2C111,179.3,109.8,179.5,109.8,178.5"/>
		<path class="st3" d="M114.6,180.2c-0.3,0.2-0.6,0.3-0.9,0.3c-0.8,0-1.2-0.5-1.2-1.4s0.5-1.4,1.2-1.4c0.3,0,0.5,0,0.8,0.2l-0.2,0.6
			c-0.2-0.2-0.3-0.3-0.6-0.3c-0.3,0-0.6,0.3-0.6,0.8c0,0.6,0.2,0.9,0.6,0.9c0.3,0,0.5-0.2,0.6-0.2L114.6,180.2z"/>
		<path class="st3" d="M116,177.7v2.2h1.2v0.6h-2v-2.8H116z"/>
		<path class="st3" d="M104.5,145.6c0-0.3-0.2-0.3-0.5-0.3h-0.3v0.8h0.3C104.4,145.9,104.5,145.7,104.5,145.6 M103,144.8h1.1
			c0.8,0,1.1,0.3,1.1,0.9c0,0.3-0.2,0.6-0.5,0.8l0.5,0.9h-0.6l-0.5-0.9h-0.3v0.9H103L103,144.8L103,144.8z"/>
		<path class="st3" d="M107.8,144.8v0.6h-1.2v0.5h1.1v0.6h-1.2v0.6h1.2v0.6h-2V145L107.8,144.8z"/>
		<path class="st3" d="M108.4,145.4c0-0.5,0.5-0.8,1.1-0.8c0.3,0,0.6,0,0.9,0.2l-0.2,0.6c-0.2-0.2-0.5-0.3-0.6-0.3
			c-0.2,0-0.3,0-0.3,0.2c0,0.5,1.4,0.3,1.4,1.2c0,0.6-0.6,0.8-1.2,0.8c-0.3,0-0.6,0-0.9-0.3l0.2-0.6c0.2,0.2,0.5,0.3,0.8,0.3
			c0.2,0,0.5,0,0.5-0.2C109.7,146.1,108.4,146.2,108.4,145.4"/>
		<path class="st3" d="M113.1,144.8v0.6h-1.2v0.5h1.2v0.6h-1.2v0.6h1.2v0.6h-2V145L113.1,144.8z"/>
		<path class="st3" d="M116,145.3h-0.8v2.2h-0.6v-2.2h-0.9v-0.6h2.3V145.3z"/>
		<path class="st3" d="M108,135.1v1.1c-0.3,0.2-0.6,0.3-0.9,0.3c-0.8,0-1.2-0.5-1.2-1.4c0-0.9,0.6-1.4,1.4-1.4c0.3,0,0.5,0,0.8,0.2
			l-0.3,0.6c-0.2-0.3-0.3-0.3-0.6-0.3c-0.5,0-0.6,0.2-0.6,0.8c0,0.6,0.3,0.9,0.6,0.9h0.2v-0.8H108L108,135.1z"/>
		<path class="st3" d="M108.9,136.3h-0.6v-2.8h0.8l0.9,1.7v-1.7h0.6v2.8H110l-0.9-1.7L108.9,136.3z"/>
		<path class="st3" d="M111.7,134.2v1.6h0.3c0.6,0,0.6-0.3,0.6-0.8c0-0.5,0-0.8-0.6-0.8H111.7z M111,133.7h0.9
			c1.1,0,1.4,0.5,1.4,1.4c0,0.6-0.2,1.4-1.4,1.4H111V133.7z"/>
		<path class="st3" d="M107,124.7l0.5-2h0.6l-0.8,2.8h-0.8l-0.8-2.8h0.8L107,124.7z"/>
		<path class="st3" d="M110.6,125.2c-0.3,0.2-0.6,0.3-0.9,0.3c-0.8,0-1.2-0.5-1.2-1.4s0.5-1.4,1.2-1.4c0.3,0,0.5,0,0.8,0.2l-0.2,0.6
			c-0.2-0.2-0.3-0.3-0.6-0.3c-0.3,0-0.6,0.3-0.6,0.8c0,0.6,0.2,0.9,0.6,0.9c0.3,0,0.5-0.2,0.6-0.2L110.6,125.2z"/>
		<path class="st3" d="M113.4,125.2c-0.3,0.2-0.6,0.3-0.9,0.3c-0.8,0-1.2-0.5-1.2-1.4s0.5-1.4,1.2-1.4c0.3,0,0.5,0,0.8,0.2l-0.2,0.6
			c-0.2-0.2-0.3-0.3-0.6-0.3c-0.3,0-0.6,0.3-0.6,0.8c0,0.6,0.2,0.9,0.6,0.9c0.3,0,0.5-0.2,0.6-0.2L113.4,125.2z"/>
		<path class="st3" d="M107,113.6l0.5-2h0.6l-0.8,2.6h-0.8l-0.8-2.8h0.8L107,113.6z"/>
		<path class="st3" d="M108.4,113.8h0.8v-1.6h-0.8v-0.6h2.2v0.6h-0.8v1.6h0.8v0.5h-2L108.4,113.8z"/>
		<path class="st3" d="M111.7,114.2H111v-2.8h0.8l0.9,1.7v-1.7h0.6v2.8h-0.6l-0.9-1.7L111.7,114.2z"/>
		<path class="st3" d="M108,101.5c0.8,0,1.1,0.5,1.1,0.9c0,0.5-0.3,0.9-1.1,0.9c-0.3,0-0.6-0.2-0.9-0.3l0.3-0.5
			c0.2,0.2,0.5,0.3,0.6,0.3c0.2,0,0.3-0.2,0.3-0.3c0-0.3-0.2-0.5-1.1-0.5v-1.4h1.6v0.6h-1.1v0.2L108,101.5L108,101.5z"/>
		<path class="st3" d="M110.7,102.6l0.5-2h0.6l-0.8,2.8h-0.8l-0.8-2.8h0.8L110.7,102.6z"/>
		<path class="st3" d="M102.8,222.9c0.2-0.2,0.3-0.2,0.3-0.3c0-0.2-0.2-0.2-0.3-0.2s-0.3,0.2-0.3,0.2
			C102.6,222.7,102.7,222.7,102.8,222.9 M102.7,223.5c-0.2,0.2-0.3,0.3-0.3,0.5s0.2,0.3,0.3,0.3c0.2,0,0.3-0.2,0.3-0.3
			C103.1,223.8,103,223.7,102.7,223.5 M103.1,223.2c0.3,0.2,0.6,0.5,0.6,0.8c0,0.5-0.5,0.8-1.1,0.8c-0.6,0-0.9-0.3-0.9-0.8
			c0-0.3,0.3-0.6,0.6-0.8c-0.3-0.2-0.5-0.3-0.5-0.6c0-0.5,0.5-0.8,0.9-0.8c0.5,0,0.9,0.3,0.9,0.6C103.6,222.7,103.5,223,103.1,223.2
			"/>
		<path class="st3" d="M108.6,223l-0.3,0.8h-0.5l-0.3-0.8v1.7H107v-2.8h0.5l0.6,1.1l0.6-1.1h0.6v2.8h-0.6L108.6,223z"/>
		<path class="st3" d="M111.2,223.2c0-0.6,0-0.8-0.5-0.8c-0.3,0-0.5,0.2-0.5,0.9c0,0.6,0,0.8,0.5,0.8
			C111.2,224.1,111.2,223.8,111.2,223.2 M112,223.2c0,0.8-0.3,1.4-1.2,1.4c-0.8,0-1.1-0.5-1.1-1.4c0-0.8,0.3-1.4,1.1-1.4
			C111.5,221.8,112,222.3,112,223.2"/>
		<path class="st3" d="M112.4,222.6c0-0.5,0.5-0.8,1.1-0.8c0.3,0,0.6,0,0.9,0.2l-0.2,0.6c-0.2-0.2-0.5-0.3-0.6-0.3
			c-0.2,0-0.3,0-0.3,0.2c0,0.5,1.4,0.3,1.4,1.2c0,0.6-0.6,0.8-1.2,0.8c-0.3,0-0.6,0-0.9-0.3l0.2-0.6c0.2,0.2,0.5,0.3,0.8,0.3
			c0.2,0,0.5,0,0.5-0.2C113.8,223.3,112.4,223.5,112.4,222.6"/>
		<path class="st3" d="M115.2,224.1h0.8v-1.6h-0.8v-0.6h2v0.6h-0.8v1.6h0.8v0.6h-2V224.1z"/>
		<path class="st3" d="M104.1,212.1h0.3c0-0.5,0-0.6-0.3-0.6c-0.2,0-0.3,0.2-0.3,0.5C103.8,211.9,103.9,212.1,104.1,212.1
			 M104.1,210.7c0.8,0,0.9,0.5,0.9,1.2c0,0.9-0.6,1.6-1.4,1.6h-0.5v-0.6h0.5c0.3,0,0.6-0.2,0.6-0.6c-0.2,0-0.3,0.2-0.5,0.2
			c-0.5,0-0.9-0.3-0.9-0.8C103.1,211.1,103.5,210.7,104.1,210.7"/>
		<path class="st3" d="M108.4,211.6c0-0.5,0.5-0.8,1.1-0.8c0.3,0,0.6,0,0.9,0.2l-0.2,0.6c-0.2-0.2-0.5-0.3-0.6-0.3
			c-0.2,0-0.3,0-0.3,0.2c0,0.5,1.4,0.3,1.4,1.2c0,0.6-0.6,0.8-1.2,0.8c-0.3,0-0.6,0-0.9-0.3l0.2-0.6c0.2,0.2,0.5,0.3,0.8,0.3
			c0.2,0,0.5,0,0.5-0.2C109.7,212.4,108.4,212.5,108.4,211.6"/>
		<path class="st3" d="M113.1,213.3c-0.3,0.2-0.6,0.3-0.9,0.3c-0.8,0-1.2-0.5-1.2-1.4c0-0.9,0.5-1.4,1.2-1.4c0.3,0,0.5,0,0.8,0.2
			l-0.2,0.6c-0.2-0.2-0.3-0.3-0.6-0.3s-0.6,0.3-0.6,0.8c0,0.6,0.2,0.9,0.6,0.9c0.3,0,0.5-0.2,0.6-0.2L113.1,213.3z"/>
		<path class="st3" d="M114.4,210.8v1.1h0.2l0.5-1.1h0.8l-0.8,1.2l0.8,1.4h-0.8l-0.6-1.1h-0.2v1.1h-0.6v-2.6H114.4z"/>
		<path class="st3" d="M100.4,202h0.6v-1.7h-0.5v-0.5h1.2v2.2h0.6v0.6h-1.9L100.4,202z"/>
		<path class="st3" d="M104.4,201.2v-0.5l-0.5,1.4h0.2C104.4,202,104.4,201.7,104.4,201.2 M103.6,201.7l0.5-1.4h-0.2
			c-0.3,0-0.5,0.3-0.5,0.8C103.6,201.4,103.6,201.6,103.6,201.7 M105.2,201.1c0,0.8-0.2,1.4-1.1,1.4c-0.8,0-1.1-0.3-1.1-1.4
			c0-0.9,0.3-1.4,1.1-1.4C104.9,199.8,105.2,200.3,105.2,201.1"/>
		<path class="st3" d="M110,200.9l-0.3,0.8h-0.5l-0.3-0.8v1.7h-0.5v-2.8h0.6l0.6,1.1l0.6-1.1h0.6v2.8h-0.6v-1.7H110z"/>
		<path class="st3" d="M111,202h0.8v-1.6H111v-0.6h2v0.6h-0.8v1.6h0.8v0.6h-2V202z"/>
		<path class="st3" d="M113.8,200.6c0-0.5,0.5-0.8,1.1-0.8c0.3,0,0.6,0,0.9,0.2l-0.2,0.6c-0.2-0.2-0.5-0.3-0.6-0.3
			c-0.2,0-0.3,0-0.3,0.2c0,0.5,1.4,0.3,1.4,1.2c0,0.6-0.6,0.8-1.2,0.8c-0.3,0-0.6,0-0.9-0.3l0.2-0.6c0.2,0.2,0.5,0.3,0.8,0.3
			c0.2,0,0.5,0,0.5-0.2C115.1,201.4,113.8,201.6,113.8,200.6"/>
		<path class="st3" d="M117.9,201.2c0-0.6,0-0.8-0.5-0.8c-0.3,0-0.5,0.2-0.5,0.9c0,0.6,0,0.8,0.5,0.8
			C117.9,202,117.9,201.9,117.9,201.2 M118.6,201.2c0,0.8-0.3,1.4-1.2,1.4c-0.8,0-1.1-0.5-1.1-1.4c0-0.8,0.3-1.4,1.1-1.4
			C118.3,199.8,118.6,200.2,118.6,201.2"/>
		<path class="st3" d="M103.3,158.4h0.6v-1.7h-0.5v-0.5h1.2v2.2h0.6v0.6h-1.9L103.3,158.4z"/>
		<path class="st3" d="M107,157.8v-0.9l-0.5,0.9H107z M107.7,158.9H107v-0.5h-1.1v-0.3l1.1-1.9h0.6v1.7h0.3v0.5h-0.3V158.9z"/>
		<path class="st3" d="M112.9,156.7h-0.8v2.2h-0.6v-2.2h-0.8v-0.6h2.3L112.9,156.7z"/>
		<path class="st3" d="M114.1,156.3l0.3,0.8l0.5-0.8h0.6l-0.8,1.2l0.8,1.4h-0.8l-0.5-0.9l-0.5,0.9h-0.6l0.8-1.4l-0.8-1.2H114.1z"/>
		<path class="st3" d="M103.3,169.6h0.6v-1.7h-0.5v-0.5h1.2v2.2h0.6v0.6h-1.9L103.3,169.6z"/>
		<path class="st3" d="M107.3,168.6c0.3,0.2,0.6,0.3,0.6,0.8c0,0.3-0.3,0.8-1.1,0.8c-0.5,0-0.8-0.2-0.9-0.3l0.3-0.5
			c0.2,0.2,0.3,0.3,0.6,0.3c0.2,0,0.3-0.2,0.3-0.3c0-0.3-0.3-0.5-0.8-0.5v-0.5c0.5,0,0.8-0.2,0.8-0.5c0-0.2-0.2-0.3-0.3-0.3
			c-0.2,0-0.3,0.2-0.5,0.3l-0.3-0.5c0,0,0.3-0.3,0.9-0.3c0.5,0,0.8,0.3,0.8,0.6C107.8,168.3,107.7,168.5,107.3,168.6"/>
		<path class="st3" d="M112.3,168.3c0-0.3-0.2-0.3-0.5-0.3h-0.3v0.8h0.3C112.1,168.6,112.3,168.6,112.3,168.3 M110.7,167.4h1.1
			c0.8,0,1.1,0.3,1.1,0.9c0,0.3-0.2,0.6-0.5,0.8l0.5,0.9h-0.8l-0.5-0.9h-0.3v0.9h-0.6L110.7,167.4L110.7,167.4z"/>
		<path class="st3" d="M114.1,167.4l0.3,0.8l0.5-0.8h0.6l-0.8,1.2l0.8,1.4h-0.8l-0.5-0.9l-0.5,0.9h-0.6l0.8-1.4l-0.8-1.2H114.1z"/>
		<path class="st3" d="M20.5,202h0.6v-1.7h-0.5v-0.5h1.2v2.2h0.6v0.6h-1.9L20.5,202z"/>
		<path class="st3" d="M21.7,190.1v-0.5l-0.5,1.4h0.2C21.7,190.9,21.7,190.8,21.7,190.1 M21.1,190.6l0.5-1.4h-0.2
			c-0.3,0-0.5,0.3-0.5,0.8C20.9,190.3,20.9,190.4,21.1,190.6 M22.5,190c0,0.8-0.2,1.4-1.1,1.4c-0.8,0-1.1-0.3-1.1-1.4
			c0-0.9,0.3-1.4,1.1-1.4C22.2,188.7,22.5,189.2,22.5,190"/>
		<path class="st3" d="M20.1,178.4l-0.3,0.9h0.5L20.1,178.4z M18.9,180.5l0.9-2.8h0.8l0.9,2.8h-0.8l-0.2-0.6h-0.9l-0.2,0.6H18.9z"/>
		<path class="st3" d="M22.9,179.3h-0.3c0,0.5,0,0.6,0.3,0.6c0.2,0,0.3-0.2,0.3-0.5C23.2,179.3,23.1,179.3,22.9,179.3 M22.9,180.5
			c-0.8,0-0.9-0.5-0.9-1.2c0-0.9,0.6-1.6,1.4-1.6h0.5v0.6h-0.5c-0.3,0-0.6,0.2-0.6,0.6c0.2,0,0.3-0.2,0.5-0.2c0.5,0,0.9,0.3,0.9,0.8
			C23.9,180.2,23.6,180.5,22.9,180.5"/>
		<path class="st3" d="M20.1,167.3l-0.3,0.9h0.5L20.1,167.3z M18.9,169.4l0.9-2.8h0.8l0.9,2.8h-0.8l-0.2-0.6h-0.9l-0.2,0.6H18.9z"/>
		<path class="st3" d="M22.8,167.6c0.8,0,1.1,0.5,1.1,0.9c0,0.5-0.3,0.9-1.1,0.9c-0.3,0-0.6-0.2-0.9-0.3l0.3-0.5
			c0.2,0.2,0.5,0.3,0.6,0.3c0.2,0,0.3-0.2,0.3-0.3c0-0.3-0.2-0.5-1.1-0.5v-1.4h1.6v0.6h-1.1v0.2L22.8,167.6L22.8,167.6z"/>
		<path class="st3" d="M20,156.3l-0.3,0.9h0.5L20,156.3z M18.9,158.4l0.9-2.8h0.8l0.9,2.8h-0.8l-0.2-0.6h-0.9l-0.2,0.6H18.9z"/>
		<path class="st3" d="M22.9,157.4v-0.9l-0.5,0.9H22.9z M23.6,158.4h-0.6V158h-1.2v-0.3l1.1-1.9h0.6v1.7h0.3v0.5h-0.3L23.6,158.4z"
			/>
		<path class="st3" d="M20.1,145.4l-0.3,0.9h0.5L20.1,145.4z M18.9,147.3l0.9-2.8h0.8l0.9,2.8h-0.8l-0.2-0.6h-0.9l-0.2,0.6H18.9z"/>
		<path class="st3" d="M23.2,145.7c0.3,0.2,0.6,0.3,0.6,0.8c0,0.3-0.3,0.8-1.1,0.8c-0.5,0-0.8-0.2-0.9-0.3l0.3-0.5
			c0.2,0.2,0.3,0.3,0.6,0.3c0.2,0,0.3-0.2,0.3-0.3c0-0.3-0.3-0.5-0.8-0.5v-0.5c0.5,0,0.8-0.2,0.8-0.5c0-0.2-0.2-0.3-0.3-0.3
			c-0.2,0-0.3,0.2-0.5,0.3l-0.3-0.3c0,0,0.3-0.3,0.9-0.3c0.5,0,0.8,0.3,0.8,0.6C23.7,145.6,23.6,145.7,23.2,145.7"/>
		<path class="st3" d="M20.1,134.3l-0.3,0.9h0.5L20.1,134.3z M18.9,136.3l0.9-2.8h0.8l0.9,2.8h-0.8l-0.2-0.6h-0.9l-0.2,0.6H18.9z"/>
		<path class="st3" d="M23.1,134.5c0-0.2-0.2-0.3-0.3-0.3c-0.2,0-0.3,0.2-0.5,0.3L22,134c0,0,0.3-0.3,0.9-0.3c0.5,0,0.8,0.3,0.8,0.8
			c0,0.6-0.5,1.1-0.9,1.4h1.1v0.6H22V136C22.3,135.7,23.1,134.9,23.1,134.5"/>
		<path class="st3" d="M17.4,101.2l-0.3,0.9h0.5L17.4,101.2z M16.1,103.2l0.9-2.6h0.8l0.8,2.6H18l-0.2-0.6h-0.8l-0.2,0.6H16.1z"/>
		<path class="st3" d="M20.5,101.5c0-0.3-0.2-0.3-0.5-0.3h-0.2v0.8h0.3C20.3,101.8,20.5,101.8,20.5,101.5 M19.1,100.6h1.1
			c0.8,0,1.1,0.3,1.1,0.9c0,0.3-0.2,0.6-0.5,0.8l0.5,0.9h-0.8l-0.3-0.8h-0.3v0.9h-0.8V100.6z"/>
		<path class="st3" d="M23.9,100.6v0.6h-1.2v0.5h1.2v0.6h-1.2v0.6h1.2v0.6h-2v-2.8L23.9,100.6z"/>
		<path class="st3" d="M26.3,100.6v0.6h-1.2v0.6h1.1v0.6h-1.1v0.9h-0.5v-2.8H26.3z"/>
		<path class="st3" d="M13,112.2v1.6h0.3c0.6,0,0.6-0.3,0.6-0.8c0-0.5,0-0.8-0.6-0.8H13z M12.4,111.6h0.9c1.1,0,1.4,0.5,1.4,1.4
			c0,0.6-0.2,1.4-1.4,1.4h-0.9V111.6z"/>
		<path class="st3" d="M16.1,112.2l-0.3,0.9h0.5L16.1,112.2z M14.9,114.4l0.9-2.8h0.8l0.9,2.8h-0.8l-0.2-0.6h-0.8l-0.2,0.6H14.9z"/>
		<path class="st3" d="M20,114.1c-0.3,0.2-0.6,0.3-0.9,0.3c-0.8,0-1.2-0.5-1.2-1.4s0.5-1.4,1.2-1.4c0.3,0,0.5,0,0.8,0.2l-0.2,0.6
			c-0.2-0.2-0.3-0.3-0.6-0.3s-0.6,0.3-0.6,0.8c0,0.6,0.2,0.9,0.6,0.9c0.3,0,0.5-0.2,0.6-0.2L20,114.1z"/>
		<path class="st3" d="M22,113v-0.5l-0.5,1.4h0.2C21.9,113.8,22,113.6,22,113 M21.2,113.5l0.5-1.4h-0.2c-0.3,0-0.5,0.3-0.5,0.8
			C21.2,113.2,21.2,113.3,21.2,113.5 M22.6,112.8c0,0.8-0.2,1.4-1.1,1.4c-0.8,0-1.1-0.3-1.1-1.4c0-0.9,0.3-1.4,1.1-1.4
			C22.3,111.6,22.6,112.1,22.6,112.8"/>
		<path class="st3" d="M25,111.4l-1.4,3h-0.3l1.4-3H25z"/>
		<path class="st3" d="M26.5,112.2l-0.3,1.1h0.5L26.5,112.2z M25.4,114.4l0.9-2.8h0.8l0.9,2.8h-0.8l-0.2-0.6h-0.8l-0.2,0.6H25.4z"/>
		<path class="st3" d="M29.6,113v-0.5l-0.5,1.4h0.2C29.4,113.8,29.6,113.6,29.6,113 M28.8,113.5l0.5-1.4h-0.2
			c-0.3,0-0.5,0.3-0.5,0.8C28.8,113.2,28.8,113.3,28.8,113.5 M30.2,112.8c0,0.8-0.2,1.4-1.1,1.4c-0.8,0-1.1-0.3-1.1-1.4
			c0-0.9,0.3-1.4,1.1-1.4C29.9,111.6,30.2,112.1,30.2,112.8"/>
		<path class="st3" d="M20.1,123.3l-0.3,0.9h0.5L20.1,123.3z M18.9,125.2l0.9-2.8h0.8l0.9,2.8h-0.8l-0.2-0.6h-0.9l-0.2,0.6H18.9z"/>
		<path class="st3" d="M21.9,124.9h0.6v-1.7H22v-0.5h1.2v2.2h0.6v0.6H22L21.9,124.9z"/>
		<path class="st3" d="M22.9,234.5v-0.9l-0.5,0.9H22.9z M23.6,235.6h-0.6v-0.5h-1.1v-0.3l1.1-1.9h0.6v1.7h0.3v0.5h-0.3V235.6z"/>
		<path class="st3" d="M19.4,234.2c-0.2,0-0.2,0-0.3,0.3l-0.3-0.2c0.2-0.3,0.5-0.5,0.6-0.5c0.3,0,0.6,0.3,0.8,0.3s0.2,0,0.3-0.3
			l0.3,0.2c-0.2,0.5-0.5,0.5-0.6,0.5C19.8,234.5,19.7,234.2,19.4,234.2"/>
		<path class="st3" d="M22.8,245c0.8,0,1.1,0.5,1.1,0.9c0,0.5-0.3,0.9-1.1,0.9c-0.3,0-0.6-0.2-0.9-0.3l0.3-0.5
			c0.2,0.2,0.5,0.3,0.6,0.3c0.2,0,0.3-0.2,0.3-0.3c0-0.3-0.2-0.5-1.1-0.5v-1.4h1.6v0.6h-1.1v0.2L22.8,245L22.8,245z"/>
		<path class="st3" d="M19.5,245.3c-0.2,0-0.2,0-0.3,0.3l-0.3-0.2c0.2-0.3,0.5-0.5,0.6-0.5c0.3,0,0.6,0.3,0.8,0.3s0.2,0,0.3-0.3
			l0.3,0.2c-0.2,0.5-0.5,0.5-0.6,0.5C19.8,245.6,19.7,245.3,19.5,245.3"/>
		<path class="st3" d="M23.1,211.6c0-0.2-0.2-0.3-0.3-0.3c-0.2,0-0.3,0.2-0.5,0.3l-0.3-0.5c0,0,0.3-0.3,0.9-0.3
			c0.5,0,0.8,0.3,0.8,0.8c0,0.6-0.5,1.1-0.9,1.4h1.1v0.6H22v-0.5C22.5,212.9,23.1,212.2,23.1,211.6"/>
		<path class="st3" d="M19.5,212.2c-0.2,0-0.2,0-0.3,0.3l-0.3-0.2c0.2-0.3,0.5-0.5,0.6-0.5c0.3,0,0.6,0.3,0.8,0.3s0.2,0,0.3-0.3
			l0.3,0.2c-0.2,0.5-0.5,0.5-0.6,0.5C19.8,212.4,19.7,212.2,19.5,212.2"/>
		<path class="st3" d="M23.2,223.2c0.3,0.2,0.6,0.3,0.6,0.8c0,0.3-0.3,0.8-1.1,0.8c-0.5,0-0.8-0.2-0.9-0.3l0.3-0.5
			c0.2,0.2,0.3,0.3,0.6,0.3c0.2,0,0.3-0.2,0.3-0.3c0-0.3-0.3-0.5-0.8-0.5V223c0.5,0,0.8-0.2,0.8-0.5c0-0.2-0.2-0.3-0.3-0.3
			c-0.2,0-0.3,0.2-0.5,0.3l-0.3-0.5c0,0,0.3-0.3,0.9-0.3c0.5,0,0.8,0.3,0.8,0.6C23.7,222.9,23.6,223,23.2,223.2"/>
		<path class="st3" d="M19.5,223.2c-0.2,0-0.2,0-0.3,0.3l-0.3-0.2c0.2-0.3,0.5-0.5,0.6-0.5c0.3,0,0.6,0.3,0.8,0.3s0.2,0,0.3-0.3
			l0.3,0.2c-0.2,0.5-0.5,0.5-0.6,0.5C19.8,223.5,19.7,223.2,19.5,223.2"/>
		<path class="st3" d="M20.9,117.3c-0.6,0-1.1,0.5-1.1,1.1s0.5,1.1,1.1,1.1c0.6,0,1.1-0.5,1.1-1.1S21.5,117.3,20.9,117.3"/>
		<path class="st3" d="M20.9,106.2c-0.6,0-1.1,0.5-1.1,1.1c0,0.6,0.5,1.1,1.1,1.1c0.6,0,1.1-0.5,1.1-1.1S21.5,106.2,20.9,106.2"/>
		<path class="st3" d="M20.9,128.1c-0.6,0-1.1,0.5-1.1,1.1c0,0.6,0.5,1.1,1.1,1.1c0.6,0,1.1-0.5,1.1-1.1
			C22,128.6,21.5,128.1,20.9,128.1"/>
		<path class="st3" d="M20.9,139.3c-0.6,0-1.1,0.5-1.1,1.1c0,0.6,0.5,1.1,1.1,1.1c0.6,0,1.1-0.5,1.1-1.1
			C22,139.7,21.5,139.3,20.9,139.3"/>
		<path class="st3" d="M20.9,150.2c-0.6,0-1.1,0.5-1.1,1.1c0,0.6,0.5,1.1,1.1,1.1c0.6,0,1.1-0.5,1.1-1.1
			C22,150.7,21.5,150.2,20.9,150.2"/>
		<path class="st3" d="M20.9,161.4c-0.6,0-1.1,0.5-1.1,1.1c0,0.6,0.5,1.1,1.1,1.1c0.6,0,1.1-0.5,1.1-1.1
			C22,161.8,21.5,161.4,20.9,161.4"/>
		<path class="st3" d="M20.9,172.3c-0.6,0-1.1,0.5-1.1,1.1c0,0.6,0.5,1.1,1.1,1.1c0.6,0,1.1-0.5,1.1-1.1
			C22,172.8,21.5,172.3,20.9,172.3"/>
		<path class="st3" d="M20.9,183.3c-0.6,0-1.1,0.5-1.1,1.1c0,0.6,0.5,1.1,1.1,1.1c0.6,0,1.1-0.5,1.1-1.1
			C22,183.8,21.5,183.3,20.9,183.3"/>
		<path class="st3" d="M20.9,194.3c-0.6,0-1.1,0.5-1.1,1.1c0,0.6,0.5,1.1,1.1,1.1c0.6,0,1.1-0.5,1.1-1.1
			C22,194.8,21.5,194.3,20.9,194.3"/>
		<path class="st3" d="M20.9,205.4c-0.6,0-1.1,0.5-1.1,1.1c0,0.6,0.5,1.1,1.1,1.1c0.6,0,1.1-0.5,1.1-1.1
			C22,205.9,21.5,205.4,20.9,205.4"/>
		<path class="st3" d="M20.9,216.4c-0.6,0-1.1,0.5-1.1,1.1c0,0.6,0.5,1.1,1.1,1.1c0.6,0,1.1-0.5,1.1-1.1
			C22,216.9,21.5,216.4,20.9,216.4"/>
		<path class="st3" d="M20.9,227.4c-0.6,0-1.1,0.5-1.1,1.1c0,0.6,0.5,1.1,1.1,1.1c0.6,0,1.1-0.5,1.1-1.1
			C22,227.9,21.5,227.4,20.9,227.4"/>
		<path class="st3" d="M20.9,238.3c-0.6,0-1.1,0.5-1.1,1.1c0,0.6,0.5,1.1,1.1,1.1c0.6,0,1.1-0.5,1.1-1.1
			C22,238.8,21.5,238.3,20.9,238.3"/>
		<path class="st3" d="M20.9,249.3c-0.6,0-1.1,0.5-1.1,1.1c0,0.6,0.5,1.1,1.1,1.1c0.6,0,1.1-0.5,1.1-1.1
			C22,249.8,21.5,249.3,20.9,249.3"/>
		<path class="st3" d="M109.1,238.3c-0.6,0-1.1,0.5-1.1,1.1c0,0.6,0.5,1.1,1.1,1.1c0.6,0,1.1-0.5,1.1-1.1
			C110,238.8,109.5,238.3,109.1,238.3"/>
		<path class="st3" d="M109.1,249.8c-0.6,0-1.1,0.5-1.1,1.1c0,0.6,0.5,1.1,1.1,1.1c0.6,0,1.1-0.5,1.1-1.1
			C110,250.3,109.5,249.8,109.1,249.8"/>
		<path class="st3" d="M109.1,227.4c-0.6,0-1.1,0.5-1.1,1.1c0,0.6,0.5,1.1,1.1,1.1c0.6,0,1.1-0.5,1.1-1.1
			C110.1,227.9,109.5,227.4,109.1,227.4"/>
		<path class="st3" d="M109.1,216.4c-0.6,0-1.1,0.5-1.1,1.1c0,0.6,0.5,1.1,1.1,1.1c0.6,0,1.1-0.5,1.1-1.1
			C110.1,216.9,109.5,216.4,109.1,216.4"/>
		<path class="st3" d="M109.1,205.4c-0.6,0-1.1,0.5-1.1,1.1c0,0.6,0.5,1.1,1.1,1.1c0.6,0,1.1-0.5,1.1-1.1
			C110,205.9,109.5,205.4,109.1,205.4"/>
		<path class="st3" d="M109.1,194.3c-0.6,0-1.1,0.5-1.1,1.1c0,0.6,0.5,1.1,1.1,1.1c0.6,0,1.1-0.5,1.1-1.1
			C110,194.8,109.5,194.3,109.1,194.3"/>
		<path class="st3" d="M109.1,183.3c-0.6,0-1.1,0.5-1.1,1.1c0,0.6,0.5,1.1,1.1,1.1c0.6,0,1.1-0.5,1.1-1.1
			C110,183.8,109.5,183.3,109.1,183.3"/>
		<path class="st3" d="M109.1,172.3c-0.6,0-1.1,0.5-1.1,1.1c0,0.6,0.5,1.1,1.1,1.1c0.6,0,1.1-0.5,1.1-1.1
			C110.1,172.8,109.5,172.3,109.1,172.3"/>
		<path class="st3" d="M109.1,161.4c-0.6,0-1.1,0.5-1.1,1.1c0,0.6,0.5,1.1,1.1,1.1c0.6,0,1.1-0.5,1.1-1.1
			C110.1,161.8,109.5,161.4,109.1,161.4"/>
		<path class="st3" d="M109.1,150.2c-0.6,0-1.1,0.5-1.1,1.1c0,0.6,0.5,1.1,1.1,1.1c0.6,0,1.1-0.5,1.1-1.1
			C110,150.7,109.5,150.2,109.1,150.2"/>
		<path class="st3" d="M109.1,139.3c-0.6,0-1.1,0.5-1.1,1.1c0,0.6,0.5,1.1,1.1,1.1c0.6,0,1.1-0.5,1.1-1.1
			C110,139.7,109.5,139.3,109.1,139.3"/>
		<path class="st3" d="M109.1,128.1c-0.6,0-1.1,0.5-1.1,1.1c0,0.6,0.5,1.1,1.1,1.1c0.6,0,1.1-0.5,1.1-1.1
			C110,128.6,109.5,128.1,109.1,128.1"/>
		<path class="st3" d="M109.1,117.3c-0.6,0-1.1,0.5-1.1,1.1s0.5,1.1,1.1,1.1c0.6,0,1.1-0.5,1.1-1.1S109.5,117.3,109.1,117.3"/>
		<path class="st3" d="M109.1,106.2c-0.6,0-1.1,0.5-1.1,1.1c0,0.6,0.5,1.1,1.1,1.1c0.6,0,1.1-0.5,1.1-1.1
			C110.1,106.7,109.5,106.2,109.1,106.2"/>
		<rect x="36.1" y="145.3" class="st7" width="58" height="110.7"/>
	</g>
</g>
<g>
	<line class="st23" x1="209.9" y1="128.3" x2="117.9" y2="149.1"/>
	<line class="st24" x1="209.9" y1="128.3" x2="117.9" y2="149.1"/>
</g>
<g>
	<line class="st25" x1="209.9" y1="142.3" x2="28.3" y2="215.3"/>
	<line class="st26" x1="209.9" y1="142.3" x2="28.3" y2="215.3"/>
</g>
<g>
	<line class="st25" x1="210.3" y1="134.7" x2="28.7" y2="204.2"/>
	<line class="st26" x1="210.3" y1="134.7" x2="28.7" y2="204.2"/>
</g>
<g>
	<path class="st25" d="M209.5,150.3c0,0-95.2,99.4-181.1,98.2"/>
	<path class="st26" d="M209.5,150.3c0,0-95.2,99.4-181.1,98.2"/>
</g>
<g>
	<path class="st27" d="M209.1,159.9c0,0-80.8,128.1-180.5,99.4"/>
	<path class="st28" d="M209.1,159.9c0,0-80.8,128.1-180.5,99.4"/>
</g>
<g id="Page-1">
	<g id="sergeybe-Rotary-Dialer" transform="translate(1.000000, 1.000000)">
		<path id="path7666-copy" class="st29" d="M394.6,137.5c0,55.2-44.8,100-100,100s-100-44.8-100-100s44.8-100,100-100
			C349.9,37.5,394.6,82.2,394.6,137.5z"/>
		<path id="path7662" class="st30" d="M370.4,137.5c0,41.8-33.9,75.8-75.8,75.8s-75.7-34-75.7-75.8s33.9-75.8,75.8-75.8
			S370.4,95.6,370.4,137.5z"/>
		
			<linearGradient id="path7664_1_" gradientUnits="userSpaceOnUse" x1="-367.2143" y1="-154.9961" x2="-367.2143" y2="-154.8568" gradientTransform="matrix(600 0 0 600.04 220623.2031 93130.4219)">
			<stop  offset="0" style="stop-color:#E7E7E7"/>
			<stop  offset="1" style="stop-color:#4C564D"/>
		</linearGradient>
		<path id="path7664" class="st31" d="M370.4,137.5c0,41.8-33.9,75.8-75.8,75.8s-75.7-34-75.7-75.8s33.9-75.8,75.8-75.8
			S370.4,95.6,370.4,137.5z"/>
		<path id="path7666" class="st32" d="M338.6,137.5c0,24.3-19.7,43.9-43.9,43.9c-24.3,0-43.9-19.7-43.9-43.9s19.7-43.9,43.9-43.9
			C318.9,93.5,338.6,113.2,338.6,137.5z"/>
		<path id="path7668" class="st33" d="M308,197.3c0,7.4-6,13.4-13.4,13.4s-13.4-6-13.4-13.4s6-13.4,13.4-13.4S308,189.9,308,197.3z"
			/>
		<path id="path7672" class="st33" d="M280,190.2c0,7.4-6,13.4-13.4,13.4s-13.4-6-13.4-13.4s6-13.4,13.4-13.4S280,182.8,280,190.2z"
			/>
		<path id="path7676" class="st33" d="M258.5,171c0,7.4-6,13.4-13.4,13.4s-13.4-6-13.4-13.4s6-13.4,13.4-13.4
			C252.5,157.6,258.5,163.6,258.5,171z"/>
		<path id="path7680" class="st33" d="M248.4,143.8c0,7.4-6,13.4-13.4,13.4s-13.4-6-13.4-13.4c0-7.4,6-13.4,13.4-13.4
			S248.4,136.4,248.4,143.8z"/>
		<path id="path7684" class="st33" d="M252.5,115c0,7.4-6,13.4-13.4,13.4s-13.4-6-13.4-13.4s6-13.4,13.4-13.4S252.5,107.6,252.5,115
			z"/>
		<path id="path7688" class="st33" d="M269.6,91.5c0,7.4-6,13.4-13.4,13.4c-7.4,0-13.4-6-13.4-13.4s6-13.4,13.4-13.4
			C263.6,78.1,269.6,84.1,269.6,91.5z"/>
		<path id="path7692" class="st33" d="M295.6,78.9c0,7.4-6,13.4-13.4,13.4s-13.4-6-13.4-13.4s6-13.4,13.4-13.4
			C289.6,65.5,295.6,71.5,295.6,78.9z"/>
		<path id="path7696" class="st33" d="M324.4,79.9c0,7.4-6,13.4-13.4,13.4s-13.4-6-13.4-13.4s6-13.4,13.4-13.4
			C318.4,66.5,324.4,72.5,324.4,79.9z"/>
		<path id="path7700" class="st33" d="M349.7,94.5c0,7.4-6,13.4-13.4,13.4s-13.4-6-13.4-13.4s6-13.4,13.4-13.4
			S349.7,87.1,349.7,94.5z"/>
		<path id="path7704" class="st33" d="M364.8,119c0,7.4-6,13.4-13.4,13.4s-13.4-6-13.4-13.4s6-13.4,13.4-13.4S364.8,111.6,364.8,119
			z"/>
	</g>
	<text transform="matrix(1 0 0 1 370.7292 111.9191)" class="st3 st34 st35">1</text>
	<text transform="matrix(1 0 0 1 350.5271 82.1213)" class="st3 st34 st35">2</text>
	<text transform="matrix(1 0 0 1 316.1843 62.9289)" class="st3 st34 st35">3</text>
	<text transform="matrix(1 0 0 1 273.0022 60.4045)" class="st3 st34 st35">4</text>
	<text transform="matrix(1 0 0 1 235.8806 77.8283)" class="st3 st34 st35">5</text>
	<text transform="matrix(1 0 0 1 211.1335 111.9191)" class="st3 st34 st35">6</text>
	<text transform="matrix(1 0 0 1 205.8303 154.5959)" class="st3 st34 st35">7</text>
	<text transform="matrix(1 0 0 1 220.2244 193.4845)" class="st3 st34 st35">8</text>
	<text transform="matrix(1 0 0 1 249.2644 220.758)" class="st3 st34 st35">9</text>
	<text transform="matrix(1 0 0 1 288.9109 231.6154)" class="st3 st34 st35">0</text>
	<polygon id="Triangle" class="st36" points="295.8,204.4 293.7,198.5 291.6,192.2 299.9,192.2 	"/>
	<polygon id="Triangle-Copy" class="st36" points="264.3,196.4 265.6,190.4 267,183.9 274.2,188.2 	"/>
	<polygon id="Triangle-Copy-2" class="st36" points="241,175.4 244.7,170.5 248.7,165.2 253.4,172.1 	"/>
	<polygon id="Triangle-Copy-3" class="st36" points="230.1,145.1 235.8,142.8 242,140.3 242.4,148.6 	"/>
	<polygon id="Triangle-Copy-4" class="st36" points="234.8,113.2 240.9,114.1 247.5,115 243.7,122.4 	"/>
	<polygon id="Triangle-Copy-5" class="st36" points="252.8,88.2 258.4,90.9 264.3,93.8 258.5,99.7 	"/>
	<polygon id="Triangle-Copy-6" class="st36" points="281.6,74 285,79.1 288.7,84.6 280.7,86.8 	"/>
	<polygon id="Triangle-Copy-7" class="st36" points="313.7,75 314.2,81.2 314.6,87.8 306.6,85.6 	"/>
	<polygon id="Triangle-Copy-8" class="st36" points="341.5,91.2 338.7,96.8 335.8,102.8 329.9,96.9 	"/>
	<polygon id="Triangle-Copy-9" class="st36" points="357.8,117 353.8,121.6 349.4,126.7 345.2,119.4 	"/>
</g>
</svg>
