<?xml version="1.0" encoding="utf-8"?>
<!-- Generator: Adobe Illustrator 23.0.4, SVG Export Plug-In . SVG Version: 6.00 Build 0)  -->
<svg version="1.1" id="Layer_1" xmlns:svg="http://www.w3.org/2000/svg"
	 xmlns="http://www.w3.org/2000/svg" xmlns:xlink="http://www.w3.org/1999/xlink" x="0px" y="0px" viewBox="0 0 409.7 222.4"
	 style="enable-background:new 0 0 409.7 222.4;" xml:space="preserve">
<style type="text/css">
	.st0{fill:#D9D9D9;}
	.st1{fill:#CCC9C9;}
	.st2{fill:#BFBFBF;}
	.st3{fill:#E6E6E6;}
	.st4{fill:#383838;}
	.st5{fill:none;stroke:#8C8C8C;stroke-width:2.0952;stroke-linecap:round;stroke-linejoin:round;}
	.st6{fill:none;}
	.st7{fill:none;stroke:#8C8C8C;stroke-width:2.0952;stroke-linecap:round;}
	.st8{fill:none;stroke:#8C8C8C;stroke-width:2.0952;}
	.st9{fill:#D9B477;}
	.st10{fill:#AD9F4E;}
	.st11{fill:#FF4D00;}
	.st12{fill:#8A3D06;}
	.st13{opacity:0.3;enable-background:new    ;}
	.st14{opacity:0.4;enable-background:new    ;}
	.st15{opacity:0.25;fill:#FFFFFF;enable-background:new    ;}
	.st16{opacity:0.35;fill:#FFFFFF;enable-background:new    ;}
	.st17{opacity:0.5;fill:#FFFF33;enable-background:new    ;}
	.st18{opacity:0.5;fill:#FFFFFF;enable-background:new    ;}
	.st19{fill:none;stroke:#000000;stroke-width:3.2;stroke-linecap:round;}
	.st20{fill:none;stroke:#404040;stroke-width:1.6;stroke-linecap:round;}
	.st21{fill:none;stroke:#1B5BB3;stroke-width:3.2;stroke-linecap:round;}
	.st22{fill:none;stroke:#418DD9;stroke-width:1.6;stroke-linecap:round;}
	.st23{fill:none;stroke:#D6D63A;stroke-width:3.2;stroke-linecap:round;}
	.st24{fill:none;stroke:#FFF800;stroke-width:1.6;stroke-linecap:round;}
	.st25{fill:#343434;stroke:#000000;stroke-width:2;stroke-opacity:0.5;}
	.st26{stroke:#000000;stroke-width:8;}
	.st27{fill:#7F7F7F;fill-opacity:0.5;stroke:url(#path7664_1_);}
	.st28{fill:#7F7F7F;fill-opacity:0.5;stroke:#000000;stroke-width:2;stroke-opacity:0.5;}
	.st29{fill-opacity:0.5;stroke:#000000;stroke-width:2;stroke-opacity:0.5;}
	.st30{fill:#FFFFFF;}
	.st31{font-family:'Helvetica';}
	.st32{font-size:18.1818px;}
	.st33{fill-rule:evenodd;clip-rule:evenodd;fill:#D8D8D8;stroke:#979797;}
	.st34{fill:#0F7391;}
	.st35{font-family:'ArialMT';}
	.st36{font-size:2.6726px;}
	.st37{fill:#1A1A1A;}
	.st38{font-size:1.6704px;}
	.st39{fill:none;stroke:#9A916C;stroke-width:1.224;}
	.st40{fill:#CCCCCC;}
	.st41{opacity:0.2;enable-background:new    ;}
	.st42{fill:#333333;}
	.st43{opacity:0.2;fill:#FFFFFF;enable-background:new    ;}
	.st44{opacity:0.1;fill:#1A1A1A;enable-background:new    ;}
	.st45{opacity:0.1;enable-background:new    ;}
	.st46{fill:#F2F2F2;}
	.st47{fill:#83B8BD;}
	.st48{fill:#8E9090;}
	.st49{fill:#7EC632;}
	.st50{fill:#E08948;}
	.st51{fill:#C2C3C3;}
	.st52{fill:#C6C6C6;}
	.st53{fill:#8A9091;}
	.st54{fill:#8C7965;}
</style>
<g>
	<g transform="translate(100.914,8.66249)">
		<g transform="matrix(0,1,-1,0,0,0)">
			<g id="breadboardbreadboard">
				<g id="background">
					
						<rect x="42" y="-32.4" transform="matrix(2.535182e-06 1 -1 2.535182e-06 124.9886 -60.0033)" class="st0" width="100.9" height="129.8"/>
				</g>
				
					<rect x="88.9" y="-12.8" transform="matrix(2.535182e-06 1 -1 2.535182e-06 124.9881 -60.0047)" class="st1" width="7.3" height="90.5"/>
				<g transform="matrix(1, 0, 0, 1, -4.5, -9)">
					<g id="sockets">
						<g id="A1pin">
							<path class="st2" d="M37,1.9c0-1.3,1.1-2.4,2.4-2.4s2.4,1.1,2.4,2.4"/>
							<path class="st3" d="M41.8,1.9c0,1.3-1.1,2.4-2.4,2.4c-1.3,0-2.4-1.1-2.4-2.4"/>
							<circle class="st4" cx="39.4" cy="1.9" r="1.2"/>
						</g>
						<g id="B1pin">
							<path class="st2" d="M37,9.1c0-1.3,1.1-2.4,2.4-2.4s2.4,1.1,2.4,2.4"/>
							<path class="st3" d="M41.8,9.1c0,1.3-1.1,2.4-2.4,2.4c-1.3,0-2.4-1.1-2.4-2.4l0,0"/>
							<circle class="st4" cx="39.4" cy="9.1" r="1.2"/>
						</g>
						<g id="C1pin">
							<path class="st2" d="M37,16.3c0-1.3,1.1-2.4,2.4-2.4s2.4,1.1,2.4,2.4"/>
							<path class="st3" d="M41.8,16.3c0,1.3-1.1,2.4-2.4,2.4c-1.3,0-2.4-1.1-2.4-2.4"/>
							<circle class="st4" cx="39.4" cy="16.3" r="1.2"/>
						</g>
						<g id="D1pin">
							<path class="st2" d="M37,23.5c0-1.3,1.1-2.4,2.4-2.4s2.4,1.1,2.4,2.4"/>
							<path class="st3" d="M41.8,23.5c0,1.3-1.1,2.4-2.4,2.4c-1.3,0-2.4-1.1-2.4-2.4l0,0"/>
							<circle class="st4" cx="39.4" cy="23.5" r="1.2"/>
						</g>
						<g id="E1pin">
							<path class="st2" d="M37,30.7c0-1.3,1.1-2.4,2.4-2.4s2.4,1.1,2.4,2.4"/>
							<path class="st3" d="M41.8,30.7c0,1.3-1.1,2.4-2.4,2.4c-1.3,0-2.4-1.1-2.4-2.4l0,0"/>
							<circle class="st4" cx="39.4" cy="30.7" r="1.2"/>
						</g>
						<g id="A2pin">
							<path class="st2" d="M44.2,1.9c0-1.3,1.1-2.4,2.4-2.4c1.3,0,2.4,1.1,2.4,2.4"/>
							<path class="st3" d="M49,1.9c0,1.3-1.1,2.4-2.4,2.4c-1.3,0-2.4-1.1-2.4-2.4c0,0,0,0,0,0"/>
							<circle class="st4" cx="46.6" cy="1.9" r="1.2"/>
						</g>
						<g id="B2pin">
							<path class="st2" d="M44.2,9.1c0-1.3,1.1-2.4,2.4-2.4c1.3,0,2.4,1.1,2.4,2.4"/>
							<path class="st3" d="M49,9.1c0,1.3-1.1,2.4-2.4,2.4c-1.3,0-2.4-1.1-2.4-2.4v0"/>
							<circle class="st4" cx="46.6" cy="9.1" r="1.2"/>
						</g>
						<g id="C2pin">
							<path class="st2" d="M44.2,16.3c0-1.3,1.1-2.4,2.4-2.4c1.3,0,2.4,1.1,2.4,2.4"/>
							<path class="st3" d="M49,16.3c0,1.3-1.1,2.4-2.4,2.4c-1.3,0-2.4-1.1-2.4-2.4c0,0,0,0,0,0"/>
							<circle class="st4" cx="46.6" cy="16.3" r="1.2"/>
						</g>
						<g id="D2pin">
							<path class="st2" d="M44.2,23.5c0-1.3,1.1-2.4,2.4-2.4c1.3,0,2.4,1.1,2.4,2.4"/>
							<path class="st3" d="M49,23.5c0,1.3-1.1,2.4-2.4,2.4c-1.3,0-2.4-1.1-2.4-2.4v0"/>
							<circle class="st4" cx="46.6" cy="23.5" r="1.2"/>
						</g>
						<g id="E2pin">
							<path class="st2" d="M44.2,30.7c0-1.3,1.1-2.4,2.4-2.4c1.3,0,2.4,1.1,2.4,2.4"/>
							<path class="st3" d="M49,30.7c0,1.3-1.1,2.4-2.4,2.4c-1.3,0-2.4-1.1-2.4-2.4c0,0,0,0,0,0"/>
							<circle class="st4" cx="46.6" cy="30.7" r="1.2"/>
						</g>
						<g id="A3pin">
							<path class="st2" d="M51.4,1.9c0-1.3,1.1-2.4,2.4-2.4c1.3,0,2.4,1.1,2.4,2.4"/>
							<path class="st3" d="M56.2,1.9c0,1.3-1.1,2.4-2.4,2.4c-1.3,0-2.4-1.1-2.4-2.4l0,0"/>
							<circle class="st4" cx="53.8" cy="1.9" r="1.2"/>
						</g>
						<g id="B3pin">
							<path class="st2" d="M51.4,9.1c0-1.3,1.1-2.4,2.4-2.4c1.3,0,2.4,1.1,2.4,2.4"/>
							<path class="st3" d="M56.2,9.1c0,1.3-1.1,2.4-2.4,2.4c-1.3,0-2.4-1.1-2.4-2.4"/>
							<circle class="st4" cx="53.8" cy="9.1" r="1.2"/>
						</g>
						<g id="C3pin">
							<path class="st2" d="M51.4,16.3c0-1.3,1.1-2.4,2.4-2.4c1.3,0,2.4,1.1,2.4,2.4"/>
							<path class="st3" d="M56.2,16.3c0,1.3-1.1,2.4-2.4,2.4c-1.3,0-2.4-1.1-2.4-2.4l0,0"/>
							<circle class="st4" cx="53.8" cy="16.3" r="1.2"/>
						</g>
						<g id="D3pin">
							<path class="st2" d="M51.4,23.5c0-1.3,1.1-2.4,2.4-2.4c1.3,0,2.4,1.1,2.4,2.4"/>
							<path class="st3" d="M56.2,23.5c0,1.3-1.1,2.4-2.4,2.4c-1.3,0-2.4-1.1-2.4-2.4"/>
							<circle class="st4" cx="53.8" cy="23.5" r="1.2"/>
						</g>
						<g id="E3pin">
							<path class="st2" d="M51.4,30.7c0-1.3,1.1-2.4,2.4-2.4c1.3,0,2.4,1.1,2.4,2.4"/>
							<path class="st3" d="M56.2,30.7c0,1.3-1.1,2.4-2.4,2.4c-1.3,0-2.4-1.1-2.4-2.4"/>
							<circle class="st4" cx="53.8" cy="30.7" r="1.2"/>
						</g>
						<g id="A4pin">
							<path class="st2" d="M58.6,1.9c0-1.3,1.1-2.4,2.4-2.4c1.3,0,2.4,1.1,2.4,2.4"/>
							<path class="st3" d="M63.4,1.9c0,1.3-1.1,2.4-2.4,2.4c-1.3,0-2.4-1.1-2.4-2.4l0,0"/>
							<circle class="st4" cx="61" cy="1.9" r="1.2"/>
						</g>
						<g id="B4pin">
							<path class="st2" d="M58.6,9.1c0-1.3,1.1-2.4,2.4-2.4c1.3,0,2.4,1.1,2.4,2.4"/>
							<path class="st3" d="M63.4,9.1c0,1.3-1.1,2.4-2.4,2.4c-1.3,0-2.4-1.1-2.4-2.4"/>
							<circle class="st4" cx="61" cy="9.1" r="1.2"/>
						</g>
						<g id="C4pin">
							<path class="st2" d="M58.6,16.3c0-1.3,1.1-2.4,2.4-2.4c1.3,0,2.4,1.1,2.4,2.4"/>
							<path class="st3" d="M63.4,16.3c0,1.3-1.1,2.4-2.4,2.4c-1.3,0-2.4-1.1-2.4-2.4l0,0"/>
							<circle class="st4" cx="61" cy="16.3" r="1.2"/>
						</g>
						<g id="D4pin">
							<path class="st2" d="M58.6,23.5c0-1.3,1.1-2.4,2.4-2.4c1.3,0,2.4,1.1,2.4,2.4"/>
							<path class="st3" d="M63.4,23.5c0,1.3-1.1,2.4-2.4,2.4c-1.3,0-2.4-1.1-2.4-2.4"/>
							<circle class="st4" cx="61" cy="23.5" r="1.2"/>
						</g>
						<g id="E4pin">
							<path class="st2" d="M58.6,30.7c0-1.3,1.1-2.4,2.4-2.4c1.3,0,2.4,1.1,2.4,2.4"/>
							<path class="st3" d="M63.4,30.7c0,1.3-1.1,2.4-2.4,2.4c-1.3,0-2.4-1.1-2.4-2.4"/>
							<circle class="st4" cx="61" cy="30.7" r="1.2"/>
						</g>
						<g id="A5pin">
							<path class="st2" d="M65.8,1.9c0-1.3,1.1-2.4,2.4-2.4c1.3,0,2.4,1.1,2.4,2.4"/>
							<path class="st3" d="M70.6,1.9c0,1.3-1.1,2.4-2.4,2.4c-1.3,0-2.4-1.1-2.4-2.4l0,0"/>
							<circle class="st4" cx="68.2" cy="1.9" r="1.2"/>
						</g>
						<g id="B5pin">
							<path class="st2" d="M65.8,9.1c0-1.3,1.1-2.4,2.4-2.4c1.3,0,2.4,1.1,2.4,2.4"/>
							<path class="st3" d="M70.6,9.1c0,1.3-1.1,2.4-2.4,2.4c-1.3,0-2.4-1.1-2.4-2.4"/>
							<circle class="st4" cx="68.2" cy="9.1" r="1.2"/>
						</g>
						<g id="C5pin">
							<path class="st2" d="M65.8,16.3c0-1.3,1.1-2.4,2.4-2.4c1.3,0,2.4,1.1,2.4,2.4"/>
							<path class="st3" d="M70.6,16.3c0,1.3-1.1,2.4-2.4,2.4c-1.3,0-2.4-1.1-2.4-2.4l0,0"/>
							<circle class="st4" cx="68.2" cy="16.3" r="1.2"/>
						</g>
						<g id="D5pin">
							<path class="st2" d="M65.8,23.5c0-1.3,1.1-2.4,2.4-2.4c1.3,0,2.4,1.1,2.4,2.4"/>
							<path class="st3" d="M70.6,23.5c0,1.3-1.1,2.4-2.4,2.4c-1.3,0-2.4-1.1-2.4-2.4"/>
							<circle class="st4" cx="68.2" cy="23.5" r="1.2"/>
						</g>
						<g id="E5pin">
							<path class="st2" d="M65.8,30.7c0-1.3,1.1-2.4,2.4-2.4c1.3,0,2.4,1.1,2.4,2.4"/>
							<path class="st3" d="M70.6,30.7c0,1.3-1.1,2.4-2.4,2.4c-1.3,0-2.4-1.1-2.4-2.4"/>
							<circle class="st4" cx="68.2" cy="30.7" r="1.2"/>
						</g>
						<g id="A6pin">
							<path class="st2" d="M73,1.9c0-1.3,1.1-2.4,2.4-2.4c1.3,0,2.4,1.1,2.4,2.4"/>
							<path class="st3" d="M77.8,1.9c0,1.3-1.1,2.4-2.4,2.4c-1.3,0-2.4-1.1-2.4-2.4l0,0"/>
							<circle class="st4" cx="75.4" cy="1.9" r="1.2"/>
						</g>
						<g id="B6pin">
							<path class="st2" d="M73,9.1c0-1.3,1.1-2.4,2.4-2.4c1.3,0,2.4,1.1,2.4,2.4"/>
							<path class="st3" d="M77.8,9.1c0,1.3-1.1,2.4-2.4,2.4c-1.3,0-2.4-1.1-2.4-2.4"/>
							<circle class="st4" cx="75.4" cy="9.1" r="1.2"/>
						</g>
						<g id="C6pin">
							<path class="st2" d="M73,16.3c0-1.3,1.1-2.4,2.4-2.4c1.3,0,2.4,1.1,2.4,2.4"/>
							<path class="st3" d="M77.8,16.3c0,1.3-1.1,2.4-2.4,2.4c-1.3,0-2.4-1.1-2.4-2.4l0,0"/>
							<circle class="st4" cx="75.4" cy="16.3" r="1.2"/>
						</g>
						<g id="D6pin">
							<path class="st2" d="M73,23.5c0-1.3,1.1-2.4,2.4-2.4c1.3,0,2.4,1.1,2.4,2.4"/>
							<path class="st3" d="M77.8,23.5c0,1.3-1.1,2.4-2.4,2.4c-1.3,0-2.4-1.1-2.4-2.4"/>
							<circle class="st4" cx="75.4" cy="23.5" r="1.2"/>
						</g>
						<g id="E6pin">
							<path class="st2" d="M73,30.7c0-1.3,1.1-2.4,2.4-2.4c1.3,0,2.4,1.1,2.4,2.4"/>
							<path class="st3" d="M77.8,30.7c0,1.3-1.1,2.4-2.4,2.4c-1.3,0-2.4-1.1-2.4-2.4"/>
							<circle class="st4" cx="75.4" cy="30.7" r="1.2"/>
						</g>
						<g id="A7pin">
							<path class="st2" d="M80.2,1.9c0-1.3,1.1-2.4,2.4-2.4c1.3,0,2.4,1.1,2.4,2.4"/>
							<path class="st3" d="M85,1.9c0,1.3-1.1,2.4-2.4,2.4c-1.3,0-2.4-1.1-2.4-2.4l0,0"/>
							<circle class="st4" cx="82.6" cy="1.9" r="1.2"/>
						</g>
						<g id="B7pin">
							<path class="st2" d="M80.2,9.1c0-1.3,1.1-2.4,2.4-2.4c1.3,0,2.4,1.1,2.4,2.4"/>
							<path class="st3" d="M85,9.1c0,1.3-1.1,2.4-2.4,2.4c-1.3,0-2.4-1.1-2.4-2.4"/>
							<circle class="st4" cx="82.6" cy="9.1" r="1.2"/>
						</g>
						<g id="C7pin">
							<path class="st2" d="M80.2,16.3c0-1.3,1.1-2.4,2.4-2.4c1.3,0,2.4,1.1,2.4,2.4"/>
							<path class="st3" d="M85,16.3c0,1.3-1.1,2.4-2.4,2.4c-1.3,0-2.4-1.1-2.4-2.4l0,0"/>
							<circle class="st4" cx="82.6" cy="16.3" r="1.2"/>
						</g>
						<g id="D7pin">
							<path class="st2" d="M80.2,23.5c0-1.3,1.1-2.4,2.4-2.4c1.3,0,2.4,1.1,2.4,2.4"/>
							<path class="st3" d="M85,23.5c0,1.3-1.1,2.4-2.4,2.4c-1.3,0-2.4-1.1-2.4-2.4"/>
							<circle class="st4" cx="82.6" cy="23.5" r="1.2"/>
						</g>
						<g id="E7pin">
							<path class="st2" d="M80.2,30.7c0-1.3,1.1-2.4,2.4-2.4c1.3,0,2.4,1.1,2.4,2.4"/>
							<path class="st3" d="M85,30.7c0,1.3-1.1,2.4-2.4,2.4c-1.3,0-2.4-1.1-2.4-2.4"/>
							<circle class="st4" cx="82.6" cy="30.7" r="1.2"/>
						</g>
						<g id="A8pin">
							<path class="st2" d="M87.4,1.9c0-1.3,1.1-2.4,2.4-2.4c1.3,0,2.4,1.1,2.4,2.4"/>
							<path class="st3" d="M92.2,1.9c0,1.3-1.1,2.4-2.4,2.4c-1.3,0-2.4-1.1-2.4-2.4l0,0"/>
							<circle class="st4" cx="89.8" cy="1.9" r="1.2"/>
						</g>
						<g id="B8pin">
							<path class="st2" d="M87.4,9.1c0-1.3,1.1-2.4,2.4-2.4c1.3,0,2.4,1.1,2.4,2.4"/>
							<path class="st3" d="M92.2,9.1c0,1.3-1.1,2.4-2.4,2.4c-1.3,0-2.4-1.1-2.4-2.4"/>
							<circle class="st4" cx="89.8" cy="9.1" r="1.2"/>
						</g>
						<g id="C8pin">
							<path class="st2" d="M87.4,16.3c0-1.3,1.1-2.4,2.4-2.4c1.3,0,2.4,1.1,2.4,2.4"/>
							<path class="st3" d="M92.2,16.3c0,1.3-1.1,2.4-2.4,2.4c-1.3,0-2.4-1.1-2.4-2.4l0,0"/>
							<circle class="st4" cx="89.8" cy="16.3" r="1.2"/>
						</g>
						<g id="D8pin">
							<path class="st2" d="M87.4,23.5c0-1.3,1.1-2.4,2.4-2.4c1.3,0,2.4,1.1,2.4,2.4"/>
							<path class="st3" d="M92.2,23.5c0,1.3-1.1,2.4-2.4,2.4c-1.3,0-2.4-1.1-2.4-2.4"/>
							<circle class="st4" cx="89.8" cy="23.5" r="1.2"/>
						</g>
						<g id="E8pin">
							<path class="st2" d="M87.4,30.7c0-1.3,1.1-2.4,2.4-2.4c1.3,0,2.4,1.1,2.4,2.4"/>
							<path class="st3" d="M92.2,30.7c0,1.3-1.1,2.4-2.4,2.4c-1.3,0-2.4-1.1-2.4-2.4"/>
							<circle class="st4" cx="89.8" cy="30.7" r="1.2"/>
						</g>
						<g id="A9pin">
							<path class="st2" d="M94.6,1.9c0-1.3,1.1-2.4,2.4-2.4c1.3,0,2.4,1.1,2.4,2.4"/>
							<path class="st3" d="M99.4,1.9c0,1.3-1.1,2.4-2.4,2.4c-1.3,0-2.4-1.1-2.4-2.4l0,0"/>
							<circle class="st4" cx="97" cy="1.9" r="1.2"/>
						</g>
						<g id="B9pin">
							<path class="st2" d="M94.6,9.1c0-1.3,1.1-2.4,2.4-2.4c1.3,0,2.4,1.1,2.4,2.4"/>
							<path class="st3" d="M99.4,9.1c0,1.3-1.1,2.4-2.4,2.4c-1.3,0-2.4-1.1-2.4-2.4"/>
							<circle class="st4" cx="97" cy="9.1" r="1.2"/>
						</g>
						<g id="C9pin">
							<path class="st2" d="M94.6,16.3c0-1.3,1.1-2.4,2.4-2.4c1.3,0,2.4,1.1,2.4,2.4"/>
							<path class="st3" d="M99.4,16.3c0,1.3-1.1,2.4-2.4,2.4c-1.3,0-2.4-1.1-2.4-2.4l0,0"/>
							<circle class="st4" cx="97" cy="16.3" r="1.2"/>
						</g>
						<g id="D9pin">
							<path class="st2" d="M94.6,23.5c0-1.3,1.1-2.4,2.4-2.4c1.3,0,2.4,1.1,2.4,2.4"/>
							<path class="st3" d="M99.4,23.5c0,1.3-1.1,2.4-2.4,2.4c-1.3,0-2.4-1.1-2.4-2.4"/>
							<circle class="st4" cx="97" cy="23.5" r="1.2"/>
						</g>
						<g id="E9pin">
							<path class="st2" d="M94.6,30.7c0-1.3,1.1-2.4,2.4-2.4c1.3,0,2.4,1.1,2.4,2.4"/>
							<path class="st3" d="M99.4,30.7c0,1.3-1.1,2.4-2.4,2.4c-1.3,0-2.4-1.1-2.4-2.4"/>
							<circle class="st4" cx="97" cy="30.7" r="1.2"/>
						</g>
						<g id="A10pin">
							<path class="st2" d="M101.8,1.9c0-1.3,1.1-2.4,2.4-2.4c1.3,0,2.4,1.1,2.4,2.4"/>
							<path class="st3" d="M106.6,1.9c0,1.3-1.1,2.4-2.4,2.4s-2.4-1.1-2.4-2.4l0,0"/>
							<circle class="st4" cx="104.2" cy="1.9" r="1.2"/>
						</g>
						<g id="B10pin">
							<path class="st2" d="M101.8,9.1c0-1.3,1.1-2.4,2.4-2.4c1.3,0,2.4,1.1,2.4,2.4"/>
							<path class="st3" d="M106.6,9.1c0,1.3-1.1,2.4-2.4,2.4s-2.4-1.1-2.4-2.4"/>
							<circle class="st4" cx="104.2" cy="9.1" r="1.2"/>
						</g>
						<g id="C10pin">
							<path class="st2" d="M101.8,16.3c0-1.3,1.1-2.4,2.4-2.4c1.3,0,2.4,1.1,2.4,2.4"/>
							<path class="st3" d="M106.6,16.3c0,1.3-1.1,2.4-2.4,2.4s-2.4-1.1-2.4-2.4l0,0"/>
							<circle class="st4" cx="104.2" cy="16.3" r="1.2"/>
						</g>
						<g id="D10pin">
							<path class="st2" d="M101.8,23.5c0-1.3,1.1-2.4,2.4-2.4c1.3,0,2.4,1.1,2.4,2.4"/>
							<path class="st3" d="M106.6,23.5c0,1.3-1.1,2.4-2.4,2.4s-2.4-1.1-2.4-2.4"/>
							<circle class="st4" cx="104.2" cy="23.5" r="1.2"/>
						</g>
						<g id="E10pin">
							<path class="st2" d="M101.8,30.7c0-1.3,1.1-2.4,2.4-2.4c1.3,0,2.4,1.1,2.4,2.4"/>
							<path class="st3" d="M106.6,30.7c0,1.3-1.1,2.4-2.4,2.4s-2.4-1.1-2.4-2.4"/>
							<circle class="st4" cx="104.2" cy="30.7" r="1.2"/>
						</g>
						<g id="A11pin">
							<path class="st2" d="M109,1.9c0-1.3,1.1-2.4,2.4-2.4s2.4,1.1,2.4,2.4"/>
							<path class="st3" d="M113.8,1.9c0,1.3-1.1,2.4-2.4,2.4S109,3.2,109,1.9l0,0"/>
							<circle class="st4" cx="111.4" cy="1.9" r="1.2"/>
						</g>
						<g id="B11pin">
							<path class="st2" d="M109,9.1c0-1.3,1.1-2.4,2.4-2.4s2.4,1.1,2.4,2.4"/>
							<path class="st3" d="M113.8,9.1c0,1.3-1.1,2.4-2.4,2.4s-2.4-1.1-2.4-2.4"/>
							<circle class="st4" cx="111.4" cy="9.1" r="1.2"/>
						</g>
						<g id="C11pin">
							<path class="st2" d="M109,16.3c0-1.3,1.1-2.4,2.4-2.4s2.4,1.1,2.4,2.4"/>
							<path class="st3" d="M113.8,16.3c0,1.3-1.1,2.4-2.4,2.4s-2.4-1.1-2.4-2.4l0,0"/>
							<circle class="st4" cx="111.4" cy="16.3" r="1.2"/>
						</g>
						<g id="D11pin">
							<path class="st2" d="M109,23.5c0-1.3,1.1-2.4,2.4-2.4s2.4,1.1,2.4,2.4"/>
							<path class="st3" d="M113.8,23.5c0,1.3-1.1,2.4-2.4,2.4s-2.4-1.1-2.4-2.4"/>
							<circle class="st4" cx="111.4" cy="23.5" r="1.2"/>
						</g>
						<g id="E11pin">
							<path class="st2" d="M109,30.7c0-1.3,1.1-2.4,2.4-2.4s2.4,1.1,2.4,2.4"/>
							<path class="st3" d="M113.8,30.7c0,1.3-1.1,2.4-2.4,2.4S109,32,109,30.7"/>
							<circle class="st4" cx="111.4" cy="30.7" r="1.2"/>
						</g>
						<g id="A12pin">
							<path class="st2" d="M116.2,1.9c0-1.3,1.1-2.4,2.4-2.4c1.3,0,2.4,1.1,2.4,2.4"/>
							<path class="st3" d="M121,1.9c0,1.3-1.1,2.4-2.4,2.4c-1.3,0-2.4-1.1-2.4-2.4l0,0"/>
							<circle class="st4" cx="118.6" cy="1.9" r="1.2"/>
						</g>
						<g id="B12pin">
							<path class="st2" d="M116.2,9.1c0-1.3,1.1-2.4,2.4-2.4c1.3,0,2.4,1.1,2.4,2.4"/>
							<path class="st3" d="M121,9.1c0,1.3-1.1,2.4-2.4,2.4c-1.3,0-2.4-1.1-2.4-2.4"/>
							<circle class="st4" cx="118.6" cy="9.1" r="1.2"/>
						</g>
						<g id="C12pin">
							<path class="st2" d="M116.2,16.3c0-1.3,1.1-2.4,2.4-2.4c1.3,0,2.4,1.1,2.4,2.4"/>
							<path class="st3" d="M121,16.3c0,1.3-1.1,2.4-2.4,2.4c-1.3,0-2.4-1.1-2.4-2.4l0,0"/>
							<circle class="st4" cx="118.6" cy="16.3" r="1.2"/>
						</g>
						<g id="D12pin">
							<path class="st2" d="M116.2,23.5c0-1.3,1.1-2.4,2.4-2.4c1.3,0,2.4,1.1,2.4,2.4"/>
							<path class="st3" d="M121,23.5c0,1.3-1.1,2.4-2.4,2.4c-1.3,0-2.4-1.1-2.4-2.4"/>
							<circle class="st4" cx="118.6" cy="23.5" r="1.2"/>
						</g>
						<g id="E12pin">
							<path class="st2" d="M116.2,30.7c0-1.3,1.1-2.4,2.4-2.4c1.3,0,2.4,1.1,2.4,2.4"/>
							<path class="st3" d="M121,30.7c0,1.3-1.1,2.4-2.4,2.4c-1.3,0-2.4-1.1-2.4-2.4"/>
							<circle class="st4" cx="118.6" cy="30.7" r="1.2"/>
						</g>
						<g id="A13pin">
							<path class="st2" d="M123.4,1.9c0-1.3,1.1-2.4,2.4-2.4c1.3,0,2.4,1.1,2.4,2.4"/>
							<path class="st3" d="M128.2,1.9c0,1.3-1.1,2.4-2.4,2.4s-2.4-1.1-2.4-2.4l0,0"/>
							<circle class="st4" cx="125.8" cy="1.9" r="1.2"/>
						</g>
						<g id="B13pin">
							<path class="st2" d="M123.4,9.1c0-1.3,1.1-2.4,2.4-2.4c1.3,0,2.4,1.1,2.4,2.4"/>
							<path class="st3" d="M128.2,9.1c0,1.3-1.1,2.4-2.4,2.4s-2.4-1.1-2.4-2.4"/>
							<circle class="st4" cx="125.8" cy="9.1" r="1.2"/>
						</g>
						<g id="C13pin">
							<path class="st2" d="M123.4,16.3c0-1.3,1.1-2.4,2.4-2.4c1.3,0,2.4,1.1,2.4,2.4"/>
							<path class="st3" d="M128.2,16.3c0,1.3-1.1,2.4-2.4,2.4s-2.4-1.1-2.4-2.4l0,0"/>
							<circle class="st4" cx="125.8" cy="16.3" r="1.2"/>
						</g>
						<g id="D13pin">
							<path class="st2" d="M123.4,23.5c0-1.3,1.1-2.4,2.4-2.4c1.3,0,2.4,1.1,2.4,2.4"/>
							<path class="st3" d="M128.2,23.5c0,1.3-1.1,2.4-2.4,2.4s-2.4-1.1-2.4-2.4"/>
							<circle class="st4" cx="125.8" cy="23.5" r="1.2"/>
						</g>
						<g id="E13pin">
							<path class="st2" d="M123.4,30.7c0-1.3,1.1-2.4,2.4-2.4c1.3,0,2.4,1.1,2.4,2.4"/>
							<path class="st3" d="M128.2,30.7c0,1.3-1.1,2.4-2.4,2.4s-2.4-1.1-2.4-2.4"/>
							<circle class="st4" cx="125.8" cy="30.7" r="1.2"/>
						</g>
						<g id="A14pin">
							<path class="st2" d="M130.6,1.9c0-1.3,1.1-2.4,2.4-2.4c1.3,0,2.4,1.1,2.4,2.4"/>
							<path class="st3" d="M135.4,1.9c0,1.3-1.1,2.4-2.4,2.4c-1.3,0-2.4-1.1-2.4-2.4l0,0"/>
							<circle class="st4" cx="133" cy="1.9" r="1.2"/>
						</g>
						<g id="B14pin">
							<path class="st2" d="M130.6,9.1c0-1.3,1.1-2.4,2.4-2.4c1.3,0,2.4,1.1,2.4,2.4"/>
							<path class="st3" d="M135.4,9.1c0,1.3-1.1,2.4-2.4,2.4c-1.3,0-2.4-1.1-2.4-2.4"/>
							<circle class="st4" cx="133" cy="9.1" r="1.2"/>
						</g>
						<g id="C14pin">
							<path class="st2" d="M130.6,16.3c0-1.3,1.1-2.4,2.4-2.4c1.3,0,2.4,1.1,2.4,2.4"/>
							<path class="st3" d="M135.4,16.3c0,1.3-1.1,2.4-2.4,2.4c-1.3,0-2.4-1.1-2.4-2.4l0,0"/>
							<circle class="st4" cx="133" cy="16.3" r="1.2"/>
						</g>
						<g id="D14pin">
							<path class="st2" d="M130.6,23.5c0-1.3,1.1-2.4,2.4-2.4c1.3,0,2.4,1.1,2.4,2.4"/>
							<path class="st3" d="M135.4,23.5c0,1.3-1.1,2.4-2.4,2.4c-1.3,0-2.4-1.1-2.4-2.4"/>
							<circle class="st4" cx="133" cy="23.5" r="1.2"/>
						</g>
						<g id="E14pin">
							<path class="st2" d="M130.6,30.7c0-1.3,1.1-2.4,2.4-2.4c1.3,0,2.4,1.1,2.4,2.4"/>
							<path class="st3" d="M135.4,30.7c0,1.3-1.1,2.4-2.4,2.4c-1.3,0-2.4-1.1-2.4-2.4"/>
							<circle class="st4" cx="133" cy="30.7" r="1.2"/>
						</g>
						<g id="A15pin">
							<path class="st2" d="M137.8,1.9c0-1.3,1.1-2.4,2.4-2.4c1.3,0,2.4,1.1,2.4,2.4"/>
							<path class="st3" d="M142.6,1.9c0,1.3-1.1,2.4-2.4,2.4c-1.3,0-2.4-1.1-2.4-2.4c0,0,0,0,0,0"/>
							<circle class="st4" cx="140.2" cy="1.9" r="1.2"/>
						</g>
						<g id="B15pin">
							<path class="st2" d="M137.8,9.1c0-1.3,1.1-2.4,2.4-2.4c1.3,0,2.4,1.1,2.4,2.4"/>
							<path class="st3" d="M142.6,9.1c0,1.3-1.1,2.4-2.4,2.4c-1.3,0-2.4-1.1-2.4-2.4c0,0,0,0,0,0"/>
							<circle class="st4" cx="140.2" cy="9.1" r="1.2"/>
						</g>
						<g id="C15pin">
							<path class="st2" d="M137.8,16.3c0-1.3,1.1-2.4,2.4-2.4c1.3,0,2.4,1.1,2.4,2.4"/>
							<path class="st3" d="M142.6,16.3c0,1.3-1.1,2.4-2.4,2.4c-1.3,0-2.4-1.1-2.4-2.4c0,0,0,0,0,0"/>
							<circle class="st4" cx="140.2" cy="16.3" r="1.2"/>
						</g>
						<g id="D15pin">
							<path class="st2" d="M137.8,23.5c0-1.3,1.1-2.4,2.4-2.4c1.3,0,2.4,1.1,2.4,2.4"/>
							<path class="st3" d="M142.6,23.5c0,1.3-1.1,2.4-2.4,2.4c-1.3,0-2.4-1.1-2.4-2.4c0,0,0,0,0,0"/>
							<circle class="st4" cx="140.2" cy="23.5" r="1.2"/>
						</g>
						<g id="E15pin">
							<path class="st2" d="M137.8,30.7c0-1.3,1.1-2.4,2.4-2.4c1.3,0,2.4,1.1,2.4,2.4"/>
							<path class="st3" d="M142.6,30.7c0,1.3-1.1,2.4-2.4,2.4c-1.3,0-2.4-1.1-2.4-2.4c0,0,0,0,0,0"/>
							<circle class="st4" cx="140.2" cy="30.7" r="1.2"/>
						</g>
						<g id="A16pin">
							<path class="st2" d="M145,1.9c0-1.3,1.1-2.4,2.4-2.4c1.3,0,2.4,1.1,2.4,2.4"/>
							<path class="st3" d="M149.8,1.9c0,1.3-1.1,2.4-2.4,2.4S145,3.2,145,1.9c0,0,0,0,0,0"/>
							<circle class="st4" cx="147.4" cy="1.9" r="1.2"/>
						</g>
						<g id="B16pin">
							<path class="st2" d="M145,9.1c0-1.3,1.1-2.4,2.4-2.4c1.3,0,2.4,1.1,2.4,2.4"/>
							<path class="st3" d="M149.8,9.1c0,1.3-1.1,2.4-2.4,2.4s-2.4-1.1-2.4-2.4c0,0,0,0,0,0"/>
							<circle class="st4" cx="147.4" cy="9.1" r="1.2"/>
						</g>
						<g id="C16pin">
							<path class="st2" d="M145,16.3c0-1.3,1.1-2.4,2.4-2.4c1.3,0,2.4,1.1,2.4,2.4"/>
							<path class="st3" d="M149.8,16.3c0,1.3-1.1,2.4-2.4,2.4s-2.4-1.1-2.4-2.4c0,0,0,0,0,0"/>
							<circle class="st4" cx="147.4" cy="16.3" r="1.2"/>
						</g>
						<g id="D16pin">
							<path class="st2" d="M145,23.5c0-1.3,1.1-2.4,2.4-2.4c1.3,0,2.4,1.1,2.4,2.4"/>
							<path class="st3" d="M149.8,23.5c0,1.3-1.1,2.4-2.4,2.4c-1.3,0-2.4-1.1-2.4-2.4c0,0,0,0,0,0"/>
							<circle class="st4" cx="147.4" cy="23.5" r="1.2"/>
						</g>
						<g id="E16pin">
							<path class="st2" d="M145,30.7c0-1.3,1.1-2.4,2.4-2.4c1.3,0,2.4,1.1,2.4,2.4"/>
							<path class="st3" d="M149.8,30.7c0,1.3-1.1,2.4-2.4,2.4c-1.3,0-2.4-1.1-2.4-2.4c0,0,0,0,0,0"/>
							<circle class="st4" cx="147.4" cy="30.7" r="1.2"/>
						</g>
						<g id="A17pin">
							<path class="st2" d="M152.2,1.9c0-1.3,1.1-2.4,2.4-2.4c1.3,0,2.4,1.1,2.4,2.4"/>
							<path class="st3" d="M157,1.9c0,1.3-1.1,2.4-2.4,2.4c-1.3,0-2.4-1.1-2.4-2.4c0,0,0,0,0,0"/>
							<circle class="st4" cx="154.6" cy="1.9" r="1.2"/>
						</g>
						<g id="B17pin">
							<path class="st2" d="M152.2,9.1c0-1.3,1.1-2.4,2.4-2.4c1.3,0,2.4,1.1,2.4,2.4"/>
							<path class="st3" d="M157,9.1c0,1.3-1.1,2.4-2.4,2.4c-1.3,0-2.4-1.1-2.4-2.4c0,0,0,0,0,0"/>
							<circle class="st4" cx="154.6" cy="9.1" r="1.2"/>
						</g>
						<g id="C17pin">
							<path class="st2" d="M152.2,16.3c0-1.3,1.1-2.4,2.4-2.4c1.3,0,2.4,1.1,2.4,2.4"/>
							<path class="st3" d="M157,16.3c0,1.3-1.1,2.4-2.4,2.4c-1.3,0-2.4-1.1-2.4-2.4c0,0,0,0,0,0"/>
							<circle class="st4" cx="154.6" cy="16.3" r="1.2"/>
						</g>
						<g id="D17pin">
							<path class="st2" d="M152.2,23.5c0-1.3,1.1-2.4,2.4-2.4c1.3,0,2.4,1.1,2.4,2.4"/>
							<path class="st3" d="M157,23.5c0,1.3-1.1,2.4-2.4,2.4c-1.3,0-2.4-1.1-2.4-2.4c0,0,0,0,0,0"/>
							<circle class="st4" cx="154.6" cy="23.5" r="1.2"/>
						</g>
						<g id="E17pin">
							<path class="st2" d="M152.2,30.7c0-1.3,1.1-2.4,2.4-2.4c1.3,0,2.4,1.1,2.4,2.4"/>
							<path class="st3" d="M157,30.7c0,1.3-1.1,2.4-2.4,2.4c-1.3,0-2.4-1.1-2.4-2.4c0,0,0,0,0,0"/>
							<circle class="st4" cx="154.6" cy="30.7" r="1.2"/>
						</g>
						<g id="F1pin">
							<path class="st2" d="M37,52.3c0-1.3,1.1-2.4,2.4-2.4s2.4,1.1,2.4,2.4"/>
							<path class="st3" d="M41.8,52.3c0,1.3-1.1,2.4-2.4,2.4c-1.3,0-2.4-1.1-2.4-2.4l0,0"/>
							<circle class="st4" cx="39.4" cy="52.3" r="1.2"/>
						</g>
						<g id="G1pin">
							<path class="st2" d="M37,59.5c0-1.3,1.1-2.4,2.4-2.4s2.4,1.1,2.4,2.4"/>
							<path class="st3" d="M41.8,59.5c0,1.3-1.1,2.4-2.4,2.4c-1.3,0-2.4-1.1-2.4-2.4l0,0"/>
							<circle class="st4" cx="39.4" cy="59.5" r="1.2"/>
						</g>
						<g id="H1pin">
							<path class="st2" d="M37,66.7c0-1.3,1.1-2.4,2.4-2.4s2.4,1.1,2.4,2.4"/>
							<path class="st3" d="M41.8,66.7c0,1.3-1.1,2.4-2.4,2.4c-1.3,0-2.4-1.1-2.4-2.4"/>
							<circle class="st4" cx="39.4" cy="66.7" r="1.2"/>
						</g>
						<g id="I1pin">
							<path class="st2" d="M37,73.9c0-1.3,1.1-2.4,2.4-2.4s2.4,1.1,2.4,2.4"/>
							<path class="st3" d="M41.8,73.9c0,1.3-1.1,2.4-2.4,2.4c-1.3,0-2.4-1.1-2.4-2.4l0,0"/>
							<circle class="st4" cx="39.4" cy="73.9" r="1.2"/>
						</g>
						<g id="J1pin">
							<path class="st2" d="M37,81.1c0-1.3,1.1-2.4,2.4-2.4s2.4,1.1,2.4,2.4"/>
							<path class="st3" d="M41.8,81.1c0,1.3-1.1,2.4-2.4,2.4c-1.3,0-2.4-1.1-2.4-2.4l0,0"/>
							<circle class="st4" cx="39.4" cy="81.1" r="1.2"/>
						</g>
						<g id="F2pin">
							<path class="st2" d="M44.2,52.3c0-1.3,1.1-2.4,2.4-2.4c1.3,0,2.4,1.1,2.4,2.4"/>
							<path class="st3" d="M49,52.3c0,1.3-1.1,2.4-2.4,2.4c-1.3,0-2.4-1.1-2.4-2.4c0,0,0,0,0,0"/>
							<circle class="st4" cx="46.6" cy="52.3" r="1.2"/>
						</g>
						<g id="G2pin">
							<path class="st2" d="M44.2,59.5c0-1.3,1.1-2.4,2.4-2.4c1.3,0,2.4,1.1,2.4,2.4"/>
							<path class="st3" d="M49,59.5c0,1.3-1.1,2.4-2.4,2.4c-1.3,0-2.4-1.1-2.4-2.4v0"/>
							<circle class="st4" cx="46.6" cy="59.5" r="1.2"/>
						</g>
						<g id="H2pin">
							<path class="st2" d="M44.2,66.7c0-1.3,1.1-2.4,2.4-2.4c1.3,0,2.4,1.1,2.4,2.4"/>
							<path class="st3" d="M49,66.7c0,1.3-1.1,2.4-2.4,2.4c-1.3,0-2.4-1.1-2.4-2.4c0,0,0,0,0,0"/>
							<circle class="st4" cx="46.6" cy="66.7" r="1.2"/>
						</g>
						<g id="I2pin">
							<path class="st2" d="M44.2,73.9c0-1.3,1.1-2.4,2.4-2.4c1.3,0,2.4,1.1,2.4,2.4"/>
							<path class="st3" d="M49,73.9c0,1.3-1.1,2.4-2.4,2.4c-1.3,0-2.4-1.1-2.4-2.4c0,0,0,0,0,0"/>
							<circle class="st4" cx="46.6" cy="73.9" r="1.2"/>
						</g>
						<g id="J2pin">
							<path class="st2" d="M44.2,81.1c0-1.3,1.1-2.4,2.4-2.4c1.3,0,2.4,1.1,2.4,2.4"/>
							<path class="st3" d="M49,81.1c0,1.3-1.1,2.4-2.4,2.4c-1.3,0-2.4-1.1-2.4-2.4v0"/>
							<circle class="st4" cx="46.6" cy="81.1" r="1.2"/>
						</g>
						<g id="F3pin">
							<path class="st2" d="M51.4,52.3c0-1.3,1.1-2.4,2.4-2.4c1.3,0,2.4,1.1,2.4,2.4"/>
							<path class="st3" d="M56.2,52.3c0,1.3-1.1,2.4-2.4,2.4c-1.3,0-2.4-1.1-2.4-2.4"/>
							<circle class="st4" cx="53.8" cy="52.3" r="1.2"/>
						</g>
						<g id="G3pin">
							<path class="st2" d="M51.4,59.5c0-1.3,1.1-2.4,2.4-2.4c1.3,0,2.4,1.1,2.4,2.4"/>
							<path class="st3" d="M56.2,59.5c0,1.3-1.1,2.4-2.4,2.4c-1.3,0-2.4-1.1-2.4-2.4"/>
							<circle class="st4" cx="53.8" cy="59.5" r="1.2"/>
						</g>
						<g id="H3pin">
							<path class="st2" d="M51.4,66.7c0-1.3,1.1-2.4,2.4-2.4c1.3,0,2.4,1.1,2.4,2.4"/>
							<path class="st3" d="M56.2,66.7c0,1.3-1.1,2.4-2.4,2.4c-1.3,0-2.4-1.1-2.4-2.4l0,0"/>
							<circle class="st4" cx="53.8" cy="66.7" r="1.2"/>
						</g>
						<g id="I3pin">
							<path class="st2" d="M51.4,73.9c0-1.3,1.1-2.4,2.4-2.4c1.3,0,2.4,1.1,2.4,2.4"/>
							<path class="st3" d="M56.2,73.9c0,1.3-1.1,2.4-2.4,2.4c-1.3,0-2.4-1.1-2.4-2.4"/>
							<circle class="st4" cx="53.8" cy="73.9" r="1.2"/>
						</g>
						<g id="J3pin">
							<path class="st2" d="M51.4,81.1c0-1.3,1.1-2.4,2.4-2.4c1.3,0,2.4,1.1,2.4,2.4"/>
							<path class="st3" d="M56.2,81.1c0,1.3-1.1,2.4-2.4,2.4c-1.3,0-2.4-1.1-2.4-2.4l0,0"/>
							<circle class="st4" cx="53.8" cy="81.1" r="1.2"/>
						</g>
						<g id="F4pin">
							<path class="st2" d="M58.6,52.3c0-1.3,1.1-2.4,2.4-2.4c1.3,0,2.4,1.1,2.4,2.4"/>
							<path class="st3" d="M63.4,52.3c0,1.3-1.1,2.4-2.4,2.4c-1.3,0-2.4-1.1-2.4-2.4"/>
							<circle class="st4" cx="61" cy="52.3" r="1.2"/>
						</g>
						<g id="G4pin">
							<path class="st2" d="M58.6,59.5c0-1.3,1.1-2.4,2.4-2.4c1.3,0,2.4,1.1,2.4,2.4"/>
							<path class="st3" d="M63.4,59.5c0,1.3-1.1,2.4-2.4,2.4c-1.3,0-2.4-1.1-2.4-2.4"/>
							<circle class="st4" cx="61" cy="59.5" r="1.2"/>
						</g>
						<g id="H4pin">
							<path class="st2" d="M58.6,66.7c0-1.3,1.1-2.4,2.4-2.4c1.3,0,2.4,1.1,2.4,2.4"/>
							<path class="st3" d="M63.4,66.7c0,1.3-1.1,2.4-2.4,2.4c-1.3,0-2.4-1.1-2.4-2.4l0,0"/>
							<circle class="st4" cx="61" cy="66.7" r="1.2"/>
						</g>
						<g id="I4pin">
							<path class="st2" d="M58.6,73.9c0-1.3,1.1-2.4,2.4-2.4c1.3,0,2.4,1.1,2.4,2.4"/>
							<path class="st3" d="M63.4,73.9c0,1.3-1.1,2.4-2.4,2.4c-1.3,0-2.4-1.1-2.4-2.4"/>
							<circle class="st4" cx="61" cy="73.9" r="1.2"/>
						</g>
						<g id="J4pin">
							<path class="st2" d="M58.6,81.1c0-1.3,1.1-2.4,2.4-2.4c1.3,0,2.4,1.1,2.4,2.4"/>
							<path class="st3" d="M63.4,81.1c0,1.3-1.1,2.4-2.4,2.4c-1.3,0-2.4-1.1-2.4-2.4l0,0"/>
							<circle class="st4" cx="61" cy="81.1" r="1.2"/>
						</g>
						<g id="F5pin">
							<path class="st2" d="M65.8,52.3c0-1.3,1.1-2.4,2.4-2.4c1.3,0,2.4,1.1,2.4,2.4"/>
							<path class="st3" d="M70.6,52.3c0,1.3-1.1,2.4-2.4,2.4c-1.3,0-2.4-1.1-2.4-2.4"/>
							<circle class="st4" cx="68.2" cy="52.3" r="1.2"/>
						</g>
						<g id="G5pin">
							<path class="st2" d="M65.8,59.5c0-1.3,1.1-2.4,2.4-2.4c1.3,0,2.4,1.1,2.4,2.4"/>
							<path class="st3" d="M70.6,59.5c0,1.3-1.1,2.4-2.4,2.4c-1.3,0-2.4-1.1-2.4-2.4"/>
							<circle class="st4" cx="68.2" cy="59.5" r="1.2"/>
						</g>
						<g id="H5pin">
							<path class="st2" d="M65.8,66.7c0-1.3,1.1-2.4,2.4-2.4c1.3,0,2.4,1.1,2.4,2.4"/>
							<path class="st3" d="M70.6,66.7c0,1.3-1.1,2.4-2.4,2.4c-1.3,0-2.4-1.1-2.4-2.4l0,0"/>
							<circle class="st4" cx="68.2" cy="66.7" r="1.2"/>
						</g>
						<g id="I5pin">
							<path class="st2" d="M65.8,73.9c0-1.3,1.1-2.4,2.4-2.4c1.3,0,2.4,1.1,2.4,2.4"/>
							<path class="st3" d="M70.6,73.9c0,1.3-1.1,2.4-2.4,2.4c-1.3,0-2.4-1.1-2.4-2.4"/>
							<circle class="st4" cx="68.2" cy="73.9" r="1.2"/>
						</g>
						<g id="J5pin">
							<path class="st2" d="M65.8,81.1c0-1.3,1.1-2.4,2.4-2.4c1.3,0,2.4,1.1,2.4,2.4"/>
							<path class="st3" d="M70.6,81.1c0,1.3-1.1,2.4-2.4,2.4c-1.3,0-2.4-1.1-2.4-2.4l0,0"/>
							<circle class="st4" cx="68.2" cy="81.1" r="1.2"/>
						</g>
						<g id="F6pin">
							<path class="st2" d="M73,52.3c0-1.3,1.1-2.4,2.4-2.4c1.3,0,2.4,1.1,2.4,2.4"/>
							<path class="st3" d="M77.8,52.3c0,1.3-1.1,2.4-2.4,2.4c-1.3,0-2.4-1.1-2.4-2.4"/>
							<circle class="st4" cx="75.4" cy="52.3" r="1.2"/>
						</g>
						<g id="G6pin">
							<path class="st2" d="M73,59.5c0-1.3,1.1-2.4,2.4-2.4c1.3,0,2.4,1.1,2.4,2.4"/>
							<path class="st3" d="M77.8,59.5c0,1.3-1.1,2.4-2.4,2.4c-1.3,0-2.4-1.1-2.4-2.4"/>
							<circle class="st4" cx="75.4" cy="59.5" r="1.2"/>
						</g>
						<g id="H6pin">
							<path class="st2" d="M73,66.7c0-1.3,1.1-2.4,2.4-2.4c1.3,0,2.4,1.1,2.4,2.4"/>
							<path class="st3" d="M77.8,66.7c0,1.3-1.1,2.4-2.4,2.4c-1.3,0-2.4-1.1-2.4-2.4l0,0"/>
							<circle class="st4" cx="75.4" cy="66.7" r="1.2"/>
						</g>
						<g id="I6pin">
							<path class="st2" d="M73,73.9c0-1.3,1.1-2.4,2.4-2.4c1.3,0,2.4,1.1,2.4,2.4"/>
							<path class="st3" d="M77.8,73.9c0,1.3-1.1,2.4-2.4,2.4c-1.3,0-2.4-1.1-2.4-2.4"/>
							<circle class="st4" cx="75.4" cy="73.9" r="1.2"/>
						</g>
						<g id="J6pin">
							<path class="st2" d="M73,81.1c0-1.3,1.1-2.4,2.4-2.4c1.3,0,2.4,1.1,2.4,2.4"/>
							<path class="st3" d="M77.8,81.1c0,1.3-1.1,2.4-2.4,2.4c-1.3,0-2.4-1.1-2.4-2.4l0,0"/>
							<circle class="st4" cx="75.4" cy="81.1" r="1.2"/>
						</g>
						<g id="F7pin">
							<path class="st2" d="M80.2,52.3c0-1.3,1.1-2.4,2.4-2.4c1.3,0,2.4,1.1,2.4,2.4"/>
							<path class="st3" d="M85,52.3c0,1.3-1.1,2.4-2.4,2.4c-1.3,0-2.4-1.1-2.4-2.4"/>
							<circle class="st4" cx="82.6" cy="52.3" r="1.2"/>
						</g>
						<g id="G7pin">
							<path class="st2" d="M80.2,59.5c0-1.3,1.1-2.4,2.4-2.4c1.3,0,2.4,1.1,2.4,2.4"/>
							<path class="st3" d="M85,59.5c0,1.3-1.1,2.4-2.4,2.4c-1.3,0-2.4-1.1-2.4-2.4"/>
							<circle class="st4" cx="82.6" cy="59.5" r="1.2"/>
						</g>
						<g id="H7pin">
							<path class="st2" d="M80.2,66.7c0-1.3,1.1-2.4,2.4-2.4c1.3,0,2.4,1.1,2.4,2.4"/>
							<path class="st3" d="M85,66.7c0,1.3-1.1,2.4-2.4,2.4c-1.3,0-2.4-1.1-2.4-2.4l0,0"/>
							<circle class="st4" cx="82.6" cy="66.7" r="1.2"/>
						</g>
						<g id="I7pin">
							<path class="st2" d="M80.2,73.9c0-1.3,1.1-2.4,2.4-2.4c1.3,0,2.4,1.1,2.4,2.4"/>
							<path class="st3" d="M85,73.9c0,1.3-1.1,2.4-2.4,2.4c-1.3,0-2.4-1.1-2.4-2.4"/>
							<circle class="st4" cx="82.6" cy="73.9" r="1.2"/>
						</g>
						<g id="J7pin">
							<path class="st2" d="M80.2,81.1c0-1.3,1.1-2.4,2.4-2.4c1.3,0,2.4,1.1,2.4,2.4"/>
							<path class="st3" d="M85,81.1c0,1.3-1.1,2.4-2.4,2.4c-1.3,0-2.4-1.1-2.4-2.4l0,0"/>
							<circle class="st4" cx="82.6" cy="81.1" r="1.2"/>
						</g>
						<g id="F8pin">
							<path class="st2" d="M87.4,52.3c0-1.3,1.1-2.4,2.4-2.4c1.3,0,2.4,1.1,2.4,2.4"/>
							<path class="st3" d="M92.2,52.3c0,1.3-1.1,2.4-2.4,2.4c-1.3,0-2.4-1.1-2.4-2.4"/>
							<circle class="st4" cx="89.8" cy="52.3" r="1.2"/>
						</g>
						<g id="G8pin">
							<path class="st2" d="M87.4,59.5c0-1.3,1.1-2.4,2.4-2.4c1.3,0,2.4,1.1,2.4,2.4"/>
							<path class="st3" d="M92.2,59.5c0,1.3-1.1,2.4-2.4,2.4c-1.3,0-2.4-1.1-2.4-2.4"/>
							<circle class="st4" cx="89.8" cy="59.5" r="1.2"/>
						</g>
						<g id="H8pin">
							<path class="st2" d="M87.4,66.7c0-1.3,1.1-2.4,2.4-2.4c1.3,0,2.4,1.1,2.4,2.4"/>
							<path class="st3" d="M92.2,66.7c0,1.3-1.1,2.4-2.4,2.4c-1.3,0-2.4-1.1-2.4-2.4l0,0"/>
							<circle class="st4" cx="89.8" cy="66.7" r="1.2"/>
						</g>
						<g id="I8pin">
							<path class="st2" d="M87.4,73.9c0-1.3,1.1-2.4,2.4-2.4c1.3,0,2.4,1.1,2.4,2.4"/>
							<path class="st3" d="M92.2,73.9c0,1.3-1.1,2.4-2.4,2.4c-1.3,0-2.4-1.1-2.4-2.4"/>
							<circle class="st4" cx="89.8" cy="73.9" r="1.2"/>
						</g>
						<g id="J8pin">
							<path class="st2" d="M87.4,81.1c0-1.3,1.1-2.4,2.4-2.4c1.3,0,2.4,1.1,2.4,2.4"/>
							<path class="st3" d="M92.2,81.1c0,1.3-1.1,2.4-2.4,2.4c-1.3,0-2.4-1.1-2.4-2.4l0,0"/>
							<circle class="st4" cx="89.8" cy="81.1" r="1.2"/>
						</g>
						<g id="F9pin">
							<path class="st2" d="M94.6,52.3c0-1.3,1.1-2.4,2.4-2.4c1.3,0,2.4,1.1,2.4,2.4"/>
							<path class="st3" d="M99.4,52.3c0,1.3-1.1,2.4-2.4,2.4c-1.3,0-2.4-1.1-2.4-2.4"/>
							<circle class="st4" cx="97" cy="52.3" r="1.2"/>
						</g>
						<g id="G9pin">
							<path class="st2" d="M94.6,59.5c0-1.3,1.1-2.4,2.4-2.4c1.3,0,2.4,1.1,2.4,2.4"/>
							<path class="st3" d="M99.4,59.5c0,1.3-1.1,2.4-2.4,2.4c-1.3,0-2.4-1.1-2.4-2.4"/>
							<circle class="st4" cx="97" cy="59.5" r="1.2"/>
						</g>
						<g id="H9pin">
							<path class="st2" d="M94.6,66.7c0-1.3,1.1-2.4,2.4-2.4c1.3,0,2.4,1.1,2.4,2.4"/>
							<path class="st3" d="M99.4,66.7c0,1.3-1.1,2.4-2.4,2.4c-1.3,0-2.4-1.1-2.4-2.4l0,0"/>
							<circle class="st4" cx="97" cy="66.7" r="1.2"/>
						</g>
						<g id="I9pin">
							<path class="st2" d="M94.6,73.9c0-1.3,1.1-2.4,2.4-2.4c1.3,0,2.4,1.1,2.4,2.4"/>
							<path class="st3" d="M99.4,73.9c0,1.3-1.1,2.4-2.4,2.4c-1.3,0-2.4-1.1-2.4-2.4"/>
							<circle class="st4" cx="97" cy="73.9" r="1.2"/>
						</g>
						<g id="J9pin">
							<path class="st2" d="M94.6,81.1c0-1.3,1.1-2.4,2.4-2.4c1.3,0,2.4,1.1,2.4,2.4"/>
							<path class="st3" d="M99.4,81.1c0,1.3-1.1,2.4-2.4,2.4c-1.3,0-2.4-1.1-2.4-2.4l0,0"/>
							<circle class="st4" cx="97" cy="81.1" r="1.2"/>
						</g>
						<g id="F10pin">
							<path class="st2" d="M101.8,52.3c0-1.3,1.1-2.4,2.4-2.4c1.3,0,2.4,1.1,2.4,2.4"/>
							<path class="st3" d="M106.6,52.3c0,1.3-1.1,2.4-2.4,2.4s-2.4-1.1-2.4-2.4"/>
							<circle class="st4" cx="104.2" cy="52.3" r="1.2"/>
						</g>
						<g id="G10pin">
							<path class="st2" d="M101.8,59.5c0-1.3,1.1-2.4,2.4-2.4c1.3,0,2.4,1.1,2.4,2.4"/>
							<path class="st3" d="M106.6,59.5c0,1.3-1.1,2.4-2.4,2.4s-2.4-1.1-2.4-2.4"/>
							<circle class="st4" cx="104.2" cy="59.5" r="1.2"/>
						</g>
						<g id="H10pin">
							<path class="st2" d="M101.8,66.7c0-1.3,1.1-2.4,2.4-2.4c1.3,0,2.4,1.1,2.4,2.4"/>
							<path class="st3" d="M106.6,66.7c0,1.3-1.1,2.4-2.4,2.4s-2.4-1.1-2.4-2.4l0,0"/>
							<circle class="st4" cx="104.2" cy="66.7" r="1.2"/>
						</g>
						<g id="I10pin">
							<path class="st2" d="M101.8,73.9c0-1.3,1.1-2.4,2.4-2.4c1.3,0,2.4,1.1,2.4,2.4"/>
							<path class="st3" d="M106.6,73.9c0,1.3-1.1,2.4-2.4,2.4s-2.4-1.1-2.4-2.4"/>
							<circle class="st4" cx="104.2" cy="73.9" r="1.2"/>
						</g>
						<g id="J10pin">
							<path class="st2" d="M101.8,81.1c0-1.3,1.1-2.4,2.4-2.4c1.3,0,2.4,1.1,2.4,2.4"/>
							<path class="st3" d="M106.6,81.1c0,1.3-1.1,2.4-2.4,2.4s-2.4-1.1-2.4-2.4l0,0"/>
							<circle class="st4" cx="104.2" cy="81.1" r="1.2"/>
						</g>
						<g id="F11pin">
							<path class="st2" d="M109,52.3c0-1.3,1.1-2.4,2.4-2.4s2.4,1.1,2.4,2.4"/>
							<path class="st3" d="M113.8,52.3c0,1.3-1.1,2.4-2.4,2.4s-2.4-1.1-2.4-2.4"/>
							<circle class="st4" cx="111.4" cy="52.3" r="1.2"/>
						</g>
						<g id="G11pin">
							<path class="st2" d="M109,59.5c0-1.3,1.1-2.4,2.4-2.4s2.4,1.1,2.4,2.4"/>
							<path class="st3" d="M113.8,59.5c0,1.3-1.1,2.4-2.4,2.4s-2.4-1.1-2.4-2.4"/>
							<circle class="st4" cx="111.4" cy="59.5" r="1.2"/>
						</g>
						<g id="H11pin">
							<path class="st2" d="M109,66.7c0-1.3,1.1-2.4,2.4-2.4s2.4,1.1,2.4,2.4"/>
							<path class="st3" d="M113.8,66.7c0,1.3-1.1,2.4-2.4,2.4S109,68,109,66.7l0,0"/>
							<circle class="st4" cx="111.4" cy="66.7" r="1.2"/>
						</g>
						<g id="I11pin">
							<path class="st2" d="M109,73.9c0-1.3,1.1-2.4,2.4-2.4s2.4,1.1,2.4,2.4"/>
							<path class="st3" d="M113.8,73.9c0,1.3-1.1,2.4-2.4,2.4s-2.4-1.1-2.4-2.4"/>
							<circle class="st4" cx="111.4" cy="73.9" r="1.2"/>
						</g>
						<g id="J11pin">
							<path class="st2" d="M109,81.1c0-1.3,1.1-2.4,2.4-2.4s2.4,1.1,2.4,2.4"/>
							<path class="st3" d="M113.8,81.1c0,1.3-1.1,2.4-2.4,2.4s-2.4-1.1-2.4-2.4l0,0"/>
							<circle class="st4" cx="111.4" cy="81.1" r="1.2"/>
						</g>
						<g id="F12pin">
							<path class="st2" d="M116.2,52.3c0-1.3,1.1-2.4,2.4-2.4c1.3,0,2.4,1.1,2.4,2.4"/>
							<path class="st3" d="M121,52.3c0,1.3-1.1,2.4-2.4,2.4c-1.3,0-2.4-1.1-2.4-2.4"/>
							<circle class="st4" cx="118.6" cy="52.3" r="1.2"/>
						</g>
						<g id="G12pin">
							<path class="st2" d="M116.2,59.5c0-1.3,1.1-2.4,2.4-2.4c1.3,0,2.4,1.1,2.4,2.4"/>
							<path class="st3" d="M121,59.5c0,1.3-1.1,2.4-2.4,2.4c-1.3,0-2.4-1.1-2.4-2.4"/>
							<circle class="st4" cx="118.6" cy="59.5" r="1.2"/>
						</g>
						<g id="H12pin">
							<path class="st2" d="M116.2,66.7c0-1.3,1.1-2.4,2.4-2.4c1.3,0,2.4,1.1,2.4,2.4"/>
							<path class="st3" d="M121,66.7c0,1.3-1.1,2.4-2.4,2.4c-1.3,0-2.4-1.1-2.4-2.4l0,0"/>
							<circle class="st4" cx="118.6" cy="66.7" r="1.2"/>
						</g>
						<g id="I12pin">
							<path class="st2" d="M116.2,73.9c0-1.3,1.1-2.4,2.4-2.4c1.3,0,2.4,1.1,2.4,2.4"/>
							<path class="st3" d="M121,73.9c0,1.3-1.1,2.4-2.4,2.4c-1.3,0-2.4-1.1-2.4-2.4"/>
							<circle class="st4" cx="118.6" cy="73.9" r="1.2"/>
						</g>
						<g id="J12pin">
							<path class="st2" d="M116.2,81.1c0-1.3,1.1-2.4,2.4-2.4c1.3,0,2.4,1.1,2.4,2.4"/>
							<path class="st3" d="M121,81.1c0,1.3-1.1,2.4-2.4,2.4c-1.3,0-2.4-1.1-2.4-2.4l0,0"/>
							<circle class="st4" cx="118.6" cy="81.1" r="1.2"/>
						</g>
						<g id="F13pin">
							<path class="st2" d="M123.4,52.3c0-1.3,1.1-2.4,2.4-2.4c1.3,0,2.4,1.1,2.4,2.4"/>
							<path class="st3" d="M128.2,52.3c0,1.3-1.1,2.4-2.4,2.4s-2.4-1.1-2.4-2.4"/>
							<circle class="st4" cx="125.8" cy="52.3" r="1.2"/>
						</g>
						<g id="G13pin">
							<path class="st2" d="M123.4,59.5c0-1.3,1.1-2.4,2.4-2.4c1.3,0,2.4,1.1,2.4,2.4"/>
							<path class="st3" d="M128.2,59.5c0,1.3-1.1,2.4-2.4,2.4s-2.4-1.1-2.4-2.4"/>
							<circle class="st4" cx="125.8" cy="59.5" r="1.2"/>
						</g>
						<g id="H13pin">
							<path class="st2" d="M123.4,66.7c0-1.3,1.1-2.4,2.4-2.4c1.3,0,2.4,1.1,2.4,2.4"/>
							<path class="st3" d="M128.2,66.7c0,1.3-1.1,2.4-2.4,2.4s-2.4-1.1-2.4-2.4l0,0"/>
							<circle class="st4" cx="125.8" cy="66.7" r="1.2"/>
						</g>
						<g id="I13pin">
							<path class="st2" d="M123.4,73.9c0-1.3,1.1-2.4,2.4-2.4c1.3,0,2.4,1.1,2.4,2.4"/>
							<path class="st3" d="M128.2,73.9c0,1.3-1.1,2.4-2.4,2.4s-2.4-1.1-2.4-2.4"/>
							<circle class="st4" cx="125.8" cy="73.9" r="1.2"/>
						</g>
						<g id="J13pin">
							<path class="st2" d="M123.4,81.1c0-1.3,1.1-2.4,2.4-2.4c1.3,0,2.4,1.1,2.4,2.4"/>
							<path class="st3" d="M128.2,81.1c0,1.3-1.1,2.4-2.4,2.4s-2.4-1.1-2.4-2.4l0,0"/>
							<circle class="st4" cx="125.8" cy="81.1" r="1.2"/>
						</g>
						<g id="F14pin">
							<path class="st2" d="M130.6,52.3c0-1.3,1.1-2.4,2.4-2.4c1.3,0,2.4,1.1,2.4,2.4"/>
							<path class="st3" d="M135.4,52.3c0,1.3-1.1,2.4-2.4,2.4c-1.3,0-2.4-1.1-2.4-2.4"/>
							<circle class="st4" cx="133" cy="52.3" r="1.2"/>
						</g>
						<g id="G14pin">
							<path class="st2" d="M130.6,59.5c0-1.3,1.1-2.4,2.4-2.4c1.3,0,2.4,1.1,2.4,2.4"/>
							<path class="st3" d="M135.4,59.5c0,1.3-1.1,2.4-2.4,2.4c-1.3,0-2.4-1.1-2.4-2.4"/>
							<circle class="st4" cx="133" cy="59.5" r="1.2"/>
						</g>
						<g id="H14pin">
							<path class="st2" d="M130.6,66.7c0-1.3,1.1-2.4,2.4-2.4c1.3,0,2.4,1.1,2.4,2.4"/>
							<path class="st3" d="M135.4,66.7c0,1.3-1.1,2.4-2.4,2.4c-1.3,0-2.4-1.1-2.4-2.4l0,0"/>
							<circle class="st4" cx="133" cy="66.7" r="1.2"/>
						</g>
						<g id="I14pin">
							<path class="st2" d="M130.6,73.9c0-1.3,1.1-2.4,2.4-2.4c1.3,0,2.4,1.1,2.4,2.4"/>
							<path class="st3" d="M135.4,73.9c0,1.3-1.1,2.4-2.4,2.4c-1.3,0-2.4-1.1-2.4-2.4"/>
							<circle class="st4" cx="133" cy="73.9" r="1.2"/>
						</g>
						<g id="J14pin">
							<path class="st2" d="M130.6,81.1c0-1.3,1.1-2.4,2.4-2.4c1.3,0,2.4,1.1,2.4,2.4"/>
							<path class="st3" d="M135.4,81.1c0,1.3-1.1,2.4-2.4,2.4c-1.3,0-2.4-1.1-2.4-2.4l0,0"/>
							<circle class="st4" cx="133" cy="81.1" r="1.2"/>
						</g>
						<g id="F15pin">
							<path class="st2" d="M137.8,52.3c0-1.3,1.1-2.4,2.4-2.4c1.3,0,2.4,1.1,2.4,2.4"/>
							<path class="st3" d="M142.6,52.3c0,1.3-1.1,2.4-2.4,2.4c-1.3,0-2.4-1.1-2.4-2.4c0,0,0,0,0,0"/>
							<circle class="st4" cx="140.2" cy="52.3" r="1.2"/>
						</g>
						<g id="G15pin">
							<path class="st2" d="M137.8,59.5c0-1.3,1.1-2.4,2.4-2.4c1.3,0,2.4,1.1,2.4,2.4"/>
							<path class="st3" d="M142.6,59.5c0,1.3-1.1,2.4-2.4,2.4c-1.3,0-2.4-1.1-2.4-2.4c0,0,0,0,0,0"/>
							<circle class="st4" cx="140.2" cy="59.5" r="1.2"/>
						</g>
						<g id="H15pin">
							<path class="st2" d="M137.8,66.7c0-1.3,1.1-2.4,2.4-2.4c1.3,0,2.4,1.1,2.4,2.4"/>
							<path class="st3" d="M142.6,66.7c0,1.3-1.1,2.4-2.4,2.4c-1.3,0-2.4-1.1-2.4-2.4c0,0,0,0,0,0"/>
							<circle class="st4" cx="140.2" cy="66.7" r="1.2"/>
						</g>
						<g id="I15pin">
							<path class="st2" d="M137.8,73.9c0-1.3,1.1-2.4,2.4-2.4c1.3,0,2.4,1.1,2.4,2.4"/>
							<path class="st3" d="M142.6,73.9c0,1.3-1.1,2.4-2.4,2.4c-1.3,0-2.4-1.1-2.4-2.4c0,0,0,0,0,0"/>
							<circle class="st4" cx="140.2" cy="73.9" r="1.2"/>
						</g>
						<g id="J15pin">
							<path class="st2" d="M137.8,81.1c0-1.3,1.1-2.4,2.4-2.4c1.3,0,2.4,1.1,2.4,2.4"/>
							<path class="st3" d="M142.6,81.1c0,1.3-1.1,2.4-2.4,2.4c-1.3,0-2.4-1.1-2.4-2.4c0,0,0,0,0,0"/>
							<circle class="st4" cx="140.2" cy="81.1" r="1.2"/>
						</g>
						<g id="F16pin">
							<path class="st2" d="M145,52.3c0-1.3,1.1-2.4,2.4-2.4c1.3,0,2.4,1.1,2.4,2.4"/>
							<path class="st3" d="M149.8,52.3c0,1.3-1.1,2.4-2.4,2.4c-1.3,0-2.4-1.1-2.4-2.4c0,0,0,0,0,0"/>
							<circle class="st4" cx="147.4" cy="52.3" r="1.2"/>
						</g>
						<g id="G16pin">
							<path class="st2" d="M145,59.5c0-1.3,1.1-2.4,2.4-2.4c1.3,0,2.4,1.1,2.4,2.4"/>
							<path class="st3" d="M149.8,59.5c0,1.3-1.1,2.4-2.4,2.4c-1.3,0-2.4-1.1-2.4-2.4c0,0,0,0,0,0"/>
							<circle class="st4" cx="147.4" cy="59.5" r="1.2"/>
						</g>
						<g id="H16pin">
							<path class="st2" d="M145,66.7c0-1.3,1.1-2.4,2.4-2.4c1.3,0,2.4,1.1,2.4,2.4"/>
							<path class="st3" d="M149.8,66.7c0,1.3-1.1,2.4-2.4,2.4c-1.3,0-2.4-1.1-2.4-2.4c0,0,0,0,0,0"/>
							<circle class="st4" cx="147.4" cy="66.7" r="1.2"/>
						</g>
						<g id="I16pin">
							<path class="st2" d="M145,73.9c0-1.3,1.1-2.4,2.4-2.4c1.3,0,2.4,1.1,2.4,2.4"/>
							<path class="st3" d="M149.8,73.9c0,1.3-1.1,2.4-2.4,2.4s-2.4-1.1-2.4-2.4c0,0,0,0,0,0"/>
							<circle class="st4" cx="147.4" cy="73.9" r="1.2"/>
						</g>
						<g id="J16pin">
							<path class="st2" d="M145,81.1c0-1.3,1.1-2.4,2.4-2.4c1.3,0,2.4,1.1,2.4,2.4"/>
							<path class="st3" d="M149.8,81.1c0,1.3-1.1,2.4-2.4,2.4s-2.4-1.1-2.4-2.4c0,0,0,0,0,0"/>
							<circle class="st4" cx="147.4" cy="81.1" r="1.2"/>
						</g>
						<g id="F17pin">
							<path class="st2" d="M152.2,52.3c0-1.3,1.1-2.4,2.4-2.4c1.3,0,2.4,1.1,2.4,2.4"/>
							<path class="st3" d="M157,52.3c0,1.3-1.1,2.4-2.4,2.4c-1.3,0-2.4-1.1-2.4-2.4c0,0,0,0,0,0"/>
							<circle class="st4" cx="154.6" cy="52.3" r="1.2"/>
						</g>
						<g id="G17pin">
							<path class="st2" d="M152.2,59.5c0-1.3,1.1-2.4,2.4-2.4c1.3,0,2.4,1.1,2.4,2.4"/>
							<path class="st3" d="M157,59.5c0,1.3-1.1,2.4-2.4,2.4c-1.3,0-2.4-1.1-2.4-2.4c0,0,0,0,0,0"/>
							<circle class="st4" cx="154.6" cy="59.5" r="1.2"/>
						</g>
						<g id="H17pin">
							<path class="st2" d="M152.2,66.7c0-1.3,1.1-2.4,2.4-2.4c1.3,0,2.4,1.1,2.4,2.4"/>
							<path class="st3" d="M157,66.7c0,1.3-1.1,2.4-2.4,2.4c-1.3,0-2.4-1.1-2.4-2.4c0,0,0,0,0,0"/>
							<circle class="st4" cx="154.6" cy="66.7" r="1.2"/>
						</g>
						<g id="I17pin">
							<path class="st2" d="M152.2,73.9c0-1.3,1.1-2.4,2.4-2.4c1.3,0,2.4,1.1,2.4,2.4"/>
							<path class="st3" d="M157,73.9c0,1.3-1.1,2.4-2.4,2.4c-1.3,0-2.4-1.1-2.4-2.4c0,0,0,0,0,0"/>
							<circle class="st4" cx="154.6" cy="73.9" r="1.2"/>
						</g>
						<g id="J17pin">
							<path class="st2" d="M152.2,81.1c0-1.3,1.1-2.4,2.4-2.4c1.3,0,2.4,1.1,2.4,2.4"/>
							<path class="st3" d="M157,81.1c0,1.3-1.1,2.4-2.4,2.4c-1.3,0-2.4-1.1-2.4-2.4c0,0,0,0,0,0"/>
							<circle class="st4" cx="154.6" cy="81.1" r="1.2"/>
						</g>
					</g>
				</g>
			</g>
		</g>
	</g>
</g>
<path class="st5" d="M28.8,92.9l0,65.8"/>
<path class="st5" d="M28.8,66.2v-1"/>
<g>
	<g transform="translate(14.4904,36.5314)">
		<g transform="matrix(0,1,-1,0,0,0)">
			<g id="breadboard">
				
					<rect id="connector0pin" x="27.9" y="-15.4" transform="matrix(2.535182e-06 1 -1 2.535182e-06 13.277 -43.3158)" class="st6" width="0.7" height="0.7"/>
				
					<rect id="connector1pin" x="57.4" y="-15.4" transform="matrix(2.535182e-06 1 -1 2.535182e-06 42.7371 -72.776)" class="st6" width="0.7" height="0.7"/>
				<line id="connector0leg" class="st7" x1="28.6" y1="-14.3" x2="29.7" y2="-14.3"/>
				<line id="connector1leg" class="st7" x1="57.4" y1="-14.3" x2="56.4" y2="-14.3"/>
				<path class="st8" d="M28.6-14.3H57"/>
				<path id="body" class="st9" d="M37.8-17.5c-0.4-0.2-1-0.3-1.4-0.3h-2c-0.4,0-0.7,0.3-0.7,0.7v5.4c0,0.4,0.3,0.7,0.7,0.7h2
					c0.4,0,1-0.1,1.4-0.3l0.1,0c0.4-0.2,1-0.3,1.4-0.3h7.2c0.4,0,1,0.1,1.4,0.3l0.1,0c0.4,0.2,1,0.3,1.4,0.3h2
					c0.4,0,0.7-0.3,0.7-0.7l0-5.4c0-0.4-0.3-0.7-0.7-0.7h-2c-0.4,0-1,0.1-1.4,0.3l-0.1,0c-0.4,0.2-1,0.3-1.4,0.3h-7.2
					C38.9-17.1,38.3-17.3,37.8-17.5L37.8-17.5z"/>
				
					<rect id="gold_band" x="46.5" y="-14.7" transform="matrix(2.535182e-06 1 -1 2.535182e-06 35.5739 -64.3196)" class="st10" width="6.8" height="0.7"/>
				
					<rect id="band_rd_multiplier" x="41.9" y="-15.3" transform="matrix(2.535182e-06 1 -1 2.535182e-06 30.3049 -59.0435)" class="st11" width="5.5" height="1.9"/>
				
					<rect id="band_2_nd" x="38.2" y="-15.3" transform="matrix(2.535182e-06 1 -1 2.535182e-06 26.6049 -55.3435)" width="5.5" height="1.9"/>
				<path id="band_1_st" class="st12" d="M38.2-17.3c-0.1,0-0.2-0.1-0.3-0.1l-0.1,0c-0.4-0.2-1-0.3-1.4-0.3h-0.1v6.8h0.1
					c0.4,0,1-0.1,1.4-0.3l0.1,0c0.1,0,0.2-0.1,0.3-0.1V-17.3z"/>
				<path id="Shadow" class="st13" d="M51.3-13.9L51.3-13.9c0,0.4-0.1,0.7-0.3,0.7h-1.9c-0.4,0-1-0.1-1.3-0.1l-0.1,0
					c-0.3-0.1-0.9-0.1-1.3-0.1h-6.9c-0.4,0-1,0.1-1.3,0.1l-0.1,0c-0.3,0.1-0.9,0.1-1.3,0.1h-0.3h-1H35c-0.4,0-0.7,0.3-0.7,0.6v0.2
					v0.2v0.2c0,0.4,0.3,0.6,0.7,0.6h1.6c0.4,0,1-0.1,1.3-0.3l0.1,0c0.3-0.1,1-0.3,1.3-0.3h6.9c0.4,0,1,0.1,1.3,0.3l0.1,0
					c0.3,0.1,0.9,0.3,1.3,0.3h2.2c0.4,0,0.7-0.3,0.7-0.6l0-0.5v-1v-1.8C51.7-15.2,51.3-14.9,51.3-13.9z"/>
				
					<rect id="ShadowExtra" x="48.4" y="-13.3" transform="matrix(2.535182e-06 1 -1 2.535182e-06 37.0423 -62.8512)" class="st14" width="3.2" height="0.7"/>
				<path id="ReflexRight" class="st15" d="M47.3-16.9c0.2,0,0.5-0.1,0.7-0.2c0.2-0.1,0.6-0.1,1-0.1h1.5c0.2,0,0.2,0.2,0.2,0.4
					c0,0.1,0,0.4-0.2,0.4h-3.1c-0.1,0-0.2-0.1-0.2-0.2C47.1-16.7,47.2-16.9,47.3-16.9z"/>
				<circle id="ReflexLeft" class="st16" cx="34.6" cy="-16.8" r="0.4"/>
				
					<rect id="Reflex_gold" x="49.1" y="-17.1" transform="matrix(2.535182e-06 1 -1 2.535182e-06 33.2159 -66.6776)" class="st17" width="1.6" height="0.7"/>
				
					<rect id="Reflex_extra" x="49.6" y="-17.2" transform="matrix(2.535182e-06 1 -1 2.535182e-06 33.1403 -66.7532)" class="st18" width="0.7" height="0.7"/>
			</g>
		</g>
	</g>
</g>
<g>
	<line class="st19" x1="199.6" y1="124" x2="108" y2="122.8"/>
	<line class="st20" x1="199.6" y1="124" x2="108" y2="122.8"/>
</g>
<g>
	<line class="st21" x1="200" y1="116" x2="108" y2="115.6"/>
	<line class="st22" x1="200" y1="116" x2="108" y2="115.6"/>
</g>
<g>
	<line class="st21" x1="200.4" y1="108.4" x2="108" y2="108.4"/>
	<line class="st22" x1="200.4" y1="108.4" x2="108" y2="108.4"/>
</g>
<g>
	<path class="st21" d="M199.2,96c0,0-5.3-29.6-91.2-30.8"/>
	<path class="st22" d="M199.2,96c0,0-5.3-29.6-91.2-30.8"/>
</g>
<g>
	<path class="st23" d="M199.2,133.6c0,0-63.5,53.9-163.2,25.2"/>
	<path class="st24" d="M199.2,133.6c0,0-63.5,53.9-163.2,25.2"/>
</g>
<g id="Page-1">
	<g id="sergeybe-Rotary-Dialer" transform="translate(1.000000, 1.000000)">
		<path id="path7666-copy" class="st25" d="M389.7,109.8c0,55.2-44.8,100-100,100c-55.2,0-100-44.8-100-100s44.8-100,100-100
			C345,9.8,389.7,54.5,389.7,109.8z"/>
		<path id="path7662" class="st26" d="M365.5,109.8c0,41.8-33.9,75.8-75.8,75.8S214,151.6,214,109.8c0-41.8,33.9-75.8,75.8-75.8
			S365.5,67.9,365.5,109.8z"/>
		
			<linearGradient id="path7664_1_" gradientUnits="userSpaceOnUse" x1="-284.2396" y1="712.7227" x2="-284.2396" y2="712.5835" gradientTransform="matrix(600 0 0 -600.04 170833.4844 427761.0312)">
			<stop  offset="0" style="stop-color:#E7E7E7"/>
			<stop  offset="1" style="stop-color:#4C564D"/>
		</linearGradient>
		<path id="path7664" class="st27" d="M365.5,109.8c0,41.8-33.9,75.8-75.8,75.8S214,151.6,214,109.8c0-41.8,33.9-75.8,75.8-75.8
			S365.5,67.9,365.5,109.8z"/>
		<path id="path7666" class="st28" d="M333.7,109.8c0,24.3-19.7,43.9-43.9,43.9c-24.3,0-43.9-19.7-43.9-43.9s19.7-43.9,43.9-43.9
			C314,65.8,333.7,85.5,333.7,109.8z"/>
		<path id="path7668" class="st29" d="M303.1,169.6c0,7.4-6,13.4-13.4,13.4s-13.4-6-13.4-13.4s6-13.4,13.4-13.4
			S303.1,162.2,303.1,169.6z"/>
		<path id="path7672" class="st29" d="M275.1,162.5c0,7.4-6,13.4-13.4,13.4s-13.4-6-13.4-13.4s6-13.4,13.4-13.4
			S275.1,155.1,275.1,162.5z"/>
		<path id="path7676" class="st29" d="M253.6,143.3c0,7.4-6,13.4-13.4,13.4c-7.4,0-13.4-6-13.4-13.4c0-7.4,6-13.4,13.4-13.4
			C247.6,129.9,253.6,135.9,253.6,143.3z"/>
		<path id="path7680" class="st29" d="M243.5,116.1c0,7.4-6,13.4-13.4,13.4c-7.4,0-13.4-6-13.4-13.4c0-7.4,6-13.4,13.4-13.4
			C237.5,102.7,243.5,108.7,243.5,116.1z"/>
		<path id="path7684" class="st29" d="M247.6,87.3c0,7.4-6,13.4-13.4,13.4c-7.4,0-13.4-6-13.4-13.4c0-7.4,6-13.4,13.4-13.4
			C241.6,73.9,247.6,79.9,247.6,87.3z"/>
		<path id="path7688" class="st29" d="M264.7,63.8c0,7.4-6,13.4-13.4,13.4c-7.4,0-13.4-6-13.4-13.4s6-13.4,13.4-13.4
			C258.7,50.4,264.7,56.4,264.7,63.8z"/>
		<path id="path7692" class="st29" d="M290.7,51.2c0,7.4-6,13.4-13.4,13.4c-7.4,0-13.4-6-13.4-13.4s6-13.4,13.4-13.4
			C284.7,37.8,290.7,43.8,290.7,51.2z"/>
		<path id="path7696" class="st29" d="M319.5,52.2c0,7.4-6,13.4-13.4,13.4c-7.4,0-13.4-6-13.4-13.4s6-13.4,13.4-13.4
			C313.5,38.8,319.5,44.8,319.5,52.2z"/>
		<path id="path7700" class="st29" d="M344.8,66.8c0,7.4-6,13.4-13.4,13.4s-13.4-6-13.4-13.4s6-13.4,13.4-13.4
			S344.8,59.4,344.8,66.8z"/>
		<path id="path7704" class="st29" d="M359.9,91.3c0,7.4-6,13.4-13.4,13.4s-13.4-6-13.4-13.4c0-7.4,6-13.4,13.4-13.4
			S359.9,83.9,359.9,91.3z"/>
	</g>
	<text transform="matrix(1 0 0 1 365.8489 84.2329)" class="st30 st31 st32">1</text>
	<text transform="matrix(1 0 0 1 345.6468 54.4351)" class="st30 st31 st32">2</text>
	<text transform="matrix(1 0 0 1 311.304 35.2427)" class="st30 st31 st32">3</text>
	<text transform="matrix(1 0 0 1 268.1219 32.7183)" class="st30 st31 st32">4</text>
	<text transform="matrix(1 0 0 1 231.0003 50.1421)" class="st30 st31 st32">5</text>
	<text transform="matrix(1 0 0 1 206.2532 84.2329)" class="st30 st31 st32">6</text>
	<text transform="matrix(1 0 0 1 200.95 126.9097)" class="st30 st31 st32">7</text>
	<text transform="matrix(1 0 0 1 215.3441 165.7983)" class="st30 st31 st32">8</text>
	<text transform="matrix(1 0 0 1 244.3841 193.0718)" class="st30 st31 st32">9</text>
	<text transform="matrix(1 0 0 1 284.0306 203.9292)" class="st30 st31 st32">0</text>
	<polygon id="Triangle" class="st33" points="290.9,176.7 288.8,170.8 286.7,164.5 295,164.5 	"/>
	<polygon id="Triangle-Copy" class="st33" points="259.4,168.7 260.7,162.7 262.1,156.2 269.3,160.5 	"/>
	<polygon id="Triangle-Copy-2" class="st33" points="236.1,147.7 239.8,142.8 243.8,137.5 248.5,144.4 	"/>
	<polygon id="Triangle-Copy-3" class="st33" points="225.2,117.4 230.9,115.1 237.1,112.6 237.5,120.9 	"/>
	<polygon id="Triangle-Copy-4" class="st33" points="229.9,85.5 236,86.4 242.6,87.3 238.8,94.7 	"/>
	<polygon id="Triangle-Copy-5" class="st33" points="247.9,60.5 253.5,63.2 259.4,66.1 253.6,72 	"/>
	<polygon id="Triangle-Copy-6" class="st33" points="276.7,46.3 280.1,51.4 283.8,56.9 275.8,59.1 	"/>
	<polygon id="Triangle-Copy-7" class="st33" points="308.8,47.3 309.3,53.5 309.7,60.1 301.7,57.9 	"/>
	<polygon id="Triangle-Copy-8" class="st33" points="336.6,63.5 333.8,69.1 330.9,75.1 325,69.2 	"/>
	<polygon id="Triangle-Copy-9" class="st33" points="352.9,89.3 348.9,93.9 344.5,99 340.3,91.7 	"/>
</g>
<path class="st34" d="M90,32.8H39.6v122.4H90V32.8 M88.7,36.4c0,1.3-1,2.3-2.3,2.3c-1.3,0-2.3-1-2.3-2.3l0,0c0-1.3,1-2.3,2.3-2.3
	C87.7,34,88.7,35.1,88.7,36.4L88.7,36.4z M45.5,36.4c0,1.3-1,2.3-2.3,2.3c-1.3,0-2.3-1-2.3-2.3l0,0c0-1.3,1-2.3,2.3-2.3
	C44.5,34,45.5,35.1,45.5,36.4z M45.5,151.6c0,1.3-1,2.3-2.3,2.3c-1.3,0-2.3-1-2.3-2.3s1-2.3,2.3-2.3
	C44.5,149.2,45.5,150.3,45.5,151.6z M88.7,151.6c0,1.3-1,2.3-2.3,2.3c-1.3,0-2.3-1-2.3-2.3l0,0c0-1.3,1-2.3,2.3-2.3
	C87.7,149.2,88.7,150.3,88.7,151.6L88.7,151.6z M87.7,144.4c0,0.7-0.6,1.3-1.3,1.3c-0.7,0-1.3-0.6-1.3-1.3s0.6-1.3,1.3-1.3
	C87.1,143.1,87.7,143.7,87.7,144.4z M87.7,137.2c0,0.7-0.6,1.3-1.3,1.3c-0.7,0-1.3-0.6-1.3-1.3s0.6-1.3,1.3-1.3
	C87.1,135.9,87.7,136.5,87.7,137.2z M87.7,130c0,0.7-0.6,1.3-1.3,1.3c-0.7,0-1.3-0.6-1.3-1.3s0.6-1.3,1.3-1.3
	C87.1,128.7,87.7,129.3,87.7,130z M87.7,122.8c0,0.7-0.6,1.3-1.3,1.3c-0.7,0-1.3-0.6-1.3-1.3c0-0.7,0.6-1.3,1.3-1.3
	C87.1,121.5,87.7,122.1,87.7,122.8z M87.7,115.6c0,0.7-0.6,1.3-1.3,1.3c-0.7,0-1.3-0.6-1.3-1.3c0-0.7,0.6-1.3,1.3-1.3
	C87.1,114.3,87.7,114.9,87.7,115.6z M87.7,108.4c0,0.7-0.6,1.3-1.3,1.3c-0.7,0-1.3-0.6-1.3-1.3l0,0c0-0.7,0.6-1.3,1.3-1.3
	C87.1,107.1,87.7,107.7,87.7,108.4z M87.7,101.2c0,0.7-0.6,1.3-1.3,1.3c-0.7,0-1.3-0.6-1.3-1.3l0,0c0-0.7,0.6-1.3,1.3-1.3
	C87.1,99.9,87.7,100.5,87.7,101.2z M87.7,94c0,0.7-0.6,1.3-1.3,1.3c-0.7,0-1.3-0.6-1.3-1.3c0-0.7,0.6-1.3,1.3-1.3
	C87.1,92.7,87.7,93.3,87.7,94L87.7,94z M87.7,86.8c0,0.7-0.6,1.3-1.3,1.3c-0.7,0-1.3-0.6-1.3-1.3c0-0.7,0.6-1.3,1.3-1.3
	C87.1,85.5,87.7,86.1,87.7,86.8z M87.7,79.6c0,0.7-0.6,1.3-1.3,1.3c-0.7,0-1.3-0.6-1.3-1.3c0-0.7,0.6-1.3,1.3-1.3
	C87.1,78.3,87.7,78.9,87.7,79.6z M87.7,72.4c0,0.7-0.6,1.3-1.3,1.3c-0.7,0-1.3-0.6-1.3-1.3l0,0c0-0.7,0.6-1.3,1.3-1.3
	C87.1,71.1,87.7,71.7,87.7,72.4z M87.7,65.2c0,0.7-0.6,1.3-1.3,1.3c-0.7,0-1.3-0.6-1.3-1.3c0-0.7,0.6-1.3,1.3-1.3
	C87.1,63.9,87.7,64.5,87.7,65.2z M87.7,58c0,0.7-0.6,1.3-1.3,1.3c-0.7,0-1.3-0.6-1.3-1.3c0-0.7,0.6-1.3,1.3-1.3
	C87.1,56.7,87.7,57.3,87.7,58z M87.7,50.8c0,0.7-0.6,1.3-1.3,1.3c-0.7,0-1.3-0.6-1.3-1.3s0.6-1.3,1.3-1.3
	C87.1,49.5,87.7,50.1,87.7,50.8z M87.7,43.6c0,0.7-0.6,1.3-1.3,1.3c-0.7,0-1.3-0.6-1.3-1.3s0.6-1.3,1.3-1.3
	C87.1,42.3,87.7,42.9,87.7,43.6z M44.5,144.4c0,0.7-0.6,1.3-1.3,1.3c-0.7,0-1.3-0.6-1.3-1.3l0,0c0-0.7,0.6-1.3,1.3-1.3
	C43.9,143.1,44.5,143.7,44.5,144.4L44.5,144.4z M44.5,137.2c0,0.7-0.6,1.3-1.3,1.3c-0.7,0-1.3-0.6-1.3-1.3l0,0
	c0-0.7,0.6-1.3,1.3-1.3C43.9,135.9,44.5,136.5,44.5,137.2L44.5,137.2z M44.5,130c0,0.7-0.6,1.3-1.3,1.3c-0.7,0-1.3-0.6-1.3-1.3l0,0
	c0-0.7,0.6-1.3,1.3-1.3C43.9,128.7,44.5,129.3,44.5,130L44.5,130z M44.5,122.8c0,0.7-0.6,1.3-1.3,1.3c-0.7,0-1.3-0.6-1.3-1.3l0,0
	c0-0.7,0.6-1.3,1.3-1.3C43.9,121.5,44.5,122.1,44.5,122.8L44.5,122.8z M44.5,115.6c0,0.7-0.6,1.3-1.3,1.3c-0.7,0-1.3-0.6-1.3-1.3
	l0,0c0-0.7,0.6-1.3,1.3-1.3C43.9,114.3,44.5,114.9,44.5,115.6L44.5,115.6z M44.5,108.4c0,0.7-0.6,1.3-1.3,1.3
	c-0.7,0-1.3-0.6-1.3-1.3l0,0c0-0.7,0.6-1.3,1.3-1.3C43.9,107.1,44.5,107.7,44.5,108.4L44.5,108.4z M44.5,101.2
	c0,0.7-0.6,1.3-1.3,1.3c-0.7,0-1.3-0.6-1.3-1.3l0,0c0-0.7,0.6-1.3,1.3-1.3C43.9,99.9,44.5,100.5,44.5,101.2L44.5,101.2z M44.5,94
	c0,0.7-0.6,1.3-1.3,1.3c-0.7,0-1.3-0.6-1.3-1.3l0,0c0-0.7,0.6-1.3,1.3-1.3C43.9,92.7,44.5,93.3,44.5,94L44.5,94z M44.5,86.8
	c0,0.7-0.6,1.3-1.3,1.3c-0.7,0-1.3-0.6-1.3-1.3l0,0c0-0.7,0.6-1.3,1.3-1.3C43.9,85.5,44.5,86.1,44.5,86.8L44.5,86.8z M44.5,79.6
	c0,0.7-0.6,1.3-1.3,1.3c-0.7,0-1.3-0.6-1.3-1.3l0,0c0-0.7,0.6-1.3,1.3-1.3C43.9,78.3,44.5,78.9,44.5,79.6L44.5,79.6z M44.5,72.4
	c0,0.7-0.6,1.3-1.3,1.3c-0.7,0-1.3-0.6-1.3-1.3l0,0c0-0.7,0.6-1.3,1.3-1.3C43.9,71.1,44.5,71.7,44.5,72.4L44.5,72.4z M44.5,65.2
	c0,0.7-0.6,1.3-1.3,1.3c-0.7,0-1.3-0.6-1.3-1.3l0,0c0-0.7,0.6-1.3,1.3-1.3C43.9,63.9,44.5,64.5,44.5,65.2L44.5,65.2z M44.5,58
	c0,0.7-0.6,1.3-1.3,1.3c-0.7,0-1.3-0.6-1.3-1.3l0,0c0-0.7,0.6-1.3,1.3-1.3C43.9,56.7,44.5,57.3,44.5,58L44.5,58z M44.5,50.8
	c0,0.7-0.6,1.3-1.3,1.3c-0.7,0-1.3-0.6-1.3-1.3l0,0c0-0.7,0.6-1.3,1.3-1.3C43.9,49.5,44.5,50.1,44.5,50.8L44.5,50.8z M44.5,43.6
	c0,0.7-0.6,1.3-1.3,1.3c-0.7,0-1.3-0.6-1.3-1.3l0,0c0-0.7,0.6-1.3,1.3-1.3C43.9,42.3,44.5,42.9,44.5,43.6L44.5,43.6z"/>
<rect x="79.3" y="119.8" class="st30" width="10.7" height="6.1"/>
<text transform="matrix(3.061617e-16 1 -1 3.061617e-16 80.7805 141.4695)" class="st30 st35 st36">TX1</text>
<text transform="matrix(3.061617e-16 1 -1 3.061617e-16 80.7805 134.2704)" class="st30 st35 st36">RX0</text>
<text transform="matrix(3.061617e-16 1 -1 3.061617e-16 80.7805 127.1414)" class="st30 st35 st36">RST</text>
<text transform="matrix(3.061617e-16 1 -1 3.061617e-16 80.7805 119.9421)" class="st37 st35 st36">GND</text>
<text transform="matrix(3.061617e-16 1 -1 3.061617e-16 80.7805 113.6062)" class="st30 st35 st36">D2</text>
<text transform="matrix(3.061617e-16 1 -1 3.061617e-16 80.7805 106.5497)" class="st30 st35 st36">D3</text>
<text transform="matrix(3.061617e-16 1 -1 3.061617e-16 80.7805 99.2781)" class="st30 st35 st36">D4</text>
<text transform="matrix(3.061617e-16 1 -1 3.061617e-16 80.7805 92.2215)" class="st30 st35 st36">D5</text>
<text transform="matrix(3.061617e-16 1 -1 3.061617e-16 80.7805 84.8778)" class="st30 st35 st36">D6</text>
<text transform="matrix(3.061617e-16 1 -1 3.061617e-16 80.7805 77.6062)" class="st30 st35 st36">D7</text>
<text transform="matrix(3.061617e-16 1 -1 3.061617e-16 80.7805 70.5497)" class="st30 st35 st36">D8</text>
<text transform="matrix(3.061617e-16 1 -1 3.061617e-16 80.7805 63.2782)" class="st30 st35 st36">D9</text>
<text transform="matrix(3.061617e-16 1 -1 3.061617e-16 80.7805 54.9247)" class="st30 st35 st36">D10</text>
<text transform="matrix(3.061617e-16 1 -1 3.061617e-16 80.7805 47.7976)" class="st30 st35 st36">D11</text>
<text transform="matrix(3.061617e-16 1 -1 3.061617e-16 80.7805 41.5965)" class="st30 st35 st36">D12</text>
<text transform="matrix(3.061617e-16 1 -1 3.061617e-16 46.5091 41.5965)" class="st30 st35 st36">D13</text>
<text transform="matrix(3.061617e-16 1 -1 3.061617e-16 46.5091 47.87)" class="st30 st35 st36">3V3</text>
<text transform="matrix(3.061617e-16 1 -1 3.061617e-16 46.5091 54.9969)" class="st30 st35 st36">REF</text>
<text transform="matrix(3.061617e-16 1 -1 3.061617e-16 46.5091 63.2058)" class="st30 st35 st36">A0</text>
<text transform="matrix(3.061617e-16 1 -1 3.061617e-16 46.5091 70.4773)" class="st30 st35 st36">A1</text>
<text transform="matrix(3.061617e-16 1 -1 3.061617e-16 46.5091 77.6062)" class="st30 st35 st36">A2</text>
<text transform="matrix(3.061617e-16 1 -1 3.061617e-16 46.5091 84.8055)" class="st30 st35 st36">A3</text>
<text transform="matrix(3.061617e-16 1 -1 3.061617e-16 46.5091 91.9344)" class="st30 st35 st36">A4</text>
<text transform="matrix(3.061617e-16 1 -1 3.061617e-16 46.5091 99.2058)" class="st30 st35 st36">A5</text>
<text transform="matrix(3.061617e-16 1 -1 3.061617e-16 46.5091 106.4051)" class="st30 st35 st36">A6</text>
<text transform="matrix(3.061617e-16 1 -1 3.061617e-16 46.5091 113.534)" class="st30 st35 st36">A7</text>
<text transform="matrix(3.061617e-16 1 -1 3.061617e-16 46.5091 120.7332)" class="st30 st35 st36">Vusb</text>
<text transform="matrix(3.061617e-16 1 -1 3.061617e-16 46.5091 127.9344)" class="st30 st35 st36">RST</text>
<rect x="39.6" y="134.3" class="st30" width="10.7" height="6.1"/>
<text transform="matrix(3.061617e-16 1 -1 3.061617e-16 46.5091 134.3503)" class="st37 st35 st36">GND</text>
<text transform="matrix(3.061617e-16 1 -1 3.061617e-16 46.5091 142.4774)" class="st30 st35 st36">VIN</text>
<text transform="matrix(1 0 0 1 62.0123 71.9001)" class="st30 st35 st36">RST</text>
<text transform="matrix(3.061617e-16 1 -1 3.061617e-16 82.9407 62.4851)" class="st30 st35 st38">*</text>
<text transform="matrix(3.061617e-16 1 -1 3.061617e-16 82.9407 55.2137)" class="st30 st35 st38">*</text>
<text transform="matrix(3.061617e-16 1 -1 3.061617e-16 82.9407 48.0848)" class="st30 st35 st38">*</text>
<text transform="matrix(3.061617e-16 1 -1 3.061617e-16 82.9407 84.0848)" class="st30 st35 st38">*</text>
<text transform="matrix(3.061617e-16 1 -1 3.061617e-16 82.9407 91.3581)" class="st30 st35 st38">*</text>
<text transform="matrix(3.061617e-16 1 -1 3.061617e-16 82.9407 105.6863)" class="st30 st35 st38">*</text>
<circle id="connector16pin" class="st39" cx="86.4" cy="144.4" r="1.9"/>
<rect x="84.5" y="142.5" class="st39" width="3.8" height="3.8"/>
<circle id="connector17pin" class="st39" cx="86.4" cy="137.2" r="1.9"/>
<circle id="connector18pin" class="st39" cx="86.4" cy="130" r="1.9"/>
<circle id="connector19pin" class="st39" cx="86.4" cy="122.8" r="1.9"/>
<circle id="connector20pin" class="st39" cx="86.4" cy="115.6" r="1.9"/>
<circle id="connector21pin" class="st39" cx="86.4" cy="108.4" r="1.9"/>
<circle id="connector22pin" class="st39" cx="86.4" cy="101.2" r="1.9"/>
<circle id="connector23pin" class="st39" cx="86.4" cy="94" r="1.9"/>
<circle id="connector24pin" class="st39" cx="86.4" cy="86.8" r="1.9"/>
<circle id="connector25pin" class="st39" cx="86.4" cy="79.6" r="1.9"/>
<circle id="connector26pin" class="st39" cx="86.4" cy="72.4" r="1.9"/>
<circle id="connector27pin" class="st39" cx="86.4" cy="65.2" r="1.9"/>
<circle id="connector28pin" class="st39" cx="86.4" cy="58" r="1.9"/>
<circle id="connector29pin" class="st39" cx="86.4" cy="50.8" r="1.9"/>
<circle id="connector30pin" class="st39" cx="86.4" cy="43.6" r="1.9"/>
<circle id="connector31pin" class="st39" cx="43.2" cy="144.4" r="1.9"/>
<circle id="connector32pin" class="st39" cx="43.2" cy="137.2" r="1.9"/>
<circle id="connector33pin" class="st39" cx="43.2" cy="130" r="1.9"/>
<circle id="connector34pin" class="st39" cx="43.2" cy="122.8" r="1.9"/>
<circle id="connector35pin" class="st39" cx="43.2" cy="115.6" r="1.9"/>
<circle id="connector36pin" class="st39" cx="43.2" cy="108.4" r="1.9"/>
<circle id="connector37pin" class="st39" cx="43.2" cy="101.2" r="1.9"/>
<circle id="connector38pin" class="st39" cx="43.2" cy="94" r="1.9"/>
<circle id="connector39pin" class="st39" cx="43.2" cy="86.8" r="1.9"/>
<circle id="connector40pin" class="st39" cx="43.2" cy="79.6" r="1.9"/>
<circle id="connector41pin" class="st39" cx="43.2" cy="72.4" r="1.9"/>
<circle id="connector42pin" class="st39" cx="43.2" cy="65.2" r="1.9"/>
<circle id="connector43pin" class="st39" cx="43.2" cy="58" r="1.9"/>
<circle id="connector44pin" class="st39" cx="43.2" cy="50.8" r="1.9"/>
<circle id="connector45pin" class="st39" cx="43.2" cy="43.6" r="1.9"/>
<polygon class="st40" points="62.3,68.8 62.3,68.7 66.7,68.7 66.7,68.8 70,68.8 70,62.5 59,62.5 59,68.8 "/>
<polygon class="st40" points="66.7,61.5 66.7,61.7 62.3,61.7 62.3,61.5 59,61.5 59,67.8 70,67.8 70,61.5 "/>
<circle cx="64.5" cy="65.2" r="2.3"/>
<path class="st41" d="M66.8,65.1c0-1.3-1-2.3-2.3-2.3c-1.3,0-2.3,1-2.3,2.3v0.1c0-1.3,1-2.3,2.3-2.3C65.8,62.9,66.8,63.9,66.8,65.1
	L66.8,65.1z"/>
<circle class="st37" cx="64.5" cy="65.2" r="2.2"/>
<circle class="st42" cx="64.5" cy="65.2" r="2.2"/>
<path class="st41" d="M66.7,65.1c0-1.2-1-2.2-2.2-2.2c-1.2,0-2.2,1-2.2,2.2v0.1c0-1.2,1-2.2,2.2-2.2C65.7,63,66.7,64,66.7,65.1
	L66.7,65.1z"/>
<path class="st43" d="M62.3,65.1c0,1.2,1,2.2,2.2,2.2c1.2,0,2.2-1,2.2-2.2v0.1c0,1.2-1,2.2-2.2,2.2C63.3,67.4,62.3,66.4,62.3,65.1
	L62.3,65.1z"/>
<rect x="59" y="68.7" class="st43" width="3.3" height="0.1"/>
<rect x="66.7" y="68.7" class="st43" width="3.3" height="0.1"/>
<rect x="62.3" y="68.5" class="st43" width="4.4" height="0.1"/>
<rect x="59" y="61.5" class="st41" width="3.3" height="0.1"/>
<rect x="66.7" y="61.5" class="st41" width="3.3" height="0.1"/>
<rect x="62.3" y="61.7" class="st41" width="4.4" height="0.1"/>
<line class="st6" x1="72.5" y1="121.2" x2="72.5" y2="113.9"/>
<line class="st6" x1="80.1" y1="121.2" x2="80.1" y2="113.9"/>
<rect x="55.2" y="84.3" class="st37" width="21.3" height="20.7"/>
<circle class="st3" cx="86.4" cy="43.6" r="1.9"/>
<path class="st43" d="M84.5,43.2c0,1,0.8,1.9,1.9,1.9c1,0,1.9-0.8,1.9-1.9v0.3c0,1-0.8,1.9-1.9,1.9c-1,0-1.9-0.8-1.9-1.9V43.2z"/>
<path class="st44" d="M88.3,43.9c0-1-0.8-1.9-1.9-1.9c-1,0-1.9,0.8-1.9,1.9v-0.3c0-1,0.8-1.9,1.9-1.9c1,0,1.9,0.8,1.9,1.9V43.9z"/>
<rect x="85.6" y="42.8" class="st40" width="1.6" height="1.6"/>
<rect x="85.6" y="44.2" class="st43" width="1.6" height="0.1"/>
<rect x="85.6" y="42.8" class="st45" width="1.6" height="0.1"/>
<circle class="st3" cx="86.4" cy="50.8" r="1.9"/>
<path class="st43" d="M84.5,50.4c0,1,0.8,1.9,1.9,1.9c1,0,1.9-0.8,1.9-1.9v0.3c0,1-0.8,1.9-1.9,1.9c-1,0-1.9-0.8-1.9-1.9V50.4z"/>
<path class="st44" d="M88.3,51.1c0-1-0.8-1.9-1.9-1.9c-1,0-1.9,0.8-1.9,1.9v-0.3c0-1,0.8-1.9,1.9-1.9c1,0,1.9,0.8,1.9,1.9V51.1z"/>
<rect x="85.6" y="50" class="st40" width="1.6" height="1.6"/>
<rect x="85.6" y="51.4" class="st43" width="1.6" height="0.1"/>
<rect x="85.6" y="50" class="st45" width="1.6" height="0.1"/>
<circle class="st3" cx="86.4" cy="58" r="1.9"/>
<path class="st43" d="M84.5,57.6c0,1,0.8,1.9,1.9,1.9c1,0,1.9-0.8,1.9-1.9v0.3c0,1-0.8,1.9-1.9,1.9c-1,0-1.9-0.8-1.9-1.9
	C84.5,58,84.5,57.6,84.5,57.6z"/>
<path class="st44" d="M88.3,58.3c0-1-0.8-1.9-1.9-1.9c-1,0-1.9,0.8-1.9,1.9V58c0-1,0.8-1.9,1.9-1.9c1,0,1.9,0.8,1.9,1.9
	C88.3,58,88.3,58.3,88.3,58.3z"/>
<rect x="85.6" y="57.2" class="st40" width="1.6" height="1.6"/>
<rect x="85.6" y="58.6" class="st43" width="1.6" height="0.1"/>
<rect x="85.6" y="57.2" class="st45" width="1.6" height="0.1"/>
<circle class="st3" cx="86.4" cy="65.2" r="1.9"/>
<path class="st43" d="M84.5,64.8c0,1,0.8,1.9,1.9,1.9c1,0,1.9-0.8,1.9-1.9v0.4c0,1-0.8,1.9-1.9,1.9c-1,0-1.9-0.8-1.9-1.9V64.8z"/>
<path class="st44" d="M88.3,65.5c0-1-0.8-1.9-1.9-1.9c-1,0-1.9,0.8-1.9,1.9v-0.3c0-1,0.8-1.9,1.9-1.9c1,0,1.9,0.8,1.9,1.9V65.5z"/>
<rect x="85.6" y="64.4" class="st40" width="1.6" height="1.6"/>
<rect x="85.6" y="65.8" class="st43" width="1.6" height="0.1"/>
<rect x="85.6" y="64.4" class="st45" width="1.6" height="0.1"/>
<circle class="st3" cx="86.4" cy="72.4" r="1.9"/>
<path class="st43" d="M84.5,72c0,1,0.8,1.9,1.9,1.9c1,0,1.9-0.8,1.9-1.9v0.3c0,1-0.8,1.9-1.9,1.9c-1,0-1.9-0.8-1.9-1.9V72z"/>
<path class="st44" d="M88.3,72.7c0-1-0.8-1.9-1.9-1.9c-1,0-1.9,0.8-1.9,1.9v-0.3c0-1,0.8-1.9,1.9-1.9c1,0,1.9,0.8,1.9,1.9V72.7z"/>
<rect x="85.6" y="71.6" class="st40" width="1.6" height="1.6"/>
<rect x="85.6" y="73" class="st43" width="1.6" height="0.1"/>
<rect x="85.6" y="71.6" class="st45" width="1.6" height="0.1"/>
<circle class="st3" cx="86.4" cy="79.6" r="1.9"/>
<path class="st43" d="M84.5,79.2c0,1,0.8,1.9,1.9,1.9c1,0,1.9-0.8,1.9-1.9v0.3c0,1-0.8,1.9-1.9,1.9c-1,0-1.9-0.8-1.9-1.9V79.2z"/>
<path class="st44" d="M88.3,79.9c0-1-0.8-1.9-1.9-1.9c-1,0-1.9,0.8-1.9,1.9v-0.3c0-1,0.8-1.9,1.9-1.9c1,0,1.9,0.8,1.9,1.9V79.9z"/>
<rect x="85.6" y="78.8" class="st40" width="1.6" height="1.6"/>
<rect x="85.6" y="80.2" class="st43" width="1.6" height="0.1"/>
<rect x="85.6" y="78.8" class="st45" width="1.6" height="0.1"/>
<circle class="st3" cx="86.4" cy="86.8" r="1.9"/>
<path class="st43" d="M84.5,86.4c0,1,0.8,1.9,1.9,1.9c1,0,1.9-0.8,1.9-1.9v0.3c0,1-0.8,1.9-1.9,1.9c-1,0-1.9-0.8-1.9-1.9V86.4z"/>
<path class="st44" d="M88.3,87.1c0-1-0.8-1.9-1.9-1.9c-1,0-1.9,0.8-1.9,1.9v-0.3c0-1,0.8-1.9,1.9-1.9c1,0,1.9,0.8,1.9,1.9
	C88.3,86.8,88.3,87.1,88.3,87.1z"/>
<rect x="85.6" y="86" class="st40" width="1.6" height="1.6"/>
<rect x="85.6" y="87.4" class="st43" width="1.6" height="0.1"/>
<rect x="85.6" y="86" class="st45" width="1.6" height="0.1"/>
<circle class="st3" cx="86.4" cy="94" r="1.9"/>
<path class="st43" d="M84.5,93.6c0,1,0.8,1.9,1.9,1.9c1,0,1.9-0.8,1.9-1.9v0.3c0,1-0.8,1.9-1.9,1.9c-1,0-1.9-0.8-1.9-1.9
	C84.5,94,84.5,93.6,84.5,93.6z"/>
<path class="st44" d="M88.3,94.3c0-1-0.8-1.9-1.9-1.9c-1,0-1.9,0.8-1.9,1.9V94c0-1,0.8-1.9,1.9-1.9c1,0,1.9,0.8,1.9,1.9
	C88.3,94,88.3,94.3,88.3,94.3z"/>
<rect x="85.6" y="93.2" class="st40" width="1.6" height="1.6"/>
<rect x="85.6" y="94.6" class="st43" width="1.6" height="0.1"/>
<rect x="85.6" y="93.2" class="st45" width="1.6" height="0.1"/>
<circle class="st3" cx="86.4" cy="101.2" r="1.9"/>
<path class="st43" d="M84.5,100.8c0,1,0.8,1.9,1.9,1.9c1,0,1.9-0.8,1.9-1.9v0.4c0,1-0.8,1.9-1.9,1.9c-1,0-1.9-0.8-1.9-1.9V100.8z"/>
<path class="st44" d="M88.3,101.5c0-1-0.8-1.9-1.9-1.9c-1,0-1.9,0.8-1.9,1.9v-0.3c0-1,0.8-1.9,1.9-1.9c1,0,1.9,0.8,1.9,1.9V101.5z"
	/>
<rect x="85.6" y="100.4" class="st40" width="1.6" height="1.6"/>
<rect x="85.6" y="101.8" class="st43" width="1.6" height="0.1"/>
<rect x="85.6" y="100.4" class="st45" width="1.6" height="0.1"/>
<circle class="st3" cx="86.4" cy="108.4" r="1.9"/>
<path class="st43" d="M84.5,108c0,1,0.8,1.9,1.9,1.9c1,0,1.9-0.8,1.9-1.9v0.3c0,1-0.8,1.9-1.9,1.9c-1,0-1.9-0.8-1.9-1.9
	C84.5,108.4,84.5,108,84.5,108z"/>
<path class="st44" d="M88.3,108.7c0-1-0.8-1.9-1.9-1.9c-1,0-1.9,0.8-1.9,1.9v-0.3c0-1,0.8-1.9,1.9-1.9c1,0,1.9,0.8,1.9,1.9V108.7z"
	/>
<rect x="85.6" y="107.6" class="st40" width="1.6" height="1.6"/>
<rect x="85.6" y="109" class="st43" width="1.6" height="0.1"/>
<rect x="85.6" y="107.6" class="st45" width="1.6" height="0.1"/>
<circle class="st3" cx="86.4" cy="115.6" r="1.9"/>
<path class="st43" d="M84.5,115.2c0,1,0.8,1.9,1.9,1.9c1,0,1.9-0.8,1.9-1.9v0.3c0,1-0.8,1.9-1.9,1.9c-1,0-1.9-0.8-1.9-1.9V115.2z"/>
<path class="st44" d="M88.3,115.9c0-1-0.8-1.9-1.9-1.9c-1,0-1.9,0.8-1.9,1.9v-0.3c0-1,0.8-1.9,1.9-1.9c1,0,1.9,0.8,1.9,1.9
	C88.3,115.6,88.3,115.9,88.3,115.9z"/>
<rect x="85.6" y="114.8" class="st40" width="1.6" height="1.6"/>
<rect x="85.6" y="116.2" class="st43" width="1.6" height="0.1"/>
<rect x="85.6" y="114.8" class="st45" width="1.6" height="0.1"/>
<circle class="st3" cx="86.4" cy="122.8" r="1.9"/>
<path class="st43" d="M84.5,122.4c0,1,0.8,1.9,1.9,1.9c1,0,1.9-0.8,1.9-1.9v0.3c0,1-0.8,1.9-1.9,1.9c-1,0-1.9-0.8-1.9-1.9
	C84.5,122.8,84.5,122.4,84.5,122.4z"/>
<path class="st44" d="M88.3,123.1c0-1-0.8-1.9-1.9-1.9c-1,0-1.9,0.8-1.9,1.9v-0.3c0-1,0.8-1.9,1.9-1.9c1,0,1.9,0.8,1.9,1.9V123.1z"
	/>
<rect x="85.6" y="122" class="st40" width="1.6" height="1.6"/>
<rect x="85.6" y="123.4" class="st43" width="1.6" height="0.1"/>
<rect x="85.6" y="122" class="st45" width="1.6" height="0.1"/>
<circle class="st3" cx="86.4" cy="130" r="1.9"/>
<path class="st43" d="M84.5,129.6c0,1,0.8,1.9,1.9,1.9c1,0,1.9-0.8,1.9-1.9v0.3c0,1-0.8,1.9-1.9,1.9c-1,0-1.9-0.8-1.9-1.9V129.6z"/>
<path class="st44" d="M88.3,130.3c0-1-0.8-1.9-1.9-1.9c-1,0-1.9,0.8-1.9,1.9V130c0-1,0.8-1.9,1.9-1.9c1,0,1.9,0.8,1.9,1.9
	C88.3,130,88.3,130.3,88.3,130.3z"/>
<rect x="85.6" y="129.2" class="st40" width="1.6" height="1.6"/>
<rect x="85.6" y="130.6" class="st43" width="1.6" height="0.1"/>
<rect x="85.6" y="129.2" class="st45" width="1.6" height="0.1"/>
<circle class="st3" cx="86.4" cy="137.2" r="1.9"/>
<path class="st43" d="M84.5,136.8c0,1,0.8,1.9,1.9,1.9c1,0,1.9-0.8,1.9-1.9v0.3c0,1-0.8,1.9-1.9,1.9c-1,0-1.9-0.8-1.9-1.9V136.8z"/>
<path class="st44" d="M88.3,137.5c0-1-0.8-1.9-1.9-1.9c-1,0-1.9,0.8-1.9,1.9v-0.3c0-1,0.8-1.9,1.9-1.9c1,0,1.9,0.8,1.9,1.9V137.5z"
	/>
<rect x="85.6" y="136.4" class="st40" width="1.6" height="1.6"/>
<rect x="85.6" y="137.8" class="st43" width="1.6" height="0.1"/>
<rect x="85.6" y="136.4" class="st45" width="1.6" height="0.1"/>
<circle class="st3" cx="86.4" cy="144.4" r="1.9"/>
<path class="st43" d="M84.5,144c0,1,0.8,1.9,1.9,1.9c1,0,1.9-0.8,1.9-1.9v0.3c0,1-0.8,1.9-1.9,1.9c-1,0-1.9-0.8-1.9-1.9V144z"/>
<path class="st44" d="M88.3,144.7c0-1-0.8-1.9-1.9-1.9c-1,0-1.9,0.8-1.9,1.9v-0.3c0-1,0.8-1.9,1.9-1.9c1,0,1.9,0.8,1.9,1.9V144.7z"
	/>
<rect x="85.6" y="143.6" class="st40" width="1.6" height="1.6"/>
<rect x="85.6" y="145" class="st43" width="1.6" height="0.1"/>
<rect x="85.6" y="143.6" class="st45" width="1.6" height="0.1"/>
<circle class="st3" cx="43.1" cy="43.6" r="1.9"/>
<path class="st43" d="M41.3,43.3c0,1,0.8,1.9,1.9,1.9c1.1,0,1.9-0.8,1.9-1.9v0.3c0,1-0.8,1.9-1.9,1.9c-1.1,0-1.9-0.8-1.9-1.9
	C41.3,43.6,41.3,43.3,41.3,43.3z"/>
<path class="st44" d="M45,43.9c0-1-0.8-1.9-1.9-1.9s-1.9,0.8-1.9,1.9v-0.3c0-1,0.8-1.9,1.9-1.9s1.9,0.8,1.9,1.9V43.9z"/>
<rect x="42.4" y="42.8" class="st40" width="1.6" height="1.6"/>
<rect x="42.4" y="44.3" class="st43" width="1.6" height="0.1"/>
<rect x="42.4" y="42.8" class="st45" width="1.6" height="0.1"/>
<circle class="st3" cx="43.1" cy="50.8" r="1.9"/>
<path class="st43" d="M41.3,50.5c0,1,0.8,1.9,1.9,1.9c1.1,0,1.9-0.8,1.9-1.9v0.3c0,1-0.8,1.9-1.9,1.9c-1.1,0-1.9-0.8-1.9-1.9
	C41.3,50.8,41.3,50.5,41.3,50.5z"/>
<path class="st44" d="M45,51.1c0-1-0.8-1.9-1.9-1.9s-1.9,0.8-1.9,1.9v-0.3c0-1,0.8-1.9,1.9-1.9s1.9,0.8,1.9,1.9V51.1z"/>
<rect x="42.4" y="50" class="st40" width="1.6" height="1.6"/>
<rect x="42.4" y="51.5" class="st43" width="1.6" height="0.1"/>
<rect x="42.4" y="50" class="st45" width="1.6" height="0.1"/>
<circle class="st3" cx="43.1" cy="58" r="1.9"/>
<path class="st43" d="M41.3,57.7c0,1,0.8,1.9,1.9,1.9c1.1,0,1.9-0.8,1.9-1.9V58c0,1-0.8,1.9-1.9,1.9c-1.1,0-1.9-0.8-1.9-1.9
	C41.3,58,41.3,57.7,41.3,57.7z"/>
<path class="st44" d="M45,58.3c0-1-0.8-1.9-1.9-1.9s-1.9,0.8-1.9,1.9V58c0-1,0.8-1.9,1.9-1.9S45,56.9,45,58V58.3z"/>
<rect x="42.4" y="57.2" class="st40" width="1.6" height="1.6"/>
<rect x="42.4" y="58.7" class="st43" width="1.6" height="0.1"/>
<rect x="42.4" y="57.2" class="st45" width="1.6" height="0.1"/>
<circle class="st3" cx="43.1" cy="65.2" r="1.9"/>
<path class="st43" d="M41.3,64.9c0,1,0.8,1.9,1.9,1.9c1.1,0,1.9-0.8,1.9-1.9v0.3c0,1-0.8,1.9-1.9,1.9c-1.1,0-1.9-0.9-1.9-1.9V64.9z"
	/>
<path class="st44" d="M45,65.5c0-1-0.8-1.9-1.9-1.9s-1.9,0.8-1.9,1.9v-0.3c0-1,0.8-1.9,1.9-1.9s1.9,0.9,1.9,1.9V65.5z"/>
<rect x="42.4" y="64.4" class="st40" width="1.6" height="1.6"/>
<rect x="42.4" y="65.9" class="st43" width="1.6" height="0.1"/>
<rect x="42.4" y="64.4" class="st45" width="1.6" height="0.1"/>
<circle class="st3" cx="43.1" cy="72.4" r="1.9"/>
<path class="st43" d="M41.3,72.1c0,1,0.8,1.9,1.9,1.9c1.1,0,1.9-0.8,1.9-1.9v0.3c0,1-0.8,1.9-1.9,1.9c-1.1,0-1.9-0.8-1.9-1.9
	C41.3,72.4,41.3,72.1,41.3,72.1z"/>
<path class="st44" d="M45,72.7c0-1-0.8-1.9-1.9-1.9s-1.9,0.8-1.9,1.9v-0.3c0-1,0.8-1.9,1.9-1.9s1.9,0.8,1.9,1.9V72.7z"/>
<rect x="42.4" y="71.6" class="st40" width="1.6" height="1.6"/>
<rect x="42.4" y="73.1" class="st43" width="1.6" height="0.1"/>
<rect x="42.4" y="71.6" class="st45" width="1.6" height="0.1"/>
<circle class="st3" cx="43.1" cy="79.6" r="1.9"/>
<path class="st43" d="M41.3,79.3c0,1,0.8,1.9,1.9,1.9c1.1,0,1.9-0.8,1.9-1.9v0.3c0,1-0.8,1.9-1.9,1.9c-1.1,0-1.9-0.8-1.9-1.9
	C41.3,79.6,41.3,79.3,41.3,79.3z"/>
<path class="st44" d="M45,79.9c0-1-0.8-1.9-1.9-1.9s-1.9,0.8-1.9,1.9v-0.3c0-1,0.8-1.9,1.9-1.9s1.9,0.8,1.9,1.9V79.9z"/>
<rect x="42.4" y="78.8" class="st40" width="1.6" height="1.6"/>
<rect x="42.4" y="80.3" class="st43" width="1.6" height="0.1"/>
<rect x="42.4" y="78.8" class="st45" width="1.6" height="0.1"/>
<circle class="st3" cx="43.1" cy="86.8" r="1.9"/>
<path class="st43" d="M41.3,86.5c0,1,0.8,1.9,1.9,1.9c1.1,0,1.9-0.8,1.9-1.9v0.3c0,1-0.8,1.9-1.9,1.9c-1.1,0-1.9-0.8-1.9-1.9
	C41.3,86.8,41.3,86.5,41.3,86.5z"/>
<path class="st44" d="M45,87.1c0-1-0.8-1.9-1.9-1.9s-1.9,0.8-1.9,1.9v-0.3c0-1,0.8-1.9,1.9-1.9s1.9,0.8,1.9,1.9V87.1z"/>
<rect x="42.4" y="86" class="st40" width="1.6" height="1.6"/>
<rect x="42.4" y="87.5" class="st43" width="1.6" height="0.1"/>
<rect x="42.4" y="86" class="st45" width="1.6" height="0.1"/>
<circle class="st3" cx="43.1" cy="94" r="1.9"/>
<path class="st43" d="M41.3,93.7c0,1,0.8,1.9,1.9,1.9c1.1,0,1.9-0.8,1.9-1.9V94c0,1-0.8,1.9-1.9,1.9c-1.1,0-1.9-0.8-1.9-1.9
	C41.3,94,41.3,93.7,41.3,93.7z"/>
<path class="st44" d="M45,94.3c0-1-0.8-1.9-1.9-1.9s-1.9,0.8-1.9,1.9V94c0-1,0.8-1.9,1.9-1.9S45,92.9,45,94V94.3z"/>
<rect x="42.4" y="93.2" class="st40" width="1.6" height="1.6"/>
<rect x="42.4" y="94.7" class="st43" width="1.6" height="0.1"/>
<rect x="42.4" y="93.2" class="st45" width="1.6" height="0.1"/>
<circle class="st3" cx="43.1" cy="101.2" r="1.9"/>
<path class="st43" d="M41.3,100.9c0,1,0.8,1.9,1.9,1.9c1.1,0,1.9-0.8,1.9-1.9v0.3c0,1-0.8,1.9-1.9,1.9c-1.1,0-1.9-0.9-1.9-1.9V100.9
	z"/>
<path class="st44" d="M45,101.5c0-1-0.8-1.9-1.9-1.9s-1.9,0.8-1.9,1.9v-0.3c0-1,0.8-1.9,1.9-1.9s1.9,0.9,1.9,1.9V101.5z"/>
<rect x="42.4" y="100.4" class="st40" width="1.6" height="1.6"/>
<rect x="42.4" y="101.9" class="st43" width="1.6" height="0.1"/>
<rect x="42.4" y="100.4" class="st45" width="1.6" height="0.1"/>
<circle class="st3" cx="43.1" cy="108.4" r="1.9"/>
<path class="st43" d="M41.3,108.1c0,1,0.8,1.9,1.9,1.9c1.1,0,1.9-0.8,1.9-1.9v0.3c0,1-0.8,1.9-1.9,1.9c-1.1,0-1.9-0.8-1.9-1.9
	C41.3,108.4,41.3,108.1,41.3,108.1z"/>
<path class="st44" d="M45,108.7c0-1-0.8-1.9-1.9-1.9s-1.9,0.8-1.9,1.9v-0.3c0-1,0.8-1.9,1.9-1.9s1.9,0.8,1.9,1.9V108.7z"/>
<rect x="42.4" y="107.6" class="st40" width="1.6" height="1.6"/>
<rect x="42.4" y="109.1" class="st43" width="1.6" height="0.1"/>
<rect x="42.4" y="107.6" class="st45" width="1.6" height="0.1"/>
<circle class="st3" cx="43.1" cy="115.6" r="1.9"/>
<path class="st43" d="M41.3,115.3c0,1,0.8,1.9,1.9,1.9c1.1,0,1.9-0.8,1.9-1.9v0.3c0,1-0.8,1.9-1.9,1.9c-1.1,0-1.9-0.8-1.9-1.9
	C41.3,115.6,41.3,115.3,41.3,115.3z"/>
<path class="st44" d="M45,115.9c0-1-0.8-1.9-1.9-1.9s-1.9,0.8-1.9,1.9v-0.3c0-1,0.8-1.9,1.9-1.9s1.9,0.8,1.9,1.9V115.9z"/>
<rect x="42.4" y="114.8" class="st40" width="1.6" height="1.6"/>
<rect x="42.4" y="116.3" class="st43" width="1.6" height="0.1"/>
<rect x="42.4" y="114.8" class="st45" width="1.6" height="0.1"/>
<circle class="st3" cx="43.1" cy="122.8" r="1.9"/>
<path class="st43" d="M41.3,122.5c0,1,0.8,1.9,1.9,1.9c1.1,0,1.9-0.8,1.9-1.9v0.3c0,1-0.8,1.9-1.9,1.9c-1.1,0-1.9-0.8-1.9-1.9
	C41.3,122.8,41.3,122.5,41.3,122.5z"/>
<path class="st44" d="M45,123.1c0-1-0.8-1.9-1.9-1.9s-1.9,0.8-1.9,1.9v-0.3c0-1,0.8-1.9,1.9-1.9s1.9,0.8,1.9,1.9V123.1z"/>
<rect x="42.4" y="122" class="st40" width="1.6" height="1.6"/>
<rect x="42.4" y="123.5" class="st43" width="1.6" height="0.1"/>
<rect x="42.4" y="122" class="st45" width="1.6" height="0.1"/>
<circle class="st3" cx="43.1" cy="130" r="1.9"/>
<path class="st43" d="M41.3,129.7c0,1,0.8,1.9,1.9,1.9c1.1,0,1.9-0.8,1.9-1.9v0.3c0,1-0.8,1.9-1.9,1.9c-1.1,0-1.9-0.8-1.9-1.9
	C41.3,130,41.3,129.7,41.3,129.7z"/>
<path class="st44" d="M45,130.3c0-1-0.8-1.9-1.9-1.9s-1.9,0.8-1.9,1.9V130c0-1,0.8-1.9,1.9-1.9s1.9,0.8,1.9,1.9V130.3z"/>
<rect x="42.4" y="129.2" class="st40" width="1.6" height="1.6"/>
<rect x="42.4" y="130.7" class="st43" width="1.6" height="0.1"/>
<rect x="42.4" y="129.2" class="st45" width="1.6" height="0.1"/>
<circle class="st3" cx="43.1" cy="137.2" r="1.9"/>
<path class="st43" d="M41.3,136.9c0,1,0.8,1.9,1.9,1.9c1.1,0,1.9-0.8,1.9-1.9v0.3c0,1-0.8,1.9-1.9,1.9c-1.1,0-1.9-0.9-1.9-1.9V136.9
	z"/>
<path class="st44" d="M45,137.5c0-1-0.8-1.9-1.9-1.9s-1.9,0.8-1.9,1.9v-0.3c0-1,0.8-1.9,1.9-1.9s1.9,0.8,1.9,1.9V137.5z"/>
<rect x="42.4" y="136.4" class="st40" width="1.6" height="1.6"/>
<rect x="42.4" y="137.9" class="st43" width="1.6" height="0.1"/>
<rect x="42.4" y="136.4" class="st45" width="1.6" height="0.1"/>
<circle class="st3" cx="43.1" cy="144.4" r="1.9"/>
<path class="st43" d="M41.3,144.1c0,1,0.8,1.9,1.9,1.9c1.1,0,1.9-0.8,1.9-1.9v0.3c0,1-0.8,1.9-1.9,1.9c-1.1,0-1.9-0.8-1.9-1.9
	C41.3,144.4,41.3,144.1,41.3,144.1z"/>
<path class="st44" d="M45,144.7c0-1-0.8-1.9-1.9-1.9s-1.9,0.8-1.9,1.9v-0.3c0-1,0.8-1.9,1.9-1.9s1.9,0.8,1.9,1.9V144.7z"/>
<rect x="42.4" y="143.6" class="st40" width="1.6" height="1.6"/>
<rect x="42.4" y="145.1" class="st43" width="1.6" height="0.1"/>
<rect x="42.4" y="143.6" class="st45" width="1.6" height="0.1"/>
<path class="st30" d="M80.1,136.5L80.1,136.5v2c0,0.1-0.1,0.2-0.2,0.3c-0.1,0.1-0.2,0.1-0.3,0l-1.5-1c-0.2-0.1-0.2-0.4,0-0.6
	l1.4-0.9c0.1-0.1,0.2-0.1,0.3-0.1C80,136.2,80.1,136.3,80.1,136.5z"/>
<path class="st30" d="M78,145.3L78,145.3v-2c0-0.1,0.1-0.2,0.2-0.3c0.1-0.1,0.2-0.1,0.3,0l1.5,1c0.2,0.1,0.2,0.4,0,0.6l-1.4,0.9
	c-0.1,0.1-0.1,0.1-0.3,0.1C78.2,145.7,78,145.5,78,145.3z"/>
<polyline class="st46" points="54,28.6 54,28.2 75.7,28.2 75.7,28.6 "/>
<rect x="70.8" y="41.5" class="st47" width="6.1" height="4.6"/>
<rect x="53.1" y="41.5" class="st47" width="6.1" height="4.6"/>
<rect x="51.1" y="33.9" class="st47" width="5.2" height="5.4"/>
<rect x="73.8" y="33.9" class="st47" width="5.2" height="5.4"/>
<rect x="80.5" y="33.7" class="st47" width="2.7" height="2.6"/>
<rect x="80.4" y="38.2" class="st47" width="2.7" height="2.6"/>
<path class="st48" d="M83.1,34.9c0,0.8-0.6,1.4-1.4,1.4s-1.4-0.6-1.4-1.4s0.6-1.4,1.4-1.4S83.1,34.1,83.1,34.9"/>
<path class="st48" d="M83.1,39.2c0,0.8-0.6,1.4-1.4,1.4s-1.4-0.6-1.4-1.4s0.6-1.4,1.4-1.4S83.1,38.5,83.1,39.2"/>
<rect x="80.4" y="34.9" class="st48" width="2.7" height="1.4"/>
<rect x="80.4" y="38" class="st48" width="2.7" height="1.4"/>
<rect x="80.4" y="35.5" class="st49" width="2.7" height="3.4"/>
<path class="st30" d="M82.3,37.1c0,0.3-0.2,0.6-0.6,0.6c-0.4,0-0.6-0.2-0.6-0.6s0.2-0.6,0.6-0.6C82,36.6,82.3,36.8,82.3,37.1"/>
<rect x="47.2" y="38.2" class="st47" width="2.7" height="2.6"/>
<rect x="47.2" y="33.6" class="st47" width="2.7" height="2.6"/>
<path class="st48" d="M49.9,34.9c0,0.8-0.6,1.4-1.4,1.4s-1.4-0.6-1.4-1.4c0-0.8,0.6-1.4,1.4-1.4S49.9,34.1,49.9,34.9"/>
<path class="st48" d="M49.9,39.2c0,0.8-0.6,1.4-1.4,1.4s-1.4-0.6-1.4-1.4c0-0.8,0.6-1.4,1.4-1.4S49.9,38.5,49.9,39.2"/>
<rect x="47.2" y="34.9" class="st48" width="2.7" height="1.4"/>
<rect x="47.2" y="37.9" class="st48" width="2.7" height="1.4"/>
<rect x="47.1" y="35.4" class="st50" width="2.7" height="3.4"/>
<path class="st30" d="M49.1,37.1c0,0.3-0.2,0.6-0.6,0.6c-0.4,0-0.6-0.2-0.6-0.6s0.2-0.6,0.6-0.6S49.1,36.8,49.1,37.1"/>
<path class="st51" d="M55.5,30.5l-1.7-1.7l0.8-0.8l1.7,1.7L55.5,30.5z"/>
<path class="st51" d="M74.4,29.7l1.7-1.7l0.8,0.8l-1.7,1.7L74.4,29.7z"/>
<path class="st52" d="M69.3,46v-3.6c0-0.1-0.1-0.2-0.2-0.2h-1c-0.1,0-0.2,0.1-0.2,0.2V46c0,0.1,0.1,0.2,0.2,0.2h1
	C69.3,46.1,69.3,46.1,69.3,46"/>
<path class="st52" d="M67.5,46v-3.6c0-0.1-0.1-0.2-0.2-0.2h-1c-0.1,0-0.2,0.1-0.2,0.2V46c0,0.1,0.1,0.2,0.2,0.2h1
	C67.4,46.1,67.5,46.1,67.5,46"/>
<path class="st52" d="M65.7,46v-3.6c0-0.1-0.1-0.2-0.2-0.2h-1c-0.1,0-0.2,0.1-0.2,0.2V46c0,0.1,0.1,0.2,0.2,0.2h0.9
	C65.6,46.1,65.7,46.1,65.7,46"/>
<path class="st52" d="M63.8,46v-3.6c0-0.1-0.1-0.2-0.2-0.2h-1c-0.1,0-0.2,0.1-0.2,0.2V46c0,0.1,0.1,0.2,0.2,0.2h1
	C63.8,46.1,63.8,46.1,63.8,46"/>
<path class="st52" d="M62,46v-3.6c0-0.1-0.1-0.2-0.2-0.2h-1c-0.1,0-0.2,0.1-0.2,0.2V46c0,0.1,0.1,0.2,0.2,0.2h0.9
	C61.8,46.1,62,46.1,62,46"/>
<path class="st48" d="M66.9,43.2V44h8.7V29.2h-1l-0.9-0.6H56.8l-0.9,0.6h-1v14.7H63v-0.8c0-0.4,0.3-0.7,0.7-0.7h2.5
	C66.6,42.6,66.9,42.9,66.9,43.2"/>
<path class="st51" d="M70.7,36.8c-0.1,0-0.2-0.1-0.2-0.2V32c0-0.1,0.1-0.2,0.2-0.2H73c0.1,0,0.2,0.1,0.2,0.2v4.6
	c0,0.1-0.1,0.2-0.2,0.2C73,36.8,70.7,36.8,70.7,36.8z"/>
<path class="st51" d="M57.5,36.8c-0.1,0-0.2-0.1-0.2-0.2V32c0-0.1,0.1-0.2,0.2-0.2h2.3c0.1,0,0.2,0.1,0.2,0.2v4.6
	c0,0.1-0.1,0.2-0.2,0.2C59.8,36.8,57.5,36.8,57.5,36.8z"/>
<rect x="62.5" y="49.8" class="st47" width="2.8" height="2.8"/>
<rect x="62.4" y="55.3" class="st47" width="2.8" height="1.7"/>
<rect x="68.9" y="49.8" class="st47" width="2.8" height="1.7"/>
<rect x="69" y="55.2" class="st47" width="2.8" height="1.7"/>
<rect x="53.4" y="53.5" class="st47" width="1.8" height="1.8"/>
<rect x="53.4" y="51" class="st47" width="1.8" height="1.8"/>
<rect x="56.8" y="49.2" class="st47" width="4.1" height="2.7"/>
<rect x="56.7" y="54.8" class="st47" width="4.1" height="2.7"/>
<rect x="74.8" y="53.8" class="st47" width="2.8" height="2.3"/>
<path class="st48" d="M55.2,54.1v-0.9v-0.1v-0.9c0-0.5-0.4-0.9-0.9-0.9s-0.9,0.4-0.9,0.9v1.9c0,0.5,0.4,0.9,0.9,0.9
	C54.7,55,55.2,54.7,55.2,54.1"/>
<rect x="53.3" y="52.5" width="1.9" height="1.4"/>
<rect x="68.9" y="55.4" class="st53" width="1.4" height="1.4"/>
<rect x="68.8" y="49.9" class="st53" width="1.4" height="1.4"/>
<rect x="63.9" y="49.9" class="st53" width="1.4" height="2.5"/>
<rect x="63.8" y="55.4" class="st53" width="1.4" height="1.4"/>
<rect x="65.3" y="49.2" width="3.7" height="8.2"/>
<path class="st54" d="M75.2,54.8H76c0-0.2,0.2-0.3,0.3-0.3s0.3,0.2,0.3,0.3h1.1v-0.9v-3.2v-0.2v-0.6h-1.1c0,0.2-0.2,0.3-0.3,0.3
	S76,50,76,49.9h-1.1v4.9H75.2L75.2,54.8z"/>
<rect x="74.8" y="50.9" width="2.8" height="3.2"/>
<path class="st48" d="M56.7,56c0,0.6,0.4,1,1,1h2.1c0.6,0,1-0.4,1-1v-0.3h-4.2L56.7,56z"/>
<path class="st48" d="M56.7,50.9c0-0.6,0.4-1,1-1h2.1c0.6,0,1,0.4,1,1v0.3h-4.2L56.7,50.9z"/>
<rect x="56.6" y="51.3" class="st54" width="4.2" height="4.4"/>
<rect x="72.9" y="60.9" class="st47" width="4.1" height="2.7"/>
<rect x="72.9" y="66.4" class="st47" width="4.1" height="2.7"/>
<path class="st48" d="M72.8,67.6c0,0.6,0.4,1,1,1h2.1c0.6,0,1-0.4,1-1v-0.3h-4.2L72.8,67.6z"/>
<path class="st48" d="M72.8,62.5c0-0.6,0.4-1,1-1h2.1c0.6,0,1,0.4,1,1v0.3h-4.2L72.8,62.5z"/>
<rect x="72.7" y="63" class="st54" width="4.2" height="4.4"/>
<rect x="51.8" y="50.8" class="st47" width="1.1" height="1.7"/>
<rect x="49.5" y="50.8" class="st47" width="1.1" height="1.7"/>
<path class="st48" d="M50.2,50.8c-0.2,0-0.4,0.2-0.4,0.4v0.9c0,0.2,0.2,0.4,0.4,0.4h0.1L50.2,50.8L50.2,50.8z"/>
<path class="st48" d="M52.2,50.8c0.2,0,0.4,0.2,0.4,0.4v0.9c0,0.2-0.2,0.4-0.4,0.4h-0.1v-1.7H52.2z"/>
<rect x="50.3" y="50.8" class="st54" width="1.8" height="1.7"/>
<rect x="51.8" y="53.6" class="st47" width="1.1" height="1.7"/>
<rect x="49.5" y="53.6" class="st47" width="1.1" height="1.7"/>
<path class="st48" d="M50.1,53.6c-0.2,0-0.4,0.2-0.4,0.4v0.9c0,0.2,0.2,0.4,0.4,0.4h0.1v-1.7H50.1z"/>
<path class="st48" d="M52.2,53.6c0.2,0,0.4,0.2,0.4,0.4v0.9c0,0.2-0.2,0.4-0.4,0.4h-0.1v-1.7H52.2z"/>
<rect x="50.2" y="53.5" class="st54" width="1.8" height="1.7"/>
<rect x="51.5" y="59.7" width="5.6" height="6"/>
<rect x="51" y="76.4" class="st47" width="4.3" height="2.8"/>
<rect x="57.3" y="76.4" class="st47" width="4.3" height="2.8"/>
<rect x="50.1" y="74.7" width="11.9" height="6"/>
<rect x="51.4" y="114.6" class="st48" width="24" height="24"/>
<path class="st40" d="M71.4,136.5H56c-1.3,0-2.4-1.1-2.4-2.4v-15.3c0-1.3,1.1-2.4,2.4-2.4h15.4c1.3,0,2.4,1.1,2.4,2.4v15.4
	C73.8,135.5,72.7,136.5,71.4,136.5z"/>
<g>
	<rect x="51.2" y="139.2" class="st48" width="24.2" height="8.3"/>
	<rect x="53.3" y="141.5" class="st37" width="22" height="3.2"/>
</g>
</svg>
