<?xml version="1.0" encoding="UTF-8" standalone="no"?>
<!DOCTYPE svg PUBLIC "-//W3C//DTD SVG 1.1//EN" "http://www.w3.org/Graphics/SVG/1.1/DTD/svg11.dtd">
<svg width="100%" height="100%" viewBox="0 0 63 97" version="1.1" xmlns="http://www.w3.org/2000/svg" xmlns:xlink="http://www.w3.org/1999/xlink" xml:space="preserve" xmlns:serif="http://www.serif.com/" style="fill-rule:evenodd;clip-rule:evenodd;stroke-linejoin:round;stroke-miterlimit:2;">
    <g id="Artboard1" transform="matrix(1,0,0,1,-14.6447,18.383)">
        <rect x="14.645" y="-18.383" width="62.183" height="96.01" style="fill:none;"/>
        <g id="rect4" transform="matrix(3.81621e-18,-0.0623234,0.0618194,3.78535e-18,17.086,75.1685)">
            <rect x="0.005" y="-0" width="1460" height="940" style="fill:none;stroke:black;stroke-width:16.11px;"/>
        </g>
        <g id="connector4pin" transform="matrix(0.0712372,0,0,0.0712372,-70.2044,-68.3987)">
            <circle cx="1330" cy="820" r="31.496" style="fill:none;stroke:rgb(234,142,0);stroke-width:23.62px;stroke-linejoin:miter;stroke-miterlimit:4;"/>
        </g>
        <g id="connector4pin1" serif:id="connector4pin" transform="matrix(0.0712372,0,0,0.0712372,-70.2044,-61.0853)">
            <circle cx="1330" cy="820" r="31.496" style="fill:none;stroke:rgb(234,142,0);stroke-width:23.62px;stroke-linejoin:miter;stroke-miterlimit:4;"/>
        </g>
        <g id="connector4pin2" serif:id="connector4pin" transform="matrix(0.0712372,0,0,0.0712372,-70.2044,2.35409)">
            <circle cx="1330" cy="820" r="31.496" style="fill:none;stroke:rgb(234,142,0);stroke-width:23.62px;stroke-linejoin:miter;stroke-miterlimit:4;"/>
        </g>
        <g id="connector4pin3" serif:id="connector4pin" transform="matrix(0.0712372,0,0,0.0712372,-70.2044,9.55409)">
            <circle cx="1330" cy="820" r="31.496" style="fill:none;stroke:rgb(234,142,0);stroke-width:23.62px;stroke-linejoin:miter;stroke-miterlimit:4;"/>
        </g>
        <g id="connector4pin4" serif:id="connector4pin" transform="matrix(0.0712372,0,0,0.0712372,-27.0044,9.55409)">
            <circle cx="1330" cy="820" r="31.496" style="fill:none;stroke:rgb(234,142,0);stroke-width:23.62px;stroke-linejoin:miter;stroke-miterlimit:4;"/>
        </g>
        <g id="connector4pin5" serif:id="connector4pin" transform="matrix(0.0712372,0,0,0.0712372,-27.0044,2.35409)">
            <circle cx="1330" cy="820" r="31.496" style="fill:none;stroke:rgb(234,142,0);stroke-width:23.62px;stroke-linejoin:miter;stroke-miterlimit:4;"/>
        </g>
        <g id="connector4pin6" serif:id="connector4pin" transform="matrix(0.0712372,0,0,0.0712372,-27.0044,-46.6368)">
            <circle cx="1330" cy="820" r="31.496" style="fill:none;stroke:rgb(234,142,0);stroke-width:23.62px;stroke-linejoin:miter;stroke-miterlimit:4;"/>
        </g>
        <g id="connector4pin7" serif:id="connector4pin" transform="matrix(0.0712372,0,0,0.0712372,-27.0044,-61.0853)">
            <circle cx="1330" cy="820" r="31.496" style="fill:none;stroke:rgb(234,142,0);stroke-width:23.62px;stroke-linejoin:miter;stroke-miterlimit:4;"/>
        </g>
        <g id="connector4pin8" serif:id="connector4pin" transform="matrix(0.0712372,0,0,0.0712372,-27.0044,-68.3987)">
            <circle cx="1330" cy="820" r="31.496" style="fill:none;stroke:rgb(234,142,0);stroke-width:23.62px;stroke-linejoin:miter;stroke-miterlimit:4;"/>
        </g>
    </g>
</svg>
